<svg xmlns="http://www.w3.org/2000/svg" xmlns:xlink="http://www.w3.org/1999/xlink" width="109.978" height="109.978" viewBox="0 0 109.978 109.978">
  <defs>
    <radialGradient id="radial-gradient" cx="0.076" cy="0.019" r="1.465" gradientTransform="translate(0.001)" gradientUnits="objectBoundingBox">
      <stop offset="0" stop-color="#f6f6f7"/>
      <stop offset="0.477" stop-color="#f9f9fa"/>
      <stop offset="0.715" stop-color="#fff"/>
    </radialGradient>
  </defs>
  <g id="img4" transform="translate(0 0)">
    <g id="Grupo_42274" data-name="Grupo 42274" transform="translate(0 0)">
      <g id="Grupo_18423" data-name="Grupo 18423" transform="translate(0 0)">
        <g id="Grupo_18421" data-name="Grupo 18421">
          <g id="Grupo_18420" data-name="Grupo 18420">
            <g id="Grupo_18419" data-name="Grupo 18419">
              <path id="Trazado_40936" data-name="Trazado 40936" d="M304.6,2200.708a54.989,54.989,0,1,1-54.988-54.988A54.988,54.988,0,0,1,304.6,2200.708Z" transform="translate(-194.623 -2145.721)" fill="#fff"/>
            </g>
          </g>
        </g>
        <path id="Trazado_40937" data-name="Trazado 40937" d="M304.05,2200.108a54.987,54.987,0,1,0-54.988,54.99A54.771,54.771,0,0,0,304.05,2200.108Z" transform="translate(-194.072 -2145.121)" fill="url(#radial-gradient)"/>
        <path id="Trazado_40938" data-name="Trazado 40938" d="M286.162,2195.259a41.973,41.973,0,1,0-41.973,41.972A41.817,41.817,0,0,0,286.162,2195.259Z" transform="translate(-189.034 -2140.088)" fill="none" stroke="#1d272b" stroke-miterlimit="10" stroke-width="2"/>
        <g id="Grupo_18422" data-name="Grupo 18422" transform="translate(9.742 30.872)">
          <path id="Trazado_40939" data-name="Trazado 40939" d="M295.221,2164.488a55,55,0,0,1-94.676,54.761,54.821,54.821,0,0,0,94.676-54.761Z" transform="translate(-200.545 -2164.488)" fill="#eceef0"/>
        </g>
      </g>
    </g>
    <g id="vK4lLE" transform="translate(-4882.544 -3120.818)">
      <g id="Grupo_129659" data-name="Grupo 129659" transform="translate(4911.663 3146.816)">
        <path id="Trazado_166699" data-name="Trazado 166699" d="M4943.9,3146.816c1.789.452,3.575.911,5.365,1.354q5.062,1.252,10.127,2.488a3.946,3.946,0,0,1,2.955,2.739c1.279,3.71,2.556,7.421,3.858,11.122a4.45,4.45,0,0,1-.194,3.551q-7.155,15.083-14.289,30.176a3.781,3.781,0,0,1-4.7,2.292c-1.883-.464-3.766-.924-5.723-1.4-.161.72-.324,1.425-.473,2.132-.506,2.407-1.855,3.531-4.25,3.531q-6.806,0-13.612,0a3.878,3.878,0,0,1-4.085-3.4q-3.535-16.3-7.085-32.6a4.622,4.622,0,0,1,.616-3.662q3.089-4.845,6.135-9.72a4.011,4.011,0,0,1,3.708-2.077c1.646.031,3.293.01,4.94.006a.972.972,0,1,1,.02,1.931c-1.574.015-3.149.058-4.72-.012a2.576,2.576,0,0,0-2.522,1.419c-1.947,3.171-3.946,6.307-5.949,9.441a2.793,2.793,0,0,0-.411,2.243q3.577,16.352,7.123,32.711a2,2,0,0,0,2.176,1.791q6.943,0,13.887,0a1.994,1.994,0,0,0,2.147-1.76c.173-.786.335-1.575.513-2.416-1.064-.266-2.089-.524-3.115-.78q-1.385-.345-2.772-.683a3.893,3.893,0,0,1-3.16-4.089q.118-9.908.256-19.816.048-3.709.09-7.417a3.632,3.632,0,0,1,.042-.619.918.918,0,0,1,.924-.8.928.928,0,0,1,.9.891,4.2,4.2,0,0,1,.008.509q-.174,13.5-.349,27.007a2.133,2.133,0,0,0,1.906,2.509q6.56,1.6,13.114,3.218a2.045,2.045,0,0,0,2.792-1.344q7.1-14.986,14.2-29.97a2.744,2.744,0,0,0,.124-2.227q-1.931-5.47-3.806-10.961a2.272,2.272,0,0,0-1.736-1.61q-7.44-1.81-14.874-3.652a2.194,2.194,0,0,0-2.25.638q-4.08,4.036-8.2,8.033a2.584,2.584,0,0,0-.849,2c.012.858-.328,1.188-1.175,1.19-2.4.006-4.794.01-7.19-.006a.812.812,0,0,0-.793.442c-1.341,2.16-2.715,4.3-4.049,6.463a1.4,1.4,0,0,0-.157.929q2.286,10.653,4.613,21.3.755,3.475,1.511,6.951c.044.2.1.4.162.644.917,0,1.829,0,2.741,0,.732,0,1.162.375,1.148.983-.013.588-.432.941-1.135.944q-1.646.007-3.293,0c-.744,0-1.021-.224-1.183-.972q-2.631-12.08-5.256-24.161c-.42-1.931-.83-3.864-1.266-5.791a1.757,1.757,0,0,1,.239-1.44q2.389-3.729,4.727-7.492a1.374,1.374,0,0,1,1.308-.731c2.232.021,4.464,0,6.7.017.372,0,.49-.115.632-.49a5.412,5.412,0,0,1,1.041-1.882q4.258-4.295,8.632-8.465a9.2,9.2,0,0,1,2.035-1.138Z" transform="translate(-4911.663 -3146.816)" fill="#1d272b"/>
        <path id="Trazado_166700" data-name="Trazado 166700" d="M5031.739,3207.626c2.426.579,4.793,1.135,7.153,1.717.386.1.451-.135.569-.376q3.3-6.759,6.6-13.516,2.412-4.94,4.822-9.88a3.4,3.4,0,0,1,.282-.528.784.784,0,0,1,.965-.315.768.768,0,0,1,.551.9,2.282,2.282,0,0,1-.24.651q-5.873,12.035-11.753,24.068c-.465.953-.622,1.029-1.628.788q-4.083-.974-8.165-1.95c-.7-.167-.882-.39-.874-1.112q.078-6.706.163-13.411c.057-4.554.125-9.107.17-13.661a1.625,1.625,0,0,1,.557-1.269q2.885-2.7,5.731-5.446a1.2,1.2,0,0,1,1.226-.332q5.514,1.323,11.034,2.625a1.227,1.227,0,0,1,.981.874c.4,1.183.842,2.351,1.255,3.53a.872.872,0,0,1-.368,1.165.848.848,0,0,1-1.222-.559c-.366-.983-.725-1.969-1.062-2.962a.694.694,0,0,0-.571-.522q-4.912-1.152-9.816-2.343a.715.715,0,0,0-.751.211c-1.646,1.585-3.314,3.148-4.957,4.736a1.068,1.068,0,0,0-.313.673q-.185,12.885-.338,25.771C5031.737,3207.294,5031.739,3207.442,5031.739,3207.626Z" transform="translate(-5003.024 -3168.831)" fill="#1d272b"/>
        <path id="Trazado_166701" data-name="Trazado 166701" d="M5074.3,3217.457c.136-.561.246-1.047.372-1.527a.869.869,0,0,1,1.074-.709.877.877,0,0,1,.583,1.112c-.108.486-.229.969-.358,1.515.458.114.9.22,1.343.335.628.165.908.547.786,1.062s-.559.736-1.177.6l-1.351-.309c-.271,1.126-.533,2.223-.8,3.319-.132.55-.252,1.1-.4,1.65a.849.849,0,1,1-1.64-.421c.354-1.523.719-3.045,1.078-4.567.026-.111.043-.225.071-.383-.463-.113-.912-.221-1.36-.333a.862.862,0,1,1,.366-1.672C5073.344,3217.221,5073.792,3217.336,5074.3,3217.457Z" transform="translate(-5038.45 -3200.296)" fill="#1d272b"/>
      </g>
    </g>
  </g>
</svg>
