<svg xmlns="http://www.w3.org/2000/svg" xmlns:xlink="http://www.w3.org/1999/xlink" width="415.849" height="393.015" viewBox="0 0 415.849 393.015">
  <defs>
    <clipPath id="clip-path">
      <rect id="Rectángulo_35656" data-name="Rectángulo 35656" width="374.101" height="345.324" transform="translate(0 0)" fill="#fff" stroke="#707070" stroke-width="1"/>
    </clipPath>
    <linearGradient id="linear-gradient" x1="0.5" x2="0.5" y2="1" gradientUnits="objectBoundingBox">
      <stop offset="0" stop-color="#f5f5f5"/>
      <stop offset="0.25" stop-color="#f5f5f5"/>
      <stop offset="1" stop-color="#a7b3cf"/>
    </linearGradient>
    <clipPath id="clip-path-2">
      <rect id="Rectángulo_35608" data-name="Rectángulo 35608" width="8.972" height="3.456" fill="none"/>
    </clipPath>
    <linearGradient id="linear-gradient-5" x1="0.5" x2="0.5" y2="1" gradientUnits="objectBoundingBox">
      <stop offset="0" stop-color="#f5f5f5"/>
      <stop offset="0.25" stop-color="#f5f5f5"/>
      <stop offset="1" stop-color="#eeeef2"/>
    </linearGradient>
  </defs>
  <g id="img5" transform="translate(-1058.875 -3717.409)">
    <g id="Grupo_128802" data-name="Grupo 128802" transform="translate(1058.875 3717.409)">
      <path id="Trazado_151846" data-name="Trazado 151846" d="M441.922,470.732A102.419,102.419,0,0,0,453.8,387.057c-5.269-17.6-15.379-33.959-16.672-52.317-2.586-36.7,30-66.377,36.766-102.525,2.972-15.887-.27-34.4-13.008-44.045-12.582-9.531-30.539-7.585-44.782-.91s-26.3,17.361-39.972,25.173-30.515,12.641-44.957,6.424c-14.628-6.3-22.926-22.172-27.574-37.643s-6.929-31.95-14.862-45.966c-13.073-23.1-40.949-35.7-66.925-32.437s-49.185,21.113-61.634,44.57-14.625,51.827-8.428,77.734c3.144,13.14,8.322,25.723,11.146,38.938s3.082,27.68-3.222,39.583C146.5,328.526,111.719,332,93.506,353.343c-15.031,17.618-15.5,44.5-6.973,66.169s24.562,39.245,40.546,55.969c74.554,2.553,150.444,2.723,225,5.276C381.053,481.75,412.981,472.468,441.922,470.732Z" transform="translate(-80.961 -95.519)" fill="#a4a4b4" opacity="0.354" style="mix-blend-mode: multiply;isolation: isolate"/>
      <path id="Trazado_151847" data-name="Trazado 151847" d="M359.21,184.186c-.191,20.464,19.262,38.275,15.877,58.458-1.81,10.8-10.039,21.746-5.256,31.6,4.23,8.716,16.348,10.227,25.613,7.393,21.687-6.635,34.869-28.8,41.174-50.589,5.93-20.492,7.4-43.382-2.095-62.485-7.652-15.391-25.308-28.979-43.236-27.722C374.865,141.987,359.354,168.771,359.21,184.186Z" transform="translate(-25.508 -71.389)" fill="#a4a4b4" opacity="0.31" style="mix-blend-mode: multiply;isolation: isolate"/>
      <path id="Trazado_151848" data-name="Trazado 151848" d="M120.993,161.717c-18.451,30.784-19.283,71.357-2.109,102.871,5.427,9.958,12.757,19.237,22.653,24.774s22.664,6.772,32.514,1.154c14.939-8.522,18.243-28.621,17.054-45.779s-5.076-35.145,1.531-51.023c4.308-10.35,12.578-18.42,19.915-26.9s14.185-18.369,14.564-29.574c.983-29.045-29.853-26.875-48.437-20.843C154.954,124.1,133.857,140.256,120.993,161.717Z" transform="translate(-68.511 -90.48)" fill="#a4a4b4" opacity="0.31" style="mix-blend-mode: multiply;isolation: isolate"/>
      <g id="Grupo_107069" data-name="Grupo 107069" transform="translate(10.323 0)" style="mix-blend-mode: multiply;isolation: isolate">
        <path id="Trazado_151849" data-name="Trazado 151849" d="M434.151,476.757l-1.591-1.491c4.378-4.913,11.366-16.176,9-36.425-1.053-9.014-3.663-17.918-6.187-26.529-1.127-3.847-2.293-7.825-3.311-11.775a187.339,187.339,0,0,1,13.028-127.559c1.7-3.454,3.539-6.919,5.318-10.27,5.274-9.934,10.727-20.208,13.072-31.3,4.113-19.474-4.017-34.07-13.311-39.39-8.916-5.107-21.5-4.326-34.53,2.142-4.766,2.365-9.4,5.259-13.877,8.057-5.92,3.7-12.04,7.522-18.612,10.229-25.857,10.652-58.185,1.6-75.2-21.054-8.176-10.886-12.792-24.044-17.256-36.768-1.729-4.93-3.518-10.03-5.485-14.908C279.1,124.542,267.9,105.5,249.3,100.949c-16.344-4-32.9,4.8-43.9,12.881-21.058,15.471-35.9,36.424-41.8,59-3.975,15.222-4.135,31.79-4.291,47.813-.23,23.861-.469,48.534-13.592,68.405-5.97,9.039-14.181,16.252-22.12,23.227-7.437,6.532-15.126,13.287-20.859,21.475C89.746,352.3,86.562,378.564,94,405.809c6.684,24.479,20.307,46.2,33.482,67.2l-1.811,1.2c-13.261-21.142-26.974-43-33.745-67.8-7.616-27.9-4.313-54.849,9.06-73.949,5.884-8.4,13.674-15.247,21.206-21.865,7.833-6.88,15.932-14,21.738-22.787,12.758-19.319,12.983-42.57,13.22-67.186.156-16.161.317-32.871,4.366-48.365,6.025-23.066,21.163-44.452,42.624-60.222C215.512,103.678,232.662,94.6,249.8,98.8c19.485,4.771,31.1,24.422,37.405,40.067,1.987,4.927,3.785,10.051,5.522,15.005,4.408,12.563,8.964,25.555,16.934,36.166,16.444,21.9,47.694,30.649,72.69,20.352,6.405-2.639,12.449-6.414,18.3-10.065,4.522-2.826,9.2-5.748,14.057-8.16,13.667-6.784,26.977-7.547,36.517-2.083,9.966,5.706,18.713,21.217,14.367,41.79-2.411,11.408-7.939,21.823-13.287,31.9-1.771,3.336-3.6,6.785-5.286,10.207a185.037,185.037,0,0,0-12.868,126c1.007,3.914,2.169,7.874,3.291,11.7,2.55,8.7,5.188,17.7,6.265,26.9C446.167,459.7,438.776,471.567,434.151,476.757Z" transform="translate(-87.906 -97.739)" fill="#a4a4b4"/>
      </g>
    </g>
    <g id="Enmascarar_grupo_188" data-name="Enmascarar grupo 188" transform="translate(1086.795 3765.1)" clip-path="url(#clip-path)">
      <g id="Grupo_128824" data-name="Grupo 128824" transform="translate(7.002 -81.219)">
        <g id="Grupo_128812" data-name="Grupo 128812" transform="translate(0 169.309)">
          <rect id="Rectángulo_35578" data-name="Rectángulo 35578" width="329.21" height="238.677" transform="translate(7.087 3.429)" fill="#e8f3fc"/>
          <rect id="Rectángulo_35579" data-name="Rectángulo 35579" width="329.21" height="9.145" transform="translate(7.087 208.271)" fill="#050505" opacity="0.16"/>
          <g id="Grupo_128803" data-name="Grupo 128803" transform="translate(226.131 20.576)">
            <rect id="Rectángulo_35580" data-name="Rectángulo 35580" width="96.705" height="51.439" transform="translate(0.686 0.685)" fill="#a7c1ce"/>
            <path id="Trazado_165763" data-name="Trazado 165763" d="M320.745,375.978H224.04a.686.686,0,0,1-.686-.686V323.853a.685.685,0,0,1,.686-.686h96.705a.685.685,0,0,1,.686.686v51.439A.686.686,0,0,1,320.745,375.978Zm-96.019-1.372h95.334V324.539H224.726Z" transform="translate(-223.354 -323.167)" fill="#7d888c"/>
          </g>
          <g id="Grupo_128804" data-name="Grupo 128804" transform="translate(226.131 80.473)">
            <rect id="Rectángulo_35581" data-name="Rectángulo 35581" width="96.705" height="51.439" transform="translate(0.686 0.686)" fill="#a7c1ce"/>
            <path id="Trazado_165764" data-name="Trazado 165764" d="M320.745,419.644H224.04a.686.686,0,0,1-.686-.686V367.519a.686.686,0,0,1,.686-.686h96.705a.686.686,0,0,1,.686.686v51.439A.686.686,0,0,1,320.745,419.644Zm-96.019-1.372h95.334V368.2H224.726Z" transform="translate(-223.354 -366.833)" fill="#7d888c"/>
          </g>
          <g id="Grupo_128805" data-name="Grupo 128805" transform="translate(226.131 141.743)">
            <rect id="Rectángulo_35582" data-name="Rectángulo 35582" width="96.705" height="51.439" transform="translate(0.686 0.686)" fill="#a7c1ce"/>
            <path id="Trazado_165765" data-name="Trazado 165765" d="M320.745,464.311H224.04a.686.686,0,0,1-.686-.686V412.186a.686.686,0,0,1,.686-.686h96.705a.686.686,0,0,1,.686.686v51.439A.686.686,0,0,1,320.745,464.311Zm-96.019-1.372h95.334V412.872H224.726Z" transform="translate(-223.354 -411.5)" fill="#7d888c"/>
          </g>
          <g id="Grupo_128806" data-name="Grupo 128806" transform="translate(122.768 20.576)">
            <rect id="Rectángulo_35583" data-name="Rectángulo 35583" width="96.705" height="51.439" transform="translate(0.686 0.685)" fill="#a7c1ce"/>
            <path id="Trazado_165766" data-name="Trazado 165766" d="M245.391,375.978H148.686a.686.686,0,0,1-.686-.686V323.853a.685.685,0,0,1,.686-.686h96.705a.685.685,0,0,1,.686.686v51.439A.686.686,0,0,1,245.391,375.978Zm-96.019-1.372h95.334V324.539H149.372Z" transform="translate(-148 -323.167)" fill="#7d888c"/>
          </g>
          <g id="Grupo_128807" data-name="Grupo 128807" transform="translate(122.768 80.473)">
            <rect id="Rectángulo_35584" data-name="Rectángulo 35584" width="96.705" height="51.439" transform="translate(0.686 0.686)" fill="#a7c1ce"/>
            <path id="Trazado_165767" data-name="Trazado 165767" d="M245.391,419.644H148.686a.686.686,0,0,1-.686-.686V367.519a.686.686,0,0,1,.686-.686h96.705a.686.686,0,0,1,.686.686v51.439A.686.686,0,0,1,245.391,419.644Zm-96.019-1.372h95.334V368.2H149.372Z" transform="translate(-148 -366.833)" fill="#7d888c"/>
          </g>
          <rect id="Rectángulo_35585" data-name="Rectángulo 35585" width="96.705" height="51.439" transform="translate(123.454 142.429)" fill="#475054"/>
          <g id="Grupo_128808" data-name="Grupo 128808" transform="translate(17.604 20.576)">
            <rect id="Rectángulo_35586" data-name="Rectángulo 35586" width="96.705" height="51.439" transform="translate(0.685 0.685)" fill="#a7c1ce"/>
            <path id="Trazado_165768" data-name="Trazado 165768" d="M168.725,375.978H72.02a.685.685,0,0,1-.686-.686V323.853a.684.684,0,0,1,.686-.686h96.705a.685.685,0,0,1,.686.686v51.439A.686.686,0,0,1,168.725,375.978Zm-96.02-1.372h95.334V324.539H72.706Z" transform="translate(-71.334 -323.167)" fill="#7d888c"/>
          </g>
          <g id="Grupo_128809" data-name="Grupo 128809" transform="translate(17.604 80.473)">
            <rect id="Rectángulo_35587" data-name="Rectángulo 35587" width="96.705" height="51.439" transform="translate(0.685 0.686)" fill="#a7c1ce"/>
            <path id="Trazado_165769" data-name="Trazado 165769" d="M168.725,419.644H72.02a.685.685,0,0,1-.686-.686V367.519a.685.685,0,0,1,.686-.686h96.705a.686.686,0,0,1,.686.686v51.439A.686.686,0,0,1,168.725,419.644Zm-96.02-1.372h95.334V368.2H72.706Z" transform="translate(-71.334 -366.833)" fill="#7d888c"/>
          </g>
          <g id="Grupo_128810" data-name="Grupo 128810" transform="translate(17.604 141.743)">
            <rect id="Rectángulo_35588" data-name="Rectángulo 35588" width="96.705" height="51.439" transform="translate(0.685 0.686)" fill="#a7c1ce"/>
            <path id="Trazado_165770" data-name="Trazado 165770" d="M168.725,464.311H72.02a.685.685,0,0,1-.686-.686V412.186a.685.685,0,0,1,.686-.686h96.705a.686.686,0,0,1,.686.686v51.439A.686.686,0,0,1,168.725,464.311Zm-96.02-1.372h95.334V412.872H72.706Z" transform="translate(-71.334 -411.5)" fill="#7d888c"/>
          </g>
          <path id="Trazado_165771" data-name="Trazado 165771" d="M280.708,329.667H247.444a1.72,1.72,0,0,0-1.715,1.715h0a1.72,1.72,0,0,0,1.715,1.715h33.264a1.72,1.72,0,0,0,1.715-1.715h0A1.719,1.719,0,0,0,280.708,329.667Z" transform="translate(11.094 -300.175)" fill="#e8f3fc"/>
          <path id="Trazado_165772" data-name="Trazado 165772" d="M280.708,373.167H247.444a1.72,1.72,0,0,0-1.715,1.715h0a1.721,1.721,0,0,0,1.715,1.715h33.264a1.72,1.72,0,0,0,1.715-1.715h0A1.719,1.719,0,0,0,280.708,373.167Z" transform="translate(11.094 -284.006)" fill="#e8f3fc"/>
          <path id="Trazado_165773" data-name="Trazado 165773" d="M280.708,416.417H247.444a1.72,1.72,0,0,0-1.715,1.715h0a1.721,1.721,0,0,0,1.715,1.715h33.264a1.72,1.72,0,0,0,1.715-1.715h0A1.719,1.719,0,0,0,280.708,416.417Z" transform="translate(11.094 -267.929)" fill="#e8f3fc"/>
          <path id="Trazado_165774" data-name="Trazado 165774" d="M126.708,329.667H93.444a1.72,1.72,0,0,0-1.715,1.715h0a1.72,1.72,0,0,0,1.715,1.715h33.264a1.72,1.72,0,0,0,1.715-1.715h0A1.719,1.719,0,0,0,126.708,329.667Z" transform="translate(-46.149 -300.175)" fill="#e8f3fc"/>
          <path id="Trazado_165775" data-name="Trazado 165775" d="M126.708,373.167H93.444a1.72,1.72,0,0,0-1.715,1.715h0a1.721,1.721,0,0,0,1.715,1.715h33.264a1.72,1.72,0,0,0,1.715-1.715h0A1.719,1.719,0,0,0,126.708,373.167Z" transform="translate(-46.149 -284.006)" fill="#e8f3fc"/>
          <path id="Trazado_165776" data-name="Trazado 165776" d="M204.708,329.667H171.444a1.72,1.72,0,0,0-1.715,1.715h0a1.721,1.721,0,0,0,1.715,1.715h33.264a1.72,1.72,0,0,0,1.715-1.715h0A1.719,1.719,0,0,0,204.708,329.667Z" transform="translate(-17.156 -300.175)" fill="#e8f3fc"/>
          <path id="Trazado_165777" data-name="Trazado 165777" d="M204.708,373.167H171.444a1.72,1.72,0,0,0-1.715,1.715h0a1.721,1.721,0,0,0,1.715,1.715h33.264a1.72,1.72,0,0,0,1.715-1.715h0A1.719,1.719,0,0,0,204.708,373.167Z" transform="translate(-17.156 -284.006)" fill="#e8f3fc"/>
          <path id="Trazado_165778" data-name="Trazado 165778" d="M126.708,416.417H93.444a1.72,1.72,0,0,0-1.715,1.715h0a1.721,1.721,0,0,0,1.715,1.715h33.264a1.72,1.72,0,0,0,1.715-1.715h0A1.719,1.719,0,0,0,126.708,416.417Z" transform="translate(-46.149 -267.929)" fill="#e8f3fc"/>
          <rect id="Rectángulo_35589" data-name="Rectángulo 35589" width="99.792" height="7.201" transform="translate(122.082 187.009)" fill="#a7c1ce"/>
          <path id="Trazado_165779" data-name="Trazado 165779" d="M150,449.3h92.361s-6.4-6.858-18.746-10.974-12.345-7.772-25.149-7.315S166.46,438.326,150,449.3Z" transform="translate(-24.489 -262.519)" fill="#fff"/>
          <path id="Trazado_165780" data-name="Trazado 165780" d="M166.625,446.95s8.66-.944,15.089-4.63,5.315-5.4,13.975-5.059,17.146,9.688,17.146,9.688Z" transform="translate(-18.309 -260.197)" fill="#6d6d6d"/>
          <path id="Trazado_165781" data-name="Trazado 165781" d="M197.133,432.052a.675.675,0,0,0-.721.033,1.632,1.632,0,0,0-.49.579c-.073.128-.132.262-.195.395a3.866,3.866,0,0,0-.274-.354,6.86,6.86,0,0,0,.731-1.307,1.308,1.308,0,0,0,.053-1.159.916.916,0,0,0-.529-.372.888.888,0,0,0-.966.272,1.34,1.34,0,0,0-.167.424l-.325,1.217c-.092-.049-.187-.095-.281-.139a9.322,9.322,0,0,0,.35-1.455,1.487,1.487,0,0,0-.025-.749.814.814,0,0,0-1.512-.034,1.626,1.626,0,0,0-.1.479c-.044.428-.086.856-.13,1.284-.152-.034-.306-.062-.46-.086a.755.755,0,0,0,.023-.073,8.935,8.935,0,0,0,.092-1.34,1.722,1.722,0,0,0-.047-.453.866.866,0,0,0-.412-.535.72.72,0,0,0-.667-.011.876.876,0,0,0-.407.609,2.651,2.651,0,0,0,0,.752q.045.473.088.946c-.187,0-.372.019-.556.041a5.955,5.955,0,0,1-.151-1.206,4.066,4.066,0,0,0-.1-1.178,1.51,1.51,0,0,0-2.539-.568,2.054,2.054,0,0,0-.4,1.82,6.05,6.05,0,0,0,.8,1.756c.082.141.166.283.25.424a3.743,3.743,0,0,0-.62,2.927c.147,1.023.52,2,.717,3.016a8.937,8.937,0,0,1-.35,4.665c-.539,1.516-1.5,2.931-1.551,4.538a3.9,3.9,0,0,0,1.774,3.417,3.38,3.38,0,0,0,3.782-.178,5.9,5.9,0,0,0,1.6-2.616,56.93,56.93,0,0,0,2.781-9.916,9.912,9.912,0,0,0,.195-3.075,2.245,2.245,0,0,1,.261-.546c.145-.215.328-.406.466-.627a1.9,1.9,0,0,0,.281-.87A.813.813,0,0,0,197.133,432.052Z" transform="translate(-11.012 -263.777)" fill="#e6b89c"/>
          <path id="Trazado_165782" data-name="Trazado 165782" d="M176.833,432.052a.675.675,0,0,1,.722.033,1.632,1.632,0,0,1,.49.579c.073.128.132.262.195.395a3.868,3.868,0,0,1,.274-.354,6.865,6.865,0,0,1-.731-1.307,1.308,1.308,0,0,1-.053-1.159.917.917,0,0,1,.529-.372.888.888,0,0,1,.966.272,1.342,1.342,0,0,1,.167.424l.325,1.217c.092-.049.187-.095.281-.139a9.322,9.322,0,0,1-.35-1.455,1.486,1.486,0,0,1,.025-.749.814.814,0,0,1,1.512-.034,1.67,1.67,0,0,1,.1.479c.044.428.086.856.13,1.284.152-.034.306-.062.46-.086a.759.759,0,0,1-.023-.073,8.935,8.935,0,0,1-.092-1.34,1.722,1.722,0,0,1,.047-.453.866.866,0,0,1,.412-.535.72.72,0,0,1,.667-.011.874.874,0,0,1,.406.609,2.556,2.556,0,0,1,0,.752l-.086.946c.187,0,.372.019.556.041a5.956,5.956,0,0,0,.151-1.206,4.067,4.067,0,0,1,.1-1.178,1.509,1.509,0,0,1,2.538-.568,2.051,2.051,0,0,1,.4,1.82,6.047,6.047,0,0,1-.8,1.756l-.25.424a3.743,3.743,0,0,1,.62,2.927c-.147,1.023-.521,2-.717,3.016a8.937,8.937,0,0,0,.35,4.665c.538,1.516,1.5,2.931,1.551,4.538a3.9,3.9,0,0,1-1.774,3.417,3.38,3.38,0,0,1-3.782-.178,5.889,5.889,0,0,1-1.6-2.616,56.923,56.923,0,0,1-2.78-9.916,9.911,9.911,0,0,1-.195-3.075,2.245,2.245,0,0,0-.261-.546c-.145-.215-.328-.406-.466-.627a1.9,1.9,0,0,1-.283-.87A.817.817,0,0,1,176.833,432.052Z" transform="translate(-14.618 -263.777)" fill="#e6b89c"/>
          <path id="Trazado_165783" data-name="Trazado 165783" d="M189.424,434.232a.127.127,0,0,1-.1-.044,13.767,13.767,0,0,1-1.925-2.87.128.128,0,0,1,.236-.1,12.753,12.753,0,0,0,1.727,2.617,11.857,11.857,0,0,0,.443-3.8.127.127,0,0,1,.114-.14.121.121,0,0,1,.14.114,11.957,11.957,0,0,1-.516,4.132.127.127,0,0,1-.1.089Z" transform="translate(-10.589 -262.921)" fill="#050505"/>
          <path id="Trazado_165784" data-name="Trazado 165784" d="M190.371,434.327l-1.279-1.706L188,434.327v4.116h2.367Z" transform="translate(-10.363 -261.906)" fill="#d93328"/>
          <path id="Trazado_165785" data-name="Trazado 165785" d="M188.38,433.9h0a.1.1,0,0,0-.1.1v3.433a.1.1,0,0,0,.1.1h0a.1.1,0,0,0,.1-.1v-3.433A.1.1,0,0,0,188.38,433.9Z" transform="translate(-10.259 -261.432)" opacity="0.24" fill="url(#linear-gradient)"/>
          <path id="Trazado_165786" data-name="Trazado 165786" d="M188.737,433.9h0a.1.1,0,0,0-.1.1v3.433a.1.1,0,0,0,.1.1h0a.1.1,0,0,0,.1-.1v-3.433A.1.1,0,0,0,188.737,433.9Z" transform="translate(-10.126 -261.432)" opacity="0.24" fill="url(#linear-gradient)"/>
          <path id="Trazado_165787" data-name="Trazado 165787" d="M189.079,433.9h0a.1.1,0,0,0-.1.1v3.433a.1.1,0,0,0,.1.1h0a.1.1,0,0,0,.1-.1v-3.433A.1.1,0,0,0,189.079,433.9Z" transform="translate(-9.999 -261.432)" opacity="0.24" fill="url(#linear-gradient)"/>
          <g id="Grupo_128811" data-name="Grupo 128811" transform="translate(326.857 78.44)">
            <path id="Trazado_165788" data-name="Trazado 165788" d="M296.785,412.27a3.694,3.694,0,0,0,4.59,3.58,3.644,3.644,0,0,0,2.664-2.619,3.681,3.681,0,0,0-2.3-4.411V365.351h-2.534V408.82A3.678,3.678,0,0,0,296.785,412.27Z" transform="translate(-296.785 -365.351)" fill="#bacff4"/>
            <path id="Trazado_165789" data-name="Trazado 165789" d="M297.915,400.11a2.13,2.13,0,1,0,2.13-2.13A2.129,2.129,0,0,0,297.915,400.11Z" transform="translate(-296.365 -353.223)" fill="#d93328"/>
            <rect id="Rectángulo_35590" data-name="Rectángulo 35590" width="0.954" height="44.234" rx="0.216" transform="translate(4.157 45.202) rotate(180)" fill="#d93328"/>
            <ellipse id="Elipse_4451" data-name="Elipse 4451" cx="1.462" cy="1.462" rx="1.462" ry="1.462" transform="translate(3.616 46.315)" fill="#fff" opacity="0.47"/>
          </g>
          <rect id="Rectángulo_35591" data-name="Rectángulo 35591" width="343.956" height="5.487" transform="translate(0 206.213)" fill="#fff"/>
          <rect id="Rectángulo_35592" data-name="Rectángulo 35592" width="329.21" height="9.145" transform="translate(7.087 2.058)" fill="#050505" opacity="0.16"/>
          <rect id="Rectángulo_35593" data-name="Rectángulo 35593" width="343.956" height="5.487" fill="#fff"/>
          <path id="Trazado_165790" data-name="Trazado 165790" d="M290.7,465.167h0a1.2,1.2,0,0,0-1.2,1.2v20.69a1.2,1.2,0,0,0,1.2,1.2h0a1.2,1.2,0,0,0,1.2-1.2v-20.69A1.2,1.2,0,0,0,290.7,465.167Z" transform="translate(27.364 -249.809)" fill="#050505" opacity="0.53"/>
          <path id="Trazado_165791" data-name="Trazado 165791" d="M287.783,465.167h0a1.2,1.2,0,0,0-1.2,1.2v20.69a1.2,1.2,0,0,0,1.2,1.2h0a1.2,1.2,0,0,0,1.2-1.2v-20.69A1.2,1.2,0,0,0,287.783,465.167Z" transform="translate(26.28 -249.809)" fill="#050505" opacity="0.53"/>
          <path id="Trazado_165792" data-name="Trazado 165792" d="M284.95,465.167h0a1.2,1.2,0,0,0-1.2,1.2v20.69a1.2,1.2,0,0,0,1.2,1.2h0a1.2,1.2,0,0,0,1.2-1.2v-20.69A1.2,1.2,0,0,0,284.95,465.167Z" transform="translate(25.227 -249.809)" fill="#050505" opacity="0.53"/>
          <path id="Trazado_165793" data-name="Trazado 165793" d="M230.7,465.167h0a1.2,1.2,0,0,0-1.2,1.2v20.69a1.2,1.2,0,0,0,1.2,1.2h0a1.2,1.2,0,0,0,1.2-1.2v-20.69A1.2,1.2,0,0,0,230.7,465.167Z" transform="translate(5.062 -249.809)" fill="#050505" opacity="0.53"/>
          <path id="Trazado_165794" data-name="Trazado 165794" d="M227.783,465.167h0a1.2,1.2,0,0,0-1.2,1.2v20.69a1.2,1.2,0,0,0,1.2,1.2h0a1.2,1.2,0,0,0,1.2-1.2v-20.69A1.2,1.2,0,0,0,227.783,465.167Z" transform="translate(3.977 -249.809)" fill="#050505" opacity="0.53"/>
          <path id="Trazado_165795" data-name="Trazado 165795" d="M224.95,465.167h0a1.2,1.2,0,0,0-1.2,1.2v20.69a1.2,1.2,0,0,0,1.2,1.2h0a1.2,1.2,0,0,0,1.2-1.2v-20.69A1.2,1.2,0,0,0,224.95,465.167Z" transform="translate(2.924 -249.809)" fill="#050505" opacity="0.53"/>
          <path id="Trazado_165796" data-name="Trazado 165796" d="M142.033,465.167h0a1.2,1.2,0,0,0-1.2,1.2v20.69a1.2,1.2,0,0,0,1.2,1.2h0a1.2,1.2,0,0,0,1.2-1.2v-20.69A1.2,1.2,0,0,0,142.033,465.167Z" transform="translate(-27.896 -249.809)" fill="#050505" opacity="0.53"/>
          <path id="Trazado_165797" data-name="Trazado 165797" d="M139.117,465.167h0a1.2,1.2,0,0,0-1.2,1.2v20.69a1.2,1.2,0,0,0,1.2,1.2h0a1.2,1.2,0,0,0,1.2-1.2v-20.69A1.2,1.2,0,0,0,139.117,465.167Z" transform="translate(-28.98 -249.809)" fill="#050505" opacity="0.53"/>
          <path id="Trazado_165798" data-name="Trazado 165798" d="M136.283,465.167h0a1.2,1.2,0,0,0-1.2,1.2v20.69a1.2,1.2,0,0,0,1.2,1.2h0a1.2,1.2,0,0,0,1.2-1.2v-20.69A1.2,1.2,0,0,0,136.283,465.167Z" transform="translate(-30.034 -249.809)" fill="#050505" opacity="0.53"/>
          <rect id="Rectángulo_35594" data-name="Rectángulo 35594" width="2.4" height="23.09" rx="0.875" transform="translate(26.977 215.358)" fill="#050505" opacity="0.53"/>
          <path id="Trazado_165799" data-name="Trazado 165799" d="M76.45,465.167h0a1.2,1.2,0,0,0-1.2,1.2v20.69a1.2,1.2,0,0,0,1.2,1.2h0a1.2,1.2,0,0,0,1.2-1.2v-20.69A1.2,1.2,0,0,0,76.45,465.167Z" transform="translate(-52.274 -249.809)" fill="#050505" opacity="0.53"/>
          <path id="Trazado_165800" data-name="Trazado 165800" d="M73.617,465.167h0a1.2,1.2,0,0,0-1.2,1.2v20.69a1.2,1.2,0,0,0,1.2,1.2h0a1.2,1.2,0,0,0,1.2-1.2v-20.69A1.2,1.2,0,0,0,73.617,465.167Z" transform="translate(-53.327 -249.809)" fill="#050505" opacity="0.53"/>
        </g>
        <g id="Grupo_128820" data-name="Grupo 128820" transform="translate(3.581 313.474)">
          <path id="Trazado_165801" data-name="Trazado 165801" d="M363.355,467.706c-4.378,0-6.6-2.612-6.6-7.762V427.991h1.036v31.953c0,4.59,1.768,6.727,5.562,6.727,4.385,0,5.045-.964,5.045-7.373,0-.8-.018-1.68-.038-2.623-.111-5.451-.253-12.234,2.538-15.082a4.306,4.306,0,0,1,3.193-1.313h7.244v1.034h-7.244a3.265,3.265,0,0,0-2.455,1c-2.484,2.536-2.343,9.356-2.24,14.336.021.949.039,1.844.039,2.645C369.436,465.812,368.637,467.706,363.355,467.706Z" transform="translate(-308.202 -405.783)" fill="#51799e"/>
          <rect id="Rectángulo_35595" data-name="Rectángulo 35595" width="35.877" height="7.245" rx="2.332" transform="translate(1.25)" fill="#008f85"/>
          <rect id="Rectángulo_35596" data-name="Rectángulo 35596" width="181.117" height="7.245" rx="2.332" transform="translate(37.645)" fill="#008f85"/>
          <rect id="Rectángulo_35597" data-name="Rectángulo 35597" width="32.492" height="38.637" transform="translate(68.521 45.537)" fill="#acc1d1"/>
          <rect id="Rectángulo_35598" data-name="Rectángulo 35598" width="32.492" height="17.68" transform="translate(68.521 24.148)" fill="#707b82"/>
          <path id="Trazado_165802" data-name="Trazado 165802" d="M431.605,419.22H355.28l21.992,15.006h32.6Z" transform="translate(-308.752 -409.043)" fill="#c7d0d8"/>
          <path id="Trazado_165803" data-name="Trazado 165803" d="M446.229,480.69l-100.129.517,34.584-8.8h32.6Z" transform="translate(-312.164 -389.272)" fill="#c7d0d8"/>
          <path id="Trazado_165804" data-name="Trazado 165804" d="M365.076,425.947H421.8l9.743-6.727H355.217Z" transform="translate(-308.775 -409.043)" opacity="0.25"/>
          <rect id="Rectángulo_35599" data-name="Rectángulo 35599" width="220.618" height="6.899" transform="translate(0 5.347)" fill="url(#linear-gradient)"/>
          <rect id="Rectángulo_35600" data-name="Rectángulo 35600" width="101.25" height="7.762" transform="translate(33.678 91.591)" fill="#f2f3f4"/>
          <rect id="Rectángulo_35601" data-name="Rectángulo 35601" width="39.5" height="4.83" rx="1.554" transform="translate(65.243 41.311)" fill="#f2f3f4"/>
          <g id="Grupo_128816" data-name="Grupo 128816" transform="translate(71.894 49.497)">
            <rect id="Rectángulo_35602" data-name="Rectángulo 35602" width="13.084" height="24.906" rx="0.667" transform="translate(0 13.084) rotate(-90)" fill="#fff"/>
            <g id="Grupo_128815" data-name="Grupo 128815" transform="translate(2.257 4.44)">
              <rect id="Rectángulo_35603" data-name="Rectángulo 35603" width="9.722" height="4.095" rx="0.263" fill="#7aa2cc"/>
              <rect id="Rectángulo_35604" data-name="Rectángulo 35604" width="8.972" height="3.456" transform="translate(0.323 0.308)" fill="#d93328"/>
              <g id="Grupo_128814" data-name="Grupo 128814" transform="translate(0.308 0.324)">
                <g id="Grupo_128813" data-name="Grupo 128813" clip-path="url(#clip-path-2)">
                  <rect id="Rectángulo_35605" data-name="Rectángulo 35605" width="1.389" height="8.112" transform="translate(8.113 -0.901) rotate(49.414)" fill="#fff" opacity="0.26"/>
                  <rect id="Rectángulo_35606" data-name="Rectángulo 35606" width="0.932" height="8.112" transform="translate(5.6 -0.902) rotate(49.415)" fill="#fff" opacity="0.26"/>
                  <rect id="Rectángulo_35607" data-name="Rectángulo 35607" width="0.818" height="7.119" transform="translate(8.98 0.936) rotate(49.412)" fill="#fff" opacity="0.26"/>
                </g>
              </g>
            </g>
            <rect id="Rectángulo_35609" data-name="Rectángulo 35609" width="9.651" height="10.137" rx="0.531" transform="translate(13.219 1.514)" fill="#7aa2cc"/>
            <rect id="Rectángulo_35610" data-name="Rectángulo 35610" width="2.109" height="0.973" rx="0.156" transform="translate(14.151 2.446)" fill="#b5d6ff"/>
            <rect id="Rectángulo_35611" data-name="Rectángulo 35611" width="2.108" height="0.973" rx="0.156" transform="translate(16.787 2.446)" fill="#b5d6ff"/>
            <rect id="Rectángulo_35612" data-name="Rectángulo 35612" width="2.108" height="0.973" rx="0.156" transform="translate(19.402 2.446)" fill="#b5d6ff"/>
            <rect id="Rectángulo_35613" data-name="Rectángulo 35613" width="2.109" height="0.973" rx="0.156" transform="translate(14.151 3.886)" fill="#b5d6ff"/>
            <rect id="Rectángulo_35614" data-name="Rectángulo 35614" width="2.108" height="0.973" rx="0.156" transform="translate(16.787 3.886)" fill="#b5d6ff"/>
            <rect id="Rectángulo_35615" data-name="Rectángulo 35615" width="2.108" height="0.973" rx="0.156" transform="translate(19.402 3.886)" fill="#b5d6ff"/>
            <rect id="Rectángulo_35616" data-name="Rectángulo 35616" width="2.109" height="0.973" rx="0.156" transform="translate(14.151 5.386)" fill="#b5d6ff"/>
            <rect id="Rectángulo_35617" data-name="Rectángulo 35617" width="2.108" height="0.973" rx="0.156" transform="translate(16.787 5.386)" fill="#b5d6ff"/>
            <rect id="Rectángulo_35618" data-name="Rectángulo 35618" width="2.108" height="0.973" rx="0.156" transform="translate(19.402 5.386)" fill="#b5d6ff"/>
            <rect id="Rectángulo_35619" data-name="Rectángulo 35619" width="2.109" height="0.973" rx="0.156" transform="translate(14.151 6.866)" fill="#b5d6ff"/>
            <rect id="Rectángulo_35620" data-name="Rectángulo 35620" width="2.108" height="0.973" rx="0.156" transform="translate(16.787 6.866)" fill="#b5d6ff"/>
            <rect id="Rectángulo_35621" data-name="Rectángulo 35621" width="2.108" height="0.973" rx="0.156" transform="translate(19.402 6.866)" fill="#b5d6ff"/>
            <rect id="Rectángulo_35622" data-name="Rectángulo 35622" width="4.947" height="1.906" transform="translate(15.368 8.975)" fill="#f2f2f2"/>
            <rect id="Rectángulo_35623" data-name="Rectángulo 35623" width="3.69" height="0.162" rx="0.05" transform="translate(15.915 9.36)" opacity="0.41"/>
            <rect id="Rectángulo_35624" data-name="Rectángulo 35624" width="3.69" height="0.162" rx="0.05" transform="translate(15.915 9.664)" opacity="0.41"/>
            <rect id="Rectángulo_35625" data-name="Rectángulo 35625" width="3.061" height="0.162" rx="0.05" transform="translate(15.915 9.968)" opacity="0.41"/>
            <rect id="Rectángulo_35626" data-name="Rectángulo 35626" width="1.46" height="0.162" rx="0.05" transform="translate(15.915 10.353)" opacity="0.41"/>
          </g>
          <g id="Grupo_128817" data-name="Grupo 128817" transform="translate(71.129 68.066)">
            <rect id="Rectángulo_35627" data-name="Rectángulo 35627" width="12.565" height="8.087" fill="#d7e9f4"/>
            <rect id="Rectángulo_35628" data-name="Rectángulo 35628" width="8.93" height="1.733" rx="0.558" transform="translate(1.685 0.554)" fill="#175a8b"/>
            <rect id="Rectángulo_35629" data-name="Rectángulo 35629" width="7.095" height="0.397" rx="0.128" transform="translate(2.582 1.191)" fill="#fff"/>
            <rect id="Rectángulo_35630" data-name="Rectángulo 35630" width="10.741" height="0.271" rx="0.087" transform="translate(0.83 3.231)" opacity="0.17"/>
            <rect id="Rectángulo_35631" data-name="Rectángulo 35631" width="10.741" height="0.271" rx="0.087" transform="translate(0.83 3.881)" opacity="0.17"/>
            <rect id="Rectángulo_35632" data-name="Rectángulo 35632" width="10.741" height="0.271" rx="0.087" transform="translate(0.83 4.585)" opacity="0.17"/>
            <rect id="Rectángulo_35633" data-name="Rectángulo 35633" width="10.741" height="0.271" rx="0.087" transform="translate(0.83 5.235)" opacity="0.17"/>
            <rect id="Rectángulo_35634" data-name="Rectángulo 35634" width="7.143" height="0.271" rx="0.087" transform="translate(2.84 5.957)" opacity="0.17"/>
          </g>
          <g id="Grupo_128819" data-name="Grupo 128819" transform="translate(44.047 12.716)">
            <g id="Grupo_128818" data-name="Grupo 128818">
              <rect id="Rectángulo_35635" data-name="Rectángulo 35635" width="9.651" height="10.137" rx="0.531" transform="translate(0.388 0.388)" fill="#7aa2cc"/>
              <path id="Trazado_165805" data-name="Trazado 165805" d="M362.959,431.984h-8.551a.938.938,0,0,1-.937-.938v-9.037a.938.938,0,0,1,.937-.938h8.551a.939.939,0,0,1,.938.938v9.037A.939.939,0,0,1,362.959,431.984Zm-8.551-10.137a.162.162,0,0,0-.161.162v9.037a.162.162,0,0,0,.161.162h8.551a.162.162,0,0,0,.162-.162v-9.037a.162.162,0,0,0-.162-.162Z" transform="translate(-353.471 -421.071)" fill="#f2f2f2"/>
            </g>
            <rect id="Rectángulo_35636" data-name="Rectángulo 35636" width="2.108" height="0.973" rx="0.156" transform="translate(1.321 1.32)" fill="#b5d6ff"/>
            <rect id="Rectángulo_35637" data-name="Rectángulo 35637" width="2.109" height="0.973" rx="0.156" transform="translate(3.956 1.32)" fill="#b5d6ff"/>
            <rect id="Rectángulo_35638" data-name="Rectángulo 35638" width="2.108" height="0.973" rx="0.156" transform="translate(6.572 1.32)" fill="#b5d6ff"/>
            <rect id="Rectángulo_35639" data-name="Rectángulo 35639" width="2.108" height="0.973" rx="0.156" transform="translate(1.321 2.76)" fill="#b5d6ff"/>
            <rect id="Rectángulo_35640" data-name="Rectángulo 35640" width="2.109" height="0.973" rx="0.156" transform="translate(3.956 2.76)" fill="#b5d6ff"/>
            <rect id="Rectángulo_35641" data-name="Rectángulo 35641" width="2.108" height="0.973" rx="0.156" transform="translate(6.572 2.76)" fill="#b5d6ff"/>
            <rect id="Rectángulo_35642" data-name="Rectángulo 35642" width="2.108" height="0.973" rx="0.156" transform="translate(1.321 4.26)" fill="#b5d6ff"/>
            <rect id="Rectángulo_35643" data-name="Rectángulo 35643" width="2.109" height="0.973" rx="0.156" transform="translate(3.956 4.26)" fill="#b5d6ff"/>
            <rect id="Rectángulo_35644" data-name="Rectángulo 35644" width="2.108" height="0.973" rx="0.156" transform="translate(6.572 4.26)" fill="#b5d6ff"/>
            <rect id="Rectángulo_35645" data-name="Rectángulo 35645" width="2.108" height="0.973" rx="0.156" transform="translate(1.321 5.74)" fill="#b5d6ff"/>
            <rect id="Rectángulo_35646" data-name="Rectángulo 35646" width="2.109" height="0.973" rx="0.156" transform="translate(3.956 5.74)" fill="#b5d6ff"/>
            <rect id="Rectángulo_35647" data-name="Rectángulo 35647" width="2.108" height="0.973" rx="0.156" transform="translate(6.572 5.74)" fill="#b5d6ff"/>
            <rect id="Rectángulo_35648" data-name="Rectángulo 35648" width="4.947" height="1.906" transform="translate(2.537 7.849)" fill="#f2f2f2"/>
            <rect id="Rectángulo_35649" data-name="Rectángulo 35649" width="3.69" height="0.162" rx="0.05" transform="translate(3.084 8.234)" opacity="0.41"/>
            <rect id="Rectángulo_35650" data-name="Rectángulo 35650" width="3.69" height="0.162" rx="0.05" transform="translate(3.084 8.538)" opacity="0.41"/>
            <rect id="Rectángulo_35651" data-name="Rectángulo 35651" width="3.061" height="0.162" rx="0.05" transform="translate(3.084 8.842)" opacity="0.41"/>
            <rect id="Rectángulo_35652" data-name="Rectángulo 35652" width="1.46" height="0.162" rx="0.05" transform="translate(3.084 9.227)" opacity="0.41"/>
          </g>
        </g>
        <path id="Trazado_165806" data-name="Trazado 165806" d="M324.6,418.064s33.466-1.1,44.439-.756,47.667,2.058,57.955,1.029c8.031-.8,102.878-.686,102.878-.686s3.086-21.947.686-22.633-6.173,4.115-9.259,9.945c0,0-32.921-8.23-55.211-7.887s-43.895,1.715-55.554.686S336.4,388.984,324.6,418.064Z" transform="translate(-316.573 -104.59)" fill="#1d272b"/>
        <path id="Trazado_165807" data-name="Trazado 165807" d="M359.6,401.249c-7.59-.055-14.033,6.418-21.622,6.5a57.017,57.017,0,0,1,26.342-10.04,113.64,113.64,0,0,1,17.06-.214,77.458,77.458,0,0,1,12.665,1.173,133.168,133.168,0,0,1-17.939,3.191l4.352,1.307q-13.45,3.848-26.9,7.7a76.366,76.366,0,0,1,16.91-7.706,17.838,17.838,0,0,0-11.71-.45A2.566,2.566,0,0,1,359.6,401.249Z" transform="translate(-311.601 -103.723)" fill="#fff" opacity="0.28"/>
        <path id="Trazado_165808" data-name="Trazado 165808" d="M392.686,408.03a165.894,165.894,0,0,0,22.491-5.037c-8.92-.005-17.99-.033-26.534-2.594q17.845-.831,35.693-1.661c-.5.446.449,1.059,1.122,1.055l31.5-.172a281.1,281.1,0,0,0-37.209,5.629C410.829,407.218,401.677,409.633,392.686,408.03Z" transform="translate(-292.769 -103.183)" fill="#fff" opacity="0.28"/>
        <path id="Trazado_165809" data-name="Trazado 165809" d="M483.657,400.059c-.31-.517-1.128-.243-1.554.184-1.609,1.6-1.864,4.528-3.968,5.389a5.441,5.441,0,0,1-3.01.039c-9.286-1.689-18.717-4.35-28.012-2.709a99.889,99.889,0,0,1,21.566,4.283,50.72,50.72,0,0,0-11.289,2.623l20.252.6a1.689,1.689,0,0,0,2.01-1.321Q481.653,404.606,483.657,400.059Z" transform="translate(-271.035 -102.796)" fill="#fff" opacity="0.28"/>
        <g id="Grupo_128823" data-name="Grupo 128823" transform="translate(39.036 0)">
          <rect id="Rectángulo_35653" data-name="Rectángulo 35653" width="16.232" height="53.725" transform="matrix(1, -0.02, 0.02, 1, 100.215, 132.109)" fill="#868695"/>
          <rect id="Rectángulo_35654" data-name="Rectángulo 35654" width="16.232" height="163.091" transform="translate(0 10.27) rotate(-39.248)" fill="#868695"/>
          <g id="Grupo_128822" data-name="Grupo 128822" transform="translate(61.56 175.363)">
            <g id="Grupo_128821" data-name="Grupo 128821">
              <path id="Trazado_165810" data-name="Trazado 165810" d="M405.82,357.409c24.732-.357,45.007-5.557,47.439-11.889l-.056-21.768c-.268-6.544-21.7-11.532-48.029-11.152s-47.609,5.983-47.687,12.533l.572,21.761C360.671,353.152,381.089,357.767,405.82,357.409Z" transform="translate(-357.486 -312.58)" fill="#d7e9f4"/>
              <path id="Trazado_165811" data-name="Trazado 165811" d="M453.148,340.151l-.025-9.684c-1.477-4.466-22.22-9.732-47.454-9.369s-46.238,4.55-47.975,10.746l.255,9.681c2.613,6.258,23.03,10.872,47.761,10.514S450.718,346.483,453.148,340.151Z" transform="translate(-357.409 -309.421)" fill="#515151" opacity="0.15"/>
              <path id="Trazado_165812" data-name="Trazado 165812" d="M453.174,342.206l-.025-9.684c-1.916-6.143-22.64-10.709-47.874-10.345S359.458,327.7,357.72,333.9l.255,9.682c2.612,6.258,23.03,10.872,47.761,10.514S450.744,348.538,453.174,342.206Z" transform="translate(-357.399 -309.021)" fill="#fff"/>
            </g>
            <path id="Trazado_165813" data-name="Trazado 165813" d="M397.1,334.1c-11.314.531-20.582-1.117-20.7-3.679s8.954-5.071,20.268-5.6,20.582,1.117,20.7,3.68S408.414,333.57,397.1,334.1Z" transform="translate(-350.457 -308.068)" fill="#f7b242"/>
            <path id="Trazado_165814" data-name="Trazado 165814" d="M393.765,340.949c-5.658.265-10.318-1.059-10.407-2.957s4.427-3.653,10.085-3.919,10.318,1.059,10.407,2.957S399.423,340.682,393.765,340.949Z" transform="translate(-347.87 -304.604)" fill="#f7b242"/>
            <path id="Trazado_165815" data-name="Trazado 165815" d="M417.693,341.689c-9.218.433-16.788-1.293-16.909-3.857s7.255-4.992,16.473-5.424,16.79,1.294,16.909,3.857S426.911,341.257,417.693,341.689Z" transform="translate(-341.392 -305.235)" fill="#f7b242"/>
            <path id="Trazado_165816" data-name="Trazado 165816" d="M374.478,342.922c-8.628-.193-15.576-2.432-15.518-5s7.1-4.487,15.728-4.292,15.576,2.432,15.518,5S383.106,343.117,374.478,342.922Z" transform="translate(-356.938 -304.76)" fill="#f7b242"/>
            <path id="Trazado_165817" data-name="Trazado 165817" d="M394.364,345.387c-7.964.373-14.471-.434-14.536-1.8s6.339-2.783,14.3-3.158,14.471.433,14.536,1.8S402.327,345.013,394.364,345.387Z" transform="translate(-349.181 -302.264)" fill="#f7b242"/>
          </g>
          <ellipse id="Elipse_4452" data-name="Elipse 4452" cx="9.173" cy="9.173" rx="9.173" ry="9.173" transform="translate(96.543 136.6) rotate(-68.813)" fill="#d7e9f4"/>
          <path id="Trazado_165818" data-name="Trazado 165818" d="M398.827,277.673a7.03,7.03,0,1,0-.628,9.922A7.029,7.029,0,0,0,398.827,277.673Z" transform="translate(-285.133 -151.078)" fill="#fff"/>
        </g>
      </g>
      <path id="Rectángulo_35655" data-name="Rectángulo 35655" d="M.675,0H355.306a.675.675,0,0,1,.675.675v0a.675.675,0,0,1-.675.675H.675A.675.675,0,0,1,0,.676v0A.675.675,0,0,1,.675,0Z" transform="translate(0.703 329.051)" fill="#1d272b"/>
    </g>
    <g id="Grupo_128825" data-name="Grupo 128825" transform="translate(1308.852 3891.156)">
      <path id="Trazado_150797" data-name="Trazado 150797" d="M234.4,425.937c-6.828,0-16.155-6.084-19.169-8.185l3.723-5.345c5.613,3.9,13.489,7.673,16.052,6.973,2.094-1.856,5.5-26.9,8.753-31.068l3.048,4.157c-.8,13.8-3.1,30.723-9.484,33.006A8.693,8.693,0,0,1,234.4,425.937Z" transform="translate(-197.959 -338.855)" fill="#dfebf4"/>
      <path id="Trazado_150798" data-name="Trazado 150798" d="M220.281,408.469s-5.576-6.776-5.99-7.633-1.759-1.028-1.444.042a9.925,9.925,0,0,0,1.5,2.55l-6.232-4.319s-.826-.7-1.27-.282.845,1.321.845,1.321l3.96,3.014-4.846-2.54s-1.031-.479-1.321.008.979,1.13.979,1.13L211.1,404.6l-4.954-2.169s-1.239-.542-1.5.046,1.515,1.3,1.515,1.3l4.63,2.347-2.858-.541s-.506-.072-.407.363.744.6.744.6,8.175,4.05,9.623,4.293,1.549.12,1.549.12l.808-2.311Z" transform="translate(-204.625 -332.329)" fill="#bc8364"/>
      <rect id="Rectángulo_34018" data-name="Rectángulo 34018" width="6.41" height="9.891" transform="matrix(-1, -0.017, 0.017, -1, 61.509, 49.581)" fill="#bc8364"/>
      <g id="Grupo_91805" data-name="Grupo 91805" transform="translate(53.833 187.247)">
        <path id="Trazado_150799" data-name="Trazado 150799" d="M252.754,472.925a7.782,7.782,0,0,0,0,4.156c.671,1.868,2.672,1.448,3.605,4.117v.3a2.54,2.54,0,0,1-2.374,2.544,6.157,6.157,0,0,0-3.667.983c-2.669,1.868-.477,8.035-4.1,7.916-2.15-.072-8.538,0-8.538,0s3.469-2.182,4.936-2.85,6.633-17.163,6.633-17.163Z" transform="translate(-237.682 -472.925)" fill="#bc8364"/>
        <path id="Trazado_150800" data-name="Trazado 150800" d="M253.553,475.875a6.073,6.073,0,0,1,2.806,3.469v.3a2.54,2.54,0,0,1-2.374,2.544c-1.283.078-1.933.819-3.231,1.728-2.667,1.868-.914,7.291-4.534,7.172-2.15-.072-8.538,0-8.538,0s3.334-3.027,4.936-2.85C249.2,488.96,251.291,479.259,253.553,475.875Z" transform="translate(-237.682 -471.071)" fill="#d93328"/>
        <path id="Trazado_150801" data-name="Trazado 150801" d="M247.064,479.862a48.309,48.309,0,0,1,.02,9.248h.835s.56-7.493,1.433-9.144S247.064,479.862,247.064,479.862Z" transform="translate(-231.786 -468.979)" fill="#d93328"/>
      </g>
      <g id="Grupo_91806" data-name="Grupo 91806" transform="translate(36.072 184.692)">
        <path id="Trazado_150802" data-name="Trazado 150802" d="M242.649,471.356s-1.471,4.843-.8,6.711,2.671,1.448,3.6,4.117v.3a2.54,2.54,0,0,1-2.374,2.544,6.161,6.161,0,0,0-3.667.984c-2.667,1.868-.477,8.035-4.1,7.916-2.15-.072-8.538,0-8.538,0s3.469-2.182,4.936-2.85,6.957-17.022,6.957-17.022Z" transform="translate(-226.776 -471.356)" fill="#bc8364"/>
        <path id="Trazado_150803" data-name="Trazado 150803" d="M242.647,475.875a6.073,6.073,0,0,1,2.806,3.469v.3a2.54,2.54,0,0,1-2.374,2.544c-1.282.078-1.933.819-3.231,1.728-2.667,1.868-.914,7.291-4.534,7.172-2.15-.072-8.538,0-8.538,0s3.335-3.027,4.938-2.85C238.3,488.96,240.385,479.259,242.647,475.875Z" transform="translate(-226.776 -468.516)" fill="#d93328"/>
        <path id="Trazado_150804" data-name="Trazado 150804" d="M236.158,479.862a48.307,48.307,0,0,1,.02,9.248h.835s.56-7.493,1.433-9.144S236.158,479.862,236.158,479.862Z" transform="translate(-220.88 -466.424)" fill="#d93328"/>
      </g>
      <path id="Trazado_150805" data-name="Trazado 150805" d="M237.3,411.932c5.33,1.467,10.823,1.57,16.338,1.824,3.8,3.628,10.318,7.935,11.352,12.624,1.43,6.483-2.049,13-2.049,13L259.266,469.9s9.846,2.055-.881,44.275l-5.167,5.753s2.226-37.445-.485-48.022c-6.8-26.534-3.721-35.856-5.54-37.312-3.306-2.643-3.693.407-3.693.407l-2.982,34.226s9.753,9.365.318,46.41l-4.193,3.511s-.037-37.219-2.7-47.807c-1.233-4.9-7.836-33.289-4.947-43.469C230.426,422.812,235.635,414.505,237.3,411.932Z" transform="translate(-189.768 -324.011)" fill="#bc8364"/>
      <path id="Trazado_150806" data-name="Trazado 150806" d="M229.128,437.946l2.389,15.314h28.374l1.268-22.576Z" transform="translate(-189.225 -312.225)" fill="#1d272b"/>
      <path id="Trazado_150807" data-name="Trazado 150807" d="M251.294,424.134c.124.811,10,12,10.772,12.92-16.029,4.3-30.168,2.229-31.592.682,1.56-4.291,7.421-12.562,7.421-12.562l-4.615-14.826c-5.564-1.876-3.767-7.413-3.767-7.413,4.679-3.229,5.6-14.347,5.6-14.347l13.876-.4s10.929,1.207,12.372,2.251-.928,11.7-.928,11.7S250.639,419.8,251.294,424.134Z" transform="translate(-189.158 -338.932)" fill="#e6b89c"/>
      <path id="Trazado_150808" data-name="Trazado 150808" d="M261.86,473.255c-.147.028-8.58,1.672-15.179,1.186-.129-.389-2.86-8.45-2.86-8.45l-1.332,8.287c-3.542-.184-8.8.038-12.124-1.169-1.946-10.334-3.091-24.175-1.314-30.433a33.907,33.907,0,0,1,2.249-5.463,60.721,60.721,0,0,1,5.045-8.883c.406-.648,1.042-1.589,1.055-1.584a4.885,4.885,0,0,0,.814-1.707l-4.436-14.432c-5.564-1.876-3.594-7.789-3.594-7.789,4.679-3.229,5.6-14.349,5.6-14.349l13.876-.4s10.929,1.207,12.372,2.249-.705,12.1-.705,12.1-10.014,17.26-9.359,21.6c.108.7,7.53,9.188,10.018,12.046a11.772,11.772,0,0,1,3.065,5.12c1.43,6.483-1,14.132-1,14.132Z" transform="translate(-189.829 -339.007)" fill="#fff"/>
      <path id="Trazado_150809" data-name="Trazado 150809" d="M237.229,399.772a10.357,10.357,0,0,0,11.176.552S242.054,407.932,237.229,399.772Z" transform="translate(-184.134 -331.653)" fill="#020202" opacity="0.23"/>
      <path id="Trazado_150810" data-name="Trazado 150810" d="M248.442,388.408l3.7.487-7.281,9.3,2.405.976-9.751,9.426-2.275-11.181,1.756-.389-1.756-8.841S246.622,388.115,248.442,388.408Z" transform="translate(-185.381 -338.942)" fill="#dfebf4"/>
      <path id="Trazado_150811" data-name="Trazado 150811" d="M247.564,388.521,236.642,408.7l1.171-20.574S243.76,387.643,247.564,388.521Z" transform="translate(-184.503 -339.054)" fill="#d93328"/>
      <path id="Trazado_150812" data-name="Trazado 150812" d="M242.059,387.958c-.487-.013-5.564,1.295-5.564,1.295s1.847,1.734,5.131-.378c0,0,1.69,2.8,7.34.837C248.965,389.712,242.547,387.97,242.059,387.958Z" transform="translate(-184.596 -339.078)" fill="#4b4b4c" opacity="0.49"/>
      <path id="Trazado_150813" data-name="Trazado 150813" d="M246.252,386.48a35,35,0,0,1-4.164,1.654c-.487-.013-2.171-1.558-2.171-1.558l-3.488,3.553s1.923,1.117,5.208-.995c0,0,1.132,2.25,7.278,1.5A13.488,13.488,0,0,1,246.252,386.48Z" transform="translate(-184.637 -340.007)" fill="#d93328"/>
      <path id="Trazado_150814" data-name="Trazado 150814" d="M235.8,402.511a.844.844,0,1,1,.858.827A.844.844,0,0,1,235.8,402.511Z" transform="translate(-185.035 -330.471)" fill="#666"/>
      <path id="Trazado_150815" data-name="Trazado 150815" d="M235.855,405.825a.844.844,0,1,1,.858.827A.842.842,0,0,1,235.855,405.825Z" transform="translate(-184.998 -328.388)" fill="#666"/>
      <path id="Trazado_150816" data-name="Trazado 150816" d="M235.915,409.138a.843.843,0,1,1,.858.829A.842.842,0,0,1,235.915,409.138Z" transform="translate(-184.96 -326.306)" fill="#666"/>
      <path id="Trazado_150817" data-name="Trazado 150817" d="M235.889,412.238a.843.843,0,1,1,.866.821A.844.844,0,0,1,235.889,412.238Z" transform="translate(-184.977 -324.363)" fill="#666"/>
      <path id="Trazado_150818" data-name="Trazado 150818" d="M235.977,415.55a.844.844,0,1,1,.866.821A.843.843,0,0,1,235.977,415.55Z" transform="translate(-184.921 -322.281)" fill="#666"/>
      <path id="Trazado_150819" data-name="Trazado 150819" d="M236.065,418.863a.844.844,0,1,1,.866.821A.843.843,0,0,1,236.065,418.863Z" transform="translate(-184.866 -320.198)" fill="#666"/>
      <path id="Trazado_150820" data-name="Trazado 150820" d="M236.341,422.6a.843.843,0,1,1,.865.821A.842.842,0,0,1,236.341,422.6Z" transform="translate(-184.692 -317.851)" fill="#666"/>
      <path id="Trazado_150821" data-name="Trazado 150821" d="M236.548,426.152a.844.844,0,1,1,.866.821A.845.845,0,0,1,236.548,426.152Z" transform="translate(-184.562 -315.619)" fill="#666"/>
      <path id="Trazado_150822" data-name="Trazado 150822" d="M236.637,429.344a.843.843,0,1,1,.865.821A.842.842,0,0,1,236.637,429.344Z" transform="translate(-184.506 -313.611)" fill="#666"/>
      <path id="Trazado_150823" data-name="Trazado 150823" d="M236.939,432.18a.844.844,0,1,1,.866.819A.845.845,0,0,1,236.939,432.18Z" transform="translate(-184.317 -311.83)" fill="#666"/>
      <path id="Trazado_150824" data-name="Trazado 150824" d="M237.147,435.611a.844.844,0,1,1,.866.821A.843.843,0,0,1,237.147,435.611Z" transform="translate(-184.186 -309.673)" fill="#666"/>
      <path id="Rectángulo_34019" data-name="Rectángulo 34019" d="M3.129,0h4.4a3.13,3.13,0,0,1,3.13,3.13V13.911a0,0,0,0,1,0,0H0a0,0,0,0,1,0,0V3.129A3.129,3.129,0,0,1,3.129,0Z" transform="translate(67.664 114.984) rotate(-179.191)" fill="#dfebf4"/>
      <path id="Rectángulo_34020" data-name="Rectángulo 34020" d="M1.87,0H6.015A1.871,1.871,0,0,1,7.885,1.871v9.817a0,0,0,0,1,0,0H0a0,0,0,0,1,0,0V1.87A1.87,1.87,0,0,1,1.87,0Z" transform="matrix(-1, -0.014, 0.014, -1, 47.977, 113.199)" fill="#dfebf4"/>
      <path id="Trazado_150825" data-name="Trazado 150825" d="M255.731,391.266a1.632,1.632,0,0,0,1.111-1.988c.979.094,1.7-.857,2.218-1.7q.291-.476.583-.953a2.638,2.638,0,0,0,.56-1.785,2.627,2.627,0,0,1-.161-.832c.083-.593.932-.92.87-1.516-.024-.246-.21-.449-.252-.694-.125-.734,1.032-1.171,1-1.915-.02-.386-.365-.687-.423-1.07-.119-.785.988-1.474.661-2.2-.1-.223-.323-.371-.44-.588-.322-.588.252-1.291.182-1.959-.088-.86-1.2-1.386-1.179-2.251.008-.34.2-.692.072-1.008a1.078,1.078,0,0,0-.383-.412l-1.527-1.145a2.344,2.344,0,0,0,2-.736,4.437,4.437,0,0,1,.567-.617,12.245,12.245,0,0,1,1.166-.51c.8-.477.9-1.58.91-2.514a3.032,3.032,0,0,0-.417-1.923,2.4,2.4,0,0,1-.506-.686,2.429,2.429,0,0,1-.013-.721,1.521,1.521,0,0,0-1.983-1.337,1.845,1.845,0,0,0-1.067-1.795,5.425,5.425,0,0,0-2.166-.459,2.213,2.213,0,0,0-1.024.09.756.756,0,0,0-.489.817,1.623,1.623,0,0,1-1.042-.018,1.452,1.452,0,0,0-1.036.024c-.308.174-.407.7-.091.862a.84.84,0,0,0-1.213,1.138,2.2,2.2,0,0,0-1.5.1c-.438.264-.577,1.019-.122,1.257-.5.054-.554.764-.393,1.236s.373,1.065.01,1.407a4.914,4.914,0,0,0-1.992-.485,1.676,1.676,0,0,0-1.589,1.1,2.361,2.361,0,0,0-2.825-.1c-.967-.795-2.4-.285-3.532.252l-1.238.591a2.963,2.963,0,0,0-1.168.811,6.157,6.157,0,0,0-2.083.106,2.1,2.1,0,0,0-1.492,1.343,1.429,1.429,0,0,1-.2.549.849.849,0,0,1-.467.251c-.493.125-1.013.127-1.5.282a1.34,1.34,0,0,0-1.006,1.028c-.033.337.121.707-.052,1-.117.194-.35.288-.49.467-.462.586.352,1.466.083,2.163-.15.388-.62.666-.567,1.076.034.251.259.428.365.658.283.617-.353,1.272-.388,1.951-.031.611.425,1.12.713,1.661a3.247,3.247,0,0,1,.311,2.153,1.307,1.307,0,0,0-.041.692c.127.357.562.474.85.718.6.5.489,1.426.682,2.18a5.184,5.184,0,0,0,2.014,2.5,39.53,39.53,0,0,0,8.494,5.736,13.288,13.288,0,0,0,9.992.72l-.379-.529a2,2,0,0,0,1.922-1.571,1.343,1.343,0,0,1,.156-.539C254.989,391.35,255.4,391.35,255.731,391.266Z" transform="translate(-188.632 -357.942)" fill="#35302c"/>
      <path id="Trazado_150826" data-name="Trazado 150826" d="M255.91,386.408c.425.129-5.306,9.523-12.308,10.294-6.489.713-10.992-12.924-11-12.945-.1-.471-1.286-8.978-1.7-13.148-.427-4.293,19.845-11.319,25.023.16.813,1.8.238,11.891.238,11.891s2.664-1.985,2.965,1.754C259.243,385.8,255.91,386.408,255.91,386.408Z" transform="translate(-188.113 -353.81)" fill="#bc8364"/>
      <path id="Trazado_150827" data-name="Trazado 150827" d="M241.669,373.52a.854.854,0,0,0,.928-.547.821.821,0,0,1-.248.692.571.571,0,0,0,.676-.168.641.641,0,0,1-.352.547,1.851,1.851,0,0,1-.655.184.255.255,0,0,1-.168-.01.273.273,0,0,1-.109-.184l-.109-.422" transform="translate(-181.366 -348.495)" fill="#1a1a1a"/>
      <path id="Trazado_150828" data-name="Trazado 150828" d="M240.007,374.968a1.725,1.725,0,1,1,1.93,1.493A1.724,1.724,0,0,1,240.007,374.968Z" transform="translate(-182.397 -348.462)" fill="#333"/>
      <path id="Trazado_150829" data-name="Trazado 150829" d="M233.966,374.52a.838.838,0,0,1-.871-.663.916.916,0,0,0,.178.762.54.54,0,0,1-.658-.235.687.687,0,0,0,.295.616,1.775,1.775,0,0,0,.635.251.257.257,0,0,0,.168,0,.309.309,0,0,0,.127-.189l.153-.445" transform="translate(-187.037 -347.94)" fill="#1a1a1a"/>
      <path id="Trazado_150830" data-name="Trazado 150830" d="M233.24,375.586a1.544,1.544,0,1,1,1.689,1.384A1.542,1.542,0,0,1,233.24,375.586Z" transform="translate(-186.646 -347.918)" fill="#333"/>
      <path id="Trazado_150831" data-name="Trazado 150831" d="M240.56,373.939a.509.509,0,1,1,.568.441A.51.51,0,0,1,240.56,373.939Z" transform="translate(-182.044 -348.248)" fill="#fff" opacity="0.43"/>
      <path id="Trazado_150832" data-name="Trazado 150832" d="M233.487,374.91a.42.42,0,1,1,.459.376A.42.42,0,0,1,233.487,374.91Z" transform="translate(-186.487 -347.568)" fill="#fff" opacity="0.43"/>
      <path id="Trazado_150833" data-name="Trazado 150833" d="M237.454,373.1s-2.632-.474-4,.2a10.084,10.084,0,0,0-1.723,1.249l1.259-1.915a7.691,7.691,0,0,1,3.872-.78A.884.884,0,0,1,237.454,373.1Z" transform="translate(-187.587 -349.2)" fill="#35302c"/>
      <path id="Trazado_150834" data-name="Trazado 150834" d="M239.183,372.443s2.488-.983,3.957-.591a10.2,10.2,0,0,1,1.935.887l-1.609-1.63a7.69,7.69,0,0,0-3.951,0A.886.886,0,0,0,239.183,372.443Z" transform="translate(-183.022 -349.811)" fill="#35302c"/>
      <path id="Trazado_150835" data-name="Trazado 150835" d="M237.232,375.465l.381,3.545c.029.285-.36-.047-.646-.029-.379.024-.542.694-.51,1.028.055.545.5.773,2.671.35a.541.541,0,0,0,.423-.524C239.5,378.476,239.241,374.479,237.232,375.465Z" transform="translate(-184.622 -347.027)" fill="#1a1a1a" opacity="0.49"/>
      <path id="Trazado_150836" data-name="Trazado 150836" d="M237.446,375.367l.287,3.294s-1.368-.073-1.146,1.212c.093.539.6.744,2.807.308a.738.738,0,0,0,.581-.519c.077-.308.515-.353-.345-1.436C238.617,376.951,239.394,374.691,237.446,375.367Z" transform="translate(-184.553 -347.069)" fill="#ba6565"/>
      <path id="Trazado_150837" data-name="Trazado 150837" d="M236.849,378.375a.983.983,0,0,0,1.187-.16.318.318,0,0,0,.1-.171c.036-.2-.164-.329-.322-.37a.988.988,0,0,0-.751.028.687.687,0,0,0-.285.78" transform="translate(-184.437 -345.579)" fill="#fff" opacity="0.43"/>
      <path id="Trazado_150838" data-name="Trazado 150838" d="M239.944,377.1a1.194,1.194,0,0,0,.428,1.189,2.626,2.626,0,0,0,1.216.513,9.593,9.593,0,0,0,5.213-.627,3.335,3.335,0,0,0,1.215-.692,1.315,1.315,0,0,0,.388-1.282,1.341,1.341,0,0,0-1.044-.827,3.947,3.947,0,0,0-1.389.052l-4.337.684C240.95,376.22,240.134,376.438,239.944,377.1Z" transform="translate(-182.45 -347.013)" fill="#ba6565" opacity="0.52"/>
      <path id="Trazado_150839" data-name="Trazado 150839" d="M237.048,377.046a2.165,2.165,0,0,0-.826-.1,21.357,21.357,0,0,1-2.35-.119,1.294,1.294,0,0,0-1.047.182.636.636,0,0,0-.094.775,1.086,1.086,0,0,0,.406.34,4.061,4.061,0,0,0,1.995.542,3.239,3.239,0,0,0,1.951-.645.679.679,0,0,0,.334-.59A.554.554,0,0,0,237.048,377.046Z" transform="translate(-187.018 -346.087)" fill="#ba6565" opacity="0.52"/>
      <g id="Grupo_91807" data-name="Grupo 91807" transform="translate(51.536 34.544)">
        <path id="Trazado_150840" data-name="Trazado 150840" d="M244.2,379.875s-2.83-1.089-3.926-.589c-1.021.464-1.068,1-1.068,1a1.537,1.537,0,0,0-1.2-.49,5.62,5.62,0,0,0-1.733,1.247s1.088,3.967,3.973,3.493C243.885,383.933,244.2,379.875,244.2,379.875Z" transform="translate(-236.272 -379.155)" fill="#934c4c"/>
        <path id="Trazado_150841" data-name="Trazado 150841" d="M238.137,382.19a1.5,1.5,0,0,0,1.449-.322c.05-.047.1-.116.076-.181-.034-.088-.16-.077-.249-.047a2.313,2.313,0,0,1-1.534.147.351.351,0,0,0,.247.435" transform="translate(-235.271 -377.606)" fill="#fff" opacity="0.43"/>
        <path id="Trazado_150842" data-name="Trazado 150842" d="M244.23,379.54s-4.356,1.677-7.958,1.255C236.272,380.8,239.19,385.175,244.23,379.54Z" transform="translate(-236.272 -378.912)" fill="#fff"/>
      </g>
      <path id="Trazado_150843" data-name="Trazado 150843" d="M254.076,377.024c-.042-.329.164-.668.065-.985a1.476,1.476,0,0,0-.35-.482,2.01,2.01,0,0,1-.451-1.661c.013.58.028,1.161.041,1.742a.874.874,0,0,0,.106.484c.086.124.231.2.316.321.248.362-.138.813-.207,1.244a2.176,2.176,0,0,0,.418,1.272,1.108,1.108,0,0,1,.007,1.272c.254-.2.161-.612-.036-.866a2.8,2.8,0,0,1-.572-.769c-.15-.48.208-1.023.024-1.492-.189-.49-.889-.682-.974-1.2-.059-.365.23-.738.109-1.088-.1-.293-.432-.422-.684-.6a1.512,1.512,0,0,1-.519-1.715,1.33,1.33,0,0,1-1.3-1.133,1.369,1.369,0,0,0-.086-.49,1.548,1.548,0,0,0-.339-.345,2.125,2.125,0,0,1-.389-1.694q-.52.039-1.041.08a3.734,3.734,0,0,0,.669,1.99c-.052-.319-.489-.352-.777-.5-.562-.291-.557-1.084-.471-1.713a1.14,1.14,0,0,1-1.156-.417c-.018.489-.65.677-1.138.648s-1.063-.111-1.384.257a1.333,1.333,0,0,1-.259.3c-.3.187-.666-.148-1.016-.114-.29.028-.49.3-.62.56a3.945,3.945,0,0,0-.392,1.347.661.661,0,0,1-.091.337c-.174.236-.69.352-.521.593.287-.108.285-.519.168-.8s-.3-.581-.2-.871a1.642,1.642,0,0,1,.339-.451,1.268,1.268,0,0,0,.2-1.238c-.287.674-1.539.187-1.933.8-.094.147-.117.335-.236.462-.334.357-1.127-.015-1.329.43-.046.1-.041.216-.1.313-.111.2-.4.192-.612.111a1.457,1.457,0,0,0-.643-.192c-.378.041-.554.472-.759.791s-.741.547-.915.21a.967.967,0,0,1-.76.954c-.375.07-.875-.036-1.041.306-.156.321.184.738,0,1.042-.135.226-.484.249-.616.475-.1.174-.034.392-.036.593a2.261,2.261,0,0,1-.378.953,6.373,6.373,0,0,0-.441,3.125l-.883-6.582a4.109,4.109,0,0,1,1.376-4.512,15.854,15.854,0,0,1,2.775-2.376,12.55,12.55,0,0,1,3.044-1.28c5.477-1.64,11.645-1.519,16.656,1.231a8.513,8.513,0,0,1,2.137,1.563,9.575,9.575,0,0,1,1.756,3.032,8.66,8.66,0,0,1,.734,2.807,11.574,11.574,0,0,1-1.34,4.832,38.286,38.286,0,0,0-1.9,5.851c.262-.472-.536-.878-.612-1.413-.044-.321.184-.611.256-.925.186-.808-.655-1.531-.643-2.358a3.077,3.077,0,0,0,.02-.573C255.025,377.9,254.157,377.641,254.076,377.024Z" transform="translate(-188.207 -354.514)" fill="#35302c"/>
      <path id="Trazado_150844" data-name="Trazado 150844" d="M232.645,379.932a38.73,38.73,0,0,0,8.245.119c3.736-.464,14.4-4.511,14.4-4.511l-.371.612-4.96,1.983s.834,4.408,1.138,4.548l3.716-3.2s.148.324-.319,1.169-8.054,11.776-15.215,8.587C239.278,389.236,234.148,385.114,232.645,379.932Z" transform="translate(-187.015 -346.882)" fill="#eeebf5"/>
      <g id="Grupo_91813" data-name="Grupo 91813" transform="translate(1.681 54.505)">
        <path id="Trazado_150845" data-name="Trazado 150845" d="M227.405,391.419l-21.6,5.675a.2.2,0,0,0-.137.236l7.546,28.723a.2.2,0,0,0,.236.137l21.6-5.677a.191.191,0,0,0,.137-.235l-7.546-28.723A.191.191,0,0,0,227.405,391.419Z" transform="translate(-205.657 -391.412)" fill="#333"/>
        <rect id="Rectángulo_34021" data-name="Rectángulo 34021" width="19.323" height="27.674" transform="translate(1.868 6.314) rotate(-14.721)" fill="#fff"/>
        <g id="Grupo_91808" data-name="Grupo 91808" transform="translate(4.234 4.606)">
          <path id="Trazado_150846" data-name="Trazado 150846" d="M223.846,394.243l-15.531,4.079a.081.081,0,0,0-.055.1l.008.034a.082.082,0,0,0,.1.057L223.9,394.43a.079.079,0,0,0,.055-.1l-.008-.036A.081.081,0,0,0,223.846,394.243Z" transform="translate(-208.257 -394.24)" fill="#333" opacity="0.37"/>
          <path id="Trazado_150847" data-name="Trazado 150847" d="M223.959,394.668l-15.531,4.081a.08.08,0,0,0-.057.1l.01.034a.079.079,0,0,0,.1.057l15.531-4.081a.078.078,0,0,0,.057-.1l-.01-.034A.078.078,0,0,0,223.959,394.668Z" transform="translate(-208.187 -393.973)" fill="#333" opacity="0.37"/>
          <path id="Trazado_150848" data-name="Trazado 150848" d="M224.077,395.122,208.546,399.2a.079.079,0,0,0-.055.1l.008.036a.081.081,0,0,0,.1.055l15.531-4.079a.08.08,0,0,0,.055-.1l-.008-.034A.08.08,0,0,0,224.077,395.122Z" transform="translate(-208.112 -393.688)" fill="#333" opacity="0.37"/>
          <path id="Trazado_150849" data-name="Trazado 150849" d="M224.189,395.548l-15.531,4.079a.079.079,0,0,0-.055.1l.008.034a.079.079,0,0,0,.1.055l15.529-4.079a.08.08,0,0,0,.057-.1l-.008-.034A.079.079,0,0,0,224.189,395.548Z" transform="translate(-208.042 -393.42)" fill="#333" opacity="0.37"/>
        </g>
        <g id="Grupo_91809" data-name="Grupo 91809" transform="translate(8.094 19.295)">
          <path id="Trazado_150850" data-name="Trazado 150850" d="M226.216,403.263l-15.531,4.079a.08.08,0,0,0-.055.1l.008.034a.082.082,0,0,0,.1.057l15.529-4.081a.08.08,0,0,0,.057-.1l-.008-.036A.079.079,0,0,0,226.216,403.263Z" transform="translate(-210.627 -403.26)" fill="#333" opacity="0.37"/>
          <path id="Trazado_150851" data-name="Trazado 150851" d="M226.329,403.688,210.8,407.769a.078.078,0,0,0-.057.1l.01.034a.079.079,0,0,0,.1.057l15.531-4.081a.078.078,0,0,0,.057-.1l-.01-.034A.079.079,0,0,0,226.329,403.688Z" transform="translate(-210.557 -402.993)" fill="#333" opacity="0.37"/>
          <path id="Trazado_150852" data-name="Trazado 150852" d="M226.447,404.142l-15.531,4.081a.078.078,0,0,0-.055.1l.008.034a.08.08,0,0,0,.1.057l15.529-4.079a.08.08,0,0,0,.057-.1l-.008-.034A.08.08,0,0,0,226.447,404.142Z" transform="translate(-210.482 -402.708)" fill="#333" opacity="0.37"/>
          <path id="Trazado_150853" data-name="Trazado 150853" d="M226.56,404.567l-15.531,4.081a.082.082,0,0,0-.057.1l.01.034a.078.078,0,0,0,.1.055l15.531-4.079a.08.08,0,0,0,.057-.1l-.01-.034A.079.079,0,0,0,226.56,404.567Z" transform="translate(-210.412 -402.441)" fill="#333" opacity="0.37"/>
        </g>
        <g id="Grupo_91810" data-name="Grupo 91810" transform="translate(5.091 7.869)">
          <path id="Trazado_150854" data-name="Trazado 150854" d="M224.374,396.247l-15.531,4.079a.08.08,0,0,0-.057.1l.01.034a.079.079,0,0,0,.1.057l15.531-4.081a.079.079,0,0,0,.057-.1l-.01-.036A.079.079,0,0,0,224.374,396.247Z" transform="translate(-208.783 -396.244)" fill="#333" opacity="0.37"/>
          <path id="Trazado_150855" data-name="Trazado 150855" d="M224.486,396.672l-15.531,4.081a.079.079,0,0,0-.057.1l.01.034a.078.078,0,0,0,.1.057l15.531-4.079a.082.082,0,0,0,.057-.1l-.01-.034A.079.079,0,0,0,224.486,396.672Z" transform="translate(-208.713 -395.977)" fill="#333" opacity="0.37"/>
          <path id="Trazado_150856" data-name="Trazado 150856" d="M224.6,397.126l-15.531,4.081a.08.08,0,0,0-.057.1l.01.036a.078.078,0,0,0,.1.055l15.531-4.079a.08.08,0,0,0,.057-.1l-.01-.034A.078.078,0,0,0,224.6,397.126Z" transform="translate(-208.638 -395.692)" fill="#333" opacity="0.37"/>
          <path id="Trazado_150857" data-name="Trazado 150857" d="M224.717,397.552l-15.531,4.079a.081.081,0,0,0-.057.1l.01.034a.079.079,0,0,0,.1.057l15.531-4.081a.082.082,0,0,0,.057-.1l-.01-.034A.078.078,0,0,0,224.717,397.552Z" transform="translate(-208.568 -395.424)" fill="#333" opacity="0.37"/>
        </g>
        <g id="Grupo_91811" data-name="Grupo 91811" transform="translate(5.822 10.651)">
          <path id="Trazado_150858" data-name="Trazado 150858" d="M224.823,397.955l-15.531,4.081a.079.079,0,0,0-.057.1l.01.036a.078.078,0,0,0,.1.055l15.531-4.079a.082.082,0,0,0,.057-.1l-.01-.034A.08.08,0,0,0,224.823,397.955Z" transform="translate(-209.232 -397.953)" fill="#333" opacity="0.37"/>
          <path id="Trazado_150859" data-name="Trazado 150859" d="M224.933,398.381,209.4,402.46a.08.08,0,0,0-.057.1l.008.034a.082.082,0,0,0,.1.057l15.531-4.081a.079.079,0,0,0,.055-.1l-.008-.034A.079.079,0,0,0,224.933,398.381Z" transform="translate(-209.162 -397.685)" fill="#333" opacity="0.37"/>
          <path id="Trazado_150860" data-name="Trazado 150860" d="M225.054,398.835l-15.531,4.079a.08.08,0,0,0-.057.1l.01.034a.079.079,0,0,0,.1.057l15.531-4.081a.079.079,0,0,0,.057-.1l-.01-.036A.079.079,0,0,0,225.054,398.835Z" transform="translate(-209.087 -397.4)" fill="#333" opacity="0.37"/>
          <path id="Trazado_150861" data-name="Trazado 150861" d="M225.166,399.26l-15.531,4.081a.078.078,0,0,0-.057.1l.01.034a.078.078,0,0,0,.1.057l15.531-4.081a.079.079,0,0,0,.057-.1l-.01-.034A.08.08,0,0,0,225.166,399.26Z" transform="translate(-209.017 -397.133)" fill="#333" opacity="0.37"/>
        </g>
        <g id="Grupo_91812" data-name="Grupo 91812" transform="translate(6.556 13.445)">
          <path id="Trazado_150862" data-name="Trazado 150862" d="M225.272,399.671l-15.529,4.081a.078.078,0,0,0-.057.1l.008.034a.08.08,0,0,0,.1.057l15.531-4.081a.077.077,0,0,0,.055-.1l-.008-.034A.08.08,0,0,0,225.272,399.671Z" transform="translate(-209.683 -399.669)" fill="#333" opacity="0.37"/>
          <path id="Trazado_150863" data-name="Trazado 150863" d="M225.384,400.1l-15.531,4.081a.078.078,0,0,0-.055.1l.008.036a.08.08,0,0,0,.1.055l15.531-4.079a.081.081,0,0,0,.055-.1l-.008-.034A.081.081,0,0,0,225.384,400.1Z" transform="translate(-209.613 -399.401)" fill="#333" opacity="0.37"/>
          <path id="Trazado_150864" data-name="Trazado 150864" d="M225.5,400.551l-15.531,4.079a.08.08,0,0,0-.057.1l.01.034a.079.079,0,0,0,.1.057l15.531-4.081a.082.082,0,0,0,.057-.1l-.01-.034A.078.078,0,0,0,225.5,400.551Z" transform="translate(-209.538 -399.116)" fill="#333" opacity="0.37"/>
          <path id="Trazado_150865" data-name="Trazado 150865" d="M225.615,400.976l-15.531,4.079a.081.081,0,0,0-.055.1l.008.034a.08.08,0,0,0,.1.057l15.531-4.081a.079.079,0,0,0,.055-.1l-.008-.034A.081.081,0,0,0,225.615,400.976Z" transform="translate(-209.468 -398.848)" fill="#333" opacity="0.37"/>
        </g>
        <rect id="Rectángulo_34022" data-name="Rectángulo 34022" width="4.734" height="2.282" transform="matrix(0.967, -0.254, 0.254, 0.967, 8.244, 1.878)" fill="#b3b3b3"/>
        <rect id="Rectángulo_34023" data-name="Rectángulo 34023" width="7.792" height="1.622" transform="matrix(0.967, -0.254, 0.254, 0.967, 7.177, 3.834)" fill="#b3b3b3"/>
      </g>
      <path id="Trazado_150866" data-name="Trazado 150866" d="M249.893,423.672s-4.094,7.96-4.784,8.7-.078,2.039.905,1.3a9.109,9.109,0,0,0,1.9-2.452l-1.018,7.514s-.274,1.049.448,1.277.941-1.332.941-1.332l.941-4.889.1,5.5s.09,1.143.795,1.2.653-1.373.653-1.373l.347-5.433.575,5.437s.143,1.358.94,1.345.524-1.935.524-1.935l-.186-5.214,1.107,2.833s.225.492.64.217.215-.933.215-.933-.433-9.17-1.029-10.593-.788-1.462-.788-1.462l-3.008.246Z" transform="translate(-179.367 -316.82)" fill="#bc8364"/>
      <path id="Trazado_150867" data-name="Trazado 150867" d="M253.539,448.941l-6.406-1.171c.029-.166,3.008-16.545,3.2-25.139.192-8.476-2.65-20.136-3.462-23.81l3.392-9.364c1.29.34,6.792,24.1,6.582,33.323C256.643,431.891,253.666,448.249,253.539,448.941Z" transform="translate(-178.072 -338.135)" fill="#dfebf4"/>
    </g>
    <g id="Grupo_129323" data-name="Grupo 129323" transform="translate(1065.418 3952.205)">
      <g id="Grupo_127674" data-name="Grupo 127674" transform="translate(12.707 39.303)">
        <path id="Trazado_163810" data-name="Trazado 163810" d="M280.676,368.029h-1.245V274.7H222.04v93.328H220.8V273.456h59.881Z" transform="translate(-220.795 -273.456)" fill="#868695"/>
      </g>
      <rect id="Rectángulo_35047" data-name="Rectángulo 35047" width="1.85" height="11.428" transform="translate(4.926 143.777) rotate(180)" fill="#64546f"/>
      <g id="Grupo_127675" data-name="Grupo 127675" transform="translate(0 132.349)">
        <path id="Trazado_163811" data-name="Trazado 163811" d="M206.262,385.591c0,3.156,1.377,5.714,3.076,5.714s3.076-2.557,3.076-5.714-1.377-5.714-3.076-5.714S206.262,382.436,206.262,385.591Z" transform="translate(-206.262 -379.877)" fill="#1d272b"/>
      </g>
      <g id="Grupo_127676" data-name="Grupo 127676" transform="translate(1.895 132.349)">
        <path id="Trazado_163812" data-name="Trazado 163812" d="M208.429,385.591c0,3.156,1.377,5.714,3.077,5.714s3.075-2.557,3.075-5.714-1.377-5.714-3.075-5.714S208.429,382.436,208.429,385.591Z" transform="translate(-208.429 -379.877)" fill="#868695"/>
      </g>
      <rect id="Rectángulo_35048" data-name="Rectángulo 35048" width="1.849" height="11.428" transform="translate(14.231 143.777) rotate(180)" fill="#64546f"/>
      <g id="Grupo_127677" data-name="Grupo 127677" transform="translate(9.306 132.349)">
        <path id="Trazado_163813" data-name="Trazado 163813" d="M216.906,385.591c0,3.156,1.377,5.714,3.075,5.714s3.076-2.557,3.076-5.714-1.377-5.714-3.076-5.714S216.906,382.436,216.906,385.591Z" transform="translate(-216.906 -379.877)" fill="#1d272b"/>
      </g>
      <g id="Grupo_127678" data-name="Grupo 127678" transform="translate(11.201 132.349)">
        <path id="Trazado_163814" data-name="Trazado 163814" d="M219.073,385.591c0,3.156,1.377,5.714,3.075,5.714s3.077-2.557,3.077-5.714-1.378-5.714-3.077-5.714S219.073,382.436,219.073,385.591Z" transform="translate(-219.073 -379.877)" fill="#868695"/>
      </g>
      <rect id="Rectángulo_35049" data-name="Rectángulo 35049" width="1.85" height="11.428" transform="translate(63.635 143.777) rotate(180)" fill="#64546f"/>
      <g id="Grupo_127679" data-name="Grupo 127679" transform="translate(58.709 132.349)">
        <path id="Trazado_163815" data-name="Trazado 163815" d="M273.411,385.591c0,3.156,1.378,5.714,3.076,5.714s3.077-2.557,3.077-5.714-1.378-5.714-3.077-5.714S273.411,382.436,273.411,385.591Z" transform="translate(-273.411 -379.877)" fill="#1d272b"/>
      </g>
      <g id="Grupo_127680" data-name="Grupo 127680" transform="translate(60.605 132.349)">
        <path id="Trazado_163816" data-name="Trazado 163816" d="M275.579,385.591c0,3.156,1.377,5.714,3.076,5.714s3.076-2.557,3.076-5.714-1.378-5.714-3.076-5.714S275.579,382.436,275.579,385.591Z" transform="translate(-275.579 -379.877)" fill="#868695"/>
      </g>
      <rect id="Rectángulo_35050" data-name="Rectángulo 35050" width="1.85" height="11.428" transform="translate(72.941 143.777) rotate(180)" fill="#64546f"/>
      <g id="Grupo_127681" data-name="Grupo 127681" transform="translate(68.015 132.349)">
        <path id="Trazado_163817" data-name="Trazado 163817" d="M284.055,385.591c0,3.156,1.377,5.714,3.076,5.714s3.075-2.557,3.075-5.714-1.376-5.714-3.075-5.714S284.055,382.436,284.055,385.591Z" transform="translate(-284.055 -379.877)" fill="#1d272b"/>
      </g>
      <g id="Grupo_127682" data-name="Grupo 127682" transform="translate(69.91 132.349)">
        <path id="Trazado_163818" data-name="Trazado 163818" d="M286.222,385.591c0,3.156,1.377,5.714,3.076,5.714s3.076-2.557,3.076-5.714-1.377-5.714-3.076-5.714S286.222,382.436,286.222,385.591Z" transform="translate(-286.222 -379.877)" fill="#868695"/>
      </g>
      <rect id="Rectángulo_35051" data-name="Rectángulo 35051" width="58.636" height="15.814" transform="translate(62.659 126.509) rotate(180)" fill="#1d272b"/>
      <rect id="Rectángulo_35052" data-name="Rectángulo 35052" width="9.453" height="15.814" transform="translate(72.112 126.509) rotate(180)" fill="#a4a4b4"/>
      <path id="Trazado_163819" data-name="Trazado 163819" d="M236.255,365.917h12.872a3.1,3.1,0,0,0,3.1-3.1H233.156A3.1,3.1,0,0,0,236.255,365.917Z" transform="translate(-209.642 -245.384)" fill="#a4a4b4"/>
      <rect id="Rectángulo_35053" data-name="Rectángulo 35053" width="58.636" height="15.814" transform="translate(62.659 108.817) rotate(180)" fill="#1d272b"/>
      <rect id="Rectángulo_35054" data-name="Rectángulo 35054" width="9.453" height="15.814" transform="translate(72.112 108.817) rotate(180)" fill="#a4a4b4"/>
      <path id="Trazado_163820" data-name="Trazado 163820" d="M236.255,345.682h12.872a3.1,3.1,0,0,0,3.1-3.1H233.156A3.1,3.1,0,0,0,236.255,345.682Z" transform="translate(-209.642 -242.841)" fill="#a4a4b4"/>
      <rect id="Rectángulo_35055" data-name="Rectángulo 35055" width="58.636" height="15.814" transform="translate(62.659 91.124) rotate(180)" fill="#1d272b"/>
      <rect id="Rectángulo_35056" data-name="Rectángulo 35056" width="9.453" height="15.814" transform="translate(72.112 91.124) rotate(180)" fill="#a4a4b4"/>
      <path id="Trazado_163821" data-name="Trazado 163821" d="M236.255,325.447h12.872a3.1,3.1,0,0,0,3.1-3.1H233.156A3.1,3.1,0,0,0,236.255,325.447Z" transform="translate(-209.642 -240.298)" fill="#a4a4b4"/>
      <rect id="Rectángulo_35057" data-name="Rectángulo 35057" width="58.636" height="15.814" transform="translate(62.659 73.432) rotate(180)" fill="#1d272b"/>
      <rect id="Rectángulo_35058" data-name="Rectángulo 35058" width="9.453" height="15.814" transform="translate(72.112 73.432) rotate(180)" fill="#a4a4b4"/>
      <path id="Trazado_163822" data-name="Trazado 163822" d="M236.255,305.21h12.872a3.1,3.1,0,0,0,3.1-3.1H233.156A3.1,3.1,0,0,0,236.255,305.21Z" transform="translate(-209.642 -237.754)" fill="#a4a4b4"/>
      <rect id="Rectángulo_35059" data-name="Rectángulo 35059" width="58.636" height="15.814" transform="translate(62.659 55.74) rotate(180)" fill="#1d272b"/>
      <rect id="Rectángulo_35060" data-name="Rectángulo 35060" width="9.453" height="15.814" transform="translate(72.112 55.74) rotate(180)" fill="#a4a4b4"/>
      <path id="Trazado_163823" data-name="Trazado 163823" d="M236.255,284.975h12.872a3.1,3.1,0,0,0,3.1-3.1H233.156A3.1,3.1,0,0,0,236.255,284.975Z" transform="translate(-209.642 -235.211)" fill="#a4a4b4"/>
      <g id="Grupo_127683" data-name="Grupo 127683" transform="translate(3.401 39.303)">
        <path id="Trazado_163824" data-name="Trazado 163824" d="M270.033,368.029h-1.245V274.7H211.4v93.328h-1.245V273.456h59.881Z" transform="translate(-210.152 -273.456)" fill="#868695"/>
      </g>
      <g id="Grupo_129266" data-name="Grupo 129266" transform="translate(10.988 16.507)">
        <g id="Grupo_128981" data-name="Grupo 128981" transform="translate(8.615 0)">
          <path id="Trazado_166214" data-name="Trazado 166214" d="M248.245,227.989h-3.414a2.221,2.221,0,0,0-2.221,2.221V243.9a1.079,1.079,0,0,0,1.079,1.079h5.7a1.079,1.079,0,0,0,1.079-1.079V230.21A2.221,2.221,0,0,0,248.245,227.989Z" transform="translate(-242.61 -223.062)" fill="#d1ebea"/>
          <path id="Trazado_166215" data-name="Trazado 166215" d="M252.359,211.987h-3.033a.5.5,0,0,0-.5.5v4.43h4.026v-4.43A.5.5,0,0,0,252.359,211.987Z" transform="translate(-246.915 -211.987)" fill="#39666e"/>
          <path id="Trazado_166216" data-name="Trazado 166216" d="M245,227.989a2.245,2.245,0,0,0-2.392,2.062v13.925a1.091,1.091,0,0,0,1.162,1h.944a.962.962,0,0,1-.469-.8V230.253a2.246,2.246,0,0,1,2.392-2.062H249.1a2.7,2.7,0,0,0-1.026-.2Z" transform="translate(-242.61 -223.062)" fill="#79aab1"/>
          <path id="Trazado_166217" data-name="Trazado 166217" d="M259.712,230.914h-.166a1.08,1.08,0,0,0-1.077,1.077v14.049a.36.36,0,0,0,.359.359h1.6a.36.36,0,0,0,.359-.359V231.991A1.08,1.08,0,0,0,259.712,230.914Z" transform="translate(-253.586 -225.087)" fill="#fff" style="mix-blend-mode: soft-light;isolation: isolate"/>
          <path id="Trazado_166218" data-name="Trazado 166218" d="M249.744,212.268a.5.5,0,0,1,.088-.281h-.505a.5.5,0,0,0-.5.5v4.43h4.026V216.7h-3.112Z" transform="translate(-246.915 -211.987)" fill="#1f2a35"/>
        </g>
        <g id="Grupo_128982" data-name="Grupo 128982" transform="translate(10.658 13.095)">
          <path id="Trazado_166219" data-name="Trazado 166219" d="M251.708,254.827a.8.8,0,0,0-1.118-.137l-1.343,1.048,6.568,8.411,1.342-1.048a.8.8,0,0,0,.138-1.118Z" transform="translate(-249.247 -254.52)" fill="#39666e"/>
          <path id="Trazado_166220" data-name="Trazado 166220" d="M256.923,263.7a.79.79,0,0,1-.249.34l-.5.393a1.065,1.065,0,0,1-1.5-.184l-5.121-6.557-.308.241,6.568,8.411,1.342-1.048a.8.8,0,0,0,.138-1.118Z" transform="translate(-249.247 -256.716)" fill="#1f2a35"/>
        </g>
        <g id="Grupo_128983" data-name="Grupo 128983" transform="translate(0 11.633)">
          <rect id="Rectángulo_35765" data-name="Rectángulo 35765" width="11.667" height="6.518" rx="1.588" transform="translate(0 4.572)" fill="#abc6c9"/>
          <rect id="Rectángulo_35766" data-name="Rectángulo 35766" width="9.796" height="1.393" rx="0.695" transform="translate(0.936 2.762)" fill="#c1d4d7"/>
          <path id="Trazado_166221" data-name="Trazado 166221" d="M217.788,263.258l-.323.42h9.92l-.323-.42Z" transform="translate(-216.592 -259.106)" fill="#79aab1"/>
          <path id="Trazado_166222" data-name="Trazado 166222" d="M226.956,259.646l-9.959.367a.177.177,0,1,0,.013.355l9.959-.367a.177.177,0,1,0-.013-.355Z" transform="translate(-216.149 -256.606)" fill="#eaf2f2"/>
          <path id="Trazado_166223" data-name="Trazado 166223" d="M225.188,249.773a.974.974,0,0,1-.242,1.046c-.484.592-1.936.479-3.347.6a5.256,5.256,0,0,0-2.581,1.113h8.791a3.455,3.455,0,0,0-.686-1.937A2.585,2.585,0,0,0,225.188,249.773Z" transform="translate(-217.666 -249.773)" fill="#fff"/>
          <path id="Trazado_166224" data-name="Trazado 166224" d="M218.239,269.962v-5.34h-3.122a.489.489,0,0,0-.489.489v5.54a.489.489,0,0,0,.489.489h10.689l-6.935-.5A.681.681,0,0,1,218.239,269.962Z" transform="translate(-214.628 -260.05)" fill="#8ab5bb"/>
          <path id="Trazado_166225" data-name="Trazado 166225" d="M237.878,265.95h-1.351a.282.282,0,0,0,0,.565h1.351a.282.282,0,1,0,0-.565Z" transform="translate(-229.59 -260.97)" fill="#fff" style="mix-blend-mode: soft-light;isolation: isolate"/>
          <path id="Trazado_166226" data-name="Trazado 166226" d="M228.563,266.343h-.282a.222.222,0,1,0,0,.444h.282a.222.222,0,0,0,0-.444Z" transform="translate(-223.924 -261.242)" fill="#fff" style="mix-blend-mode: soft-light;isolation: isolate"/>
          <path id="Trazado_166227" data-name="Trazado 166227" d="M230.443,250.429a1.2,1.2,0,0,1-.222,1.251,2.6,2.6,0,0,1-2.036.554c-.786.01-1.961-.252-1.861.313.081.454,2.839.4,3.726-.272a1.292,1.292,0,0,0,.6-1.381A1.384,1.384,0,0,0,230.443,250.429Z" transform="translate(-222.719 -250.227)" fill="#eaf2f2"/>
          <path id="Trazado_166228" data-name="Trazado 166228" d="M241.55,251.281a1.182,1.182,0,0,1,.222.645c-.02.313-.282,1.26.252,1.29s.635-.645.484-1.109S241.55,251.281,241.55,251.281Z" transform="translate(-233.261 -250.817)" fill="#eaf2f2"/>
          <rect id="Rectángulo_35767" data-name="Rectángulo 35767" width="11.667" height="3.685" transform="translate(0 6.094)" fill="#1f2a35"/>
          <rect id="Rectángulo_35768" data-name="Rectángulo 35768" width="2.319" height="5.632" rx="1.159" transform="translate(8.833 5.021)" fill="#fff" style="mix-blend-mode: soft-light;isolation: isolate"/>
        </g>
      </g>
      <g id="Grupo_129267" data-name="Grupo 129267" transform="translate(53.195 19.821)">
        <rect id="Rectángulo_35769" data-name="Rectángulo 35769" width="4.364" height="1.937" rx="0.603" transform="translate(2.293 4.186)" fill="#fffffa"/>
        <rect id="Rectángulo_35770" data-name="Rectángulo 35770" width="2.262" height="1.019" transform="translate(3.372 3.167)" fill="#fffffa"/>
        <rect id="Rectángulo_35771" data-name="Rectángulo 35771" width="0.816" height="1.691" transform="translate(4.126 1.477)" fill="#fffffa"/>
        <path id="Trazado_166229" data-name="Trazado 166229" d="M350.644,213.467h-5.3a.106.106,0,0,0-.1.155l.228.413a.191.191,0,0,0,.168.1h4.78a.21.21,0,0,0,.2-.126l.151-.368A.125.125,0,0,0,350.644,213.467Z" transform="translate(-344.52 -213.467)" fill="#fffffa"/>
        <path id="Trazado_166230" data-name="Trazado 166230" d="M349.055,215.982l2.155.535h1.206l.667-.253a.2.2,0,0,0,.132-.183v-.227h-4.16Z" transform="translate(-347.28 -215.191)" fill="#dadbde"/>
        <rect id="Rectángulo_35772" data-name="Rectángulo 35772" width="5.339" height="0.671" rx="0.335" transform="translate(1.811 6.315)" fill="#fffffa"/>
        <rect id="Rectángulo_35773" data-name="Rectángulo 35773" width="3.956" height="0.192" transform="translate(2.494 6.123)" fill="#dadbde"/>
        <path id="Trazado_166231" data-name="Trazado 166231" d="M350.919,228.694v1.6a.168.168,0,0,0,.167.168h1.368v-1.937h-1.368A.167.167,0,0,0,350.919,228.694Z" transform="translate(-348.626 -224.341)" fill="#e2e3e5"/>
        <rect id="Rectángulo_35774" data-name="Rectángulo 35774" width="0.914" height="1.019" transform="translate(3.372 3.167)" fill="#e2e3e5"/>
        <path id="Trazado_166232" data-name="Trazado 166232" d="M357.511,220.47h.335v-1.3l.49-.088-.825-.3Z" transform="translate(-353.385 -217.303)" fill="#dadbde"/>
        <rect id="Rectángulo_35775" data-name="Rectángulo 35775" width="1.206" height="0.449" transform="translate(3.931 1.327)" fill="#fffffa"/>
        <path id="Trazado_166233" data-name="Trazado 166233" d="M356.809,218.69h.473v-.321l.751-.129h-1.224Z" transform="translate(-352.878 -216.914)" fill="#e2e3e5"/>
        <rect id="Rectángulo_35776" data-name="Rectángulo 35776" width="9.128" height="12.825" rx="2" transform="translate(0 6.657)" fill="#1d272b"/>
        <path id="Trazado_166234" data-name="Trazado 166234" d="M344.194,248.405V237.786a1.037,1.037,0,0,1,.072-.368h-.426a1.139,1.139,0,0,0-1.172,1.1V249.14a1.139,1.139,0,0,0,1.172,1.1h6.785a1.166,1.166,0,0,0,1.1-.735h-6.359A1.139,1.139,0,0,1,344.194,248.405Z" transform="translate(-342.668 -230.761)" fill="#526366"/>
        <rect id="Rectángulo_35777" data-name="Rectángulo 35777" width="1.987" height="10.554" rx="0.993" transform="translate(6.506 7.837)" fill="#fffffa" style="mix-blend-mode: soft-light;isolation: isolate"/>
        <path id="Trazado_166235" data-name="Trazado 166235" d="M355.895,238.7h-6.158a.256.256,0,0,0,0,.512h6.158a.256.256,0,1,0,0-.512Z" transform="translate(-347.587 -231.686)" fill="#fffffa" style="mix-blend-mode: soft-light;isolation: isolate"/>
      </g>
      <g id="Grupo_129268" data-name="Grupo 129268" transform="translate(26.931 0)">
        <rect id="Rectángulo_35797" data-name="Rectángulo 35797" width="1.171" height="1.757" transform="translate(13.852 27.005)" fill="#abc6c9"/>
        <path id="Trazado_166256" data-name="Trazado 166256" d="M394.02,203.978c0,.079.006.158.006.237a12.784,12.784,0,1,1-25.567,0c0-.079,0-.158.006-.237h-.781c0,.079-.006.158-.006.237a13.564,13.564,0,1,0,27.129,0c0-.079,0-.158-.006-.237Z" transform="translate(-366.805 -190.7)" fill="#c1d4d7"/>
        <path id="Trazado_166257" data-name="Trazado 166257" d="M394.493,205.166a13.22,13.22,0,0,1-26.425,0c0-.08,0-.158.006-.237h-.386a13.561,13.561,0,0,0,27.119,0h-.321C394.488,205.008,394.493,205.087,394.493,205.166Z" transform="translate(-366.81 -191.228)" fill="#79aab1"/>
        <rect id="Rectángulo_35798" data-name="Rectángulo 35798" width="0.488" height="0.765" transform="translate(12.509 29.043)" fill="#79aab1"/>
        <g id="Grupo_128994" data-name="Grupo 128994" transform="translate(0 12.794)">
          <path id="Trazado_166258" data-name="Trazado 166258" d="M369.554,202.89h-2.993a.846.846,0,0,0,0,1.692h2.993a.846.846,0,0,0,0-1.692Z" transform="translate(-365.715 -202.89)" fill="#abc6c9"/>
          <path id="Trazado_166259" data-name="Trazado 166259" d="M423.669,202.89h-2.993a.846.846,0,0,0,0,1.692h2.993a.846.846,0,0,0,0-1.692Z" transform="translate(-395.755 -202.89)" fill="#abc6c9"/>
        </g>
        <circle id="Elipse_4456" data-name="Elipse 4456" cx="11.629" cy="11.629" r="11.629" transform="translate(2.809 1.886)" fill="#cddddf"/>
        <rect id="Rectángulo_35799" data-name="Rectángulo 35799" width="3.123" height="10.271" transform="translate(12.876 28.665)" fill="#cddddf"/>
        <path id="Trazado_166260" data-name="Trazado 166260" d="M396.23,260.613H385.895a.526.526,0,0,0-.526.526v.643h11.387v-.643A.526.526,0,0,0,396.23,260.613Z" transform="translate(-376.625 -222.139)" fill="#c1d4d7"/>
        <path id="Trazado_166261" data-name="Trazado 166261" d="M396.634,257.986h-7.082a.526.526,0,0,0-.526.526v.643h8.133v-.643A.526.526,0,0,0,396.634,257.986Z" transform="translate(-378.655 -220.681)" fill="#c1d4d7"/>
        <rect id="Rectángulo_35800" data-name="Rectángulo 35800" width="1.086" height="1.187" rx="0.543" transform="translate(11.452 28.831)" fill="#c1d4d7"/>
        <circle id="Elipse_4457" data-name="Elipse 4457" cx="10.379" cy="10.379" r="10.379" transform="translate(0.91 19.223) rotate(-67.834)" fill="url(#linear-gradient-5)"/>
        <path id="Trazado_166262" data-name="Trazado 166262" d="M395.857,238.564h-1.2v8.587h3.123l-1.923-.52Z" transform="translate(-381.781 -209.9)" fill="#abc6c9"/>
        <rect id="Rectángulo_35801" data-name="Rectángulo 35801" width="8.133" height="0.409" transform="translate(10.371 38.065)" fill="#79aab1"/>
        <rect id="Rectángulo_35802" data-name="Rectángulo 35802" width="11.387" height="0.439" transform="translate(8.744 39.204)" fill="#79aab1"/>
        <rect id="Rectángulo_35803" data-name="Rectángulo 35803" width="1.995" height="0.665" rx="0.333" transform="translate(26.309 13.092)" fill="#d8e4e6"/>
        <path id="Trazado_166263" data-name="Trazado 166263" d="M368.561,203.532h-1.22a.311.311,0,1,0,0,.622h1.22a.311.311,0,1,0,0-.622Z" transform="translate(-366.445 -190.453)" fill="#d8e4e6"/>
        <path id="Trazado_166264" data-name="Trazado 166264" d="M372.874,191.989a11.6,11.6,0,0,1,4.1-8.855A11.626,11.626,0,1,0,391.191,201.5a11.626,11.626,0,0,1-18.316-9.51Z" transform="translate(-369.219 -179.13)" fill="#abc6c9"/>
        <rect id="Rectángulo_35804" data-name="Rectángulo 35804" width="0.549" height="1.625" transform="translate(13.852 27.005)" fill="#79aab1"/>
        <path id="Trazado_166265" data-name="Trazado 166265" d="M387.732,182.425l11.678,16.887a10.4,10.4,0,0,0,2.143-2.778l-10.461-15.127A10.3,10.3,0,0,0,387.732,182.425Z" transform="translate(-377.937 -178.171)" fill="#eef1f1"/>
        <path id="Trazado_166266" data-name="Trazado 166266" d="M380.672,187.993l11.477,16.539a10.263,10.263,0,0,0,1.208-.542l-11.765-16.919A10.451,10.451,0,0,0,380.672,187.993Z" transform="translate(-374.018 -181.316)" fill="#eef1f1"/>
        <path id="Trazado_166267" data-name="Trazado 166267" d="M385.217,181.211A10.378,10.378,0,1,0,395.6,191.589,10.378,10.378,0,0,0,385.217,181.211Zm0,20.5a10.131,10.131,0,1,1,10.131-10.131A10.131,10.131,0,0,1,385.217,201.708Z" transform="translate(-370.779 -178.062)" fill="#797f85"/>
      </g>
    </g>
    <g id="Grupo_129610" data-name="Grupo 129610" transform="translate(925.614 -1682.665)">
      <path id="Trazado_168607" data-name="Trazado 168607" d="M12.832,0H9.9L4.2-9.355V0H1.27V-14.219H4.2L9.912-4.844v-9.375h2.92Zm1.934-5.381a6.267,6.267,0,0,1,.605-2.8,4.432,4.432,0,0,1,1.743-1.9,5.086,5.086,0,0,1,2.642-.674,4.812,4.812,0,0,1,3.491,1.309A5.252,5.252,0,0,1,24.756-5.9l.02.723a5.523,5.523,0,0,1-1.357,3.9A4.718,4.718,0,0,1,19.775.2,4.742,4.742,0,0,1,16.128-1.27a5.62,5.62,0,0,1-1.362-3.984Zm2.822.2a3.95,3.95,0,0,0,.566,2.3,1.868,1.868,0,0,0,1.621.8,1.873,1.873,0,0,0,1.6-.787,4.322,4.322,0,0,0,.576-2.518,3.91,3.91,0,0,0-.576-2.289,1.873,1.873,0,0,0-1.621-.812,1.842,1.842,0,0,0-1.6.807A4.395,4.395,0,0,0,17.588-5.181ZM32.451-7.92A7.667,7.667,0,0,0,31.436-8a2.067,2.067,0,0,0-2.1,1.084V0H26.514V-10.566H29.18l.078,1.26a2.615,2.615,0,0,1,2.354-1.455,2.957,2.957,0,0,1,.879.127Zm4-2.646.088,1.182a3.713,3.713,0,0,1,3.037-1.377,2.818,2.818,0,0,1,2.8,1.611,3.628,3.628,0,0,1,3.174-1.611,3.152,3.152,0,0,1,2.559,1,4.6,4.6,0,0,1,.84,3.013V0H46.123V-6.738a2.012,2.012,0,0,0-.352-1.313,1.558,1.558,0,0,0-1.24-.415,1.761,1.761,0,0,0-1.758,1.211L42.783,0H39.961V-6.729A1.988,1.988,0,0,0,39.6-8.057a1.573,1.573,0,0,0-1.23-.41,1.829,1.829,0,0,0-1.738,1V0H33.809V-10.566ZM57.246,0a3.134,3.134,0,0,1-.283-.947A3.415,3.415,0,0,1,54.3.2a3.752,3.752,0,0,1-2.573-.9A2.89,2.89,0,0,1,50.7-2.969a2.986,2.986,0,0,1,1.245-2.578,6.144,6.144,0,0,1,3.6-.908h1.3v-.605a1.741,1.741,0,0,0-.376-1.172,1.479,1.479,0,0,0-1.187-.439,1.682,1.682,0,0,0-1.118.342,1.161,1.161,0,0,0-.405.938H50.938a2.835,2.835,0,0,1,.566-1.7,3.744,3.744,0,0,1,1.6-1.226,5.837,5.837,0,0,1,2.324-.444,4.611,4.611,0,0,1,3.1.981,3.433,3.433,0,0,1,1.147,2.759v4.58A5.052,5.052,0,0,0,60.1-.166V0ZM54.912-1.963a2.431,2.431,0,0,0,1.152-.278,1.828,1.828,0,0,0,.781-.747V-4.8H55.791q-2.119,0-2.256,1.465l-.01.166A1.13,1.13,0,0,0,53.9-2.3,1.441,1.441,0,0,0,54.912-1.963ZM67.568-2.92a.909.909,0,0,0-.513-.815,5.824,5.824,0,0,0-1.646-.532q-3.77-.791-3.77-3.2a2.9,2.9,0,0,1,1.167-2.349,4.708,4.708,0,0,1,3.052-.942,5.067,5.067,0,0,1,3.218.947,2.985,2.985,0,0,1,1.206,2.461H67.461a1.366,1.366,0,0,0-.391-1,1.653,1.653,0,0,0-1.221-.4,1.689,1.689,0,0,0-1.1.322,1.017,1.017,0,0,0-.391.82.87.87,0,0,0,.444.757,4.571,4.571,0,0,0,1.5.5,12.244,12.244,0,0,1,1.777.474,2.92,2.92,0,0,1,2.236,2.842A2.756,2.756,0,0,1,69.072-.7a5.35,5.35,0,0,1-3.2.894,5.588,5.588,0,0,1-2.358-.474,3.957,3.957,0,0,1-1.616-1.3,3.018,3.018,0,0,1-.586-1.782h2.676a1.473,1.473,0,0,0,.557,1.152,2.208,2.208,0,0,0,1.387.4,2.044,2.044,0,0,0,1.226-.308A.957.957,0,0,0,67.568-2.92Zm9.1-2.461a6.316,6.316,0,0,1,1.108-3.936,3.624,3.624,0,0,1,3.042-1.445,3.244,3.244,0,0,1,2.705,1.3l.186-1.1h2.48V4.063H83.359V-.908A3.253,3.253,0,0,1,80.8.2,3.6,3.6,0,0,1,77.793-1.27,6.626,6.626,0,0,1,76.67-5.381Zm2.822.2a4.143,4.143,0,0,0,.532,2.308,1.7,1.7,0,0,0,1.5.792,1.9,1.9,0,0,0,1.836-1.037V-7.489a1.882,1.882,0,0,0-1.816-1,1.725,1.725,0,0,0-1.514.792A4.576,4.576,0,0,0,79.492-5.181ZM94.736-1.074A3.539,3.539,0,0,1,91.846.2a3.338,3.338,0,0,1-2.593-.977,4.169,4.169,0,0,1-.913-2.861v-6.924h2.822v6.834q0,1.652,1.5,1.652a2.038,2.038,0,0,0,1.973-1v-7.489h2.832V0H94.814ZM104.463.2a5.187,5.187,0,0,1-3.784-1.426,5.068,5.068,0,0,1-1.46-3.8V-5.3a6.383,6.383,0,0,1,.615-2.847,4.515,4.515,0,0,1,1.743-1.934,4.893,4.893,0,0,1,2.573-.679,4.385,4.385,0,0,1,3.413,1.367,5.555,5.555,0,0,1,1.245,3.877v1.152H102.08a2.622,2.622,0,0,0,.825,1.66,2.5,2.5,0,0,0,1.743.625A3.046,3.046,0,0,0,107.2-3.262l1.387,1.553a4.237,4.237,0,0,1-1.719,1.4A5.639,5.639,0,0,1,104.463.2Zm-.322-8.682a1.764,1.764,0,0,0-1.362.569,2.946,2.946,0,0,0-.669,1.628h3.926v-.226a2.1,2.1,0,0,0-.508-1.457A1.819,1.819,0,0,0,104.141-8.486Zm17.188.566A7.667,7.667,0,0,0,120.313-8a2.067,2.067,0,0,0-2.1,1.084V0h-2.822V-10.566h2.666l.078,1.26a2.615,2.615,0,0,1,2.354-1.455,2.957,2.957,0,0,1,.879.127ZM127.549.2a5.187,5.187,0,0,1-3.784-1.426,5.068,5.068,0,0,1-1.46-3.8V-5.3a6.383,6.383,0,0,1,.615-2.847,4.515,4.515,0,0,1,1.743-1.934,4.893,4.893,0,0,1,2.573-.679,4.385,4.385,0,0,1,3.413,1.367,5.555,5.555,0,0,1,1.245,3.877v1.152h-6.729a2.622,2.622,0,0,0,.825,1.66,2.5,2.5,0,0,0,1.743.625,3.046,3.046,0,0,0,2.549-1.182l1.387,1.553a4.237,4.237,0,0,1-1.719,1.4A5.639,5.639,0,0,1,127.549.2Zm-.322-8.682a1.764,1.764,0,0,0-1.362.569,2.946,2.946,0,0,0-.669,1.628h3.926v-.226a2.1,2.1,0,0,0-.508-1.457A1.819,1.819,0,0,0,127.227-8.486Zm5.859,3.125a6.193,6.193,0,0,1,1.157-3.916,3.75,3.75,0,0,1,3.12-1.484,3.289,3.289,0,0,1,2.705,1.191l.117-1h2.559V-.352a4.516,4.516,0,0,1-.63,2.412,4.045,4.045,0,0,1-1.772,1.563,6.231,6.231,0,0,1-2.676.537A5.794,5.794,0,0,1,135.4,3.7a4.021,4.021,0,0,1-1.67-1.2L134.98.781a3.306,3.306,0,0,0,2.559,1.182,2.42,2.42,0,0,0,1.748-.6,2.253,2.253,0,0,0,.625-1.7V-.908A3.264,3.264,0,0,1,137.344.2a3.74,3.74,0,0,1-3.081-1.489,6.191,6.191,0,0,1-1.177-3.95Zm2.822.21a3.856,3.856,0,0,0,.576,2.254,1.833,1.833,0,0,0,1.582.817,1.96,1.96,0,0,0,1.846-.968V-7.5a1.955,1.955,0,0,0-1.826-.968,1.844,1.844,0,0,0-1.6.831A4.346,4.346,0,0,0,135.908-5.151ZM151.24-1.074A3.539,3.539,0,0,1,148.35.2a3.338,3.338,0,0,1-2.593-.977,4.169,4.169,0,0,1-.913-2.861v-6.924h2.822v6.834q0,1.652,1.5,1.652a2.038,2.038,0,0,0,1.973-1v-7.489h2.832V0h-2.656ZM159.082,0H156.25V-15h2.832Zm8.447,0a3.134,3.134,0,0,1-.283-.947A3.415,3.415,0,0,1,164.58.2a3.752,3.752,0,0,1-2.573-.9,2.889,2.889,0,0,1-1.021-2.266,2.986,2.986,0,0,1,1.245-2.578,6.144,6.144,0,0,1,3.6-.908h1.3v-.605a1.741,1.741,0,0,0-.376-1.172,1.479,1.479,0,0,0-1.187-.439,1.682,1.682,0,0,0-1.118.342,1.161,1.161,0,0,0-.405.938h-2.822a2.835,2.835,0,0,1,.566-1.7,3.744,3.744,0,0,1,1.6-1.226,5.837,5.837,0,0,1,2.324-.444,4.611,4.611,0,0,1,3.1.981,3.433,3.433,0,0,1,1.147,2.759v4.58a5.052,5.052,0,0,0,.42,2.275V0ZM165.2-1.963a2.431,2.431,0,0,0,1.152-.278,1.828,1.828,0,0,0,.781-.747V-4.8h-1.055q-2.119,0-2.256,1.465l-.01.166a1.13,1.13,0,0,0,.371.869A1.441,1.441,0,0,0,165.2-1.963Zm9.531-8.6.088,1.221a3.689,3.689,0,0,1,3.037-1.416,3.066,3.066,0,0,1,2.5.986,4.6,4.6,0,0,1,.84,2.949V0h-2.822V-6.758a1.831,1.831,0,0,0-.391-1.3,1.749,1.749,0,0,0-1.3-.405,1.942,1.942,0,0,0-1.787,1.016V0H172.07V-10.566Z" transform="translate(358.744 5437.504)" fill="#008f85" opacity="0.8"/>
      <path id="Trazado_168608" data-name="Trazado 168608" d="M3.656,0H1.107V-13.5H3.656Zm7.6,0A2.821,2.821,0,0,1,11-.853,3.073,3.073,0,0,1,8.6.176,3.376,3.376,0,0,1,6.289-.633,2.6,2.6,0,0,1,5.37-2.672a2.687,2.687,0,0,1,1.121-2.32A5.529,5.529,0,0,1,9.729-5.81H10.9v-.545a1.567,1.567,0,0,0-.338-1.055,1.331,1.331,0,0,0-1.068-.4A1.513,1.513,0,0,0,8.486-7.5a1.045,1.045,0,0,0-.365.844H5.581a2.551,2.551,0,0,1,.51-1.529,3.37,3.37,0,0,1,1.441-1.1,5.253,5.253,0,0,1,2.092-.4,4.15,4.15,0,0,1,2.791.883,3.09,3.09,0,0,1,1.033,2.483V-2.2a4.546,4.546,0,0,0,.378,2.048V0Zm-2.1-1.767a2.188,2.188,0,0,0,1.037-.25,1.645,1.645,0,0,0,.7-.672V-4.324H9.949q-1.907,0-2.03,1.318l-.009.149a1.017,1.017,0,0,0,.334.782A1.3,1.3,0,0,0,9.158-1.767Zm11.391-.861a.818.818,0,0,0-.461-.734,5.241,5.241,0,0,0-1.481-.479q-3.393-.712-3.393-2.883a2.613,2.613,0,0,1,1.05-2.114,4.237,4.237,0,0,1,2.747-.848,4.56,4.56,0,0,1,2.9.853,2.687,2.687,0,0,1,1.085,2.215h-2.54a1.229,1.229,0,0,0-.352-.9A1.488,1.488,0,0,0,19-7.875a1.52,1.52,0,0,0-.993.29.916.916,0,0,0-.352.738.783.783,0,0,0,.4.681,4.114,4.114,0,0,0,1.349.448,11.019,11.019,0,0,1,1.6.426,2.628,2.628,0,0,1,2.013,2.558A2.481,2.481,0,0,1,21.9-.628a4.815,4.815,0,0,1-2.883.8A5.029,5.029,0,0,1,16.9-.25a3.561,3.561,0,0,1-1.455-1.169,2.716,2.716,0,0,1-.527-1.6h2.408a1.326,1.326,0,0,0,.5,1.037,1.987,1.987,0,0,0,1.248.36,1.839,1.839,0,0,0,1.1-.277A.861.861,0,0,0,20.549-2.628ZM37.705-4.667A5.758,5.758,0,0,1,36.729-1.1,3.231,3.231,0,0,1,34,.176a2.969,2.969,0,0,1-2.47-1.187L31.421,0H29.136V-13.5h2.54v4.843a2.893,2.893,0,0,1,2.312-1.028,3.258,3.258,0,0,1,2.729,1.279,5.767,5.767,0,0,1,.989,3.6Zm-2.54-.185a3.783,3.783,0,0,0-.457-2.1,1.545,1.545,0,0,0-1.362-.664,1.676,1.676,0,0,0-1.67.993v3.753a1.7,1.7,0,0,0,1.688,1A1.568,1.568,0,0,0,34.98-3.085,6.257,6.257,0,0,0,35.165-4.852Zm9.8,3.885a3.185,3.185,0,0,1-2.6,1.143A3,3,0,0,1,40.03-.7a3.752,3.752,0,0,1-.822-2.575V-9.51h2.54v6.151q0,1.487,1.354,1.487a1.834,1.834,0,0,0,1.775-.9V-9.51h2.549V0H45.035ZM53.719.176a4.668,4.668,0,0,1-3.406-1.283A4.561,4.561,0,0,1,49-4.526v-.246a5.745,5.745,0,0,1,.554-2.562,4.064,4.064,0,0,1,1.569-1.74,4.4,4.4,0,0,1,2.316-.611,3.947,3.947,0,0,1,3.072,1.23A5,5,0,0,1,57.63-4.966v1.037H51.574a2.36,2.36,0,0,0,.743,1.494,2.245,2.245,0,0,0,1.569.563A2.742,2.742,0,0,0,56.18-2.936l1.248,1.4A3.813,3.813,0,0,1,55.881-.277,5.075,5.075,0,0,1,53.719.176Zm-.29-7.813a1.587,1.587,0,0,0-1.226.512,2.651,2.651,0,0,0-.6,1.466h3.533v-.2a1.891,1.891,0,0,0-.457-1.311A1.638,1.638,0,0,0,53.429-7.638Zm7.98-1.872.079,1.1a3.32,3.32,0,0,1,2.733-1.274,2.759,2.759,0,0,1,2.25.888,4.142,4.142,0,0,1,.756,2.654V0h-2.54V-6.082a1.648,1.648,0,0,0-.352-1.173,1.574,1.574,0,0,0-1.169-.365,1.747,1.747,0,0,0-1.608.914V0h-2.54V-9.51ZM74.663,0a2.821,2.821,0,0,1-.255-.853,3.073,3.073,0,0,1-2.4,1.028,3.376,3.376,0,0,1-2.316-.809,2.6,2.6,0,0,1-.918-2.039A2.687,2.687,0,0,1,69.9-4.992a5.529,5.529,0,0,1,3.239-.817H74.3v-.545a1.567,1.567,0,0,0-.338-1.055A1.331,1.331,0,0,0,72.9-7.8,1.513,1.513,0,0,0,71.89-7.5a1.045,1.045,0,0,0-.365.844h-2.54a2.551,2.551,0,0,1,.51-1.529,3.37,3.37,0,0,1,1.441-1.1,5.253,5.253,0,0,1,2.092-.4,4.15,4.15,0,0,1,2.791.883,3.09,3.09,0,0,1,1.033,2.483V-2.2a4.546,4.546,0,0,0,.378,2.048V0Zm-2.1-1.767a2.188,2.188,0,0,0,1.037-.25,1.645,1.645,0,0,0,.7-.672V-4.324h-.949q-1.907,0-2.03,1.318l-.009.149a1.017,1.017,0,0,0,.334.782A1.3,1.3,0,0,0,72.563-1.767Zm11.391-.861a.818.818,0,0,0-.461-.734,5.241,5.241,0,0,0-1.481-.479q-3.393-.712-3.393-2.883a2.613,2.613,0,0,1,1.05-2.114,4.237,4.237,0,0,1,2.747-.848,4.56,4.56,0,0,1,2.9.853A2.687,2.687,0,0,1,86.4-6.618h-2.54a1.229,1.229,0,0,0-.352-.9,1.488,1.488,0,0,0-1.1-.356,1.52,1.52,0,0,0-.993.29.916.916,0,0,0-.352.738.783.783,0,0,0,.4.681,4.114,4.114,0,0,0,1.349.448,11.019,11.019,0,0,1,1.6.426,2.628,2.628,0,0,1,2.013,2.558,2.481,2.481,0,0,1-1.116,2.1,4.815,4.815,0,0,1-2.883.8A5.029,5.029,0,0,1,80.3-.25a3.561,3.561,0,0,1-1.455-1.169,2.716,2.716,0,0,1-.527-1.6h2.408a1.326,1.326,0,0,0,.5,1.037,1.987,1.987,0,0,0,1.248.36,1.839,1.839,0,0,0,1.1-.277A.861.861,0,0,0,83.953-2.628ZM101.1-4.667a5.7,5.7,0,0,1-1,3.52A3.2,3.2,0,0,1,97.409.176a2.963,2.963,0,0,1-2.329-1V3.656H92.54V-9.51H94.9l.088.932a2.985,2.985,0,0,1,2.408-1.107,3.22,3.22,0,0,1,2.733,1.3A5.858,5.858,0,0,1,101.1-4.8Zm-2.54-.185A3.743,3.743,0,0,0,98.09-6.9a1.532,1.532,0,0,0-1.367-.721,1.663,1.663,0,0,0-1.644.914v3.894a1.692,1.692,0,0,0,1.661.94Q98.561-1.872,98.561-4.852Zm9.457-2.276a6.9,6.9,0,0,0-.914-.07,1.86,1.86,0,0,0-1.89.976V0h-2.54V-9.51h2.4l.07,1.134a2.354,2.354,0,0,1,2.118-1.31,2.662,2.662,0,0,1,.791.114ZM114.75,0a2.821,2.821,0,0,1-.255-.853A3.073,3.073,0,0,1,112.1.176a3.376,3.376,0,0,1-2.316-.809,2.6,2.6,0,0,1-.918-2.039,2.687,2.687,0,0,1,1.121-2.32,5.529,5.529,0,0,1,3.239-.817h1.169v-.545a1.567,1.567,0,0,0-.338-1.055,1.331,1.331,0,0,0-1.068-.4,1.513,1.513,0,0,0-1.006.308,1.045,1.045,0,0,0-.365.844h-2.54a2.551,2.551,0,0,1,.51-1.529,3.37,3.37,0,0,1,1.441-1.1,5.253,5.253,0,0,1,2.092-.4,4.15,4.15,0,0,1,2.791.883,3.09,3.09,0,0,1,1.033,2.483V-2.2a4.546,4.546,0,0,0,.378,2.048V0Zm-2.1-1.767a2.188,2.188,0,0,0,1.037-.25,1.645,1.645,0,0,0,.7-.672V-4.324h-.949q-1.907,0-2.03,1.318l-.009.149a1.017,1.017,0,0,0,.334.782A1.3,1.3,0,0,0,112.649-1.767Zm.967-11.733h2.769l-2.435,2.725h-2.065Zm9.229,11.628a1.666,1.666,0,0,0,1.143-.387,1.355,1.355,0,0,0,.457-1.028h2.382a3.258,3.258,0,0,1-.527,1.771,3.48,3.48,0,0,1-1.419,1.248,4.442,4.442,0,0,1-1.991.444,4.129,4.129,0,0,1-3.217-1.3A5.13,5.13,0,0,1,118.494-4.7v-.167a5.071,5.071,0,0,1,1.169-3.507,4.08,4.08,0,0,1,3.208-1.31,4,4,0,0,1,2.861,1.015,3.594,3.594,0,0,1,1.094,2.7h-2.382a1.745,1.745,0,0,0-.457-1.206,1.524,1.524,0,0,0-1.16-.464,1.53,1.53,0,0,0-1.34.647,3.749,3.749,0,0,0-.453,2.1v.264a3.8,3.8,0,0,0,.448,2.113A1.549,1.549,0,0,0,122.845-1.872Zm8.473-9.976V-9.51h1.626v1.863h-1.626V-2.9a1.133,1.133,0,0,0,.2.756,1.015,1.015,0,0,0,.773.229,4.051,4.051,0,0,0,.747-.062V-.053A5.229,5.229,0,0,1,131.5.176a2.425,2.425,0,0,1-2.725-2.7V-7.646h-1.389V-9.51h1.389v-2.338ZM137.039,0H134.49V-9.51h2.549Zm-2.7-11.971a1.251,1.251,0,0,1,.382-.94,1.436,1.436,0,0,1,1.042-.369,1.44,1.44,0,0,1,1.037.369,1.244,1.244,0,0,1,.387.94,1.247,1.247,0,0,1-.391.949,1.443,1.443,0,0,1-1.033.369,1.443,1.443,0,0,1-1.033-.369A1.247,1.247,0,0,1,134.341-11.971Zm8.745,10.1a1.666,1.666,0,0,0,1.143-.387,1.355,1.355,0,0,0,.457-1.028h2.382a3.258,3.258,0,0,1-.527,1.771,3.48,3.48,0,0,1-1.419,1.248,4.442,4.442,0,0,1-1.991.444,4.129,4.129,0,0,1-3.217-1.3A5.13,5.13,0,0,1,138.735-4.7v-.167A5.071,5.071,0,0,1,139.9-8.376a4.08,4.08,0,0,1,3.208-1.31,4,4,0,0,1,2.861,1.015,3.594,3.594,0,0,1,1.094,2.7h-2.382a1.745,1.745,0,0,0-.457-1.206,1.524,1.524,0,0,0-1.16-.464,1.53,1.53,0,0,0-1.34.647,3.749,3.749,0,0,0-.453,2.1v.264a3.8,3.8,0,0,0,.448,2.113A1.549,1.549,0,0,0,143.086-1.872ZM154.028,0a2.821,2.821,0,0,1-.255-.853,3.073,3.073,0,0,1-2.4,1.028,3.376,3.376,0,0,1-2.316-.809,2.6,2.6,0,0,1-.918-2.039,2.687,2.687,0,0,1,1.121-2.32A5.529,5.529,0,0,1,152.5-5.81h1.169v-.545a1.567,1.567,0,0,0-.338-1.055,1.331,1.331,0,0,0-1.068-.4,1.513,1.513,0,0,0-1.006.308,1.045,1.045,0,0,0-.365.844h-2.54a2.551,2.551,0,0,1,.51-1.529,3.37,3.37,0,0,1,1.441-1.1,5.253,5.253,0,0,1,2.092-.4,4.15,4.15,0,0,1,2.791.883,3.09,3.09,0,0,1,1.033,2.483V-2.2a4.546,4.546,0,0,0,.378,2.048V0Zm-2.1-1.767a2.188,2.188,0,0,0,1.037-.25,1.645,1.645,0,0,0,.7-.672V-4.324h-.949q-1.907,0-2.03,1.318l-.009.149a1.017,1.017,0,0,0,.334.782A1.3,1.3,0,0,0,151.928-1.767Zm11.391-.861a.818.818,0,0,0-.461-.734,5.241,5.241,0,0,0-1.481-.479q-3.393-.712-3.393-2.883a2.613,2.613,0,0,1,1.05-2.114,4.237,4.237,0,0,1,2.747-.848,4.56,4.56,0,0,1,2.9.853,2.687,2.687,0,0,1,1.085,2.215h-2.54a1.229,1.229,0,0,0-.352-.9,1.488,1.488,0,0,0-1.1-.356,1.52,1.52,0,0,0-.993.29.916.916,0,0,0-.352.738.783.783,0,0,0,.4.681,4.114,4.114,0,0,0,1.349.448,11.019,11.019,0,0,1,1.6.426,2.628,2.628,0,0,1,2.013,2.558,2.481,2.481,0,0,1-1.116,2.1,4.815,4.815,0,0,1-2.883.8,5.029,5.029,0,0,1-2.123-.426,3.561,3.561,0,0,1-1.455-1.169,2.716,2.716,0,0,1-.527-1.6h2.408a1.326,1.326,0,0,0,.5,1.037,1.987,1.987,0,0,0,1.248.36,1.839,1.839,0,0,0,1.1-.277A.861.861,0,0,0,163.318-2.628Z" transform="translate(359.322 5455.761)" fill="#1d272b" opacity="0.8"/>
      <rect id="Rectángulo_34968" data-name="Rectángulo 34968" width="4.661" height="42.922" transform="translate(350 5416.504)" fill="#d93328"/>
    </g>
  </g>
</svg>
