<svg xmlns="http://www.w3.org/2000/svg" xmlns:xlink="http://www.w3.org/1999/xlink" width="427.956" height="429.039" viewBox="0 0 427.956 429.039">
  <defs>
    <linearGradient id="linear-gradient" x1="0.5" x2="0.5" y2="1" gradientUnits="objectBoundingBox">
      <stop offset="0" stop-color="#f5f5f5"/>
      <stop offset="0.25" stop-color="#f5f5f5"/>
      <stop offset="1" stop-color="#eeeef2"/>
    </linearGradient>
    <linearGradient id="linear-gradient-2" x1="0.5" x2="0.5" y2="1" gradientUnits="objectBoundingBox">
      <stop offset="0" stop-color="#f5f5f5"/>
      <stop offset="0.25" stop-color="#f5f5f5"/>
      <stop offset="1" stop-color="#a7b3cf"/>
    </linearGradient>
    <linearGradient id="linear-gradient-5" x1="0.5" x2="0.5" y2="1" gradientUnits="objectBoundingBox">
      <stop offset="0" stop-color="#fff"/>
      <stop offset="1" stop-color="#f8f8f8"/>
    </linearGradient>
  </defs>
  <g id="img21" transform="translate(-984.375 -6351.759)">
    <g id="Grupo_129316" data-name="Grupo 129316" transform="translate(984.375 6351.759)">
      <path id="Trazado_151846" data-name="Trazado 151846" d="M464.318,503.554c16.714-26.461,21.469-60.8,12.619-91.129-5.6-19.173-16.333-36.984-17.706-56.978-2.746-39.973,31.867-72.29,39.047-111.659,3.156-17.3-.287-37.459-13.815-47.969-13.362-10.38-32.434-8.261-47.561-.991s-27.928,18.907-42.452,27.415-32.408,13.767-47.746,7c-15.536-6.859-24.349-24.147-29.285-41s-7.359-34.8-15.784-50.061c-13.885-25.159-43.489-38.876-71.077-35.327s-52.237,22.994-65.459,48.54-15.532,56.444-8.951,84.66c3.339,14.31,8.838,28.014,11.837,42.407s3.274,30.146-3.422,43.109c-14,27.108-50.937,30.889-70.279,54.137-15.964,19.187-16.465,48.468-7.405,72.064s26.086,42.741,43.061,60.955c79.18,2.781,159.778,2.965,238.958,5.746C399.672,515.554,433.581,505.445,464.318,503.554Z" transform="translate(-80.961 -90.258)" fill="#a4a4b4" opacity="0.354" style="mix-blend-mode: multiply;isolation: isolate"/>
      <path id="Trazado_151847" data-name="Trazado 151847" d="M359.209,166.629c-.091,12.192,9.165,22.8,7.554,34.826-.861,6.433-4.777,12.955-2.5,18.823,2.013,5.192,7.779,6.093,12.187,4.4,10.319-3.953,16.592-17.16,19.591-30.139,2.822-12.208,3.522-25.845-1-37.226C391.4,148.149,383,140.054,374.472,140.8,366.658,141.489,359.278,157.446,359.209,166.629Z" transform="translate(29.659 -33.759)" fill="#a4a4b4" opacity="0.31" style="mix-blend-mode: multiply;isolation: isolate"/>
      <path id="Trazado_151848" data-name="Trazado 151848" d="M116.621,144.046a62.813,62.813,0,0,0-1.47,65.816c3.783,6.371,8.893,12.308,15.793,15.85s15.8,4.333,22.668.738C164.026,221,166.33,208.138,165.5,197.161s-3.539-22.485,1.067-32.644c3-6.622,8.769-11.785,13.884-17.207s9.889-11.752,10.154-18.921c.685-18.583-20.813-17.194-33.768-13.335C140.3,119.982,125.589,130.315,116.621,144.046Z" transform="translate(-70.099 -112.66)" fill="#a4a4b4" opacity="0.31" style="mix-blend-mode: multiply;isolation: isolate"/>
      <g id="Grupo_107069" data-name="Grupo 107069" transform="translate(9.492 6.32)" style="mix-blend-mode: multiply;isolation: isolate">
        <path id="Trazado_151849" data-name="Trazado 151849" d="M457.606,510.4l-1.7-1.624c4.674-5.349,12.136-17.612,9.61-39.658-1.124-9.814-3.911-19.509-6.606-28.884-1.2-4.189-2.448-8.52-3.535-12.82-11.591-45.888-6.521-96.51,13.911-138.882,1.815-3.76,3.778-7.534,5.678-11.181,5.631-10.816,11.454-22,13.958-34.084,4.391-21.2-4.289-37.094-14.213-42.886-9.521-5.56-22.96-4.71-36.869,2.332-5.088,2.575-10.034,5.725-14.817,8.772-6.321,4.027-12.856,8.19-19.873,11.138-27.609,11.6-62.127,1.741-80.29-22.924-8.729-11.853-13.658-26.178-18.424-40.032-1.847-5.368-3.757-10.92-5.857-16.232-6.532-16.515-18.488-37.245-38.349-42.2-17.451-4.359-35.126,5.221-46.878,14.025-22.484,16.844-38.333,39.657-44.63,64.234-4.245,16.574-4.416,34.612-4.581,52.057-.246,25.979-.5,52.843-14.512,74.477-6.374,9.842-15.142,17.695-23.619,25.289-7.94,7.112-16.151,14.467-22.272,23.381-13.869,20.2-17.269,48.8-9.327,78.459,7.136,26.652,21.683,50.3,35.75,73.17l-1.933,1.3c-14.159-23.018-28.8-46.821-36.031-73.822-8.132-30.371-4.605-59.719,9.674-80.514,6.283-9.151,14.6-16.6,22.642-23.806,8.363-7.491,17.011-15.238,23.211-24.81,13.623-21.034,13.862-46.349,14.116-73.15.167-17.6.339-35.789,4.661-52.659,6.433-25.113,22.6-48.4,45.512-65.568,12.141-9.095,30.453-18.978,48.75-14.408,20.8,5.195,33.2,26.59,39.939,43.624,2.122,5.364,4.041,10.943,5.9,16.337,4.706,13.678,9.572,27.823,18.082,39.377,17.558,23.843,50.925,33.37,77.614,22.159,6.839-2.873,13.293-6.984,19.534-10.959,4.828-3.077,9.821-6.258,15.009-8.884,14.592-7.387,28.8-8.217,38.991-2.268,10.641,6.213,19.98,23.1,15.34,45.5-2.574,12.421-8.477,23.76-14.187,34.727-1.891,3.632-3.847,7.387-5.644,11.113-20.182,41.853-25.19,91.854-13.74,137.181,1.075,4.262,2.315,8.573,3.513,12.743,2.723,9.474,5.54,19.269,6.689,29.291C470.436,491.834,462.544,504.752,457.606,510.4Z" transform="translate(-87.906 -97.739)" fill="#a4a4b4"/>
      </g>
    </g>
    <g id="Grupo_129317" data-name="Grupo 129317" transform="translate(1031.585 6448.098)">
      <g id="Grupo_91555" data-name="Grupo 91555" transform="translate(0 0)">
        <path id="Trazado_150481" data-name="Trazado 150481" d="M593.251,564.284a20.555,20.555,0,0,1,20.555-20.555H788.6a18.109,18.109,0,0,1,18.086,17.188l12.9,253.424A13.354,13.354,0,0,1,806.5,828.371l-200.34,3.641a12.676,12.676,0,0,1-12.906-12.674Z" transform="translate(-593.251 -505.347)" fill="#2a383e"/>
        <path id="Trazado_150482" data-name="Trazado 150482" d="M662.626,1865.988h-.006l-22.417-.29a13.825,13.825,0,0,1-13.594-13.771v-33.845a.479.479,0,1,1,.957,0v33.845a12.864,12.864,0,0,0,12.649,12.813l22.417.29a.479.479,0,0,1-.006.957Z" transform="translate(-620.44 -1543.631)" fill="#5c5e61"/>
        <path id="Trazado_150483" data-name="Trazado 150483" d="M627.088,1737.717a.478.478,0,0,1-.479-.478v-5.481a.479.479,0,1,1,.957,0v5.481A.478.478,0,0,1,627.088,1737.717Z" transform="translate(-620.44 -1473.271)" fill="#5c5e61"/>
        <g id="Grupo_91553" data-name="Grupo 91553" transform="translate(14.32 36.272)">
          <path id="Trazado_150484" data-name="Trazado 150484" d="M670.682,538.333a5.97,5.97,0,0,1,6.772-5.955c23.87,3.237,105.954,13.249,173.819,8.039a5.521,5.521,0,0,1,5.946,5.207l13.529,254.553a6.353,6.353,0,0,1-5.969,6.682c-28.543,1.689-146.092,8.219-188.02,3.827a5.034,5.034,0,0,1-4.5-4.981Z" transform="translate(-670.682 -532.322)" fill="#a4a4b4"/>
          <path id="Trazado_150485" data-name="Trazado 150485" d="M685.885,573.823a5.746,5.746,0,0,1,6.517-5.731c22.971,3.115,101.964,12.75,167.274,7.736a5.313,5.313,0,0,1,5.722,5.011l13.02,244.968a6.114,6.114,0,0,1-5.744,6.43c-27.468,1.626-140.591,7.909-180.94,3.683a4.844,4.844,0,0,1-4.334-4.794Z" transform="translate(-683.074 -561.433)" fill="url(#linear-gradient)"/>
          <g id="Grupo_91552" data-name="Grupo 91552" transform="translate(15.521 28.057)">
            <g id="Grupo_91531" data-name="Grupo 91531" transform="translate(14.255)" opacity="0.75">
              <path id="Trazado_150486" data-name="Trazado 150486" d="M831.8,689.719c.38,2,1.69,3.393,3.18,3.375l121.483-1.439c1.374-.016,2.474-1.591,2.444-3.5-.029-1.857-1.117-3.343-2.453-3.351l-121.486-.77C832.818,684.019,831.248,686.837,831.8,689.719Z" transform="translate(-831.686 -684.033)" fill="#2a383e"/>
            </g>
            <g id="Grupo_91536" data-name="Grupo 91536" transform="translate(0 20.267)">
              <g id="Grupo_91532" data-name="Grupo 91532" transform="translate(29.094)" opacity="0.6">
                <path id="Trazado_150487" data-name="Trazado 150487" d="M911.967,797.5c.157,1.368.7,2.318,1.313,2.306l50.155-.983c.568-.011,1.021-1.087,1.009-2.392-.012-1.268-.461-2.283-1.013-2.289l-50.156-.526C912.389,793.611,911.741,795.536,911.967,797.5Z" transform="translate(-911.921 -793.62)" fill="#2a383e"/>
              </g>
              <g id="Grupo_91533" data-name="Grupo 91533" transform="translate(28.299 16.653)" opacity="0.6">
                <path id="Trazado_150488" data-name="Trazado 150488" d="M907.7,887.548a2.59,2.59,0,0,0,2.343,2.306l89.49-.983a2.148,2.148,0,0,0,1.8-2.392,2.118,2.118,0,0,0-1.807-2.289l-89.492-.526C908.457,883.655,907.3,885.58,907.7,887.548Z" transform="translate(-907.623 -883.664)" fill="#2a383e"/>
              </g>
              <g id="Grupo_91534" data-name="Grupo 91534" transform="translate(27.755 33.685)" opacity="0.6">
                <path id="Trazado_150489" data-name="Trazado 150489" d="M904.775,979.644a2.809,2.809,0,0,0,2.663,2.306l101.726-.983a2.361,2.361,0,0,0-.008-4.681l-101.729-.526A3.03,3.03,0,0,0,904.775,979.644Z" transform="translate(-904.684 -975.76)" fill="#2a383e"/>
              </g>
              <g id="Grupo_91535" data-name="Grupo 91535" transform="translate(0 7.55)">
                <path id="Trazado_150490" data-name="Trazado 150490" d="M771.635,874.42H771.6l-12.465-.12a3.35,3.35,0,0,1-3.42-2.85l-1.1-10.459a2.273,2.273,0,0,1,.537-1.709,2.739,2.739,0,0,1,1.907-.941h0c1.05-.071,2.529-.2,4.095-.331,3.3-.281,7.4-.63,9.709-.659a3.484,3.484,0,0,1,3.491,2.441c.649,2.4.592,6.946.469,11.787A3.08,3.08,0,0,1,771.635,874.42ZM757.13,859.3a1.774,1.774,0,0,0-1.24.6,1.323,1.323,0,0,0-.318.993l1.1,10.458a2.4,2.4,0,0,0,2.477,1.993l12.465.12h.025a2.124,2.124,0,0,0,2.235-1.908c.121-4.768.18-9.236-.436-11.513a2.572,2.572,0,0,0-2.555-1.734c-2.274.029-6.358.376-9.639.656-1.57.134-3.053.26-4.111.332Z" transform="translate(-754.608 -853.115)" fill="#fff"/>
                <path id="Trazado_150491" data-name="Trazado 150491" d="M768.413,868.018c2.619-.179,8.31-.757,11.009-.791a2.413,2.413,0,0,1,2.415,1.669c.521,1.926.452,5.766.362,9.309a2.074,2.074,0,0,1-2.192,1.9l-9.961-.1a2.3,2.3,0,0,1-2.356-1.935l-.876-8.358A1.618,1.618,0,0,1,768.413,868.018Z" transform="translate(-764.55 -861.164)" fill="#fff" opacity="0.75"/>
                <path id="Trazado_150492" data-name="Trazado 150492" d="M774.012,843.343h0a1.913,1.913,0,0,1,2.639.718l2.458,4.407a.614.614,0,0,0,1.1-.048l6.1-13.576a.681.681,0,0,1,1.3.294,26.8,26.8,0,0,1-7.8,18.654s-3.657-1.421-6.6-7.888A2.007,2.007,0,0,1,774.012,843.343Z" transform="translate(-769.619 -834.441)" fill="#008f85"/>
              </g>
            </g>
            <g id="Grupo_91541" data-name="Grupo 91541" transform="translate(0.597 78.904)">
              <g id="Grupo_91537" data-name="Grupo 91537" transform="translate(29.094)" opacity="0.6">
                <path id="Trazado_150493" data-name="Trazado 150493" d="M915.265,1114.562a3.441,3.441,0,0,0,3.4,2.306l129.7-.984a2.355,2.355,0,1,0-.01-4.681l-129.708-.526C916.357,1110.669,914.681,1112.594,915.265,1114.562Z" transform="translate(-915.148 -1110.678)" fill="#2a383e"/>
              </g>
              <g id="Grupo_91538" data-name="Grupo 91538" transform="translate(28.299 16.653)" opacity="0.6">
                <path id="Trazado_150494" data-name="Trazado 150494" d="M910.9,1204.606c.185,1.368.821,2.318,1.545,2.306l59.015-.983c.667-.011,1.2-1.087,1.187-2.392-.014-1.268-.543-2.283-1.192-2.289l-59.017-.526C911.4,1200.713,910.637,1202.638,910.9,1204.606Z" transform="translate(-910.849 -1200.722)" fill="#2a383e"/>
              </g>
              <g id="Grupo_91539" data-name="Grupo 91539" transform="translate(27.755 33.685)" opacity="0.6">
                <path id="Trazado_150495" data-name="Trazado 150495" d="M908,1296.7a2.81,2.81,0,0,0,2.663,2.305l101.726-.983a2.361,2.361,0,0,0-.008-4.681l-101.729-.526A3.03,3.03,0,0,0,908,1296.7Z" transform="translate(-907.91 -1292.818)" fill="#2a383e"/>
              </g>
              <g id="Grupo_91540" data-name="Grupo 91540" transform="translate(0 7.55)">
                <path id="Trazado_150496" data-name="Trazado 150496" d="M774.861,1191.478h-.034l-12.465-.12a3.35,3.35,0,0,1-3.42-2.85l-1.1-10.458a2.273,2.273,0,0,1,.537-1.71,2.738,2.738,0,0,1,1.907-.941h0c1.05-.072,2.529-.2,4.095-.331,3.3-.281,7.4-.63,9.709-.659a3.483,3.483,0,0,1,3.49,2.441c.65,2.4.593,6.945.469,11.787A3.08,3.08,0,0,1,774.861,1191.478Zm-14.505-15.124a1.775,1.775,0,0,0-1.24.6,1.321,1.321,0,0,0-.318.993l1.1,10.459a2.4,2.4,0,0,0,2.477,1.993l12.465.12h.025a2.124,2.124,0,0,0,2.235-1.907c.122-4.768.18-9.236-.436-11.513a2.572,2.572,0,0,0-2.554-1.734c-2.274.029-6.358.376-9.639.656-1.57.134-3.053.26-4.111.332Z" transform="translate(-757.835 -1170.173)" fill="#fff"/>
                <path id="Trazado_150497" data-name="Trazado 150497" d="M771.639,1185.075c2.619-.179,8.31-.756,11.009-.79a2.413,2.413,0,0,1,2.415,1.669c.521,1.926.452,5.766.362,9.309a2.074,2.074,0,0,1-2.192,1.9l-9.961-.1a2.3,2.3,0,0,1-2.356-1.935l-.876-8.357A1.618,1.618,0,0,1,771.639,1185.075Z" transform="translate(-767.777 -1178.221)" fill="#fff" opacity="0.75"/>
                <path id="Trazado_150498" data-name="Trazado 150498" d="M777.239,1160.4h0a1.913,1.913,0,0,1,2.639.718l2.459,4.407a.614.614,0,0,0,1.1-.047l6.1-13.576a.681.681,0,0,1,1.3.294,26.8,26.8,0,0,1-7.8,18.653s-3.657-1.421-6.6-7.887A2.007,2.007,0,0,1,777.239,1160.4Z" transform="translate(-772.845 -1151.499)" fill="#008f85"/>
              </g>
            </g>
            <g id="Grupo_91546" data-name="Grupo 91546" transform="translate(0.378 136.568)">
              <g id="Grupo_91542" data-name="Grupo 91542" transform="translate(29.094)" opacity="0.6">
                <path id="Trazado_150499" data-name="Trazado 150499" d="M914.083,1426.359a3.441,3.441,0,0,0,3.4,2.305l129.7-.983a2.355,2.355,0,1,0-.01-4.681l-129.708-.526C915.176,1422.464,913.5,1424.39,914.083,1426.359Z" transform="translate(-913.967 -1422.474)" fill="#2a383e"/>
              </g>
              <g id="Grupo_91543" data-name="Grupo 91543" transform="translate(28.299 16.653)" opacity="0.6">
                <path id="Trazado_150500" data-name="Trazado 150500" d="M909.748,1516.4a2.589,2.589,0,0,0,2.343,2.305l89.49-.983a2.148,2.148,0,0,0,1.8-2.392,2.119,2.119,0,0,0-1.807-2.289l-89.492-.526C910.5,1512.509,909.345,1514.433,909.748,1516.4Z" transform="translate(-909.668 -1512.518)" fill="#2a383e"/>
              </g>
              <g id="Grupo_91544" data-name="Grupo 91544" transform="translate(27.755 33.685)" opacity="0.6">
                <path id="Trazado_150501" data-name="Trazado 150501" d="M906.776,1608.5c.163,1.368.726,2.318,1.367,2.306l52.214-.983c.591-.011,1.063-1.087,1.05-2.391-.012-1.268-.48-2.283-1.054-2.289l-52.216-.526C907.215,1604.6,906.54,1606.53,906.776,1608.5Z" transform="translate(-906.728 -1604.614)" fill="#2a383e"/>
              </g>
              <g id="Grupo_91545" data-name="Grupo 91545" transform="translate(0 7.55)">
                <path id="Trazado_150502" data-name="Trazado 150502" d="M773.68,1503.274h-.034l-12.465-.12a3.351,3.351,0,0,1-3.42-2.85l-1.1-10.458a2.274,2.274,0,0,1,.537-1.709,2.74,2.74,0,0,1,1.907-.941h0c1.05-.072,2.529-.2,4.095-.331,3.3-.281,7.4-.63,9.708-.659a3.484,3.484,0,0,1,3.49,2.442c.649,2.4.592,6.945.469,11.786A3.081,3.081,0,0,1,773.68,1503.274Zm-14.505-15.123a1.773,1.773,0,0,0-1.24.6,1.323,1.323,0,0,0-.318.993l1.1,10.459a2.4,2.4,0,0,0,2.477,1.993l12.465.12h.025a2.123,2.123,0,0,0,2.235-1.907c.122-4.768.18-9.236-.436-11.513a2.573,2.573,0,0,0-2.555-1.734c-2.274.028-6.358.376-9.639.656-1.57.134-3.053.26-4.111.333Z" transform="translate(-756.653 -1481.969)" fill="#fff"/>
                <path id="Trazado_150503" data-name="Trazado 150503" d="M770.458,1496.871c2.619-.179,8.31-.757,11.009-.79a2.413,2.413,0,0,1,2.415,1.668c.521,1.926.452,5.766.361,9.31a2.073,2.073,0,0,1-2.192,1.9l-9.961-.1a2.3,2.3,0,0,1-2.356-1.935l-.876-8.357A1.618,1.618,0,0,1,770.458,1496.871Z" transform="translate(-766.595 -1490.017)" fill="#fff" opacity="0.75"/>
                <path id="Trazado_150504" data-name="Trazado 150504" d="M776.057,1472.2h0a1.913,1.913,0,0,1,2.639.718l2.459,4.407a.614.614,0,0,0,1.1-.048l6.1-13.576a.681.681,0,0,1,1.3.294,26.8,26.8,0,0,1-7.8,18.653s-3.657-1.422-6.6-7.888A2.006,2.006,0,0,1,776.057,1472.2Z" transform="translate(-771.664 -1463.295)" fill="#008f85"/>
              </g>
            </g>
            <g id="Grupo_91551" data-name="Grupo 91551" transform="translate(0.015 197.809)">
              <g id="Grupo_91547" data-name="Grupo 91547" transform="translate(29.094)" opacity="0.6">
                <path id="Trazado_150505" data-name="Trazado 150505" d="M912.119,1757.5a3.441,3.441,0,0,0,3.4,2.305l129.7-.983a2.355,2.355,0,1,0-.01-4.681l-129.708-.526C913.211,1753.608,911.535,1755.534,912.119,1757.5Z" transform="translate(-912.002 -1753.618)" fill="#2a383e"/>
              </g>
              <g id="Grupo_91548" data-name="Grupo 91548" transform="translate(28.299 16.653)" opacity="0.6">
                <path id="Trazado_150506" data-name="Trazado 150506" d="M907.784,1847.546a2.59,2.59,0,0,0,2.343,2.305l89.49-.983a2.148,2.148,0,0,0,1.8-2.391,2.119,2.119,0,0,0-1.807-2.29l-89.492-.526C908.537,1843.652,907.381,1845.578,907.784,1847.546Z" transform="translate(-907.703 -1843.662)" fill="#2a383e"/>
              </g>
              <g id="Grupo_91549" data-name="Grupo 91549" transform="translate(27.755 33.685)" opacity="0.6">
                <path id="Trazado_150507" data-name="Trazado 150507" d="M904.837,1939.643c.256,1.368,1.136,2.317,2.138,2.305l81.665-.984c.924-.011,1.663-1.086,1.643-2.391-.02-1.268-.751-2.283-1.649-2.289l-81.668-.526C905.525,1935.749,904.47,1937.673,904.837,1939.643Z" transform="translate(-904.764 -1935.758)" fill="#fff"/>
              </g>
              <g id="Grupo_91550" data-name="Grupo 91550" transform="translate(0 7.55)">
                <path id="Trazado_150508" data-name="Trazado 150508" d="M771.715,1834.418h-.034l-12.465-.12a3.351,3.351,0,0,1-3.42-2.85l-1.1-10.458a2.274,2.274,0,0,1,.537-1.71,2.737,2.737,0,0,1,1.907-.941h0c1.05-.072,2.529-.2,4.095-.331,3.3-.281,7.4-.63,9.708-.659a3.483,3.483,0,0,1,3.49,2.441c.65,2.4.592,6.946.469,11.787A3.08,3.08,0,0,1,771.715,1834.418Zm-14.505-15.123a1.774,1.774,0,0,0-1.24.6,1.323,1.323,0,0,0-.318.993l1.1,10.458a2.4,2.4,0,0,0,2.477,1.993l12.465.12h.025a2.123,2.123,0,0,0,2.235-1.907c.121-4.769.18-9.236-.436-11.513a2.572,2.572,0,0,0-2.554-1.734c-2.274.029-6.358.376-9.639.656-1.57.133-3.053.26-4.111.332Z" transform="translate(-754.689 -1813.113)" fill="#fff"/>
                <path id="Trazado_150509" data-name="Trazado 150509" d="M768.493,1828.016c2.619-.179,8.31-.757,11.009-.791a2.413,2.413,0,0,1,2.415,1.669c.521,1.926.452,5.766.362,9.309a2.074,2.074,0,0,1-2.192,1.9l-9.961-.1a2.3,2.3,0,0,1-2.356-1.934l-.876-8.358A1.618,1.618,0,0,1,768.493,1828.016Z" transform="translate(-764.631 -1821.161)" fill="#fff" opacity="0.75"/>
                <path id="Trazado_150510" data-name="Trazado 150510" d="M774.093,1803.341h0a1.913,1.913,0,0,1,2.639.718l2.458,4.408a.615.615,0,0,0,1.1-.048l6.1-13.576a.681.681,0,0,1,1.3.295,26.8,26.8,0,0,1-7.8,18.653s-3.657-1.421-6.6-7.887A2.007,2.007,0,0,1,774.093,1803.341Z" transform="translate(-769.699 -1794.439)" fill="#008f85"/>
              </g>
            </g>
          </g>
        </g>
        <path id="Trazado_150511" data-name="Trazado 150511" d="M1142.261,340.023c-6.314-4.393-11.8-4.306-15.669-3.165a7.708,7.708,0,0,0-5.475,8.1l1.667,18.192,19.833,1.76S1154.644,348.637,1142.261,340.023Zm-8.722,14.676a4.945,4.945,0,1,1,4.945-4.945A4.945,4.945,0,0,1,1133.539,354.7Z" transform="translate(-1023.467 -336.194)" fill="#333435"/>
        <g id="Grupo_91554" data-name="Grupo 91554" transform="translate(100.07 2.664)">
          <path id="Trazado_150512" data-name="Trazado 150512" d="M1135.571,367.241a.478.478,0,0,1-.476-.435l-.266-2.9a.479.479,0,1,1,.953-.087l.266,2.9a.479.479,0,0,1-.433.52Zm-.52-5.677a.479.479,0,0,1-.476-.435l-.2-2.2a7.358,7.358,0,0,1,5.217-7.72,14.826,14.826,0,0,1,7.249-.3.479.479,0,0,1-.193.938,13.891,13.891,0,0,0-6.785.278,6.4,6.4,0,0,0-4.535,6.716l.2,2.2a.478.478,0,0,1-.432.52Z" transform="translate(-1134.342 -350.598)" fill="#5c5e61"/>
        </g>
        <path id="Trazado_150513" data-name="Trazado 150513" d="M983.911,480.632v-9.146a5.582,5.582,0,0,1,5.772-5.578l63.06,2.161a5.428,5.428,0,0,1,5.233,5.1l.527,8.788Z" transform="translate(-911.662 -441.915)" fill="#333435"/>
        <path id="Trazado_150514" data-name="Trazado 150514" d="M1096.99,480.339h-2.711a.479.479,0,1,1,0-.957h2.711a.479.479,0,1,1,0,.957Z" transform="translate(-1001.228 -452.901)" fill="#5c5e61"/>
        <path id="Trazado_150515" data-name="Trazado 150515" d="M1000.257,488.745a.478.478,0,0,1-.478-.479v-3.7a5.19,5.19,0,0,1,5.185-5.185h9.97a.479.479,0,1,1,0,.957h-9.97a4.232,4.232,0,0,0-4.228,4.227v3.7A.478.478,0,0,1,1000.257,488.745Z" transform="translate(-924.595 -452.901)" fill="#5c5e61"/>
        <path id="Trazado_150516" data-name="Trazado 150516" d="M843.883,533.082a5.942,5.942,0,0,1,5.935-5.657l110.272,0a8.15,8.15,0,0,1,8.031,6.76l.094.539a7,7,0,0,1-6.9,8.193H848.185a4.551,4.551,0,0,1-4.546-4.769Z" transform="translate(-797.328 -492.056)" fill="#333435"/>
      </g>
    </g>
    <g id="Grupo_129318" data-name="Grupo 129318" transform="translate(1034.796 6304.883)">
      <g id="Grupo_128932" data-name="Grupo 128932" transform="translate(164.895 161.875)">
        <path id="Rectángulo_35713" data-name="Rectángulo 35713" d="M4.333,0H27a4.333,4.333,0,0,1,4.333,4.333V60.506a0,0,0,0,1,0,0H0a0,0,0,0,1,0,0V4.333A4.333,4.333,0,0,1,4.333,0Z" transform="translate(19.289 243.721)" fill="#db8804"/>
        <path id="Trazado_165975" data-name="Trazado 165975" d="M240.739,317.061h0a16.407,16.407,0,0,1-16.406-16.406V276.643a12.993,12.993,0,0,0-12.994-12.994h-9.967a10.869,10.869,0,0,0-10.87,10.87v49.789a6.94,6.94,0,0,0,6.94,6.94h43.73a7.112,7.112,0,0,0,6.99-8.305A7.405,7.405,0,0,0,240.739,317.061Z" transform="translate(-129.18 -19.927)" fill="#db8804"/>
        <path id="Trazado_165976" data-name="Trazado 165976" d="M175.5,276.566c-.821,10.836,2.589,20.056,9.869,28.124-13.494,32.209-14.51,71.981,1.707,100.986,5.707,10.206,20.667,9.859,25.434-.819a97.5,97.5,0,0,0,7.644-49.59,43.907,43.907,0,0,0,8.142,21.217,36.107,36.107,0,0,0-2.517,25.628c4.021,14.773,24.644,15.513,30.035,1.183,12.261-32.58,5.546-73.082-14.689-103.538a33.374,33.374,0,0,0,4.873-29.422,75.826,75.826,0,0,0-11.473-46.441,30.815,30.815,0,0,0-1.664-28.31,25.734,25.734,0,0,0-2.45-28.1c-7.148-9.066-21.691-6.705-26.024,4a33.429,33.429,0,0,0-2.428,13.557,40.562,40.562,0,0,0-16.282,27.571h0a17.959,17.959,0,0,0-18.415,15.6l-1.7,12.864C163.01,260.412,171.909,271.272,175.5,276.566Z" transform="translate(-164.595 -161.875)" fill="url(#linear-gradient-2)"/>
        <path id="Trazado_165977" data-name="Trazado 165977" d="M209.71,180.2a22.692,22.692,0,0,1-8.779,16.354,10.878,10.878,0,0,1-17.137-5.362,20.97,20.97,0,0,1,2.912-18.332l19.8,5.3Z" transform="translate(-139.846 -146.553)" fill="#868695"/>
        <path id="Trazado_165978" data-name="Trazado 165978" d="M176.433,220.912a.461.461,0,0,1-.2-.043.483.483,0,0,1-.247-.639,38.006,38.006,0,0,0-1.581-34.1.482.482,0,1,1,.838-.474,38.978,38.978,0,0,1,1.626,34.975A.48.48,0,0,1,176.433,220.912Z" transform="translate(-151.714 -129.052)" fill="#241414"/>
        <path id="Trazado_165979" data-name="Trazado 165979" d="M199.774,194.316a37.294,37.294,0,0,1-22.611-7.63.482.482,0,0,1-.093-.678.491.491,0,0,1,.675-.093,36.335,36.335,0,0,0,25.082,7.306l.041,0a.483.483,0,0,1,.043.965Q201.338,194.317,199.774,194.316Z" transform="translate(-148.052 -128.476)" fill="#241414"/>
        <path id="Trazado_165980" data-name="Trazado 165980" d="M186.006,226.9a26.386,26.386,0,0,1-10.266-2.091.487.487,0,0,1-.256-.635.493.493,0,0,1,.635-.256A25.2,25.2,0,0,0,200.6,221.27a9.677,9.677,0,0,0,4.172-8.937,9.944,9.944,0,0,0-6.039-8.14,24.216,24.216,0,0,0-8.417-2.026c-.474-.029-.951-.041-1.427-.041a24.236,24.236,0,0,0-18.023,8,.479.479,0,0,1-.682.034.484.484,0,0,1-.034-.683,25.325,25.325,0,0,1,28.976-6.171,10.913,10.913,0,0,1,6.609,8.928,10.636,10.636,0,0,1-4.574,9.821A26.231,26.231,0,0,1,186.006,226.9Z" transform="translate(-157.748 -107.079)" fill="#241414"/>
        <path id="Trazado_165981" data-name="Trazado 165981" d="M176.142,222.469a.484.484,0,0,1-.026-.967L220.8,219.1a.514.514,0,0,1,.51.457.486.486,0,0,1-.455.51l-44.688,2.407Z" transform="translate(-149.884 -82.068)" fill="#1d272b"/>
        <path id="Trazado_165982" data-name="Trazado 165982" d="M176.295,224.747a.484.484,0,0,1-.026-.967l44.688-2.4a.516.516,0,0,1,.51.457.489.489,0,0,1-.457.51l-44.688,2.4Z" transform="translate(-149.668 -78.888)" fill="#1d272b"/>
        <path id="Trazado_165983" data-name="Trazado 165983" d="M190.048,260.749a.569.569,0,0,1-.125-.014.483.483,0,0,1-.342-.589,54.261,54.261,0,0,0-2.32-34.355.481.481,0,1,1,.888-.371,55.2,55.2,0,0,1,2.368,34.97A.483.483,0,0,1,190.048,260.749Z" transform="translate(-133.753 -73.66)" fill="#1d272b"/>
        <path id="Trazado_165984" data-name="Trazado 165984" d="M192.521,260.749a.568.568,0,0,1-.125-.014.483.483,0,0,1-.342-.589,54.294,54.294,0,0,0-2.32-34.355.483.483,0,1,1,.891-.371,55.281,55.281,0,0,1,2.366,34.97A.483.483,0,0,1,192.521,260.749Z" transform="translate(-130.303 -73.66)" fill="#1d272b"/>
        <path id="Trazado_165985" data-name="Trazado 165985" d="M236.833,185.925H198.7l-13.8,56.418h38.13Z" transform="translate(-136.993 -128.331)" fill="#241414"/>
        <path id="Trazado_165986" data-name="Trazado 165986" d="M187.655,229.866a.478.478,0,0,1-.278-.089.486.486,0,0,1-.12-.673,29.606,29.606,0,0,0,5.28-18.387.487.487,0,0,1,.457-.508h.026a.484.484,0,0,1,.481.46,30.562,30.562,0,0,1-5.453,18.99A.482.482,0,0,1,187.655,229.866Z" transform="translate(-133.825 -94.46)" fill="#1d272b"/>
        <path id="Trazado_165987" data-name="Trazado 165987" d="M190.242,229.866a.466.466,0,0,1-.275-.089.485.485,0,0,1-.122-.673,29.606,29.606,0,0,0,5.28-18.387.491.491,0,0,1,.457-.508h.026a.487.487,0,0,1,.484.46,30.565,30.565,0,0,1-5.455,18.99A.482.482,0,0,1,190.242,229.866Z" transform="translate(-130.216 -94.46)" fill="#1d272b"/>
        <path id="Trazado_165988" data-name="Trazado 165988" d="M217.318,179.4l-.812,3.518a159.052,159.052,0,0,1-26.32-6.183c-3.48-1.121-6.918-2.359-10.36-3.75l.388-3.633c3.515,1.43,7.11,2.706,10.7,3.865A166.643,166.643,0,0,0,217.318,179.4Z" transform="translate(-144.07 -151.444)" fill="#1d272b"/>
        <path id="Trazado_165989" data-name="Trazado 165989" d="M195.2,185.433a.47.47,0,0,1-.115-.012.481.481,0,0,1-.354-.584,24.257,24.257,0,0,0-5.024-21.224.485.485,0,0,1,.057-.68.491.491,0,0,1,.683.057,25.222,25.222,0,0,1,5.221,22.075A.48.48,0,0,1,195.2,185.433Z" transform="translate(-130.449 -160.555)" fill="#1d272b"/>
        <path id="Trazado_165990" data-name="Trazado 165990" d="M193.393,184.97a.619.619,0,0,1-.113-.012.481.481,0,0,1-.354-.584,24.237,24.237,0,0,0-5.024-21.224.485.485,0,0,1,.057-.683.494.494,0,0,1,.683.06,25.2,25.2,0,0,1,5.221,22.072A.481.481,0,0,1,193.393,184.97Z" transform="translate(-132.964 -161.201)" fill="#1d272b"/>
        <path id="Trazado_165991" data-name="Trazado 165991" d="M211.3,177.15l-.812,3.518c-1.274,5.489-9.354,9.2-10.087.426-7.036,8.851-16.813,2.28-16.234-6.609a13.016,13.016,0,0,1,.733-3.518A166.644,166.644,0,0,0,211.3,177.15Z" transform="translate(-138.051 -149.193)" fill="#1d272b"/>
        <path id="Trazado_165992" data-name="Trazado 165992" d="M187.655,191.538a.471.471,0,0,1-.417-.239.481.481,0,0,1,.17-.661,15.433,15.433,0,0,0,7.6-13.1.483.483,0,0,1,.484-.479h0a.481.481,0,0,1,.479.489,16.4,16.4,0,0,1-8.073,13.921A.488.488,0,0,1,187.655,191.538Z" transform="translate(-133.826 -140.692)" fill="#1d272b"/>
        <path id="Trazado_165993" data-name="Trazado 165993" d="M196.032,199.072c-.853,3.487-14.55,6.37-14.737,15.436s19.962,4.811,19.962,4.811,3.985-1.094,1.255-3.87a2.078,2.078,0,0,0,2.241-2.055c0-1.712-2.7-1.324-2.7-1.324,3.276-.627,3.451-3.135,2.021-3.515s-8.98,1.662-10.357,0,8.827-.728,9.138-3.446-7.986-1.264-7.986-1.264Z" transform="translate(-142.023 -109.994)" fill="#db8804"/>
        <path id="Trazado_165994" data-name="Trazado 165994" d="M185.032,203.844a.473.473,0,0,1-.376-.182.479.479,0,0,1,.079-.68,9.69,9.69,0,0,1,4.114-1.9.5.5,0,0,1,.57.378.488.488,0,0,1-.381.568,8.771,8.771,0,0,0-3.707,1.717A.483.483,0,0,1,185.032,203.844Z" transform="translate(-137.482 -107.206)" fill="#1d272b"/>
        <path id="Trazado_165995" data-name="Trazado 165995" d="M189.044,206.053a29.372,29.372,0,0,1-3.719-.235.483.483,0,1,1,.122-.958,28.627,28.627,0,0,0,9.9-.479.494.494,0,0,1,.577.366.485.485,0,0,1-.366.577A29.486,29.486,0,0,1,189.044,206.053Z" transform="translate(-136.99 -102.602)" fill="#1d272b"/>
        <path id="Trazado_165996" data-name="Trazado 165996" d="M188.779,207.589a31,31,0,0,1-3.36-.182.482.482,0,0,1-.426-.534.445.445,0,0,1,.532-.429,29.8,29.8,0,0,0,10.247-.651.49.49,0,0,1,.582.357.48.48,0,0,1-.354.584A30.9,30.9,0,0,1,188.779,207.589Z" transform="translate(-136.868 -100.635)" fill="#1d272b"/>
        <path id="Trazado_165997" data-name="Trazado 165997" d="M203.529,300.139H178.24a7.114,7.114,0,0,1-7.093-7.093h0a7.114,7.114,0,0,1,7.093-7.093h25.288a7.112,7.112,0,0,1,7.091,7.093h0A7.112,7.112,0,0,1,203.529,300.139Z" transform="translate(-156.175 11.181)" fill="#db8804"/>
        <path id="Trazado_165998" data-name="Trazado 165998" d="M178.329,305.45a.482.482,0,0,1-.481-.484V268.822a.483.483,0,0,1,.965,0v36.144A.484.484,0,0,1,178.329,305.45Z" transform="translate(-146.829 -13.383)" fill="#1d272b"/>
        <path id="Trazado_165999" data-name="Trazado 165999" d="M181.059,305.45a.482.482,0,0,1-.481-.484V268.822a.483.483,0,0,1,.965,0v36.144A.484.484,0,0,1,181.059,305.45Z" transform="translate(-143.021 -13.383)" fill="#1d272b"/>
        <path id="Trazado_166000" data-name="Trazado 166000" d="M178.329,297.372a.482.482,0,0,1-.481-.484v-9.313a.483.483,0,1,1,.965,0v9.313A.484.484,0,0,1,178.329,297.372Z" transform="translate(-146.829 12.768)" fill="#1d272b"/>
        <path id="Trazado_166001" data-name="Trazado 166001" d="M181.059,297.372a.482.482,0,0,1-.481-.484v-9.313a.483.483,0,1,1,.965,0v9.313A.484.484,0,0,1,181.059,297.372Z" transform="translate(-143.021 12.768)" fill="#1d272b"/>
        <path id="Trazado_166002" data-name="Trazado 166002" d="M225.59,318.549a21.883,21.883,0,0,1-21.883-21.885V272.651a7.46,7.46,0,0,0-2.206-5.314.493.493,0,0,1,0-.685.487.487,0,0,1,.687,0,8.438,8.438,0,0,1,2.483,6v24.012a20.919,20.919,0,0,0,20.918,20.918.484.484,0,1,1,0,.967Z" transform="translate(-114.031 -15.935)" fill="#1d272b"/>
        <path id="Trazado_166003" data-name="Trazado 166003" d="M185.294,269.59a15.957,15.957,0,0,1-9.675-3.515.483.483,0,0,1,.582-.771c5.843,4.428,12.462,4.406,18.162-.055a.492.492,0,0,1,.68.081.484.484,0,0,1-.084.68A15.625,15.625,0,0,1,185.294,269.59Z" transform="translate(-150.206 -17.836)" fill="#241414"/>
        <path id="Trazado_166004" data-name="Trazado 166004" d="M202.961,270.687a18.043,18.043,0,0,1-10.436-3.729.483.483,0,0,1,.558-.788c7.194,5.091,14.273,4.665,21.054-1.264a.483.483,0,0,1,.635.728C210.919,269,206.97,270.687,202.961,270.687Z" transform="translate(-126.641 -18.341)" fill="#241414"/>
        <path id="Trazado_166005" data-name="Trazado 166005" d="M192.136,254.518a.484.484,0,0,1-.441-.675l2.093-4.811a.482.482,0,1,1,.884.386l-1.585,3.64,2.546-1.188a.483.483,0,1,1,.407.876l-3.7,1.727A.468.468,0,0,1,192.136,254.518Z" transform="translate(-127.574 -40.72)" fill="#241414"/>
        <path id="Trazado_166006" data-name="Trazado 166006" d="M191.472,275.743a.492.492,0,0,1-.469-.357,36.444,36.444,0,0,1,.948-22.242.485.485,0,0,1,.62-.287.48.48,0,0,1,.285.62,35.481,35.481,0,0,0-.917,21.655.484.484,0,0,1-.34.594A.6.6,0,0,1,191.472,275.743Z" transform="translate(-130.291 -35.021)" fill="#241414"/>
        <path id="Trazado_166007" data-name="Trazado 166007" d="M178.627,313.446a.484.484,0,0,1-.438-.28c-11.619-25.147-12.172-58.278-1.482-88.622a.485.485,0,0,1,.915.321c-10.611,30.114-10.072,62.972,1.444,87.9a.477.477,0,0,1-.232.639A.494.494,0,0,1,178.627,313.446Z" transform="translate(-159.08 -74.913)" fill="#241414"/>
        <path id="Trazado_166008" data-name="Trazado 166008" d="M213.057,307.874l-1-.235c6.387-26.833,1.336-58.5-13.506-84.718l.888-.505C214.408,248.851,219.5,280.8,213.057,307.874Z" transform="translate(-117.955 -77.436)" fill="#1d272b"/>
        <path id="Trazado_166009" data-name="Trazado 166009" d="M185.643,284.129l-.936-.417a94.412,94.412,0,0,0,8.042-35.128l1.025.036A95.431,95.431,0,0,1,185.643,284.129Z" transform="translate(-137.262 -40.938)" fill="#fff"/>
        <path id="Trazado_166010" data-name="Trazado 166010" d="M175.372,261.976c-.273-.4-.572-.829-.9-1.293-4.023-5.762-11.5-16.483-9.124-34.561l1.7-12.862a18.408,18.408,0,0,1,18.3-16.054h.18a41.132,41.132,0,0,1,13.011-24.663l.687.757a40.087,40.087,0,0,0-12.74,24.5l-.06.462-.465-.017c-.2-.007-.41-.01-.613-.01a17.383,17.383,0,0,0-17.278,15.163l-1.7,12.862c-2.328,17.683,5.007,28.193,8.949,33.84.328.467.632.9.9,1.305Z" transform="translate(-164.895 -146.996)" fill="#1d272b"/>
      </g>
      <g id="Grupo_128933" data-name="Grupo 128933" transform="translate(246.662 169.922)">
        <path id="Trazado_166011" data-name="Trazado 166011" d="M244.243,228.069a53.52,53.52,0,0,1-26.433-23.052,12.953,12.953,0,0,1,.376-13.8A72.079,72.079,0,0,1,244.243,168.3l16.191,50.237Z" transform="translate(-205.379 -160.959)" fill="#fff"/>
        <path id="Trazado_166012" data-name="Trazado 166012" d="M235.153,317.061h0a16.405,16.405,0,0,0,16.406-16.406V276.643a12.993,12.993,0,0,1,12.994-12.994h9.969a10.871,10.871,0,0,1,10.87,10.87v49.789a6.942,6.942,0,0,1-6.94,6.94h-43.73a7.112,7.112,0,0,1-6.993-8.305A7.405,7.405,0,0,1,235.153,317.061Z" transform="translate(-189.167 -27.974)" fill="#db8804"/>
        <path id="Trazado_166013" data-name="Trazado 166013" d="M274.652,203.836q1.979.92,3.858,1.99c17.707,10.063,22.688,33.076,11.976,50.4a56.538,56.538,0,0,0-8.185,35.32,40.278,40.278,0,0,1,5.429,46.628,75.427,75.427,0,0,1,7.6,51.578c-3.63,17.335-25.631,22.566-37.169,9.129a111.2,111.2,0,0,1-22.731-102.339,67.364,67.364,0,0,1,1.93-74.562,50.113,50.113,0,0,1-14.435-43.527c2.079-13.37,19.481-17.477,27.41-6.511a48.48,48.48,0,0,1,6.559,12.654A25.152,25.152,0,0,1,274.652,203.836Z" transform="translate(-196.562 -164.668)" fill="url(#linear-gradient-2)"/>
        <path id="Trazado_166014" data-name="Trazado 166014" d="M234.746,178.062a13.117,13.117,0,0,1,4.071,22.637l-10.546-2.1-5.946-11.878,2.306-7.179Z" transform="translate(-196.562 -147.345)" fill="#868695"/>
        <path id="Trazado_166015" data-name="Trazado 166015" d="M231.244,222.774a.483.483,0,0,1-.055-.963l32.75-3.793a.5.5,0,0,1,.536.424.482.482,0,0,1-.422.534L231.3,222.769Z" transform="translate(-184.796 -91.622)" fill="#1d272b"/>
        <path id="Trazado_166016" data-name="Trazado 166016" d="M231.244,225.343a.483.483,0,0,1-.055-.963l32.75-3.793a.491.491,0,0,1,.536.424.479.479,0,0,1-.422.534L231.3,225.339Z" transform="translate(-184.796 -88.04)" fill="#1d272b"/>
        <path id="Trazado_166017" data-name="Trazado 166017" d="M246.392,299.363a.487.487,0,0,1-.4-.208,100.243,100.243,0,0,1-16.174-73.628.482.482,0,1,1,.951.16,99.278,99.278,0,0,0,16.023,72.919.483.483,0,0,1-.127.673A.476.476,0,0,1,246.392,299.363Z" transform="translate(-188.099 -81.708)" fill="#1d272b"/>
        <path id="Trazado_166018" data-name="Trazado 166018" d="M233.178,190.989a.49.49,0,0,1-.292-.1.481.481,0,0,1-.093-.675,22.616,22.616,0,0,1,22.312-8.585.484.484,0,1,1-.189.948,21.654,21.654,0,0,0-21.354,8.214A.474.474,0,0,1,233.178,190.989Z" transform="translate(-182.1 -142.939)" fill="#241414"/>
        <path id="Trazado_166019" data-name="Trazado 166019" d="M227.11,212.108a.613.613,0,0,1-.144-.022.48.48,0,0,1-.316-.6,64.678,64.678,0,0,1,13.09-23.593.485.485,0,0,1,.733.635,63.755,63.755,0,0,0-12.9,23.241A.481.481,0,0,1,227.11,212.108Z" transform="translate(-190.562 -133.868)" fill="#1d272b"/>
        <path id="Trazado_166020" data-name="Trazado 166020" d="M233.823,231.763a.48.48,0,0,1-.419-.244,64.912,64.912,0,0,1-7.534-20.741.481.481,0,0,1,.388-.558.466.466,0,0,1,.563.39,63.9,63.9,0,0,0,7.421,20.429.481.481,0,0,1-.182.659A.465.465,0,0,1,233.823,231.763Z" transform="translate(-191.628 -102.508)" fill="#1d272b"/>
        <path id="Trazado_166021" data-name="Trazado 166021" d="M231.052,318.549a.484.484,0,1,1,0-.967,20.927,20.927,0,0,0,20.918-20.918V272.651a8.428,8.428,0,0,1,2.483-6,.487.487,0,0,1,.687,0,.493.493,0,0,1,0,.685,7.45,7.45,0,0,0-2.206,5.314v24.012a21.892,21.892,0,0,1-21.883,21.885Z" transform="translate(-185.066 -23.983)" fill="#1d272b"/>
        <path id="Trazado_166022" data-name="Trazado 166022" d="M230.276,166.571c9.234-4.469,18.717,3.048,15.853,11.08a3.323,3.323,0,0,1-5.218,1.48c-1.686-1.406-3.116-3.6-1.669-6.626A15.291,15.291,0,0,0,230.276,166.571Z" transform="translate(-185.473 -165.235)" fill="#fff"/>
        <path id="Trazado_166023" data-name="Trazado 166023" d="M224.757,185.483a.481.481,0,0,1-.46-.338,18.026,18.026,0,0,1,3.992-17.652.484.484,0,0,1,.711.656,17.067,17.067,0,0,0-3.784,16.706.481.481,0,0,1-.46.627Z" transform="translate(-194.962 -162.3)" fill="#1d272b"/>
        <path id="Trazado_166024" data-name="Trazado 166024" d="M257.306,176.142l-33.985,12.274-1.295-5.428,33.5-11.288Z" transform="translate(-196.979 -156.218)" fill="#1d272b"/>
        <path id="Trazado_166025" data-name="Trazado 166025" d="M223.32,184.589c2.649,10.161,15.527,11.787,12.7-10.144l-13.99,4.715Z" transform="translate(-196.978 -152.39)" fill="#1d272b"/>
        <path id="Trazado_166026" data-name="Trazado 166026" d="M226.358,189.652a.473.473,0,0,1-.261-.077.484.484,0,0,1-.148-.666,15.65,15.65,0,0,0,1.753-13.015.481.481,0,1,1,.92-.283,16.6,16.6,0,0,1-1.856,13.815A.48.48,0,0,1,226.358,189.652Z" transform="translate(-191.613 -151.234)" fill="#fff"/>
        <path id="Trazado_166027" data-name="Trazado 166027" d="M239.083,205.2c-8.022,1.834-14.021-11.5-26.7-4.014a1.372,1.372,0,0,0,.821,2.548,8.787,8.787,0,0,0,2.024-.431c3.1-1.063,6.964,1.018,6.964,1.018a12.646,12.646,0,0,0-10.261,2.615.921.921,0,0,0,.611,1.652,24.585,24.585,0,0,1,5.692.311s-2.368.967-4.572,4.689a.92.92,0,0,0,1.178,1.305,23.7,23.7,0,0,1,5.151-1.691,17.4,17.4,0,0,0-2.538,2.447.92.92,0,0,0,1.109,1.425c3.554-1.779,6.5-2.6,9.988-1.281,4.533,1.71,9.622-1.111,9.622-1.111l1.2-9.576Z" transform="translate(-211.567 -118.297)" fill="#db8804"/>
        <path id="Trazado_166028" data-name="Trazado 166028" d="M215.134,204.655a.493.493,0,0,1-.393-.2.486.486,0,0,1,.11-.675,9.979,9.979,0,0,1,5.826-1.9.513.513,0,0,1,.536.484.484.484,0,0,1-.484.484h-.053a9.016,9.016,0,0,0-5.261,1.71A.476.476,0,0,1,215.134,204.655Z" transform="translate(-207.265 -114.12)" fill="#1d272b"/>
        <path id="Trazado_166029" data-name="Trazado 166029" d="M215.811,206.292a.484.484,0,0,1-.271-.884,9.5,9.5,0,0,1,5.79-1.7.477.477,0,0,1,.469.493.482.482,0,0,1-.481.472,2.152,2.152,0,0,1-.216,0,8.917,8.917,0,0,0-5.019,1.54A.5.5,0,0,1,215.811,206.292Z" transform="translate(-206.322 -111.593)" fill="#1d272b"/>
        <path id="Trazado_166030" data-name="Trazado 166030" d="M266.1,183.727a34,34,0,0,0-5.774,39.046,52.029,52.029,0,0,0-27.911-2.687c-13.846,2.474-14.246,22.4-.443,25.106a78.362,78.362,0,0,0,36.838-1.614,26.677,26.677,0,0,0,17.247-15.788,57.328,57.328,0,0,0,2.986-32.525Z" transform="translate(-197.261 -139.444)" fill="url(#linear-gradient-2)"/>
        <path id="Trazado_166031" data-name="Trazado 166031" d="M247.312,247.412a78.68,78.68,0,0,1-15.149-1.466,12.8,12.8,0,0,1-10.542-12.977,13.084,13.084,0,0,1,11-13.078,52.48,52.48,0,0,1,27.025,2.285,34.5,34.5,0,0,1,6.394-38.5.489.489,0,0,1,.685-.014.481.481,0,0,1,.01.68,33.549,33.549,0,0,0-5.692,38.5.476.476,0,0,1-.072.541.494.494,0,0,1-.532.127,51.659,51.659,0,0,0-27.65-2.661,12.137,12.137,0,0,0-10.2,12.136c-.038,4.655,2.493,10.6,9.763,12.022a78.3,78.3,0,0,0,36.606-1.607,26.328,26.328,0,0,0,16.933-15.5,56.65,56.65,0,0,0,2.96-32.25.485.485,0,0,1,.951-.189,57.667,57.667,0,0,1-3.013,32.8,27.3,27.3,0,0,1-17.558,16.073A79.1,79.1,0,0,1,247.312,247.412Z" transform="translate(-197.544 -139.724)" fill="#241414"/>
        <path id="Trazado_166032" data-name="Trazado 166032" d="M242.031,179.547H242a3.659,3.659,0,0,1-2.15-.85c-2.371-1.98-3.032-4.378-1.913-6.947a14.973,14.973,0,0,0-6.813-5,.481.481,0,0,1-.287-.618.476.476,0,0,1,.62-.287,15.393,15.393,0,0,1,7.443,5.6.48.48,0,0,1,.026.465c-1.08,2.258-.558,4.291,1.542,6.047a2.694,2.694,0,0,0,1.585.627.483.483,0,0,1-.026.965Z" transform="translate(-184.727 -164.429)" fill="#241414"/>
        <path id="Trazado_166033" data-name="Trazado 166033" d="M222.758,180.5a.481.481,0,0,1-.479-.424,33.74,33.74,0,0,1,.026-7.177.478.478,0,0,1,.479-.441l.043,0a.48.48,0,0,1,.438.524,32.808,32.808,0,0,0-.026,6.971.484.484,0,0,1-.419.539Z" transform="translate(-196.885 -155.158)" fill="#241414"/>
        <path id="Trazado_166034" data-name="Trazado 166034" d="M227.11,199.054a.482.482,0,0,1-.235-.06.488.488,0,0,1-.189-.659c.11-.194,2.517-4.5,4.045-6.619l-3.259-3.547a.482.482,0,1,1,.709-.654l3.53,3.841a.492.492,0,0,1,.031.623c-1.454,1.9-4.184,6.777-4.21,6.827A.481.481,0,0,1,227.11,199.054Z" transform="translate(-190.562 -134.377)" fill="#241414"/>
        <path id="Trazado_166035" data-name="Trazado 166035" d="M240.207,204.912a.482.482,0,0,1-.467-.366l-.929-3.7a.489.489,0,0,1,.163-.493.478.478,0,0,1,.517-.057l5.738,2.775a.485.485,0,0,1,.223.644.476.476,0,0,1-.647.225l-4.8-2.325.675,2.7a.48.48,0,0,1-.352.584A.4.4,0,0,1,240.207,204.912Z" transform="translate(-173.588 -116.41)" fill="#241414"/>
        <path id="Trazado_166036" data-name="Trazado 166036" d="M249.72,269a22.853,22.853,0,0,1-9.27-2.05.482.482,0,0,1,.393-.881,21.108,21.108,0,0,0,20.276-1.394.485.485,0,0,1,.5.831A23.041,23.041,0,0,1,249.72,269Z" transform="translate(-171.683 -26.64)" fill="#241414"/>
        <path id="Trazado_166037" data-name="Trazado 166037" d="M248.97,241.083a.484.484,0,0,1-.137-.948l2.491-.723-4.813-2.5a.483.483,0,1,1,.445-.857l5.881,3.06a.485.485,0,0,1-.086.893l-3.647,1.058A.519.519,0,0,1,248.97,241.083Z" transform="translate(-163.193 -66.542)" fill="#241414"/>
        <path id="Trazado_166038" data-name="Trazado 166038" d="M255.075,261.468a.5.5,0,0,1-.184-.036.485.485,0,0,1-.261-.632,39.949,39.949,0,0,0-7.337-41.977.484.484,0,0,1,.718-.649,40.913,40.913,0,0,1,7.51,43A.477.477,0,0,1,255.075,261.468Z" transform="translate(-161.913 -91.624)" fill="#241414"/>
        <path id="Trazado_166039" data-name="Trazado 166039" d="M253.433,285.157l-.951-.383a21.525,21.525,0,0,0,1.111-3.662,75.127,75.127,0,0,0-1.705-37.355l.977-.3a76.141,76.141,0,0,1,1.729,37.863A22.581,22.581,0,0,1,253.433,285.157Z" transform="translate(-155.33 -56.135)" fill="#1d272b"/>
        <path id="Trazado_166040" data-name="Trazado 166040" d="M259.4,266.848l-1.018-.122a57.522,57.522,0,0,1,8.116-23.112,36.843,36.843,0,0,0,4.413-28.339,33.968,33.968,0,0,0-16.2-21.344c-1.236-.7-2.519-1.367-3.82-1.971l-.237-.11-.048-.254a24.717,24.717,0,0,0-11.389-16.229l.529-.876a25.741,25.741,0,0,1,11.808,16.651c1.248.587,2.476,1.226,3.662,1.9A35,35,0,0,1,271.9,215.021a37.867,37.867,0,0,1-4.536,29.132A56.464,56.464,0,0,0,259.4,266.848Z" transform="translate(-173.01 -152.327)" fill="#1d272b"/>
      </g>
    </g>
    <g id="Grupo_129319" data-name="Grupo 129319" transform="translate(873.963 959.531)">
      <path id="Trazado_168605" data-name="Trazado 168605" d="M12.551-3.955H5.616L4.3,0H.092L7.238-19.2H10.9L18.088,0H13.882Zm-5.867-3.2h4.8L9.07-14.344ZM32.471-7a8.555,8.555,0,0,1-1.5,5.28A4.8,4.8,0,0,1,26.934.264a4.444,4.444,0,0,1-3.494-1.5V5.484H19.63V-14.265h3.533l.132,1.4a4.478,4.478,0,0,1,3.612-1.661,4.83,4.83,0,0,1,4.1,1.951A8.787,8.787,0,0,1,32.471-7.2Zm-3.81-.277a5.614,5.614,0,0,0-.705-3.072,2.3,2.3,0,0,0-2.05-1.081,2.5,2.5,0,0,0-2.465,1.371v5.84a2.537,2.537,0,0,0,2.492,1.411Q28.661-2.808,28.661-7.277ZM38.852,0H35.029V-20.25h3.823Zm7.159,0H42.188V-14.265h3.823ZM41.963-17.956a1.876,1.876,0,0,1,.573-1.411A2.154,2.154,0,0,1,44.1-19.92a2.159,2.159,0,0,1,1.556.554,1.865,1.865,0,0,1,.58,1.411,1.871,1.871,0,0,1-.587,1.424,2.165,2.165,0,0,1-1.549.554,2.165,2.165,0,0,1-1.549-.554A1.871,1.871,0,0,1,41.963-17.956ZM55.081-2.808a2.5,2.5,0,0,0,1.714-.58,2.032,2.032,0,0,0,.686-1.542h3.573a4.887,4.887,0,0,1-.791,2.656A5.219,5.219,0,0,1,58.133-.4a6.664,6.664,0,0,1-2.986.666,6.193,6.193,0,0,1-4.825-1.945,7.7,7.7,0,0,1-1.767-5.372V-7.3a7.607,7.607,0,0,1,1.753-5.26,6.121,6.121,0,0,1,4.812-1.964,6,6,0,0,1,4.291,1.523,5.391,5.391,0,0,1,1.641,4.054H57.48a2.618,2.618,0,0,0-.686-1.809,2.286,2.286,0,0,0-1.74-.7,2.3,2.3,0,0,0-2.01.97,5.624,5.624,0,0,0-.679,3.149v.4a5.7,5.7,0,0,0,.672,3.169A2.324,2.324,0,0,0,55.081-2.808ZM71.495,0a4.231,4.231,0,0,1-.382-1.279,4.61,4.61,0,0,1-3.6,1.542A5.065,5.065,0,0,1,64.039-.949a3.9,3.9,0,0,1-1.378-3.059,4.031,4.031,0,0,1,1.681-3.48A8.294,8.294,0,0,1,69.2-8.714h1.753v-.817a2.351,2.351,0,0,0-.508-1.582,2,2,0,0,0-1.6-.593,2.27,2.27,0,0,0-1.51.461,1.568,1.568,0,0,0-.547,1.266h-3.81a3.827,3.827,0,0,1,.765-2.294A5.054,5.054,0,0,1,65.9-13.928a7.88,7.88,0,0,1,3.138-.6A6.225,6.225,0,0,1,73.228-13.2a4.635,4.635,0,0,1,1.549,3.724V-3.3a6.82,6.82,0,0,0,.567,3.072V0ZM68.344-2.65A3.281,3.281,0,0,0,69.9-3.026a2.468,2.468,0,0,0,1.055-1.009V-6.486H69.53q-2.861,0-3.045,1.978l-.013.224a1.525,1.525,0,0,0,.5,1.173A1.946,1.946,0,0,0,68.344-2.65Zm15.293-.158a2.5,2.5,0,0,0,1.714-.58,2.032,2.032,0,0,0,.686-1.542h3.573a4.887,4.887,0,0,1-.791,2.656A5.219,5.219,0,0,1,86.689-.4,6.664,6.664,0,0,1,83.7.264a6.193,6.193,0,0,1-4.825-1.945,7.7,7.7,0,0,1-1.767-5.372V-7.3a7.607,7.607,0,0,1,1.753-5.26,6.121,6.121,0,0,1,4.812-1.964,6,6,0,0,1,4.291,1.523,5.391,5.391,0,0,1,1.641,4.054H86.036a2.618,2.618,0,0,0-.686-1.809,2.286,2.286,0,0,0-1.74-.7,2.3,2.3,0,0,0-2.01.97,5.624,5.624,0,0,0-.679,3.149v.4a5.7,5.7,0,0,0,.672,3.169A2.324,2.324,0,0,0,83.637-2.808ZM95.805,0H91.982V-14.265h3.823ZM91.758-17.956a1.876,1.876,0,0,1,.573-1.411,2.154,2.154,0,0,1,1.562-.554,2.159,2.159,0,0,1,1.556.554,1.865,1.865,0,0,1,.58,1.411,1.871,1.871,0,0,1-.587,1.424,2.165,2.165,0,0,1-1.549.554,2.165,2.165,0,0,1-1.549-.554A1.871,1.871,0,0,1,91.758-17.956ZM98.35-7.264a8.46,8.46,0,0,1,.817-3.784,5.984,5.984,0,0,1,2.353-2.571,6.866,6.866,0,0,1,3.566-.91,6.5,6.5,0,0,1,4.713,1.767,7.09,7.09,0,0,1,2.037,4.8l.026.976A7.456,7.456,0,0,1,110.03-1.72,6.37,6.37,0,0,1,105.113.264a6.4,6.4,0,0,1-4.924-1.978A7.587,7.587,0,0,1,98.35-7.093Zm3.81.27a5.332,5.332,0,0,0,.765,3.109,2.522,2.522,0,0,0,2.188,1.076,2.528,2.528,0,0,0,2.162-1.063,5.834,5.834,0,0,0,.778-3.4,5.279,5.279,0,0,0-.778-3.09,2.528,2.528,0,0,0-2.188-1.1,2.487,2.487,0,0,0-2.162,1.089A5.933,5.933,0,0,0,102.16-6.994Zm3.678-13.256h4.153l-3.652,4.087h-3.1Zm11.878,5.985.119,1.648a4.98,4.98,0,0,1,4.1-1.912A4.139,4.139,0,0,1,125.31-13.2a6.213,6.213,0,0,1,1.134,3.981V0h-3.81V-9.123a2.472,2.472,0,0,0-.527-1.76,2.361,2.361,0,0,0-1.753-.547,2.621,2.621,0,0,0-2.413,1.371V0h-3.81V-14.265Z" transform="translate(360.421 5443.176)" fill="#008f85"/>
      <path id="Trazado_168606" data-name="Trazado 168606" d="M.677-5.629A6.686,6.686,0,0,1,1.841-9.762,3.776,3.776,0,0,1,5.024-11.3,3.4,3.4,0,0,1,7.7-10.09v-5.66h2.974V0H8L7.854-1.179A3.487,3.487,0,0,1,5,.205,3.766,3.766,0,0,1,1.861-1.338,6.9,6.9,0,0,1,.677-5.629Zm2.963.221a4.38,4.38,0,0,0,.543,2.393,1.77,1.77,0,0,0,1.579.832A1.983,1.983,0,0,0,7.7-3.345V-7.73A1.954,1.954,0,0,0,5.783-8.89Q3.64-8.89,3.64-5.409ZM18.078.205a5.447,5.447,0,0,1-3.973-1.5,5.321,5.321,0,0,1-1.533-3.989v-.287a6.7,6.7,0,0,1,.646-2.989,4.741,4.741,0,0,1,1.83-2.03,5.137,5.137,0,0,1,2.7-.713,4.6,4.6,0,0,1,3.584,1.436,5.833,5.833,0,0,1,1.307,4.071v1.21H15.576a2.753,2.753,0,0,0,.866,1.743,2.619,2.619,0,0,0,1.83.656,3.2,3.2,0,0,0,2.676-1.241L22.4-1.794A4.449,4.449,0,0,1,20.6-.323,5.921,5.921,0,0,1,18.078.205Zm-.338-9.116a1.852,1.852,0,0,0-1.43.6,3.093,3.093,0,0,0-.7,1.71h4.122V-6.84A2.206,2.206,0,0,0,19.2-8.37,1.91,1.91,0,0,0,17.739-8.911ZM34.166-2.184A1.944,1.944,0,0,0,35.5-2.635a1.581,1.581,0,0,0,.533-1.2h2.779A3.8,3.8,0,0,1,38.2-1.769,4.06,4.06,0,0,1,36.54-.313a5.183,5.183,0,0,1-2.323.518,4.817,4.817,0,0,1-3.753-1.512A5.985,5.985,0,0,1,29.09-5.486v-.195a5.917,5.917,0,0,1,1.364-4.091A4.761,4.761,0,0,1,34.2-11.3a4.667,4.667,0,0,1,3.338,1.184,4.193,4.193,0,0,1,1.277,3.153H36.032A2.036,2.036,0,0,0,35.5-8.369a1.778,1.778,0,0,0-1.354-.541,1.785,1.785,0,0,0-1.564.755,4.374,4.374,0,0,0-.528,2.449V-5.4a4.43,4.43,0,0,0,.523,2.465A1.807,1.807,0,0,0,34.166-2.184ZM40.042-5.65a6.58,6.58,0,0,1,.636-2.943,4.654,4.654,0,0,1,1.83-2,5.34,5.34,0,0,1,2.774-.708,5.052,5.052,0,0,1,3.666,1.374,5.514,5.514,0,0,1,1.584,3.732l.021.759a5.8,5.8,0,0,1-1.425,4.1A4.954,4.954,0,0,1,45.3.205a4.979,4.979,0,0,1-3.83-1.538,5.9,5.9,0,0,1-1.43-4.184ZM43-5.44A4.147,4.147,0,0,0,43.6-3.021a1.962,1.962,0,0,0,1.7.837,1.966,1.966,0,0,0,1.682-.827,4.538,4.538,0,0,0,.6-2.644,4.106,4.106,0,0,0-.6-2.4,1.967,1.967,0,0,0-1.7-.852,1.934,1.934,0,0,0-1.682.847A4.614,4.614,0,0,0,43-5.44ZM58.386-3.066a.955.955,0,0,0-.538-.856,6.115,6.115,0,0,0-1.728-.559q-3.958-.831-3.958-3.363a3.049,3.049,0,0,1,1.225-2.466,4.943,4.943,0,0,1,3.2-.99,5.32,5.32,0,0,1,3.379.995,3.135,3.135,0,0,1,1.266,2.584H58.273a1.434,1.434,0,0,0-.41-1.051,1.736,1.736,0,0,0-1.282-.415,1.774,1.774,0,0,0-1.159.338,1.068,1.068,0,0,0-.41.861.913.913,0,0,0,.467.795,4.8,4.8,0,0,0,1.574.523,12.856,12.856,0,0,1,1.866.5,3.066,3.066,0,0,1,2.348,2.984,2.894,2.894,0,0,1-1.3,2.456A5.618,5.618,0,0,1,56.6.205a5.867,5.867,0,0,1-2.476-.5,4.155,4.155,0,0,1-1.7-1.364,3.169,3.169,0,0,1-.615-1.871h2.81a1.547,1.547,0,0,0,.584,1.21,2.318,2.318,0,0,0,1.456.42A2.146,2.146,0,0,0,57.95-2.22,1,1,0,0,0,58.386-3.066Zm7.567-8.029.092,1.241A3.9,3.9,0,0,1,69.234-11.3a2.959,2.959,0,0,1,2.943,1.692A3.809,3.809,0,0,1,75.51-11.3,3.309,3.309,0,0,1,78.2-10.249a4.831,4.831,0,0,1,.882,3.163V0H76.1V-7.075a2.113,2.113,0,0,0-.369-1.379,1.636,1.636,0,0,0-1.3-.436,1.85,1.85,0,0,0-1.846,1.271L72.6,0H69.634V-7.065a2.087,2.087,0,0,0-.379-1.395,1.652,1.652,0,0,0-1.292-.431,1.92,1.92,0,0,0-1.825,1.046V0H63.174V-11.095ZM86.461.205a5.447,5.447,0,0,1-3.973-1.5,5.321,5.321,0,0,1-1.533-3.989v-.287A6.7,6.7,0,0,1,81.6-8.557a4.741,4.741,0,0,1,1.83-2.03,5.137,5.137,0,0,1,2.7-.713,4.6,4.6,0,0,1,3.584,1.436,5.833,5.833,0,0,1,1.307,4.071v1.21H83.959a2.753,2.753,0,0,0,.866,1.743,2.619,2.619,0,0,0,1.83.656,3.2,3.2,0,0,0,2.676-1.241l1.456,1.63a4.449,4.449,0,0,1-1.8,1.471A5.921,5.921,0,0,1,86.461.205Zm-.338-9.116a1.852,1.852,0,0,0-1.43.6,3.093,3.093,0,0,0-.7,1.71h4.122V-6.84a2.206,2.206,0,0,0-.533-1.529A1.91,1.91,0,0,0,86.123-8.911Zm10.131-4.912v2.728h1.9v2.174h-1.9v5.537a1.322,1.322,0,0,0,.236.882,1.184,1.184,0,0,0,.9.267,4.726,4.726,0,0,0,.872-.072V-.062a6.1,6.1,0,0,1-1.794.267q-3.117,0-3.179-3.148V-8.921H91.67v-2.174h1.62v-2.728ZM102.929,0H99.955V-11.095h2.974ZM99.781-13.966a1.459,1.459,0,0,1,.446-1.1,1.676,1.676,0,0,1,1.215-.431,1.679,1.679,0,0,1,1.21.431,1.451,1.451,0,0,1,.451,1.1,1.455,1.455,0,0,1-.456,1.107,1.684,1.684,0,0,1-1.2.431,1.684,1.684,0,0,1-1.2-.431A1.455,1.455,0,0,1,99.781-13.966Zm10.2,11.782a1.944,1.944,0,0,0,1.333-.451,1.581,1.581,0,0,0,.533-1.2h2.779a3.8,3.8,0,0,1-.615,2.066,4.06,4.06,0,0,1-1.656,1.456,5.183,5.183,0,0,1-2.323.518,4.817,4.817,0,0,1-3.753-1.512,5.985,5.985,0,0,1-1.374-4.178v-.195a5.917,5.917,0,0,1,1.364-4.091,4.761,4.761,0,0,1,3.743-1.528,4.667,4.667,0,0,1,3.338,1.184,4.193,4.193,0,0,1,1.277,3.153H111.85a2.036,2.036,0,0,0-.533-1.407,1.778,1.778,0,0,0-1.354-.541,1.785,1.785,0,0,0-1.564.755,4.374,4.374,0,0,0-.528,2.449V-5.4a4.43,4.43,0,0,0,.523,2.465A1.807,1.807,0,0,0,109.983-2.184Zm5.875-3.466a6.58,6.58,0,0,1,.636-2.943,4.654,4.654,0,0,1,1.83-2A5.34,5.34,0,0,1,121.1-11.3a5.052,5.052,0,0,1,3.666,1.374,5.514,5.514,0,0,1,1.584,3.732l.021.759a5.8,5.8,0,0,1-1.425,4.1A4.954,4.954,0,0,1,121.119.205a4.979,4.979,0,0,1-3.83-1.538,5.9,5.9,0,0,1-1.43-4.184Zm2.963.21a4.147,4.147,0,0,0,.595,2.418,1.962,1.962,0,0,0,1.7.837,1.966,1.966,0,0,0,1.682-.827,4.538,4.538,0,0,0,.6-2.644,4.106,4.106,0,0,0-.6-2.4,1.967,1.967,0,0,0-1.7-.852,1.934,1.934,0,0,0-1.682.847A4.614,4.614,0,0,0,118.822-5.44ZM134.2-3.066a.955.955,0,0,0-.538-.856,6.115,6.115,0,0,0-1.728-.559q-3.958-.831-3.958-3.363A3.049,3.049,0,0,1,129.2-10.31a4.943,4.943,0,0,1,3.2-.99,5.32,5.32,0,0,1,3.379.995,3.135,3.135,0,0,1,1.266,2.584H134.09a1.434,1.434,0,0,0-.41-1.051,1.736,1.736,0,0,0-1.282-.415,1.774,1.774,0,0,0-1.159.338,1.068,1.068,0,0,0-.41.861.913.913,0,0,0,.467.795,4.8,4.8,0,0,0,1.574.523,12.856,12.856,0,0,1,1.866.5,3.066,3.066,0,0,1,2.348,2.984,2.894,2.894,0,0,1-1.3,2.456,5.618,5.618,0,0,1-3.363.938,5.867,5.867,0,0,1-2.476-.5,4.155,4.155,0,0,1-1.7-1.364,3.169,3.169,0,0,1-.615-1.871h2.81a1.547,1.547,0,0,0,.584,1.21,2.318,2.318,0,0,0,1.456.42,2.146,2.146,0,0,0,1.287-.323A1,1,0,0,0,134.2-3.066Z" transform="translate(361.109 5463.659)" fill="#1d272b"/>
      <rect id="Rectángulo_34968" data-name="Rectángulo 34968" width="5.554" height="54.665" transform="translate(350 5415.994)" fill="#d93328"/>
    </g>
    <g id="Grupo_129320" data-name="Grupo 129320" transform="translate(1100.123 6651.876)">
      <g id="Grupo_128922" data-name="Grupo 128922" transform="translate(94.492 0)">
        <path id="Trazado_165959" data-name="Trazado 165959" d="M310.244,636.753l-3.677.1a1.638,1.638,0,0,1,.059.393l.145,5.258a1.615,1.615,0,0,1-.015.271l3.65-.164a1.159,1.159,0,0,0,1.1-1.161l-.1-3.6A1.134,1.134,0,0,0,310.244,636.753Z" transform="translate(-248.176 -630.279)" fill="#1d272b" fill-rule="evenodd"/>
        <g id="Grupo_128916" data-name="Grupo 128916" transform="translate(0 32.771)">
          <path id="Trazado_165960" data-name="Trazado 165960" d="M112.789,737.277a4.536,4.536,0,0,1,1.258-1.648l6.816-.188h0l6.3-.173c6.214,1.768,6.8,9.587,9.232,11.113,3.052,1.913,3.712,4.606,2.708,7.888-.872,2.849-.7,7.524,2.139,9.177,4.912,2.861,3.7,6.375,1.635,10.02-.156.275,2.6,35.672,2.523,40.992-.093,6.85-2.765,15.543-10.2,16.961H103.864C71.177,820.771,95.817,756.921,112.789,737.277Z" transform="translate(-87.818 -735.269)" fill="#d8dce8" fill-rule="evenodd"/>
          <path id="Trazado_165961" data-name="Trazado 165961" d="M170.518,735.269c6.214,1.768,6.8,9.587,9.232,11.113,3.052,1.913,3.712,4.606,2.708,7.888-.872,2.849-.7,7.524,2.139,9.177,4.912,2.861,3.7,6.375,1.635,10.02-.156.275,2.6,35.672,2.523,40.992-.093,6.85-2.765,15.543-10.2,16.961-40-4.254-35.507-71.029-21.864-94.143a3.165,3.165,0,0,1,.807-1.648l6.765-.188h0Z" transform="translate(-131.175 -735.269)" fill="#bdc8d3" fill-rule="evenodd"/>
        </g>
        <g id="Grupo_128917" data-name="Grupo 128917" transform="translate(21.778 12.479)">
          <path id="Trazado_165962" data-name="Trazado 165962" d="M169.4,673.285a16.739,16.739,0,0,1,6.017,9.246l.074,0,11.066-.3a17.872,17.872,0,0,1,6.323-11.441Z" transform="translate(-169.405 -667.705)" fill="#008f85" fill-rule="evenodd"/>
          <path id="Trazado_165963" data-name="Trazado 165963" d="M265.709,659.253l6.3,19.9c1.329,4.2,6.885.978,5.271-1.368a22.863,22.863,0,0,1-3.811-17.554Z" transform="translate(-240.002 -659.253)" fill="#008f85" fill-rule="evenodd"/>
        </g>
        <path id="Trazado_165964" data-name="Trazado 165964" d="M187.631,629.4,148.3,630.48a2,2,0,0,0-1.938,2.048l.245,8.912a1.96,1.96,0,0,0,2.047,1.938l39.257-3.648a2.05,2.05,0,0,0,1.938-2.047l-.175-6.346A2,2,0,0,0,187.631,629.4Z" transform="translate(-130.736 -624.887)" fill="#04776f" fill-rule="evenodd"/>
        <path id="Trazado_165965" data-name="Trazado 165965" d="M202.7,617.055l-32.079-4.539c-.921-.131-1.65.66-1.62,1.756l.1,3.708Z" transform="translate(-147.327 -612.502)" fill="#04776f" fill-rule="evenodd"/>
        <path id="Trazado_165966" data-name="Trazado 165966" d="M173.373,621.82l25.109-.691L174.931,617.8c-.921-.131-1.65.66-1.62,1.755Z" transform="translate(-150.489 -616.373)" fill="#01655e" fill-rule="evenodd"/>
        <g id="Grupo_128920" data-name="Grupo 128920" transform="translate(24.631 64.572)">
          <rect id="Rectángulo_35693" data-name="Rectángulo 35693" width="24.923" height="37.262" rx="5.78" fill="#008f85"/>
          <g id="Grupo_128919" data-name="Grupo 128919" transform="translate(4.529 10.04)">
            <rect id="Rectángulo_35694" data-name="Rectángulo 35694" width="12.739" height="0.753" transform="translate(1.563 10.351)" fill="#fff"/>
            <rect id="Rectángulo_35695" data-name="Rectángulo 35695" width="12.739" height="0.753" transform="translate(1.563 11.904)" fill="#fff"/>
            <rect id="Rectángulo_35696" data-name="Rectángulo 35696" width="12.739" height="0.753" transform="translate(1.563 13.457)" fill="#fff"/>
            <rect id="Rectángulo_35697" data-name="Rectángulo 35697" width="12.739" height="0.753" transform="translate(1.563 15.01)" fill="#fff"/>
            <rect id="Rectángulo_35698" data-name="Rectángulo 35698" width="12.739" height="0.753" transform="translate(1.563 16.562)" fill="#fff"/>
            <rect id="Rectángulo_35699" data-name="Rectángulo 35699" width="12.739" height="0.753" transform="translate(1.563 18.115)" fill="#fff"/>
            <rect id="Rectángulo_35700" data-name="Rectángulo 35700" width="12.739" height="0.753" transform="translate(1.563 22.35)" fill="#fff"/>
            <g id="Grupo_128918" data-name="Grupo 128918">
              <rect id="Rectángulo_35701" data-name="Rectángulo 35701" width="15.866" height="2.924" transform="translate(0 3.993)" fill="#fff"/>
              <rect id="Rectángulo_35702" data-name="Rectángulo 35702" width="13.808" height="2.924" transform="translate(1.029)" fill="#fff"/>
            </g>
          </g>
          <path id="Trazado_165967" data-name="Trazado 165967" d="M216.559,860.964h1.9v2.425h2.425v1.9h-2.425v2.425h-1.9v-2.425h-2.425v-1.9h2.425Z" transform="translate(-205.047 -859.213)" fill="#f7f7fb" fill-rule="evenodd"/>
        </g>
        <g id="Grupo_128921" data-name="Grupo 128921" transform="translate(24.944 26.99)">
          <path id="Trazado_165968" data-name="Trazado 165968" d="M195.324,713.613l-11.134.311a2.247,2.247,0,0,0-2.062,1.849l-.862,5.688,17.4-.486-1.179-5.631A2.247,2.247,0,0,0,195.324,713.613Z" transform="translate(-181.266 -713.612)" fill="#1d272b" fill-rule="evenodd"/>
        </g>
      </g>
      <g id="Grupo_128915" data-name="Grupo 128915" transform="translate(73.344 23.922)">
        <path id="Trazado_165951" data-name="Trazado 165951" d="M485.725,902.951H453.763a4.242,4.242,0,0,1-4.23-4.23V832.847h40.423v65.874A4.243,4.243,0,0,1,485.725,902.951Z" transform="translate(-449.533 -797.952)" fill="#bdc8d3" fill-rule="evenodd"/>
        <g id="Grupo_128906" data-name="Grupo 128906" transform="translate(16.101 4.164)">
          <rect id="Rectángulo_35679" data-name="Rectángulo 35679" width="8.222" height="16.717" fill="#aab7c4"/>
          <rect id="Rectángulo_35680" data-name="Rectángulo 35680" width="4.021" height="16.717" transform="translate(1.125)" fill="#d8dce8"/>
        </g>
        <g id="Grupo_128909" data-name="Grupo 128909" transform="translate(7.223 13.884)">
          <g id="Grupo_128908" data-name="Grupo 128908" transform="translate(1.254)">
            <g id="Grupo_128907" data-name="Grupo 128907">
              <path id="Trazado_165952" data-name="Trazado 165952" d="M481.29,763.22v-7.238a1.854,1.854,0,0,1,1.849-1.849H502.91a1.854,1.854,0,0,1,1.849,1.849v7.238Z" transform="translate(-481.29 -754.133)" fill="#1d272b" fill-rule="evenodd"/>
            </g>
            <rect id="Rectángulo_35681" data-name="Rectángulo 35681" width="1.735" height="4.988" rx="0.868" transform="translate(15.32 1.206)" fill="#fff"/>
          </g>
          <rect id="Rectángulo_35682" data-name="Rectángulo 35682" width="25.978" height="2.17" rx="1.085" transform="translate(0 9.087)" fill="#1d272b"/>
        </g>
        <g id="Grupo_128910" data-name="Grupo 128910" transform="translate(0 25.141)">
          <path id="Trazado_165954" data-name="Trazado 165954" d="M481.67,796.3H457.818l-8.285,9.755h40.423Z" transform="translate(-449.533 -796.303)" fill="#d8dce8" fill-rule="evenodd"/>
          <path id="Trazado_165955" data-name="Trazado 165955" d="M503.27,796.3H491.239l-4.179,9.755h20.389Z" transform="translate(-477.043 -796.303)" fill="#f4f5fa" fill-rule="evenodd"/>
        </g>
        <g id="Grupo_128911" data-name="Grupo 128911" transform="translate(5.886 0)">
          <path id="Trazado_165956" data-name="Trazado 165956" d="M507.994,711.417c-14.183-.958-17.448-15.6-36.409-6.109v8.417c18.509-10.854,21.94.025,36.409.727Z" transform="translate(-471.585 -702.12)" fill="#008f85" fill-rule="evenodd"/>
          <path id="Trazado_165957" data-name="Trazado 165957" d="M471.585,711.932v6.649c18.509-10.854,21.94.025,36.409.727v-1.267C493.811,717.083,490.546,702.439,471.585,711.932Z" transform="translate(-471.585 -706.976)" fill="#008f85" fill-rule="evenodd"/>
        </g>
        <g id="Grupo_128914" data-name="Grupo 128914" transform="translate(4.406 42.349)">
          <rect id="Rectángulo_35683" data-name="Rectángulo 35683" width="31.61" height="47.259" rx="7.331" fill="#008f85"/>
          <g id="Grupo_128913" data-name="Grupo 128913" transform="translate(5.744 12.734)">
            <rect id="Rectángulo_35684" data-name="Rectángulo 35684" width="16.157" height="0.955" transform="translate(1.983 13.129)" fill="#fff"/>
            <rect id="Rectángulo_35685" data-name="Rectángulo 35685" width="16.157" height="0.955" transform="translate(1.983 15.098)" fill="#fff"/>
            <rect id="Rectángulo_35686" data-name="Rectángulo 35686" width="16.157" height="0.955" transform="translate(1.983 17.067)" fill="#fff"/>
            <rect id="Rectángulo_35687" data-name="Rectángulo 35687" width="16.157" height="0.955" transform="translate(1.983 19.037)" fill="#fff"/>
            <rect id="Rectángulo_35688" data-name="Rectángulo 35688" width="16.157" height="0.955" transform="translate(1.983 21.006)" fill="#fff"/>
            <rect id="Rectángulo_35689" data-name="Rectángulo 35689" width="16.157" height="0.955" transform="translate(1.983 22.975)" fill="#fff"/>
            <rect id="Rectángulo_35690" data-name="Rectángulo 35690" width="16.157" height="0.955" transform="translate(1.983 28.346)" fill="#fff"/>
            <g id="Grupo_128912" data-name="Grupo 128912">
              <rect id="Rectángulo_35691" data-name="Rectángulo 35691" width="20.123" height="3.708" transform="translate(0 5.064)" fill="#fff"/>
              <rect id="Rectángulo_35692" data-name="Rectángulo 35692" width="17.512" height="3.708" transform="translate(1.305)" fill="#fff"/>
            </g>
          </g>
          <path id="Trazado_165958" data-name="Trazado 165958" d="M514.7,869.09h-2.409v3.076h-3.076v2.409h3.076v3.076H514.7v-3.076h3.076v-2.409H514.7Z" transform="translate(-497.691 -866.87)" fill="#f7f7fb" fill-rule="evenodd"/>
        </g>
      </g>
      <g id="Grupo_128929" data-name="Grupo 128929" transform="translate(0 55.165)">
        <g id="Grupo_128925" data-name="Grupo 128925" transform="translate(22.346)">
          <g id="Grupo_128923" data-name="Grupo 128923" transform="translate(23.641)">
            <path id="Trazado_165970" data-name="Trazado 165970" d="M1225.128,380.3c-18.193-3.584-31.274-8.407-30.926-12.92-16.707,9.2-4.169,23.446-17.579,40.863l10.32,4.984C1207.436,403.7,1207.56,389.028,1225.128,380.3Z" transform="translate(-1176.623 -367.378)" fill-rule="evenodd" fill="url(#linear-gradient-5)"/>
            <path id="Trazado_165971" data-name="Trazado 165971" d="M1206.325,386.433c-9.05,10.341-8.132,20.783-19.66,37.071l5.672,2.74c13.376-11.507,18.742-23.688,29.849-34.281C1215.449,390.248,1209.947,388.365,1206.325,386.433Z" transform="translate(-1183.984 -381.347)" fill-rule="evenodd" fill="url(#linear-gradient)"/>
          </g>
          <g id="Grupo_128924" data-name="Grupo 128924" transform="translate(0 19.34)">
            <path id="Trazado_165972" data-name="Trazado 165972" d="M1114.6,439.831c-12.393,2.924-23.073,3.391-26.443,0-1.544,11.78,16.269,18.337,22.929,35.1l9.354.49C1123.716,462.248,1112.227,451.529,1114.6,439.831Z" transform="translate(-1088.057 -439.831)" fill-rule="evenodd" fill="url(#linear-gradient)"/>
            <path id="Trazado_165973" data-name="Trazado 165973" d="M1112.8,446.085c3.382,10.281,12.088,17.6,18.849,32.968l5.141.269c-2.024-12.446-8.793-22.945-11.291-34.035A53.145,53.145,0,0,1,1112.8,446.085Z" transform="translate(-1106.195 -443.831)" fill-rule="evenodd" fill="url(#linear-gradient)"/>
          </g>
        </g>
        <g id="Grupo_128928" data-name="Grupo 128928" transform="translate(0 39.9)">
          <rect id="Rectángulo_35703" data-name="Rectángulo 35703" width="76.542" height="33.855" transform="translate(17.129)" fill="#1d272b"/>
          <rect id="Rectángulo_35704" data-name="Rectángulo 35704" width="17.128" height="33.855" fill="url(#linear-gradient-2)"/>
          <rect id="Rectángulo_35705" data-name="Rectángulo 35705" width="73.328" height="33.855" transform="translate(18.735)" fill="url(#linear-gradient-2)"/>
          <rect id="Rectángulo_35706" data-name="Rectángulo 35706" width="29.682" height="28.178" rx="6.535" transform="translate(40.558 2.839)" fill="#1d272b"/>
          <g id="Grupo_128927" data-name="Grupo 128927" transform="translate(47.814 5.264)">
            <g id="Grupo_128926" data-name="Grupo 128926" transform="translate(0 11.366)">
              <rect id="Rectángulo_35707" data-name="Rectángulo 35707" width="15.172" height="0.897" transform="translate(0 3.668)" fill="#fff"/>
              <rect id="Rectángulo_35708" data-name="Rectángulo 35708" width="15.172" height="0.896" transform="translate(0 5.518)" fill="#fff"/>
              <rect id="Rectángulo_35709" data-name="Rectángulo 35709" width="15.172" height="0.897" transform="translate(0 7.367)" fill="#fff"/>
              <rect id="Rectángulo_35710" data-name="Rectángulo 35710" width="15.172" height="0.897" transform="translate(0 9.216)" fill="#fff"/>
              <rect id="Rectángulo_35711" data-name="Rectángulo 35711" width="15.172" height="0.897" transform="translate(0 11.065)" fill="#fff"/>
              <rect id="Rectángulo_35712" data-name="Rectángulo 35712" width="11.647" height="2.45" transform="translate(1.762)" fill="#fff"/>
            </g>
            <path id="Trazado_165974" data-name="Trazado 165974" d="M1196.9,536.575h2.786v3.556h3.556v2.786h-3.556v3.556H1196.9v-3.556h-3.556v-2.786h3.556Z" transform="translate(-1190.71 -536.575)" fill="#f7f7fb" fill-rule="evenodd"/>
          </g>
        </g>
      </g>
    </g>
    <g id="Grupo_129324" data-name="Grupo 129324" transform="translate(991.375 6582.886)">
      <g id="Grupo_127674" data-name="Grupo 127674" transform="translate(18.757 43.689)">
        <path id="Trazado_163810" data-name="Trazado 163810" d="M309.191,413.063h-1.838V275.294h-84.72V413.063H220.8V273.456h88.4Z" transform="translate(-220.795 -273.456)" fill="#868695"/>
      </g>
      <rect id="Rectángulo_35047" data-name="Rectángulo 35047" width="2.731" height="16.87" transform="translate(7.271 197.912) rotate(180)" fill="#64546f"/>
      <g id="Grupo_127675" data-name="Grupo 127675" transform="translate(0 181.041)">
        <path id="Trazado_163811" data-name="Trazado 163811" d="M206.262,388.313c0,4.659,2.033,8.435,4.54,8.435s4.541-3.775,4.541-8.435-2.033-8.436-4.541-8.436S206.262,383.655,206.262,388.313Z" transform="translate(-206.262 -379.877)" fill="#1d272b"/>
      </g>
      <g id="Grupo_127676" data-name="Grupo 127676" transform="translate(2.797 181.041)">
        <path id="Trazado_163812" data-name="Trazado 163812" d="M208.429,388.313c0,4.659,2.033,8.435,4.542,8.435s4.539-3.775,4.539-8.435-2.033-8.436-4.539-8.436S208.429,383.655,208.429,388.313Z" transform="translate(-208.429 -379.877)" fill="#868695"/>
      </g>
      <rect id="Rectángulo_35048" data-name="Rectángulo 35048" width="2.73" height="16.87" transform="translate(21.007 197.912) rotate(180)" fill="#64546f"/>
      <g id="Grupo_127677" data-name="Grupo 127677" transform="translate(13.738 181.041)">
        <path id="Trazado_163813" data-name="Trazado 163813" d="M216.906,388.313c0,4.659,2.033,8.435,4.539,8.435s4.54-3.775,4.54-8.435-2.033-8.436-4.54-8.436S216.906,383.655,216.906,388.313Z" transform="translate(-216.906 -379.877)" fill="#1d272b"/>
      </g>
      <g id="Grupo_127678" data-name="Grupo 127678" transform="translate(16.535 181.041)">
        <path id="Trazado_163814" data-name="Trazado 163814" d="M219.073,388.313c0,4.659,2.033,8.435,4.539,8.435s4.542-3.775,4.542-8.435-2.034-8.436-4.542-8.436S219.073,383.655,219.073,388.313Z" transform="translate(-219.073 -379.877)" fill="#868695"/>
      </g>
      <rect id="Rectángulo_35049" data-name="Rectángulo 35049" width="2.731" height="16.87" transform="translate(93.937 197.912) rotate(180)" fill="#64546f"/>
      <g id="Grupo_127679" data-name="Grupo 127679" transform="translate(86.666 181.041)">
        <path id="Trazado_163815" data-name="Trazado 163815" d="M273.411,388.313c0,4.659,2.034,8.435,4.541,8.435s4.542-3.775,4.542-8.435-2.034-8.436-4.542-8.436S273.411,383.655,273.411,388.313Z" transform="translate(-273.411 -379.877)" fill="#1d272b"/>
      </g>
      <g id="Grupo_127680" data-name="Grupo 127680" transform="translate(89.464 181.041)">
        <path id="Trazado_163816" data-name="Trazado 163816" d="M275.579,388.313c0,4.659,2.033,8.435,4.54,8.435s4.541-3.775,4.541-8.435-2.034-8.436-4.541-8.436S275.579,383.655,275.579,388.313Z" transform="translate(-275.579 -379.877)" fill="#868695"/>
      </g>
      <rect id="Rectángulo_35050" data-name="Rectángulo 35050" width="2.731" height="16.87" transform="translate(107.675 197.912) rotate(180)" fill="#64546f"/>
      <g id="Grupo_127681" data-name="Grupo 127681" transform="translate(100.403 181.041)">
        <path id="Trazado_163817" data-name="Trazado 163817" d="M284.055,388.313c0,4.659,2.033,8.435,4.541,8.435s4.539-3.775,4.539-8.435-2.032-8.436-4.539-8.436S284.055,383.655,284.055,388.313Z" transform="translate(-284.055 -379.877)" fill="#1d272b"/>
      </g>
      <g id="Grupo_127682" data-name="Grupo 127682" transform="translate(103.2 181.041)">
        <path id="Trazado_163818" data-name="Trazado 163818" d="M286.222,388.313c0,4.659,2.033,8.435,4.54,8.435s4.541-3.775,4.541-8.435-2.033-8.436-4.541-8.436S286.222,383.655,286.222,388.313Z" transform="translate(-286.222 -379.877)" fill="#868695"/>
      </g>
      <rect id="Rectángulo_35051" data-name="Rectángulo 35051" width="86.558" height="23.344" transform="translate(92.497 172.42) rotate(180)" fill="#1d272b"/>
      <rect id="Rectángulo_35052" data-name="Rectángulo 35052" width="13.954" height="23.344" transform="translate(106.451 172.42) rotate(180)" fill="#a4a4b4"/>
      <path id="Trazado_163819" data-name="Trazado 163819" d="M237.73,367.394h19a4.576,4.576,0,0,0,4.577-4.577H233.156A4.574,4.574,0,0,0,237.73,367.394Z" transform="translate(-198.445 -203.794)" fill="#a4a4b4"/>
      <rect id="Rectángulo_35053" data-name="Rectángulo 35053" width="86.558" height="23.344" transform="translate(92.497 146.304) rotate(180)" fill="#1d272b"/>
      <rect id="Rectángulo_35054" data-name="Rectángulo 35054" width="13.954" height="23.344" transform="translate(106.451 146.304) rotate(180)" fill="#a4a4b4"/>
      <path id="Trazado_163820" data-name="Trazado 163820" d="M237.73,347.159h19a4.577,4.577,0,0,0,4.577-4.577H233.156A4.575,4.575,0,0,0,237.73,347.159Z" transform="translate(-198.445 -209.675)" fill="#a4a4b4"/>
      <rect id="Rectángulo_35055" data-name="Rectángulo 35055" width="86.558" height="23.344" transform="translate(92.497 120.185) rotate(180)" fill="#1d272b"/>
      <rect id="Rectángulo_35056" data-name="Rectángulo 35056" width="13.954" height="23.344" transform="translate(106.451 120.185) rotate(180)" fill="#a4a4b4"/>
      <path id="Trazado_163821" data-name="Trazado 163821" d="M237.73,326.922h19a4.576,4.576,0,0,0,4.577-4.575H233.156A4.574,4.574,0,0,0,237.73,326.922Z" transform="translate(-198.445 -215.557)" fill="#a4a4b4"/>
      <rect id="Rectángulo_35057" data-name="Rectángulo 35057" width="86.558" height="23.344" transform="translate(92.497 94.069) rotate(180)" fill="#1d272b"/>
      <rect id="Rectángulo_35058" data-name="Rectángulo 35058" width="13.954" height="23.344" transform="translate(106.451 94.069) rotate(180)" fill="#a4a4b4"/>
      <path id="Trazado_163822" data-name="Trazado 163822" d="M237.73,306.686h19a4.576,4.576,0,0,0,4.577-4.575H233.156A4.574,4.574,0,0,0,237.73,306.686Z" transform="translate(-198.445 -221.438)" fill="#a4a4b4"/>
      <rect id="Rectángulo_35059" data-name="Rectángulo 35059" width="86.558" height="23.344" transform="translate(92.497 67.952) rotate(180)" fill="#1d272b"/>
      <rect id="Rectángulo_35060" data-name="Rectángulo 35060" width="13.954" height="23.344" transform="translate(106.451 67.952) rotate(180)" fill="#a4a4b4"/>
      <path id="Trazado_163823" data-name="Trazado 163823" d="M237.73,286.452h19a4.577,4.577,0,0,0,4.577-4.577H233.156A4.575,4.575,0,0,0,237.73,286.452Z" transform="translate(-198.445 -227.32)" fill="#a4a4b4"/>
      <g id="Grupo_127683" data-name="Grupo 127683" transform="translate(5.02 43.689)">
        <path id="Trazado_163824" data-name="Trazado 163824" d="M298.547,413.063H296.71V275.294h-84.72V413.063h-1.838V273.456h88.4Z" transform="translate(-210.152 -273.456)" fill="#868695"/>
      </g>
      <g id="Grupo_129266" data-name="Grupo 129266" transform="translate(16.22 10.038)">
        <g id="Grupo_128981" data-name="Grupo 128981" transform="translate(12.717 0)">
          <path id="Trazado_166214" data-name="Trazado 166214" d="M250.928,227.989h-5.04a3.278,3.278,0,0,0-3.278,3.278v20.209a1.593,1.593,0,0,0,1.593,1.593h8.411a1.593,1.593,0,0,0,1.593-1.593V231.267A3.278,3.278,0,0,0,250.928,227.989Z" transform="translate(-242.61 -220.716)" fill="#d1ebea"/>
          <path id="Trazado_166215" data-name="Trazado 166215" d="M254.04,211.987h-4.477a.733.733,0,0,0-.733.733v6.539h5.943V212.72A.733.733,0,0,0,254.04,211.987Z" transform="translate(-246.003 -211.987)" fill="#39666e"/>
          <path id="Trazado_166216" data-name="Trazado 166216" d="M246.14,227.989a3.315,3.315,0,0,0-3.53,3.044v20.556a1.611,1.611,0,0,0,1.715,1.48h1.394a1.419,1.419,0,0,1-.693-1.182V231.331a3.315,3.315,0,0,1,3.53-3.045h3.634a3.984,3.984,0,0,0-1.515-.3Z" transform="translate(-242.61 -220.716)" fill="#79aab1"/>
          <path id="Trazado_166217" data-name="Trazado 166217" d="M260.3,230.914h-.244a1.594,1.594,0,0,0-1.59,1.589v20.739a.532.532,0,0,0,.53.53h2.364a.532.532,0,0,0,.53-.53V232.5A1.594,1.594,0,0,0,260.3,230.914Z" transform="translate(-251.261 -222.312)" fill="#fff" style="mix-blend-mode: soft-light;isolation: isolate"/>
          <path id="Trazado_166218" data-name="Trazado 166218" d="M250.179,212.4a.731.731,0,0,1,.13-.415h-.746a.733.733,0,0,0-.733.733v6.539h5.943v-.318h-4.593Z" transform="translate(-246.003 -211.987)" fill="#1f2a35"/>
        </g>
        <g id="Grupo_128982" data-name="Grupo 128982" transform="translate(15.734 19.33)">
          <path id="Trazado_166219" data-name="Trazado 166219" d="M252.88,254.972a1.176,1.176,0,0,0-1.651-.2l-1.982,1.547,9.7,12.416,1.982-1.548a1.176,1.176,0,0,0,.2-1.651Z" transform="translate(-249.247 -254.52)" fill="#39666e"/>
          <path id="Trazado_166220" data-name="Trazado 166220" d="M260.579,266.561a1.166,1.166,0,0,1-.368.5l-.743.58a1.572,1.572,0,0,1-2.207-.272l-7.559-9.679-.455.355,9.7,12.416,1.982-1.547a1.176,1.176,0,0,0,.2-1.651Z" transform="translate(-249.247 -256.251)" fill="#1f2a35"/>
        </g>
        <g id="Grupo_128983" data-name="Grupo 128983" transform="translate(0 17.173)">
          <rect id="Rectángulo_35765" data-name="Rectángulo 35765" width="17.223" height="9.622" rx="1.588" transform="translate(0 6.749)" fill="#abc6c9"/>
          <rect id="Rectángulo_35766" data-name="Rectángulo 35766" width="14.461" height="2.056" rx="0.695" transform="translate(1.381 4.077)" fill="#c1d4d7"/>
          <path id="Trazado_166221" data-name="Trazado 166221" d="M217.942,263.258l-.476.62h14.643l-.476-.62Z" transform="translate(-216.176 -257.129)" fill="#79aab1"/>
          <path id="Trazado_166222" data-name="Trazado 166222" d="M231.779,259.646l-14.7.542a.262.262,0,1,0,.019.523l14.7-.542a.262.262,0,1,0-.019-.524Z" transform="translate(-215.827 -255.159)" fill="#eaf2f2"/>
          <path id="Trazado_166223" data-name="Trazado 166223" d="M228.126,249.773a1.438,1.438,0,0,1-.357,1.544c-.714.874-2.857.708-4.941.89a7.759,7.759,0,0,0-3.81,1.643h12.977a5.1,5.1,0,0,0-1.012-2.86A3.815,3.815,0,0,0,228.126,249.773Z" transform="translate(-217.023 -249.773)" fill="#fff"/>
          <path id="Trazado_166224" data-name="Trazado 166224" d="M219.959,272.505v-7.883H215.35a.722.722,0,0,0-.722.722v8.178a.722.722,0,0,0,.722.722h15.78l-10.238-.736A1,1,0,0,1,219.959,272.505Z" transform="translate(-214.628 -257.873)" fill="#8ab5bb"/>
          <path id="Trazado_166225" data-name="Trazado 166225" d="M238.656,265.95h-1.994a.417.417,0,1,0,0,.833h1.994a.417.417,0,1,0,0-.833Z" transform="translate(-226.421 -258.598)" fill="#fff" style="mix-blend-mode: soft-light;isolation: isolate"/>
          <path id="Trazado_166226" data-name="Trazado 166226" d="M228.8,266.343h-.417a.327.327,0,1,0,0,.655h.417a.327.327,0,0,0,0-.655Z" transform="translate(-221.955 -258.812)" fill="#fff" style="mix-blend-mode: soft-light;isolation: isolate"/>
          <path id="Trazado_166227" data-name="Trazado 166227" d="M232.407,250.429a1.771,1.771,0,0,1-.327,1.846c-.923.863-1.845.8-3.006.818s-2.9-.372-2.747.462c.119.669,4.191.595,5.5-.4a1.907,1.907,0,0,0,.893-2.039A2.043,2.043,0,0,0,232.407,250.429Z" transform="translate(-221.005 -250.131)" fill="#eaf2f2"/>
          <path id="Trazado_166228" data-name="Trazado 166228" d="M241.55,251.281a1.745,1.745,0,0,1,.327.952c-.03.461-.416,1.86.372,1.9s.938-.952.714-1.637S241.55,251.281,241.55,251.281Z" transform="translate(-229.315 -250.596)" fill="#eaf2f2"/>
          <rect id="Rectángulo_35767" data-name="Rectángulo 35767" width="17.223" height="5.44" transform="translate(0 8.996)" fill="#1f2a35"/>
          <rect id="Rectángulo_35768" data-name="Rectángulo 35768" width="3.423" height="8.314" rx="1.711" transform="translate(13.039 7.412)" fill="#fff" style="mix-blend-mode: soft-light;isolation: isolate"/>
        </g>
      </g>
      <g id="Grupo_129267" data-name="Grupo 129267" transform="translate(78.526 14.93)">
        <rect id="Rectángulo_35769" data-name="Rectángulo 35769" width="6.442" height="2.859" rx="0.603" transform="translate(3.385 6.179)" fill="#fffffa"/>
        <rect id="Rectángulo_35770" data-name="Rectángulo 35770" width="3.339" height="1.504" transform="translate(4.977 4.676)" fill="#fffffa"/>
        <rect id="Rectángulo_35771" data-name="Rectángulo 35771" width="1.205" height="2.496" transform="translate(6.09 2.18)" fill="#fffffa"/>
        <path id="Trazado_166229" data-name="Trazado 166229" d="M353.221,213.467H345.4a.157.157,0,0,0-.147.229l.336.609a.282.282,0,0,0,.247.141h7.055a.31.31,0,0,0,.289-.186l.223-.544A.185.185,0,0,0,353.221,213.467Z" transform="translate(-344.18 -213.467)" fill="#fffffa"/>
        <path id="Trazado_166230" data-name="Trazado 166230" d="M349.055,216.044l3.182.79h1.781l.984-.373a.292.292,0,0,0,.194-.27v-.336h-6.141Z" transform="translate(-346.434 -214.875)" fill="#dadbde"/>
        <rect id="Rectángulo_35772" data-name="Rectángulo 35772" width="7.882" height="0.99" rx="0.495" transform="translate(2.673 9.322)" fill="#fffffa"/>
        <rect id="Rectángulo_35773" data-name="Rectángulo 35773" width="5.839" height="0.283" transform="translate(3.681 9.039)" fill="#dadbde"/>
        <path id="Trazado_166231" data-name="Trazado 166231" d="M350.919,228.774v2.365a.247.247,0,0,0,.247.247h2.019v-2.859h-2.019A.247.247,0,0,0,350.919,228.774Z" transform="translate(-347.533 -222.348)" fill="#e2e3e5"/>
        <rect id="Rectángulo_35774" data-name="Rectángulo 35774" width="1.349" height="1.504" transform="translate(4.977 4.676)" fill="#e2e3e5"/>
        <path id="Trazado_166232" data-name="Trazado 166232" d="M357.511,221.275h.494v-1.923l.724-.131-1.218-.442Z" transform="translate(-351.421 -216.6)" fill="#dadbde"/>
        <rect id="Rectángulo_35775" data-name="Rectángulo 35775" width="1.781" height="0.663" transform="translate(5.802 1.959)" fill="#fffffa"/>
        <path id="Trazado_166233" data-name="Trazado 166233" d="M356.809,218.9h.7v-.473l1.108-.19h-1.807Z" transform="translate(-351.007 -216.282)" fill="#e2e3e5"/>
        <rect id="Rectángulo_35776" data-name="Rectángulo 35776" width="13.474" height="18.931" rx="2" transform="translate(0 9.828)" fill="#1d272b"/>
        <path id="Trazado_166234" data-name="Trazado 166234" d="M344.92,253.637V237.961a1.531,1.531,0,0,1,.106-.543H344.4a1.681,1.681,0,0,0-1.729,1.628v15.676a1.681,1.681,0,0,0,1.729,1.628h10.016a1.721,1.721,0,0,0,1.623-1.084h-9.387A1.681,1.681,0,0,1,344.92,253.637Z" transform="translate(-342.668 -227.591)" fill="#526366"/>
        <rect id="Rectángulo_35777" data-name="Rectángulo 35777" width="2.933" height="15.579" rx="1.466" transform="translate(9.604 11.569)" fill="#fffffa" style="mix-blend-mode: soft-light;isolation: isolate"/>
        <path id="Trazado_166235" data-name="Trazado 166235" d="M358.949,238.7h-9.09a.378.378,0,0,0,0,.756h9.09a.378.378,0,1,0,0-.756Z" transform="translate(-346.686 -228.346)" fill="#fffffa" style="mix-blend-mode: soft-light;isolation: isolate"/>
      </g>
      <g id="Grupo_129268" data-name="Grupo 129268" transform="translate(39.756 -14.33)">
        <rect id="Rectángulo_35797" data-name="Rectángulo 35797" width="1.729" height="2.593" transform="translate(20.448 39.865)" fill="#abc6c9"/>
        <path id="Trazado_166256" data-name="Trazado 166256" d="M406.563,203.978c0,.117.009.233.009.35a18.871,18.871,0,1,1-37.742,0c0-.117.006-.233.008-.35h-1.153c0,.117-.009.233-.009.35a20.023,20.023,0,1,0,40.047,0c0-.117-.007-.233-.009-.35Z" transform="translate(-366.389 -184.378)" fill="#c1d4d7"/>
        <path id="Trazado_166257" data-name="Trazado 166257" d="M407.257,205.279c0,10.406-8.75,18.871-19.5,18.871s-19.5-8.465-19.5-18.871c0-.118.007-.233.009-.35h-.569a20.018,20.018,0,0,0,40.033,0h-.474C407.25,205.046,407.257,205.161,407.257,205.279Z" transform="translate(-366.392 -184.704)" fill="#79aab1"/>
        <rect id="Rectángulo_35798" data-name="Rectángulo 35798" width="0.72" height="1.129" transform="translate(18.466 42.873)" fill="#79aab1"/>
        <g id="Grupo_128994" data-name="Grupo 128994" transform="translate(0 18.886)">
          <path id="Trazado_166258" data-name="Trazado 166258" d="M371.382,202.89h-4.418a1.249,1.249,0,0,0,0,2.5h4.418a1.249,1.249,0,0,0,0-2.5Z" transform="translate(-365.715 -202.89)" fill="#abc6c9"/>
          <path id="Trazado_166259" data-name="Trazado 166259" d="M425.5,202.89h-4.419a1.249,1.249,0,0,0,0,2.5H425.5a1.249,1.249,0,0,0,0-2.5Z" transform="translate(-384.291 -202.89)" fill="#abc6c9"/>
        </g>
        <circle id="Elipse_4456" data-name="Elipse 4456" cx="17.166" cy="17.166" r="17.166" transform="translate(4.146 2.785)" fill="#cddddf"/>
        <rect id="Rectángulo_35799" data-name="Rectángulo 35799" width="4.61" height="15.162" transform="translate(19.007 42.314)" fill="#cddddf"/>
        <path id="Trazado_166260" data-name="Trazado 166260" d="M401.4,260.613H386.145a.777.777,0,0,0-.776.776v.95h16.809v-.95A.776.776,0,0,0,401.4,260.613Z" transform="translate(-372.462 -203.819)" fill="#c1d4d7"/>
        <path id="Trazado_166261" data-name="Trazado 166261" d="M400.256,257.986H389.8a.776.776,0,0,0-.776.776v.949h12.006v-.949A.776.776,0,0,0,400.256,257.986Z" transform="translate(-373.717 -202.917)" fill="#c1d4d7"/>
        <rect id="Rectángulo_35800" data-name="Rectángulo 35800" width="1.604" height="1.753" rx="0.785" transform="translate(16.905 42.56)" fill="#c1d4d7"/>
        <circle id="Elipse_4457" data-name="Elipse 4457" cx="15.321" cy="15.321" r="15.321" transform="translate(1.343 28.377) rotate(-67.834)" fill="url(#linear-gradient)"/>
        <path id="Trazado_166262" data-name="Trazado 166262" d="M396.428,238.564h-1.771v12.676h4.61l-2.839-.768Z" transform="translate(-375.65 -196.25)" fill="#abc6c9"/>
        <rect id="Rectángulo_35801" data-name="Rectángulo 35801" width="12.007" height="0.603" transform="translate(15.309 56.191)" fill="#79aab1"/>
        <rect id="Rectángulo_35802" data-name="Rectángulo 35802" width="16.809" height="0.648" transform="translate(12.908 57.872)" fill="#79aab1"/>
        <rect id="Rectángulo_35803" data-name="Rectángulo 35803" width="2.946" height="0.982" rx="0.491" transform="translate(38.836 19.326)" fill="#d8e4e6"/>
        <path id="Trazado_166263" data-name="Trazado 166263" d="M369.29,203.532h-1.8a.459.459,0,1,0,0,.917h1.8a.459.459,0,1,0,0-.917Z" transform="translate(-366.166 -184.225)" fill="#d8e4e6"/>
        <path id="Trazado_166264" data-name="Trazado 166264" d="M373.277,196.206a17.124,17.124,0,0,1,6.045-13.072,17.163,17.163,0,1,0,20.993,27.111,17.162,17.162,0,0,1-27.038-14.039Z" transform="translate(-367.882 -177.223)" fill="#abc6c9"/>
        <rect id="Rectángulo_35804" data-name="Rectángulo 35804" width="0.811" height="2.399" transform="translate(20.448 39.865)" fill="#79aab1"/>
        <path id="Trazado_166265" data-name="Trazado 166265" d="M387.732,182.91l17.239,24.928a15.35,15.35,0,0,0,3.164-4.1l-15.443-22.33A15.2,15.2,0,0,0,387.732,182.91Z" transform="translate(-373.273 -176.63)" fill="#eef1f1"/>
        <path id="Trazado_166266" data-name="Trazado 166266" d="M380.672,188.431l16.942,24.415a15.157,15.157,0,0,0,1.784-.8L382.03,187.072A15.418,15.418,0,0,0,380.672,188.431Z" transform="translate(-370.849 -178.574)" fill="#eef1f1"/>
        <path id="Trazado_166267" data-name="Trazado 166267" d="M390.159,181.211a15.321,15.321,0,1,0,15.321,15.32A15.32,15.32,0,0,0,390.159,181.211Zm0,30.257a14.955,14.955,0,1,1,14.955-14.955A14.955,14.955,0,0,1,390.159,211.468Z" transform="translate(-368.847 -176.563)" fill="#797f85"/>
      </g>
    </g>
  </g>
</svg>
