<svg xmlns="http://www.w3.org/2000/svg" width="263.3" height="215.974" viewBox="0 0 263.3 215.974">
  <g id="img1" transform="translate(-213.781 -490)">
    <g id="Grupo_129524" data-name="Grupo 129524" transform="translate(220.12 490)">
      <g id="Grupo_127748" data-name="Grupo 127748" transform="translate(0 0)">
        <path id="Trazado_151846" data-name="Trazado 151846" d="M301.23,309.458a53.744,53.744,0,0,0,7.251-47.048c-3.215-9.9-9.385-19.094-10.173-29.416-1.578-20.637,18.31-37.321,22.436-57.646,1.813-8.932-.165-19.339-7.938-24.765-7.678-5.359-18.636-4.265-27.328-.512s-16.047,9.761-24.392,14.154-18.621,7.108-27.434,3.612c-8.927-3.541-13.99-12.467-16.827-21.166s-4.229-17.964-9.069-25.845c-7.978-12.989-24.988-20.071-40.839-18.238S136.9,114.458,129.3,127.647s-8.924,29.14-5.143,43.708c1.918,7.388,5.078,14.463,6.8,21.894S132.844,208.812,129,215.5c-8.045,14-29.267,15.947-40.381,27.949-9.173,9.906-9.46,25.023-4.255,37.2s14.988,22.066,24.742,31.47c45.495,1.436,91.805,1.531,137.3,2.966C264.086,315.653,283.569,310.434,301.23,309.458Z" transform="translate(-80.961 -99.163)" fill="#a4a4b4" opacity="0.354" style="mix-blend-mode: multiply;isolation: isolate"/>
        <path id="Trazado_151847" data-name="Trazado 151847" d="M359.21,166.348c-.113,12.059,11.351,22.555,9.356,34.449-1.067,6.364-5.916,12.815-3.1,18.619,2.493,5.136,9.634,6.027,15.094,4.357,12.78-3.91,20.548-16.973,24.263-29.812,3.494-12.076,4.362-25.564-1.234-36.822-4.51-9.07-14.914-17.077-25.479-16.336C368.435,141.481,359.294,157.265,359.21,166.348Z" transform="translate(-152.738 -94.737)" fill="#a4a4b4" opacity="0.31" style="mix-blend-mode: multiply;isolation: isolate"/>
        <path id="Trazado_151848" data-name="Trazado 151848" d="M113.236,135.357a48.914,48.914,0,0,0-.976,47.6c2.511,4.607,5.9,8.9,10.481,11.462s10.486,3.133,15.044.534c6.912-3.943,8.441-13.242,7.89-21.181s-2.349-16.261.708-23.607c1.993-4.789,5.82-8.522,9.214-12.444s6.563-8.5,6.738-13.683c.455-13.438-13.812-12.434-22.411-9.643A48.866,48.866,0,0,0,113.236,135.357Z" transform="translate(-88.954 -102.398)" fill="#a4a4b4" opacity="0.31" style="mix-blend-mode: multiply;isolation: isolate"/>
        <g id="Grupo_107069" data-name="Grupo 107069" transform="translate(4.776)" style="mix-blend-mode: multiply;isolation: isolate">
          <path id="Trazado_151849" data-name="Trazado 151849" d="M301.236,310.8l-.98-.838c2.7-2.762,7-9.093,5.545-20.476a84.686,84.686,0,0,0-3.812-14.913c-.694-2.163-1.413-4.4-2.04-6.619a96.953,96.953,0,0,1,8.027-71.706c1.047-1.941,2.18-3.89,3.277-5.773,3.249-5.584,6.609-11.36,8.054-17.6,2.534-10.947-2.475-19.152-8.2-22.142-5.494-2.871-13.249-2.432-21.275,1.2-2.936,1.33-5.79,2.956-8.55,4.529a80.973,80.973,0,0,1-11.468,5.75c-15.931,5.988-35.849.9-46.33-11.836-5.037-6.12-7.881-13.516-10.632-20.669-1.066-2.772-2.168-5.638-3.38-8.381-3.769-8.527-10.668-19.23-22.129-21.79-10.07-2.251-20.269,2.7-27.05,7.241-12.974,8.7-22.12,20.475-25.753,33.164-2.449,8.557-2.548,17.871-2.644,26.877-.142,13.413-.289,27.283-8.374,38.453-3.678,5.081-8.737,9.136-13.629,13.057-4.582,3.672-9.32,7.469-12.852,12.072-8,10.429-9.965,25.194-5.382,40.509,4.118,13.76,12.512,25.97,20.629,37.778l-1.116.672c-8.17-11.885-16.619-24.174-20.791-38.115-4.692-15.681-2.658-30.833,5.582-41.57,3.625-4.725,8.425-8.571,13.066-12.291,4.826-3.868,9.816-7.867,13.394-12.81,7.861-10.86,8-23.93,8.145-37.768.1-9.085.2-18.478,2.69-27.188,3.712-12.966,13.039-24.988,26.262-33.853,7.006-4.7,17.572-9.8,28.13-7.439,12.005,2.682,19.159,13.729,23.046,22.523,1.224,2.769,2.332,5.65,3.4,8.435,2.716,7.062,5.523,14.365,10.434,20.331,10.132,12.31,29.386,17.229,44.786,11.441a80.072,80.072,0,0,0,11.272-5.658c2.786-1.589,5.667-3.231,8.661-4.587,8.42-3.814,16.621-4.242,22.5-1.171,6.14,3.208,11.529,11.927,8.852,23.492-1.485,6.413-4.892,12.268-8.187,17.93-1.091,1.875-2.22,3.814-3.257,5.738a95.763,95.763,0,0,0-7.928,70.827c.621,2.2,1.336,4.426,2.027,6.579a85.659,85.659,0,0,1,3.86,15.123C308.64,301.213,304.086,307.882,301.236,310.8Z" transform="translate(-87.906 -97.739)" fill="#a4a4b4"/>
        </g>
      </g>
    </g>
    <g id="Grupo_129614" data-name="Grupo 129614" transform="translate(-52.951)">
      <g id="Trazado_140574" data-name="Trazado 140574" transform="translate(266.732 526.518)" fill="#f3f9ff">
        <path d="M 118.6353149414062 98.47248840332031 L 25.54789733886719 98.47248840332031 C 22.25186347961426 98.47248840332031 19.15309715270996 97.18894195556641 16.82244682312012 94.8582763671875 C 14.49179649353027 92.52762603759766 13.20824718475342 89.42885589599609 13.20824718475342 86.13280487060547 L 13.20824718475342 39.79092407226562 L 13.20824718475342 39.59377288818359 L 13.07369709014893 39.44967269897461 L 1.150974988937378 26.68120765686035 L 12.70824718475342 26.68120765686035 L 13.20824718475342 26.68120765686035 L 13.20824718475342 26.18120765686035 L 13.20824718475342 12.83967399597168 C 13.20824718475342 9.543623924255371 14.49179649353027 6.444873809814453 16.82244682312012 4.11420726776123 C 19.15309715270996 1.783557057380676 22.25184631347656 0.5000070333480835 25.54789733886719 0.5000070333480835 L 118.6353149414062 0.5000070333480835 C 121.9313659667969 0.5000070333480835 125.0301132202148 1.783557057380676 127.3607635498047 4.11420726776123 C 129.69140625 6.444873809814453 130.9749603271484 9.543623924255371 130.9749603271484 12.83967399597168 L 130.9749603271484 86.13280487060547 C 130.9749603271484 89.42885589599609 129.69140625 92.52762603759766 127.3607635498047 94.8582763671875 C 125.0301132202148 97.18894195556641 121.9313430786133 98.47248840332031 118.6353149414062 98.47248840332031 Z" stroke="none"/>
        <path d="M 25.54789733886719 1.000007629394531 C 22.38540649414062 1.000007629394531 19.41220855712891 2.231552124023438 17.17601013183594 4.467765808105469 C 14.93978881835938 6.703987121582031 13.70824432373047 9.67718505859375 13.70824432373047 12.83967590332031 L 13.70824432373047 27.18120574951172 L 2.301925659179688 27.18120574951172 L 13.70824432373047 39.39662170410156 L 13.70824432373047 86.13280487060547 C 13.70824432373047 89.29529571533203 14.93978881835938 92.26849365234375 17.17601013183594 94.50471496582031 C 19.41220855712891 96.74092864990234 22.38540649414062 97.97247314453125 25.54789733886719 97.97247314453125 L 118.6353149414062 97.97247314453125 C 121.7978057861328 97.97247314453125 124.7709884643555 96.74092864990234 127.007209777832 94.50471496582031 C 129.2434234619141 92.26849365234375 130.4749603271484 89.29529571533203 130.4749603271484 86.13280487060547 L 130.4749603271484 12.83967590332031 C 130.4749603271484 9.67718505859375 129.2434234619141 6.703964233398438 127.007209777832 4.467765808105469 C 124.7709884643555 2.231552124023438 121.7978057861328 1.000007629394531 118.6353149414062 1.000007629394531 L 25.54789733886719 1.000007629394531 M 25.54789733886719 7.62939453125e-06 L 118.6353149414062 7.62939453125e-06 C 125.7264633178711 7.62939453125e-06 131.4749603271484 5.748512268066406 131.4749603271484 12.83967590332031 L 131.4749603271484 86.13280487060547 C 131.4749603271484 93.22395324707031 125.7264633178711 98.97247314453125 118.6353149414062 98.97247314453125 L 25.54789733886719 98.97247314453125 C 18.45675659179688 98.97247314453125 12.70824432373047 93.22395324707031 12.70824432373047 86.13280487060547 L 12.70824432373047 39.79091262817383 L -1.52587890625e-05 26.18120574951172 L 12.70824432373047 26.18120574951172 L 12.70824432373047 12.83967590332031 C 12.70824432373047 5.748512268066406 18.45675659179688 7.62939453125e-06 25.54789733886719 7.62939453125e-06 Z" stroke="none" fill="#12263f"/>
      </g>
      <g id="Trazado_140575" data-name="Trazado 140575" transform="translate(390.013 566.569)" fill="#d2e1f1">
        <path d="M 112.8106460571289 104.9041137695312 L 13.67401313781738 104.9041137695312 C 10.15510368347168 104.9041137695312 6.846812725067139 103.5337677001953 4.35857629776001 101.0455322265625 C 1.87034010887146 98.55728149414062 0.499994695186615 95.24898529052734 0.499994695186615 91.73007965087891 L 0.499994695186615 13.6740608215332 C 0.499994695186615 10.15513324737549 1.87034010887146 6.846842288970947 4.35857629776001 4.358587741851807 C 6.846812725067139 1.870351552963257 10.15510368347168 0.5000061392784119 13.67401313781738 0.5000061392784119 L 112.8106460571289 0.5000061392784119 C 116.3295593261719 0.5000061392784119 119.6378479003906 1.870351552963257 122.1260833740234 4.358587741851807 C 124.6143417358398 6.846842288970947 125.9846649169922 10.15513324737549 125.9846649169922 13.6740608215332 L 125.9846649169922 27.88257026672363 L 125.9846649169922 28.38257026672363 L 126.4846649169922 28.38257026672363 L 138.8677825927734 28.38257026672363 L 126.1192092895508 42.03546142578125 L 125.9846649169922 42.17955017089844 L 125.9846649169922 42.3766975402832 L 125.9846649169922 91.73007965087891 C 125.9846649169922 95.24898529052734 124.6143417358398 98.55728149414062 122.1260833740234 101.0455322265625 C 119.6378479003906 103.5337677001953 116.3295593261719 104.9041137695312 112.8106460571289 104.9041137695312 Z" stroke="none"/>
        <path d="M 13.67401123046875 1.000007629394531 C 10.28866577148438 1.000007629394531 7.105941772460938 2.318336486816406 4.712142944335938 4.712150573730469 C 2.318328857421875 7.105949401855469 1 10.28868103027344 1 13.67404174804688 L 1 91.73005676269531 C 1 95.11542510986328 2.318328857421875 98.29817199707031 4.712142944335938 100.6919708251953 C 7.105941772460938 103.0857849121094 10.28866577148438 104.4041137695312 13.67401123046875 104.4041137695312 L 112.8106536865234 104.4041137695312 C 116.1959991455078 104.4041137695312 119.3787231445312 103.0857849121094 121.7725219726562 100.6919708251953 C 124.1663208007812 98.29817199707031 125.4846496582031 95.11542510986328 125.4846496582031 91.73005676269531 L 125.4846496582031 41.98240661621094 L 137.7168121337891 28.882568359375 L 125.4846496582031 28.882568359375 L 125.4846496582031 13.67404174804688 C 125.4846496582031 10.28868103027344 124.1663208007812 7.105949401855469 121.7725219726562 4.712150573730469 C 119.3787231445312 2.318336486816406 116.1959991455078 1.000007629394531 112.8106536865234 1.000007629394531 L 13.67401123046875 1.000007629394531 M 13.67401123046875 7.62939453125e-06 L 112.8106536865234 7.62939453125e-06 C 120.3625946044922 7.62939453125e-06 126.4846496582031 6.122077941894531 126.4846496582031 13.67404174804688 L 126.4846496582031 27.882568359375 L 140.0187530517578 27.882568359375 L 126.4846496582031 42.3766975402832 L 126.4846496582031 91.73005676269531 C 126.4846496582031 99.28204345703125 120.3625946044922 105.4041137695312 112.8106536865234 105.4041137695312 L 13.67401123046875 105.4041137695312 C 6.1220703125 105.4041137695312 0 99.28204345703125 0 91.73005676269531 L 0 13.67404174804688 C 0 6.122077941894531 6.1220703125 7.62939453125e-06 13.67401123046875 7.62939453125e-06 Z" stroke="none" fill="#12263f"/>
      </g>
      <g id="Grupo_59399" data-name="Grupo 59399" transform="translate(407.206 564.569)">
        <g id="Grupo_59390" data-name="Grupo 59390" transform="translate(23.666 0)">
          <path id="Trazado_115061" data-name="Trazado 115061" d="M12298.362,4695.692a3.416,3.416,0,0,0-3.418-1.9,4.648,4.648,0,0,0-5.7-.176,4.119,4.119,0,0,0-6.375,3.059,3.419,3.419,0,0,0-3.294,5.646,3.31,3.31,0,0,0,1.071,6.5l16.928-9.3A3.383,3.383,0,0,0,12298.362,4695.692Z" transform="translate(-12277.122 -4692.729)" fill="#839eb6"/>
          <g id="Grupo_59389" data-name="Grupo 59389" transform="translate(1.114 3.282)">
            <g id="Grupo_59388" data-name="Grupo 59388" transform="translate(0 0.063)">
              <path id="Trazado_115062" data-name="Trazado 115062" d="M12280.97,4712.526a14.039,14.039,0,0,1,14.626-12.21l.723.034c7.812.849,11.46,7.977,10.4,15.741l-2.434,26.033-.132,1.259-18.23,2.729.353-6.648s-7.475-1.544-7.191-9.082C12279.205,4726.747,12280.058,4719.277,12280.97,4712.526Z" transform="translate(-12279.075 -4699.332)" fill="#ffbf9d"/>
              <path id="Trazado_115063" data-name="Trazado 115063" d="M12291.558,4767.188a18.328,18.328,0,0,0,10.01-2.4s-2.593,5.3-10.067,4.25Z" transform="translate(-12284.421 -4727.078)" fill="#ff9a6c"/>
              <path id="Trazado_115064" data-name="Trazado 115064" d="M12285.3,4733.917a1.083,1.083,0,0,0,.986,1.14,1.032,1.032,0,0,0,1.138-.913,1.082,1.082,0,0,0-.985-1.139,1.031,1.031,0,0,0-1.14.912Z" transform="translate(-12281.753 -4713.401)" fill="#344154"/>
              <path id="Trazado_115065" data-name="Trazado 115065" d="M12284.89,4727.6c.126.148.969-.416,2.125-.353s1.979.684,2.109.57-.057-.32-.417-.61a2.958,2.958,0,0,0-1.675-.609,2.849,2.849,0,0,0-1.709.456C12284.946,4727.286,12284.834,4727.537,12284.89,4727.6Z" transform="translate(-12281.571 -4710.644)" fill="#344154"/>
              <path id="Trazado_115066" data-name="Trazado 115066" d="M12303.2,4735.122a1.072,1.072,0,0,0,.979,1.14,1.026,1.026,0,0,0,1.142-.918,1.074,1.074,0,0,0-.981-1.139,1.026,1.026,0,0,0-1.139.917Z" transform="translate(-12289.454 -4713.917)" fill="#344154"/>
              <path id="Trazado_115067" data-name="Trazado 115067" d="M12304.89,4728.97c.126.148.975-.416,2.131-.353s1.972.684,2.108.569-.057-.319-.417-.609a2.972,2.972,0,0,0-1.68-.609,2.9,2.9,0,0,0-1.709.455C12304.946,4728.657,12304.833,4728.908,12304.89,4728.97Z" transform="translate(-12290.176 -4711.235)" fill="#344154"/>
              <path id="Trazado_115068" data-name="Trazado 115068" d="M12294.537,4737.167a7.267,7.267,0,0,0-1.862-.433c-.291-.045-.57-.119-.61-.324a1.532,1.532,0,0,1,.238-.866l.986-2.205a44.2,44.2,0,0,0,2.279-5.789,41.566,41.566,0,0,0-2.712,5.6c-.335.774-.649,1.516-.951,2.222a1.709,1.709,0,0,0-.21,1.14.73.73,0,0,0,.461.456,2.023,2.023,0,0,0,.5.1A7.782,7.782,0,0,0,12294.537,4737.167Z" transform="translate(-12284.496 -4711.055)" fill="#344154"/>
              <path id="Trazado_115069" data-name="Trazado 115069" d="M12299.8,4746.13c-.189,0-.252,1.236-1.373,2.074s-2.45.632-2.468.809c0,.08.285.257.85.3a3.13,3.13,0,0,0,2.057-.6,2.717,2.717,0,0,0,1.071-1.744C12299.972,4746.443,12299.857,4746.13,12299.8,4746.13Z" transform="translate(-12286.34 -4719.051)" fill="#344154"/>
              <path id="Trazado_115070" data-name="Trazado 115070" d="M12304.7,4721.172c.1.319,1.264.228,2.608.456s2.433.661,2.628.387c.085-.131-.092-.439-.52-.763a4.337,4.337,0,0,0-1.92-.781,4.4,4.4,0,0,0-2.067.137C12304.929,4720.785,12304.7,4721.018,12304.7,4721.172Z" transform="translate(-12290.102 -4707.982)" fill="#839eb6"/>
              <path id="Trazado_115071" data-name="Trazado 115071" d="M12285.97,4721.691c.192.273,1,.039,1.965.074s1.761.268,1.96,0c.086-.131,0-.4-.37-.667a2.849,2.849,0,0,0-3.157-.057C12285.97,4721.292,12285.854,4721.56,12285.97,4721.691Z" transform="translate(-12282.024 -4708.063)" fill="#839eb6"/>
              <path id="Trazado_115072" data-name="Trazado 115072" d="M12284,4708.377s2.222-4.621,4.558-5.606c2.821-1.2,3.856,1.886,6.519,1.282s5.35-1.749,7.93.41c2.85,2.364,1.369,3.857,1.386,7.208.063,13.577,2.347,17.531,3.366,11.19.108-.695,2.081-1.139,2.514-4.1.569-3.811.94-8.455.222-11.212a10.7,10.7,0,0,0-4.091-5.835c-3.561-2.939-8.638-3.253-12.1-3.077S12283.944,4702.457,12284,4708.377Z" transform="translate(-12281.195 -4698.6)" fill="#839eb6"/>
              <path id="Trazado_115073" data-name="Trazado 115073" d="M12324.421,4739.36a2.052,2.052,0,0,1,2.308-1.863c1.4.205,2.923,1.077,2.683,3.988-.421,5.127-5.491,3.657-5.491,3.51S12324.251,4741.508,12324.421,4739.36Z" transform="translate(-12298.371 -4715.329)" fill="#ffbf9d"/>
              <path id="Trazado_115074" data-name="Trazado 115074" d="M12326.2,4744.4a1.331,1.331,0,0,0,.232.154.893.893,0,0,0,.667.069,2.191,2.191,0,0,0,1.185-1.9,2.941,2.941,0,0,0-.143-1.3,1.044,1.044,0,0,0-.614-.742.462.462,0,0,0-.57.206c-.08.137-.057.239-.086.245s-.1-.091-.041-.3a.58.58,0,0,1,.229-.308.682.682,0,0,1,.508-.085,1.249,1.249,0,0,1,.866.872,3.06,3.06,0,0,1,.192,1.459,2.323,2.323,0,0,1-1.487,2.113.961.961,0,0,1-.809-.2A.42.42,0,0,1,12326.2,4744.4Z" transform="translate(-12299.353 -4716.59)" fill="#ff9a6c"/>
            </g>
            <path id="Trazado_115075" data-name="Trazado 115075" d="M12310.517,4712.6a4.935,4.935,0,0,1-2.232.9,1.678,1.678,0,0,1-1.8-1.276c-.046-.359.063-.769-.158-1.06s-.788-.268-1.22-.245a3.294,3.294,0,0,1-3.3-2.524,1.363,1.363,0,0,1-1.857.085,7.524,7.524,0,0,1-1.327-1.572,2.114,2.114,0,0,0-1.709-.968,5.292,5.292,0,0,1-1.141.188c-.671-.092-.962-.9-1.03-1.579s-.108-1.465-.667-1.858-1.207-.2-1.834-.142-1.424-.125-1.556-.74a1.215,1.215,0,0,1,.279-.923,3.344,3.344,0,0,1,3.988-1.065,41.581,41.581,0,0,0,12.5-1.333,4.676,4.676,0,0,1,3.093,2.906,3.327,3.327,0,0,1,3.5,5.025,3.15,3.15,0,0,1,1.613,2.6,1.817,1.817,0,0,1-2.138,1.744,1.846,1.846,0,0,1-3.276,1.681" transform="translate(-12284.067 -4698.489)" fill="#839eb6"/>
          </g>
          <path id="Trazado_115076" data-name="Trazado 115076" d="M12325.772,4720.05a1.3,1.3,0,0,1-.371.969,1.635,1.635,0,0,1-1.061.569,1.785,1.785,0,0,1-1.447-.5h.223a5.1,5.1,0,0,1-1.094,1.23,2.978,2.978,0,0,1-.969.542,2.313,2.313,0,0,1-2.484-.883,3.1,3.1,0,0,1-.365-1.094,1.237,1.237,0,0,1,0-.416,3.9,3.9,0,0,1,.132.393,3.489,3.489,0,0,0,.427,1,2.11,2.11,0,0,0,3.1.229,5.167,5.167,0,0,0,1.035-1.14l.1-.148.125.126a1.552,1.552,0,0,0,1.219.456,1.491,1.491,0,0,0,.958-.445A2.441,2.441,0,0,0,12325.772,4720.05Z" transform="translate(-12294.79 -4704.483)" fill="#fff"/>
          <path id="Trazado_115077" data-name="Trazado 115077" d="M12304.886,4696.878a.98.98,0,0,0-.371.114,1.815,1.815,0,0,0-.832.644l-.068.091-.062-.1a6.426,6.426,0,0,0-2.389-2.136,4.972,4.972,0,0,0-2-.57,4.272,4.272,0,0,0-3.573,1.682,3.516,3.516,0,0,0-.644,1.521v.165l-.153-.051a2.88,2.88,0,0,0-2.153.154,2.765,2.765,0,0,0-1.229,1.2,3.77,3.77,0,0,0-.4,1.51,1.172,1.172,0,0,1-.04-.428,2.812,2.812,0,0,1,.289-1.139,2.924,2.924,0,0,1,1.276-1.328,3.1,3.1,0,0,1,2.342-.211l-.176.114a3.68,3.68,0,0,1,.679-1.658,4.471,4.471,0,0,1,3.816-1.794,5.1,5.1,0,0,1,2.11.6,6.285,6.285,0,0,1,2.41,2.279h-.138a1.783,1.783,0,0,1,.94-.626A.771.771,0,0,1,12304.886,4696.878Z" transform="translate(-12283.077 -4693.556)" fill="#fff"/>
          <path id="Trazado_115078" data-name="Trazado 115078" d="M12304.621,4746.29c-.086,0-.086-.57-.5-1.02s-.94-.57-.929-.655.148-.074.382,0a1.489,1.489,0,0,1,.77.49,1.45,1.45,0,0,1,.358.838C12304.735,4746.153,12304.677,4746.3,12304.621,4746.29Z" transform="translate(-12288.337 -4715.026)" fill="#ff9a6c"/>
          <path id="Trazado_115079" data-name="Trazado 115079" d="M12305.809,4744.649c-.074.04-.257-.148-.524-.279s-.519-.183-.524-.269.313-.182.667,0S12305.923,4744.62,12305.809,4744.649Z" transform="translate(-12289.013 -4714.788)" fill="#ff9a6c"/>
          <path id="Trazado_115080" data-name="Trazado 115080" d="M12316.054,4763.426a.422.422,0,0,0,.143-.125.445.445,0,0,0,.034-.456c-.074-.2-.3-.381-.444-.724a.675.675,0,0,1,.039-.6,3.316,3.316,0,0,1,.354-.422c.416-.5-.729-.9-.569-1.55a.757.757,0,0,1,.3-.535c.12-.086.205-.092.211-.08a1.054,1.054,0,0,0-.308.632.81.81,0,0,0,.353.621,1.375,1.375,0,0,1,.332.444.644.644,0,0,1-.1.644,4.6,4.6,0,0,0-.335.394.382.382,0,0,0,0,.358c.085.257.3.479.382.74a.574.574,0,0,1-.154.61C12316.11,4763.478,12316,4763.443,12316.054,4763.426Z" transform="translate(-12293.674 -4721.213)" fill="#ff9a6c"/>
          <path id="Trazado_115081" data-name="Trazado 115081" d="M12318.745,4763.13a.487.487,0,0,0-.056-.193,1.616,1.616,0,0,0-.267-.445,2.175,2.175,0,0,1-.207-.335.752.752,0,0,1-.051-.507c.1-.371.416-.57.569-.849s.041-.484-.171-.718a1.408,1.408,0,0,1-.257-.387.891.891,0,0,1-.062-.422c.069-.536.434-.678.434-.639a1.272,1.272,0,0,0-.222.644.873.873,0,0,0,.312.627,1.345,1.345,0,0,1,.3.433.709.709,0,0,1-.079.615c-.216.336-.5.53-.569.77a.873.873,0,0,0,.176.661,1.311,1.311,0,0,1,.2.536A.324.324,0,0,1,12318.745,4763.13Z" transform="translate(-12294.772 -4721.082)" fill="#ff9a6c"/>
        </g>
        <g id="Grupo_59395" data-name="Grupo 59395" transform="translate(0.873 41.456)">
          <path id="Trazado_115082" data-name="Trazado 115082" d="M12335.4,4831.658l6.837,6.586-2.21-12.6,13.873-4.387s3.686,17.286,4.325,21.377c1.139,7.333-.263,17.765-7.1,18.5-7.408.792-12.979-6.5-16.523-11.292-2.733-3.68-7.145-10.113-7.145-10.113l7.977-8.073" transform="translate(-12275.985 -4789.485)" fill="#839eb6"/>
          <path id="Trazado_115083" data-name="Trazado 115083" d="M12243.717,4819.84c-2.223,7.014-5.339,8.067-6.563,28.146-.239,3.92.6,9.145,4.319,10.4,4.125,1.4,10.438-1.14,12.421-4.558V4840Z" transform="translate(-12237.116 -4788.874)" fill="#839eb6"/>
          <path id="Trazado_115084" data-name="Trazado 115084" d="M12262.347,4867.085a17.809,17.809,0,0,0-3.248-5.595,2.912,2.912,0,0,1,.714.644,10.778,10.778,0,0,1,2.329,4.011,3.014,3.014,0,0,1,.206.94Z" transform="translate(-12246.573 -4806.794)" fill="#344154"/>
          <path id="Trazado_115085" data-name="Trazado 115085" d="M12242.8,4811.051c.114-.417,6.963-19.053,9.116-23.132,2.615-4.877,8.107-7.037,11.521-7.248s39.883,2.7,39.883,2.7,10.221,2.569,12.289,11.816c2.593,11.6,4.678,23.036,4.678,23.036l-18.282,3.949-2.114-5.418-34.361,7.668-8.394-12.415Z" transform="translate(-12239.561 -4772.017)" fill="#839eb6"/>
          <g id="Grupo_59392" data-name="Grupo 59392" transform="translate(16.628)">
            <path id="Trazado_115086" data-name="Trazado 115086" d="M12686.869,4990.582l-14.244-6.285-1.594-6.147-16.637,7.863-3.477-3.846-1.48,4.335-3.646,1.19-7.18,14.147-1.311,32.772.115,8.512,49.168.331-.4-13.937Z" transform="translate(-12637.301 -4978.15)" fill="#839eb6"/>
            <path id="Trazado_115087" data-name="Trazado 115087" d="M12312.938,4765.49a42.115,42.115,0,0,0-6.638,3.088c-4.684,2.5-10,4.781-10,4.781l.405,7.509,17.7-8.889" transform="translate(-12279.208 -4765.49)" fill="#839eb6"/>
            <path id="Trazado_115088" data-name="Trazado 115088" d="M12660.083,4985.2l3.475,3.846-1.88,8.057-3.077-7.281" transform="translate(-12646.465 -4981.183)" fill="#839eb6"/>
            <g id="Grupo_59391" data-name="Grupo 59391" transform="translate(15.896 7.27)" opacity="0.3">
              <path id="Trazado_115089" data-name="Trazado 115089" d="M12295.339,4779.68c-.153.114-1.139,9.292-1.139,9.292l17.747-10.722-16.151,8.107Z" transform="translate(-12294.2 -4778.25)" fill="#d9a171"/>
            </g>
          </g>
          <path id="Trazado_115090" data-name="Trazado 115090" d="M12289.114,4843.914s-.37-13.612-.047-22.141c.27-7.02-.837-24.933-.837-24.933l-2.312-.37a261.115,261.115,0,0,0-5.938,38.743l-.648,8.632" transform="translate(-12255.278 -4778.819)" fill="#b42218"/>
          <path id="Trazado_115091" data-name="Trazado 115091" d="M12345.9,4816.36a4.176,4.176,0,0,1,.165.724c.092.513.212,1.185.359,1.995.295,1.708.7,4.034,1.139,6.58s.827,4.9,1.077,6.592c.125.843.222,1.532.285,2.005a4.01,4.01,0,0,1,.069.741,4.314,4.314,0,0,1-.166-.729c-.092-.512-.211-1.179-.358-1.988-.3-1.709-.707-4.034-1.141-6.58s-.809-4.906-1.061-6.592c-.112-.814-.209-1.487-.284-2.006a4.1,4.1,0,0,1-.084-.74Z" transform="translate(-12283.921 -4787.376)" fill="#344154"/>
          <path id="Trazado_115092" data-name="Trazado 115092" d="M12351.2,4789.219c0,.034-.485.427-1.2,1.168a15.038,15.038,0,0,0-2.37,3.236,14.86,14.86,0,0,0-1.392,3.76c-.222,1.009-.272,1.652-.312,1.647a1.582,1.582,0,0,1,0-.456,9.549,9.549,0,0,1,.148-1.225,13.022,13.022,0,0,1,3.812-7.089,9,9,0,0,1,.941-.8C12351.032,4789.292,12351.146,4789.2,12351.2,4789.219Z" transform="translate(-12283.925 -4775.698)" fill="#344154"/>
          <path id="Trazado_115093" data-name="Trazado 115093" d="M12664.863,4997.791l-1.6-.621-1.482,2.581-.284,4.233,2.109.336,1.595-2.609Z" transform="translate(-12631.085 -4986.333)" fill="#b42218"/>
          <path id="Trazado_115094" data-name="Trazado 115094" d="M12266.205,4807.7c.068,0,.126,9.162.126,20.465s-.058,20.465-.126,20.465-.125-9.162-.125-20.465S12266.149,4807.7,12266.205,4807.7Z" transform="translate(-12249.577 -4783.651)" fill="#344154"/>
          <path id="Trazado_115095" data-name="Trazado 115095" d="M12292.672,4779.18c.028,0-.342.57-.906,1.533s-1.3,2.278-2.012,3.771c-.056.125-.113.25-.171.365l-.108.239-.114-.239a30.023,30.023,0,0,1-1.481-3.749c-.152-.49-.261-.889-.33-1.14a1.486,1.486,0,0,1-.08-.438,15.608,15.608,0,0,1,.57,1.544,38.888,38.888,0,0,0,1.544,3.7h-.223c.053-.114.109-.239.172-.365a31.1,31.1,0,0,1,2.085-3.761c.3-.461.569-.826.746-1.071a1.831,1.831,0,0,1,.309-.393Z" transform="translate(-12258.779 -4771.38)" fill="#344154"/>
          <path id="Trazado_115096" data-name="Trazado 115096" d="M12314.554,4776.279a1.33,1.33,0,0,1-.245.148l-.718.376-2.643,1.367c-2.232,1.14-5.287,2.814-8.672,4.627-2.062,1.094-3.987,2.113-5.7,2.962l-.158.08v-.171c0-2.206-.042-4.062-.058-5.407v-1.521a3.469,3.469,0,0,1,0-.57,3.1,3.1,0,0,1,.046.57c0,.381.033.889.056,1.521.034,1.339.087,3.2.143,5.4l-.159-.1c1.708-.866,3.635-1.892,5.7-2.992,3.386-1.806,6.454-3.418,8.711-4.558,1.14-.569,2.046-1,2.685-1.3l.734-.335A1.386,1.386,0,0,1,12314.554,4776.279Z" transform="translate(-12262.602 -4770.132)" fill="#344154"/>
          <path id="Trazado_115097" data-name="Trazado 115097" d="M12268.438,4786.439c.035,0-.244.5-.6,1.3a14.3,14.3,0,0,0-1.226,6.677c.047.878.143,1.419.1,1.425a1.437,1.437,0,0,1-.108-.371,9.185,9.185,0,0,1-.165-1.042,12.306,12.306,0,0,1,1.246-6.763,8.818,8.818,0,0,1,.521-.917A2.317,2.317,0,0,0,12268.438,4786.439Z" transform="translate(-12249.702 -4774.503)" fill="#344154"/>
          <path id="Trazado_115098" data-name="Trazado 115098" d="M12292.243,4796.745c-.034.058-.438-.13-.9-.422s-.8-.569-.77-.632.438.131.9.422S12292.3,4796.688,12292.243,4796.745Z" transform="translate(-12260.116 -4778.479)" fill="#344154"/>
          <g id="Grupo_59393" data-name="Grupo 59393" transform="translate(4.042 44.418)" opacity="0.3">
            <path id="Trazado_115100" data-name="Trazado 115100" d="M12283.062,4853.746a1.6,1.6,0,0,0-.569-1.037c-.569-.381-1.322.12-1.926.479-1.589.945-3.549.911-5.39.832a136.209,136.209,0,0,1-16.609-1.579,25.3,25.3,0,0,1-7.8-2.318,10.418,10.418,0,0,1-5.27-5.971l-1.289-.7c1,2.125.9,8.136,1.255,10.456s1.384,3.987,3.611,4.694a7.965,7.965,0,0,0,2.8.2c9.149-.456,18.385-.046,27.536-.5,1.311-.068,2.85-.245,3.527-1.345A3.919,3.919,0,0,0,12283.062,4853.746Z" transform="translate(-12244.209 -4843.45)" fill="#12263f"/>
          </g>
          <path id="Trazado_115101" data-name="Trazado 115101" d="M12353.06,4857.142l-.063-.108-.165-.319-.263-.53c-.131-.2-.284-.421-.454-.672a24.057,24.057,0,0,0-3.551-3.863c-1.652-1.521-3.754-3.23-6.113-5.19-1.173-.986-2.427-2.023-3.676-3.174a34.408,34.408,0,0,1-3.691-3.834h.176l-7.121,7.452-.957,1v-.154c2.689,3.938,5.127,7.749,7.721,10.945a52.433,52.433,0,0,0,3.873,4.331,31.782,31.782,0,0,0,3.767,3.356,11.42,11.42,0,0,0,6.653,2.615h.611l.529-.057.455-.051.371-.08.5-.114h.172a.63.63,0,0,1-.166.057l-.5.131-.364.1-.461.058-.529.067h-.616a11.411,11.411,0,0,1-6.757-2.575,32.165,32.165,0,0,1-3.806-3.35,50.287,50.287,0,0,1-3.909-4.336c-2.6-3.2-5.059-7.014-7.748-10.945l-.057-.08.068-.074.951-1c2.5-2.6,4.912-5.127,7.133-7.446l.1-.1.085.108a34.369,34.369,0,0,0,3.652,3.817c1.242,1.139,2.49,2.193,3.657,3.185,2.348,1.966,4.439,3.7,6.085,5.236a23.23,23.23,0,0,1,3.516,3.925l.438.689c.1.211.183.388.251.542s.108.245.148.33A.441.441,0,0,1,12353.06,4857.142Z" transform="translate(-12275.753 -4797.204)" fill="#344154"/>
          <g id="Grupo_59394" data-name="Grupo 59394" transform="translate(52.317 52.611)" opacity="0.3">
            <path id="Trazado_115102" data-name="Trazado 115102" d="M12329.715,4858.064l-.775-.234a46.745,46.745,0,0,0,4.689,12.694h5.556C12337.064,4867.892,12329.715,4858.064,12329.715,4858.064Z" transform="translate(-12328.939 -4857.83)" fill="#12263f"/>
          </g>
        </g>
        <g id="Grupo_59398" data-name="Grupo 59398" transform="translate(0 71.146)">
          <g id="Grupo_59396" data-name="Grupo 59396" transform="translate(30.702)">
            <path id="Trazado_115103" data-name="Trazado 115103" d="M12317.976,4831.166l-11.253-12.29-6.745-1.276-7.658.969a1.638,1.638,0,0,0,.969,1.857l-2.849.165a1.608,1.608,0,0,0,1.048,2.1l-2.016.358a2.9,2.9,0,0,0,3.149,1.664,43.882,43.882,0,0,1,5.983-.4l3.958,2.182-5.9-.239-4.284.8s-.569,1.1.405,1.356a28,28,0,0,0,4.689,0l5.349,1.709s2.092,2.968,2.816,3.777,4.2,2.279,4.2,2.279l1.708,1.532Z" transform="translate(-12289.472 -4817.6)" fill="#ffbf9d"/>
            <path id="Trazado_115104" data-name="Trazado 115104" d="M12291.2,4821.929a11.268,11.268,0,0,0,2.2-.085c1.352-.1,3.214-.279,5.271-.5l1.977-.223h-.085c1.532.428,2.849.787,3.812,1.026a6.714,6.714,0,0,0,1.533.307,6.272,6.272,0,0,0-1.458-.568c-.93-.309-2.246-.719-3.768-1.175h-.079l-1.978.206c-2.057.222-3.914.45-5.26.632A10.8,10.8,0,0,0,12291.2,4821.929Z" transform="translate(-12290.214 -4818.938)" fill="#ff9a6c"/>
            <path id="Trazado_115105" data-name="Trazado 115105" d="M12290.3,4825.912a9.54,9.54,0,0,0,1.994-.137c1.225-.137,2.905-.359,4.763-.633l1.852-.279h-.113a36.907,36.907,0,0,0,4.654,1.635,37.21,37.21,0,0,0-4.5-2.028h-.107l-1.852.262c-1.858.273-3.533.569-4.746.758A9.14,9.14,0,0,0,12290.3,4825.912Z" transform="translate(-12289.828 -4820.556)" fill="#ff9a6c"/>
          </g>
          <g id="Grupo_59397" data-name="Grupo 59397" transform="translate(0 0.421)">
            <path id="Trazado_115106" data-name="Trazado 115106" d="M12240.041,4821.365l5.7,21.548a2.677,2.677,0,0,0,2.643,1.994l29.537-.57a2.684,2.684,0,0,0,2.568-3.236l-4.347-20.637a2.677,2.677,0,0,0-2.621-2.125h-31.148a2.415,2.415,0,0,0-2.329,3.026Z" transform="translate(-12237.467 -4818.339)" fill="#344154"/>
            <path id="Trazado_115107" data-name="Trazado 115107" d="M12272.314,4833.42a1.447,1.447,0,1,1-2.081.57,1.534,1.534,0,0,1,2.081-.57Z" transform="translate(-12250.426 -4824.743)" fill="#fff"/>
            <path id="Trazado_115108" data-name="Trazado 115108" d="M12235.992,4829.336a1.921,1.921,0,0,1,0-2.371,2.924,2.924,0,0,1,2.25-1.065,6.565,6.565,0,0,1,2.5.519,16.514,16.514,0,0,1,2.849,1.417,2.724,2.724,0,0,1,1.415,1.653c.124.735-.679,1.579-1.328,1.208a3.125,3.125,0,0,1,1.829,2.183c.136.934-.359,1.436-1.266,1.709a1.407,1.407,0,0,1,.814,1.8,1.613,1.613,0,0,1-2.022.616,4.632,4.632,0,0,1-1.766-1.476,4.288,4.288,0,0,1,.5,2.963,5.806,5.806,0,0,1-3.79-4.655,2.681,2.681,0,0,1-.729-3.293,2.781,2.781,0,0,1-1.651-2.319" transform="translate(-12235.583 -4821.592)" fill="#ffbf9d"/>
            <path id="Trazado_115109" data-name="Trazado 115109" d="M12246.025,4839.6a8.41,8.41,0,0,1-.866-.661,5.8,5.8,0,0,0-2.28-1.14,3.132,3.132,0,0,0-1.383,0,2.485,2.485,0,0,0-1.008.507,3.044,3.044,0,0,0-.656.827.581.581,0,0,1,.072-.285,2.011,2.011,0,0,1,.479-.661,2.592,2.592,0,0,1,1.06-.57,3.174,3.174,0,0,1,1.48,0,5.352,5.352,0,0,1,2.325,1.259A4.121,4.121,0,0,1,12246.025,4839.6Z" transform="translate(-12237.412 -4826.594)" fill="#ff9a6c"/>
            <path id="Trazado_115110" data-name="Trazado 115110" d="M12245.116,4833.28a4.647,4.647,0,0,1-1.047-.439,11.012,11.012,0,0,0-1.142-.484,9.319,9.319,0,0,0-1.435-.37,4.021,4.021,0,0,0-1.452,0,2.714,2.714,0,0,0-1.084.467,2.935,2.935,0,0,0-.705.844.687.687,0,0,1,.084-.3,2.009,2.009,0,0,1,.524-.666,2.686,2.686,0,0,1,1.141-.571,4.1,4.1,0,0,1,1.537,0,8.127,8.127,0,0,1,1.471.4,9.836,9.836,0,0,1,1.139.536,8.222,8.222,0,0,1,.969.58Z" transform="translate(-12236.732 -4824.084)" fill="#ff9a6c"/>
          </g>
        </g>
      </g>
      <g id="Grupo_59402" data-name="Grupo 59402" transform="translate(370.541 551.372)">
        <g id="Grupo_59400" data-name="Grupo 59400" transform="translate(0 0)">
          <path id="Trazado_115111" data-name="Trazado 115111" d="M12159.948,4742.5l7.212-.16a16.815,16.815,0,1,1-1.777,5.749h0Z" transform="translate(-12159.948 -4733.256)" fill="#00978e"/>
          <path id="Trazado_115112" data-name="Trazado 115112" d="M12159.948,4742.478l5.394,5.635.051.057.03-.074h0l-.1-.028a16.7,16.7,0,0,0,1.213,8.654,15.667,15.667,0,0,0,1.249,2.354c.257.375.507.768.781,1.139l.911,1.111a16.939,16.939,0,0,0,11.16,5.549,16.716,16.716,0,0,0,7.021-.894,17.069,17.069,0,0,0,6.306-3.988,16.509,16.509,0,0,0,4.081-6.626l.3-.98c.1-.319.143-.661.217-.986a7.418,7.418,0,0,0,.182-1l.1-1a7.471,7.471,0,0,0,.047-1v-1l-.086-.985a7.6,7.6,0,0,0-.119-.975,17.1,17.1,0,0,0-2.85-7.053,16.588,16.588,0,0,0-5.293-4.883,17.044,17.044,0,0,0-12.5-1.806,18.116,18.116,0,0,0-5.059,2.176,16.706,16.706,0,0,0-5.862,6.421l.046-.028-7.215.21,7.215-.114h0a16.981,16.981,0,0,1,2.237-3.265,16.606,16.606,0,0,1,3.606-3.083,17.841,17.841,0,0,1,5.019-2.137,16.9,16.9,0,0,1,12.371,1.812,16.4,16.4,0,0,1,5.224,4.832,16.943,16.943,0,0,1,2.85,6.967,8.076,8.076,0,0,1,.114.969l.086.974v.986a7.386,7.386,0,0,1-.047.986l-.1.986a5.744,5.744,0,0,1-.177.98,7.006,7.006,0,0,1-.217.98l-.289.963a16.451,16.451,0,0,1-4.03,6.552,16.972,16.972,0,0,1-6.231,3.954,16.513,16.513,0,0,1-6.95.888,16.75,16.75,0,0,1-11.053-5.464l-.908-1.094c-.272-.381-.522-.769-.78-1.14a15.14,15.14,0,0,1-1.241-2.324,16.573,16.573,0,0,1-1.241-4.558,17.235,17.235,0,0,1,0-3.988l.047-.388-.147.364h.086Z" transform="translate(-12159.948 -4733.232)" fill="#344154"/>
        </g>
        <g id="Grupo_59401" data-name="Grupo 59401" transform="translate(13.214 14.709)">
          <path id="Trazado_115113" data-name="Trazado 115113" d="M12174.8,4760.76a1.709,1.709,0,1,0,1.71-1.71A1.709,1.709,0,0,0,12174.8,4760.76Z" transform="translate(-12160.951 -4759.05)" fill="#fff"/>
          <path id="Trazado_115114" data-name="Trazado 115114" d="M12186.8,4760.76a1.709,1.709,0,1,0,1.709-1.71A1.708,1.708,0,0,0,12186.8,4760.76Z" transform="translate(-12179.789 -4759.05)" fill="#fff"/>
          <path id="Trazado_115115" data-name="Trazado 115115" d="M12199.34,4759.909a1.709,1.709,0,1,0,2.33-.621A1.71,1.71,0,0,0,12199.34,4759.909Z" transform="translate(-12199.108 -4759.054)" fill="#fff"/>
        </g>
      </g>
      <g id="Grupo_59416" data-name="Grupo 59416" transform="translate(292.81 532.087)">
        <g id="Grupo_59415" data-name="Grupo 59415" transform="translate(0 0)">
          <path id="Trazado_115118" data-name="Trazado 115118" d="M12235.8,5073.208s3.161-4.142,4.648-4.307,10.826.166,12.107,0,8.672-3.271,8.672-3.271,1.311.439,1.14,1.612-8.341,5.589-9.326,5.749-8.832.741-8.832.741l-1.977,3.561Z" transform="translate(-12134.954 -5000.158)" fill="#b8695e"/>
          <g id="Grupo_59410" data-name="Grupo 59410" transform="translate(40.159)">
            <path id="Trazado_115119" data-name="Trazado 115119" d="M12182.465,4979.455a4.957,4.957,0,0,0,.793-8.6l-5.742-1.931q-1.251,11.121-2.645,22.22a8.406,8.406,0,0,0,4.41-1.22,3.732,3.732,0,0,0,1.635-3.988,3.921,3.921,0,0,0,1.549-6.461Z" transform="translate(-12148.898 -4958.549)" fill="#344154"/>
            <g id="Grupo_59408" data-name="Grupo 59408" transform="translate(3.388 12.525)">
              <g id="Grupo_59407" data-name="Grupo 59407">
                <path id="Trazado_115120" data-name="Trazado 115120" d="M12137.21,4976.733l.217-2.644,16.128-1.39c4.929,0,9.686,5.407,9.516,10.335-.211,5.476-.688,12.147-1.743,16.141-2.131,8.028-8.5,8.427-8.5,8.427l-.569,8.1c-.427,4.712-4.5,5.344-9.212,4.923h0a8.546,8.546,0,0,1-7.8-9.025Z" transform="translate(-12135.234 -4972.7)" fill="#b8695e"/>
                <g id="Grupo_59405" data-name="Grupo 59405" transform="translate(21.644 12.301)">
                  <path id="Trazado_115121" data-name="Trazado 115121" d="M12178,5000.2a1.045,1.045,0,0,1-1.139.951,1,1,0,0,1-.98-1.055,1.048,1.048,0,0,1,1.141-.95,1,1,0,0,1,.711.319A1.009,1.009,0,0,1,12178,5000.2Z" transform="translate(-12174.363 -4996.378)" fill="#344154"/>
                  <path id="Trazado_115122" data-name="Trazado 115122" d="M12177.369,4995.612c-.143.126-.877-.541-2-.655s-2.012.371-2.119.217.1-.3.49-.524a2.9,2.9,0,0,1,1.709-.341,2.73,2.73,0,0,1,1.578.695C12177.312,4995.3,12177.426,4995.561,12177.369,4995.612Z" transform="translate(-12173.222 -4994.291)" fill="#344154"/>
                </g>
                <g id="Grupo_59406" data-name="Grupo 59406" transform="translate(10.534 11.383)">
                  <path id="Trazado_115123" data-name="Trazado 115123" d="M12159.595,4999.071a1.054,1.054,0,0,1-1.14.952,1.009,1.009,0,0,1-.985-1.054,1.054,1.054,0,0,1,1.139-.951,1.008,1.008,0,0,1,.986,1.054Z" transform="translate(-12155.334 -4994.973)" fill="#344154"/>
                  <path id="Trazado_115124" data-name="Trazado 115124" d="M12157.868,4994c-.142.126-.878-.57-2-.655s-2.012.365-2.12.216.1-.3.49-.523a2.853,2.853,0,0,1,1.71-.342,2.747,2.747,0,0,1,1.571.689C12157.868,4993.688,12157.925,4993.944,12157.868,4994Z" transform="translate(-12153.721 -4992.678)" fill="#344154"/>
                </g>
                <path id="Trazado_115125" data-name="Trazado 115125" d="M12166.7,5003.261a7.537,7.537,0,0,1,1.862-.143c.291,0,.569-.028.638-.222a1.478,1.478,0,0,0-.107-.872c-.2-.723-.405-1.481-.627-2.279a3.039,3.039,0,1,1,.479-.125l.57,2.279a1.639,1.639,0,0,1,.032,1.139.722.722,0,0,1-.519.376,2.094,2.094,0,0,1-.488,0A7.557,7.557,0,0,1,12166.7,5003.261Z" transform="translate(-12148.773 -4981.786)" fill="#344154"/>
                <path id="Trazado_115126" data-name="Trazado 115126" d="M12157.967,5030.924a21.721,21.721,0,0,1-10.906-4.073s2.171,5.994,10.694,6.107Z" transform="translate(-12140.322 -4995.998)" fill="#925249"/>
              </g>
              <path id="Trazado_115127" data-name="Trazado 115127" d="M12158.076,4988.65c-.142.3-1.253.034-2.592.063s-2.443.274-2.593,0c-.062-.143.153-.41.615-.661a4.25,4.25,0,0,1,1.972-.473,4.306,4.306,0,0,1,1.972.438C12157.962,4988.246,12158.133,4988.514,12158.076,4988.65Z" transform="translate(-12142.825 -4979.102)" fill="#344154"/>
              <path id="Trazado_115128" data-name="Trazado 115128" d="M12178.22,4988.8c-.223.234-.97-.107-1.9-.216s-1.737,0-1.9-.291c-.063-.137.087-.381.456-.569a2.784,2.784,0,0,1,3.064.4C12178.277,4988.4,12178.334,4988.684,12178.22,4988.8Z" transform="translate(-12152.087 -4979.037)" fill="#344154"/>
            </g>
            <path id="Trazado_115129" data-name="Trazado 115129" d="M12164.162,4966.563a5.125,5.125,0,0,0,2.507-5.031,5.824,5.824,0,0,0-3.516-4.5,6.217,6.217,0,0,0-1.138-.342,5.326,5.326,0,0,0-2.462-.985,2.766,2.766,0,0,0-1.87-2.354,6.57,6.57,0,0,0-3.155-.2,5.356,5.356,0,0,0-8.609-.5,119.971,119.971,0,0,0-9.981,3.169,13.766,13.766,0,0,0-1.761,2.58,4.928,4.928,0,0,0-3.128,8.706,4.5,4.5,0,0,0,.251,7.219,5.748,5.748,0,0,0,0,4.557,2.8,2.8,0,0,0,1.3,1.488,1.11,1.11,0,0,0,.1.319c.4.809,1.64.6,2.409.108a9.948,9.948,0,0,0,3.721-5.35c.713-2.1,1.055-4.3,1.744-6.4a.217.217,0,0,1,.044-.154,6.052,6.052,0,0,1,1.425-2.319,15.862,15.862,0,0,0,1.825,1.453,6.534,6.534,0,0,0,7.713-.729,9.594,9.594,0,0,0,5.835,2.849,9.311,9.311,0,0,0,6.268-1.2,3.068,3.068,0,0,0,1.1-1.271.942.942,0,0,0-.616-1.111Z" transform="translate(-12129.285 -4950.716)" fill="#344154"/>
            <path id="Trazado_115130" data-name="Trazado 115130" d="M12135.372,4998.6c-.1-.068-4.2-2.125-4.87,2.324s3.941,4.205,3.988,4.08S12135.372,4998.6,12135.372,4998.6Z" transform="translate(-12129.781 -4971.088)" fill="#b8695e"/>
            <path id="Trazado_115131" data-name="Trazado 115131" d="M12134.263,5004.112s-.087.04-.223.085a.806.806,0,0,1-.569-.074,1.939,1.939,0,0,1-.628-1.858,2.534,2.534,0,0,1,.382-1.077.889.889,0,0,1,.673-.507.392.392,0,0,1,.427.279.374.374,0,0,1,0,.228c0,.011.1-.062.1-.25a.5.5,0,0,0-.138-.3.57.57,0,0,0-.41-.177,1.088,1.088,0,0,0-.911.569,2.633,2.633,0,0,0-.456,1.2,2.032,2.032,0,0,0,.845,2.091.836.836,0,0,0,.729,0A.582.582,0,0,0,12134.263,5004.112Z" transform="translate(-12130.663 -4972.118)" fill="#925249"/>
            <path id="Trazado_115132" data-name="Trazado 115132" d="M12176.064,4968.36v.108a1.894,1.894,0,0,1,.041.331,3.334,3.334,0,0,1-.171,1.258,3.428,3.428,0,0,1-1.14,1.63,3.559,3.559,0,0,1-2.5.707l.085-.058a7.734,7.734,0,0,1-2.279,3.669,6,6,0,0,1-2.136,1.248,4.953,4.953,0,0,1-2.615.08,8.967,8.967,0,0,1-2.41-.917,6.855,6.855,0,0,1-1.914-1.487h.131a8.171,8.171,0,0,1-3.987,1.641,6.4,6.4,0,0,1-3.327-.684,6.518,6.518,0,0,1-1.8-1.31,5,5,0,0,1-.394-.45l-.125-.166s.188.21.57.569a6.924,6.924,0,0,0,1.806,1.248,6.351,6.351,0,0,0,3.259.627,8.109,8.109,0,0,0,3.892-1.63l.074-.057.057.068a6.771,6.771,0,0,0,1.862,1.436,8.778,8.778,0,0,0,2.354.895,4.746,4.746,0,0,0,2.513-.074,5.776,5.776,0,0,0,2.073-1.2,7.7,7.7,0,0,0,2.279-3.566v-.068h.067a3.424,3.424,0,0,0,2.406-.655,3.343,3.343,0,0,0,1.138-1.551,3.59,3.59,0,0,0,.213-1.23C12176.064,4968.514,12176.064,4968.36,12176.064,4968.36Z" transform="translate(-12138.853 -4958.307)" fill="#5e6178"/>
            <path id="Trazado_115133" data-name="Trazado 115133" d="M12137.157,4963.911a9.99,9.99,0,0,0-.57,1.486,6.425,6.425,0,0,0,.218,4.062l.027.069-.062.039a4.179,4.179,0,0,0-1.419,1.664,4,4,0,0,0-.331,2.37,4.144,4.144,0,0,0,1.6,2.615l.08.058-.057.08a5.192,5.192,0,0,0-.872,2.718,5.609,5.609,0,0,0,.371,2.245,6.325,6.325,0,0,0,1.064,1.744.489.489,0,0,1-.1-.091,2.987,2.987,0,0,1-.286-.3,4.883,4.883,0,0,1-.791-1.31,5.542,5.542,0,0,1-.421-2.279,5.284,5.284,0,0,1,.877-2.849v.137a4.339,4.339,0,0,1-1.71-2.735,4.169,4.169,0,0,1,.354-2.5,4.327,4.327,0,0,1,1.494-1.709l-.036.114a6.417,6.417,0,0,1-.146-4.165,6.062,6.062,0,0,1,.462-1.093,2.239,2.239,0,0,1,.164-.273A.47.47,0,0,1,12137.157,4963.911Z" transform="translate(-12131.623 -4956.394)" fill="#5e6178"/>
            <path id="Trazado_115134" data-name="Trazado 115134" d="M12133.123,5009.125a3.719,3.719,0,0,0-.193.787,1.227,1.227,0,0,0,.221.8,1,1,0,0,0,.884.381.83.83,0,0,0,.654-.661,1.626,1.626,0,0,0-.043-.849,7.249,7.249,0,0,1-.286-.78,2.288,2.288,0,0,1,.422.735,1.635,1.635,0,0,1,.092.934,1.132,1.132,0,0,1-.257.519.888.888,0,0,1-.569.3,1.139,1.139,0,0,1-1.062-.467,1.3,1.3,0,0,1-.217-.923A1.151,1.151,0,0,1,12133.123,5009.125Z" transform="translate(-12130.777 -4975.707)" fill="#344154"/>
            <g id="Grupo_59409" data-name="Grupo 59409" transform="translate(17.374 35.008)">
              <path id="Trazado_115135" data-name="Trazado 115135" d="M12160.956,5012.636a2.074,2.074,0,0,0,.336,3.378,1.194,1.194,0,0,0,.759.177,1.75,1.75,0,0,0,1.036-.884l.649-.968a.512.512,0,0,0,.119-.359c-.033-.137-.176-.216-.3-.273l-2.49-1.2" transform="translate(-12159.975 -5012.311)" fill="#925249"/>
              <path id="Trazado_115136" data-name="Trazado 115136" d="M12161.843,5015.9a2.416,2.416,0,0,1-1.141-.405,1.94,1.94,0,0,1-.859-1.071,1.41,1.41,0,0,1,0-.843,2.53,2.53,0,0,1,.388-.8,2.28,2.28,0,0,1,.638-.57l.086-.051.079.051c1.606.985,2.9,1.583,2.849,1.658a11.146,11.146,0,0,1-3.03-1.391h.165a1.98,1.98,0,0,0-.542.5,1.5,1.5,0,0,0,.331,2.33C12161.444,5015.71,12161.9,5015.841,12161.843,5015.9Z" transform="translate(-12159.778 -5012.161)" fill="#344154"/>
            </g>
          </g>
          <g id="Grupo_59411" data-name="Grupo 59411" transform="translate(0 48.032)">
            <path id="Trazado_115137" data-name="Trazado 115137" d="M12058.8,5079.449s16.2-29.057,18.9-33.752c3.168-5.527,5.932-7.538,8.421-8.74a19.535,19.535,0,0,1,8.381-1.874l8.04-.063s3.054,4.558,7.2,5.464c5.7,1.236,9.987-3,9.987-3l11.542,4.734-2.317,21.337a31.35,31.35,0,0,1-5.7,14.9l-.763.991-42.56-.034,4.935-15.384-9.117,15.384Z" transform="translate(-12058.802 -5035.02)" fill="#5e6178"/>
            <path id="Trazado_115138" data-name="Trazado 115138" d="M12181.182,5047.64s3.354,1.966,5.886,10.136,7.977,22.7,7.977,22.7l13.674-15.514,8.113,5.127s-13.1,22.722-15.167,25.412c-3.1,3.988-10.934,6.3-15.531.968-3.339-3.874-11.332-22.613-11.332-22.613Z" transform="translate(-12108.71 -5040.449)" fill="#5e6178"/>
            <path id="Trazado_115139" data-name="Trazado 115139" d="M12174.488,5068.43a2.475,2.475,0,0,1,.132.245c.08.166.183.4.3.724a23.11,23.11,0,0,1,.87,2.764,24.408,24.408,0,0,1-2.808,18.477,21.619,21.619,0,0,1-1.653,2.382c-.205.273-.387.467-.506.6s-.184.2-.194.193a10.383,10.383,0,0,1,.61-.866,27.64,27.64,0,0,0,1.563-2.421,25.341,25.341,0,0,0,2.785-18.317,28.16,28.16,0,0,0-.775-2.775,9.122,9.122,0,0,1-.326-1.008Z" transform="translate(-12106.916 -5049.395)" fill="#344154"/>
            <path id="Trazado_115140" data-name="Trazado 115140" d="M12103.471,5063.851a1.154,1.154,0,0,1,0,.3,7.325,7.325,0,0,1-.116.843c-.1.729-.278,1.789-.517,3.088-.479,2.6-1.248,6.171-2.32,10.062s-2.238,7.356-3.156,9.829c-.461,1.242-.849,2.239-1.14,2.917l-.336.786a.99.99,0,0,1-.136.262,1.9,1.9,0,0,1,.078-.285c.079-.216.172-.479.285-.8.263-.735.615-1.709,1.044-2.946.871-2.49,2-5.959,3.069-9.84s1.87-7.441,2.4-10.021c.25-1.265.456-2.279.609-3.065l.17-.837A.922.922,0,0,1,12103.471,5063.851Z" transform="translate(-12074.698 -5047.425)" fill="#344154"/>
          </g>
          <g id="Grupo_59413" data-name="Grupo 59413" transform="translate(8.375 89.666)">
            <g id="Grupo_59412" data-name="Grupo 59412">
              <path id="Trazado_115141" data-name="Trazado 115141" d="M12073.5,5110.889a12.991,12.991,0,0,1,2.313-2.5,2.333,2.333,0,0,1,2.28,0l.461.416s2.4-1.083,3.56-.251c0,0,2.28-1.082,3.38.16,0,0,1.761-1.14,2.506-.148a4.1,4.1,0,0,1,.31,3.561c-.36.872-1.038,3.834-1.562,3.886,0,0-1.407.147-1.59-.61s-.268-1.14-.268-1.14-.535,2.689-1.186,2.82-1.879.063-1.919-1.14c0,0-.6.889-1.186.633s-1.311-.689-1.248-1.419.074-1.458.074-1.458-.325,1.065-.854.832-1.06-.182-1.362-1.082-1.036-2.616-1.036-2.616Z" transform="translate(-12073.5 -5108.092)" fill="#b8695e"/>
              <path id="Trazado_115142" data-name="Trazado 115142" d="M12083.106,5114.135c-.033,0,.108-.291.228-.758a4.349,4.349,0,0,0,.081-1.863,4.27,4.27,0,0,0-.742-1.709c-.279-.394-.506-.6-.483-.627s.285.142.615.523a3.821,3.821,0,0,1,.689,3.721,1.714,1.714,0,0,1-.387.713Z" transform="translate(-12077.238 -5108.558)" fill="#925249"/>
              <path id="Trazado_115143" data-name="Trazado 115143" d="M12088.531,5108.92a3.49,3.49,0,0,1,.308,1.054,10.509,10.509,0,0,1-.354,5.271,3.917,3.917,0,0,1-.445,1.008,19.278,19.278,0,0,0,.726-3.635A18.384,18.384,0,0,0,12088.531,5108.92Z" transform="translate(-12079.755 -5108.448)" fill="#925249"/>
              <path id="Trazado_115144" data-name="Trazado 115144" d="M12094.208,5109.23a11.268,11.268,0,0,1-.644,5.6c-.068,0,.274-1.243.444-2.786S12094.094,5109.23,12094.208,5109.23Z" transform="translate(-12082.13 -5108.582)" fill="#925249"/>
            </g>
            <path id="Trazado_115145" data-name="Trazado 115145" d="M12107.664,5109.886a.9.9,0,0,0-.6-.489,1.973,1.973,0,0,0-1.743.467,6.8,6.8,0,0,0-1.276,1.573h3.418C12107.437,5110.907,12107.892,5110.377,12107.664,5109.886Z" transform="translate(-12086.641 -5108.634)" fill="#b8695e"/>
          </g>
        </g>
      </g>
      <g id="Grupo_63676" data-name="Grupo 63676" transform="translate(320.69 643.993)">
        <rect id="Rectángulo_10103" data-name="Rectángulo 10103" width="25.212" height="44.028" rx="5.04" transform="translate(44.028 0) rotate(90)" fill="#12263f"/>
        <path id="Trazado_114626" data-name="Trazado 114626" d="M12053.5,4508.086a.768.768,0,0,1-.422-.127l-18.5-11.709a.8.8,0,0,1,.847-1.354l18.063,11.439,18.07-11.439a.8.8,0,0,1,.848,1.354l-18.5,11.709A.844.844,0,0,1,12053.5,4508.086Z" transform="translate(-12031.48 -4491.697)" fill="#fff"/>
      </g>
      <g id="Grupo_63677" data-name="Grupo 63677" transform="translate(415.785 530.359)">
        <path id="Trazado_114631" data-name="Trazado 114631" d="M12313.743,4199.84h-40.594a8.511,8.511,0,0,0-8.511,8.51v25.7l7.883-7.893h41.187a8.51,8.51,0,0,0,8.511-8.51v-9.35A8.506,8.506,0,0,0,12313.743,4199.84Z" transform="translate(-12264.639 -4199.84)" fill="#12263f"/>
        <path id="Trazado_114632" data-name="Trazado 114632" d="M12311.884,4210.919h-38.357a1.414,1.414,0,0,1-1.415-1.4h0a1.426,1.426,0,0,1,1.415-1.415h38.357a1.426,1.426,0,0,1,1.416,1.415h0A1.417,1.417,0,0,1,12311.884,4210.919Z" transform="translate(-12264.165 -4199.313)" fill="#e7e7e7"/>
        <path id="Trazado_114633" data-name="Trazado 114633" d="M12298.8,4217.05h-25.3a1.426,1.426,0,0,1-1.417-1.415h0a1.421,1.421,0,0,1,1.414-1.415h25.3a1.425,1.425,0,0,1,1.417,1.415h0A1.423,1.423,0,0,1,12298.8,4217.05Z" transform="translate(-12264.167 -4198.923)" fill="#e7e7e7"/>
      </g>
    </g>
  </g>
</svg>
