<svg xmlns="http://www.w3.org/2000/svg" xmlns:xlink="http://www.w3.org/1999/xlink" width="109.978" height="109.978" viewBox="0 0 109.978 109.978">
  <defs>
    <radialGradient id="radial-gradient" cx="0.076" cy="0.019" r="1.465" gradientTransform="translate(0.001)" gradientUnits="objectBoundingBox">
      <stop offset="0" stop-color="#f6f6f7"/>
      <stop offset="0.477" stop-color="#f9f9fa"/>
      <stop offset="0.715" stop-color="#fff"/>
    </radialGradient>
  </defs>
  <g id="img2" transform="translate(0 0)">
    <g id="Grupo_42274" data-name="Grupo 42274" transform="translate(0 0)">
      <g id="Grupo_18423" data-name="Grupo 18423" transform="translate(0 0)">
        <g id="Grupo_18421" data-name="Grupo 18421">
          <g id="Grupo_18420" data-name="Grupo 18420">
            <g id="Grupo_18419" data-name="Grupo 18419">
              <path id="Trazado_40936" data-name="Trazado 40936" d="M304.6,2200.708a54.989,54.989,0,1,1-54.988-54.988A54.988,54.988,0,0,1,304.6,2200.708Z" transform="translate(-194.623 -2145.721)" fill="#fff"/>
            </g>
          </g>
        </g>
        <path id="Trazado_40937" data-name="Trazado 40937" d="M304.05,2200.108a54.987,54.987,0,1,0-54.988,54.99A54.771,54.771,0,0,0,304.05,2200.108Z" transform="translate(-194.072 -2145.121)" fill="url(#radial-gradient)"/>
        <path id="Trazado_40938" data-name="Trazado 40938" d="M286.162,2195.259a41.973,41.973,0,1,0-41.973,41.972A41.817,41.817,0,0,0,286.162,2195.259Z" transform="translate(-189.034 -2140.088)" fill="none" stroke="#1d272b" stroke-miterlimit="10" stroke-width="2"/>
        <g id="Grupo_18422" data-name="Grupo 18422" transform="translate(9.742 30.872)">
          <path id="Trazado_40939" data-name="Trazado 40939" d="M295.221,2164.488a55,55,0,0,1-94.676,54.761,54.821,54.821,0,0,0,94.676-54.761Z" transform="translate(-200.545 -2164.488)" fill="#eceef0"/>
        </g>
      </g>
    </g>
    <g id="gVIaiC" transform="translate(-4260.892 -3114.498)">
      <g id="Grupo_129657" data-name="Grupo 129657" transform="translate(4290.231 3137.533)">
        <path id="Trazado_166672" data-name="Trazado 166672" d="M4295.428,3204.453c.2-4.375.389-8.635.582-12.9.037-.827.056-1.656.129-2.479a.708.708,0,0,0-.471-.809c-1.532-.743-3.041-1.535-4.577-2.272a1.341,1.341,0,0,1-.861-1.347c.011-5.646,0-11.291.01-16.937,0-.95.323-1.271,1.266-1.279,1.656-.013,3.311,0,4.967,0h.937v-.934c0-3.061-.019-6.122.006-9.183a5.018,5.018,0,0,1,3.632-5.053c2.6-.71,5.179-.2,6.669,1.836a5.335,5.335,0,0,1,1.005,3.32c-.01.921,0,1.842,0,2.827.7,0,1.3-.011,1.9,0,.821.019,1.18.376,1.189,1.208.014,1.254.016,2.509,0,3.764a1.06,1.06,0,0,1-1.157,1.184c-.3.017-.6,0-.9,0h-.884c-.257.86.406,2.016,1.2,2.02,4.313.024,8.625.011,13.05.011,0-.33-.007-.619,0-.908a.991.991,0,0,1,.979-1.1c.619-.044,1.041.375,1.08,1.087.029.551.008,1.1.008,1.656,0,1.707.006,3.413,0,5.119,0,.886-.391,1.363-1.06,1.349-.644-.014-.988-.466-1.008-1.316-.005-.219-.021-.439-.034-.693h-5.214c.039.28.086.538.108.8a3.111,3.111,0,0,1-3.158,3.289c-1.321.029-2.644.006-4,.006v27.739h26.068a4.154,4.154,0,0,1,.75.021,1.018,1.018,0,0,1,.072,2,3.251,3.251,0,0,1-.747.044q-22.051,0-44.1,0c-.176,0-.353.01-.527-.006-.659-.059-1.09-.467-1.055-1.042a1,1,0,0,1,1.077-1.015c.5-.017,1-.005,1.5-.005Zm2.063-.061c1.855.185,1.85.184,2.29-1.409q1.87-6.769,3.743-13.538c.162-.589.429-1.031,1.112-1,.636.032.917.448,1,1.03q.762,5.548,1.519,11.1c.176,1.282.355,2.564.533,3.836h.972v-20.449H4298.4C4298.1,3190.787,4297.8,3197.566,4297.491,3204.392Zm11.175-22.586v-5.091c-.977,0-1.9.009-2.823,0a3.142,3.142,0,0,1-3.134-2.129c-.534-1.349-1.053-2.706-1.619-4.042a4.187,4.187,0,0,1-.43-3.027c-1.645-.24-2.22.244-2.221,1.8q0,5.829,0,11.657v.829Zm-16.312-13.291a1.024,1.024,0,0,0-.074.246q-.009,7.562,0,15.123c0,.157.056.4.163.458,1.227.641,2.469,1.253,3.857,1.949v-17.776Zm17.815,6.121c1.555,0,3.113.038,4.666-.029a1.389,1.389,0,0,0,.97-.642,1.079,1.079,0,0,0-.193-1,1.679,1.679,0,0,0-1.082-.362q-3.537-.046-7.075-.006a1.4,1.4,0,0,1-1.533-1.024c-.384-1.085-.844-2.144-1.282-3.209-.32-.779-.828-1.062-1.433-.821s-.772.79-.458,1.587c.6,1.539,1.237,3.067,1.829,4.611a1.277,1.277,0,0,0,1.376.91C4307.359,3174.617,4308.765,3174.637,4310.17,3174.635Zm-3.523-12.323c-1.612-.081-3.212.262-4.552-.848a4.749,4.749,0,0,1-1.588-4.244h-.972v8.128h7.112Zm-1.043,42.106-1.316-9.577-.121-.007c-.878,3.177-1.754,6.354-2.647,9.584Zm17.492-34.852h-12.371l.09.913H4323.1Zm-20.468-12.375c-.311,2.893,1.243,3.357,4,2.964v-2.991c-1.21,0-2.362,0-3.513,0C4302.964,3157.166,4302.817,3157.18,4302.627,3157.191Zm3.758-2.127c-.58-1.593-1.8-2.158-4.119-1.978a2.719,2.719,0,0,0-2.449,1.978Zm2.249,15.415a2.435,2.435,0,0,0-1.987-2.679c.271.683.578,1.339.789,2.023C4307.626,3170.439,4307.95,3170.69,4308.633,3170.479Zm1.041-7.179v-1.977h-.906v1.977Z" transform="translate(-4290.231 -3148.461)" fill="#1d272b"/>
        <path id="Trazado_166673" data-name="Trazado 166673" d="M4432.019,3322.794a3.587,3.587,0,1,1,.027,7.173,3.586,3.586,0,0,1-.027-7.173Zm1.552,3.549a1.524,1.524,0,1,0-3.047.065,1.558,1.558,0,0,0,1.559,1.509A1.534,1.534,0,0,0,4433.57,3326.343Z" transform="translate(-4402.763 -3288.368)" fill="#1d272b"/>
        <path id="Trazado_166674" data-name="Trazado 166674" d="M4515.733,3188.167c.22.191.608.377.723.67a1.146,1.146,0,0,1-.107,1.022,46.528,46.528,0,0,1-3.754,2.876.975.975,0,0,1-1.156-1.487c1.19-1.032,2.47-1.961,3.728-2.914A2.135,2.135,0,0,1,4515.733,3188.167Z" transform="translate(-4470.212 -3178.758)" fill="#1d272b"/>
        <path id="Trazado_166675" data-name="Trazado 166675" d="M4516.043,3297c-.013.922-.882,1.465-1.516,1.021-1.23-.863-2.412-1.8-3.577-2.749a1,1,0,0,1,1.255-1.553c1.173.858,2.323,1.75,3.456,2.66A1.864,1.864,0,0,1,4516.043,3297Z" transform="translate(-4469.655 -3264.528)" fill="#1d272b"/>
        <path id="Trazado_166676" data-name="Trazado 166676" d="M4519.537,3264.288c.6.16,1.013.263,1.419.379.839.239,1.68.474,2.513.731a.959.959,0,0,1,.728,1.213.9.9,0,0,1-1.178.749c-1.232-.307-2.455-.659-3.665-1.042a.838.838,0,0,1-.566-1.143A3.4,3.4,0,0,1,4519.537,3264.288Z" transform="translate(-4476.263 -3240.734)" fill="#1d272b"/>
        <path id="Trazado_166677" data-name="Trazado 166677" d="M4519.95,3229.347c-.263-.287-.718-.563-.771-.9a1.258,1.258,0,0,1,.473-1.091,27.427,27.427,0,0,1,3.872-1.113.979.979,0,0,1,.584,1.795C4522.81,3228.534,4521.458,3228.89,4519.95,3229.347Z" transform="translate(-4476.63 -3209.754)" fill="#1d272b"/>
        <path id="Trazado_166678" data-name="Trazado 166678" d="M4549.705,3324.9a5.609,5.609,0,0,1-.806-.379c-.509-.363-1.006-.745-1.492-1.138a1,1,0,0,1-.256-1.457.964.964,0,0,1,1.45-.194,9.944,9.944,0,0,1,1.646,1.3,1.378,1.378,0,0,1,.24,1.127C4550.405,3324.456,4549.974,3324.66,4549.705,3324.9Z" transform="translate(-4499.239 -3287.308)" fill="#1d272b"/>
        <path id="Trazado_166679" data-name="Trazado 166679" d="M4557,3274.9c.99.3,1.822.5,2.605.821a.817.817,0,0,1,.421,1.2,1.385,1.385,0,0,1-1.025.643,10.278,10.278,0,0,1-2.3-.638.845.845,0,0,1-.521-1.17C4556.334,3275.4,4556.741,3275.159,4557,3274.9Z" transform="translate(-4506.696 -3249.375)" fill="#1d272b"/>
        <path id="Trazado_166680" data-name="Trazado 166680" d="M4550.619,3168.917c-.025.764-2.2,2.391-2.924,2.193a.986.986,0,0,1-.451-1.667,12.092,12.092,0,0,1,1.838-1.414A1,1,0,0,1,4550.619,3168.917Z" transform="translate(-4499.237 -3162.234)" fill="#1d272b"/>
        <path id="Trazado_166681" data-name="Trazado 166681" d="M4490.553,3239.49c-.258-.284-.722-.572-.787-.931a1.254,1.254,0,0,1,.508-1.078,10.2,10.2,0,0,1,2.292-.678.827.827,0,0,1,1.061.7,1.357,1.357,0,0,1-.455,1.119A18.855,18.855,0,0,1,4490.553,3239.49Z" transform="translate(-4452.681 -3218.337)" fill="#1d272b"/>
        <path id="Trazado_166682" data-name="Trazado 166682" d="M4487.382,3275.409a1.021,1.021,0,0,1-1.551.976,15.557,15.557,0,0,1-1.786-1.364.851.851,0,0,1-.132-1.271c.259-.264.886-.515,1.13-.379a15.2,15.2,0,0,1,2.149,1.6C4487.326,3275.08,4487.348,3275.325,4487.382,3275.409Z" transform="translate(-4447.735 -3248.097)" fill="#1d272b"/>
        <path id="Trazado_166683" data-name="Trazado 166683" d="M4557,3220.52c-.266-.266-.668-.509-.818-.859a.851.851,0,0,1,.529-1.167,10.1,10.1,0,0,1,2.3-.63,1.387,1.387,0,0,1,1.021.649.82.82,0,0,1-.429,1.2C4558.822,3220.024,4557.991,3220.219,4557,3220.52Z" transform="translate(-4506.7 -3202.934)" fill="#1d272b"/>
        <path id="Trazado_166684" data-name="Trazado 166684" d="M4492.9,3259.308a19.506,19.506,0,0,1-2.644-.881,1.211,1.211,0,0,1-.379-1.117,1.227,1.227,0,0,1,.983-.661,7.726,7.726,0,0,1,2.36.674,1.276,1.276,0,0,1,.478,1.1C4493.64,3258.758,4493.171,3259.024,4492.9,3259.308Z" transform="translate(-4452.752 -3234.513)" fill="#1d272b"/>
        <path id="Trazado_166685" data-name="Trazado 166685" d="M4485.051,3220.174c-.2-.159-.613-.333-.711-.616a1.266,1.266,0,0,1,.143-1.089,7.969,7.969,0,0,1,1.891-1.452,1.255,1.255,0,0,1,1.179.2,1.207,1.207,0,0,1,.114,1.172,16.713,16.713,0,0,1-2.088,1.677C4485.49,3220.13,4485.339,3220.117,4485.051,3220.174Z" transform="translate(-4448.222 -3202.188)" fill="#1d272b"/>
        <path id="Trazado_166686" data-name="Trazado 166686" d="M4512.752,3394.206a1.1,1.1,0,1,1,1.037-1.155A1.095,1.095,0,0,1,4512.752,3394.206Z" transform="translate(-4470.497 -3344.721)" fill="#1d272b"/>
        <path id="Trazado_166687" data-name="Trazado 166687" d="M4446.344,3172.927a1.1,1.1,0,1,1,1.054-1.141A1.1,1.1,0,0,1,4446.344,3172.927Z" transform="translate(-4416.438 -3164.559)" fill="#1d272b"/>
        <path id="Trazado_166688" data-name="Trazado 166688" d="M4513.786,3138.6a1.077,1.077,0,1,1-1.127-1.066A1.1,1.1,0,0,1,4513.786,3138.6Z" transform="translate(-4470.492 -3137.533)" fill="#1d272b"/>
        <path id="Trazado_166689" data-name="Trazado 166689" d="M4574.609,3365.418a1.078,1.078,0,1,1-1.124-1.07A1.1,1.1,0,0,1,4574.609,3365.418Z" transform="translate(-4520.009 -3322.2)" fill="#1d272b"/>
      </g>
    </g>
  </g>
</svg>
