<svg xmlns="http://www.w3.org/2000/svg" width="413.239" height="272.366" viewBox="0 0 413.239 272.366">
  <g id="img2" transform="translate(-980.122 -762.209)">
    <g id="Grupo_129263" data-name="Grupo 129263" transform="translate(980.122 762.209)">
      <path id="Trazado_151846" data-name="Trazado 151846" d="M436.73,358.592c15.511-16.9,19.924-38.837,11.711-58.206-5.193-12.246-15.158-23.623-16.432-36.393-2.548-25.532,29.573-46.173,36.237-71.319,2.929-11.051-.267-23.926-12.821-30.639-12.4-6.63-30.1-5.277-44.138-.633s-25.918,12.076-39.4,17.511-30.076,8.793-44.31,4.469c-14.418-4.381-22.6-15.424-27.178-26.186s-6.83-22.225-14.648-31.976c-12.885-16.07-40.359-24.831-65.962-22.564s-48.478,14.687-60.748,31-14.414,36.052-8.307,54.074c3.1,9.14,8.2,17.894,10.985,27.087s3.038,19.255-3.175,27.535c-12.993,17.315-47.271,19.729-65.221,34.579-14.815,12.255-15.28,30.958-6.872,46.029s24.209,27.3,39.962,38.934c73.482,1.776,148.28,1.894,221.762,3.67C376.736,366.257,408.2,359.8,436.73,358.592Z" transform="translate(-80.961 -96.893)" fill="#a4a4b4" opacity="0.354" style="mix-blend-mode: multiply;isolation: isolate"/>
      <path id="Trazado_151847" data-name="Trazado 151847" d="M359.21,184.865c-.194,20.784,19.563,38.873,16.125,59.372-1.838,10.968-10.2,22.086-5.339,32.09,4.3,8.852,16.6,10.387,26.014,7.509,22.026-6.738,35.414-29.253,41.817-51.38,6.022-20.813,7.517-44.06-2.128-63.462-7.772-15.632-25.7-29.432-43.912-28.156C375.11,142.007,359.356,169.209,359.21,184.865Z" transform="translate(-29.402 -97.474)" fill="#a4a4b4" opacity="0.31" style="mix-blend-mode: multiply;isolation: isolate"/>
      <path id="Trazado_151848" data-name="Trazado 151848" d="M118.069,151.778c-14.713,24.548-15.377,56.9-1.682,82.031,4.328,7.94,10.172,15.34,18.064,19.755s18.072,5.4,25.927.92c11.912-6.8,14.547-22.823,13.6-36.5s-4.048-28.025,1.221-40.687c3.435-8.253,10.03-14.688,15.881-21.447s11.311-14.648,11.614-23.583c.783-23.161-23.806-21.43-38.624-16.62C145.149,121.786,128.326,134.665,118.069,151.778Z" transform="translate(-76.218 -94.973)" fill="#a4a4b4" opacity="0.31" style="mix-blend-mode: multiply;isolation: isolate"/>
      <g id="Grupo_107069" data-name="Grupo 107069" transform="translate(8.231 0)" style="mix-blend-mode: multiply;isolation: isolate">
        <path id="Trazado_151849" data-name="Trazado 151849" d="M431.775,361.444l-1.58-1.038c4.348-3.418,11.288-11.254,8.938-25.343-1.045-6.271-3.638-12.467-6.145-18.458-1.119-2.677-2.277-5.444-3.288-8.192-10.781-29.324-6.065-61.673,12.939-88.75,1.688-2.4,3.514-4.814,5.282-7.145,5.238-6.912,10.653-14.06,12.983-21.781,4.085-13.549-3.99-23.7-13.22-27.406-8.855-3.553-21.356-3.01-34.293,1.49-4.733,1.646-9.333,3.659-13.781,5.605a149.312,149.312,0,0,1-18.485,7.117c-25.68,7.411-57.786,1.113-74.68-14.649-8.119-7.574-12.7-16.729-17.137-25.582-1.717-3.43-3.494-6.978-5.448-10.373-6.076-10.554-17.2-23.8-35.669-26.969-16.231-2.786-32.672,3.337-43.6,8.962-20.913,10.764-35.655,25.342-41.512,41.048-3.948,10.591-4.107,22.118-4.261,33.266-.229,16.6-.466,33.768-13.5,47.593-5.929,6.289-14.084,11.307-21.968,16.161-7.386,4.545-15.022,9.245-20.715,14.941-12.9,12.908-16.062,31.182-8.675,50.138,6.638,17.031,20.168,32.143,33.252,46.758l-1.8.832c-13.17-14.709-26.789-29.92-33.513-47.175-7.563-19.408-4.284-38.162,9-51.451,5.844-5.848,13.58-10.608,21.06-15.212,7.779-4.787,15.823-9.738,21.589-15.855,12.671-13.441,12.894-29.618,13.13-46.745.155-11.244.315-22.87,4.336-33.651,5.983-16.048,21.018-30.928,42.332-41.9,11.292-5.812,28.325-12.128,45.344-9.207,19.351,3.319,30.883,16.992,37.149,27.877,1.974,3.428,3.759,6.993,5.484,10.44,4.377,8.741,8.9,17.78,16.818,25.163,16.331,15.236,47.367,21.324,72.191,14.16a147.609,147.609,0,0,0,18.169-7c4.491-1.966,9.135-4,13.961-5.677,13.573-4.72,26.791-5.251,36.267-1.45,9.9,3.97,18.584,14.762,14.269,29.076-2.394,7.938-7.885,15.184-13.2,22.192-1.759,2.321-3.578,4.72-5.25,7.1-18.772,26.746-23.43,58.7-12.78,87.663,1,2.723,2.154,5.478,3.268,8.143,2.533,6.054,5.153,12.313,6.222,18.718C443.708,349.578,436.368,357.833,431.775,361.444Z" transform="translate(-87.906 -97.739)" fill="#a4a4b4"/>
      </g>
    </g>
    <g id="rZLulr" transform="translate(1001.898 818.601)">
      <g id="Grupo_127421" data-name="Grupo 127421" transform="translate(0 0)">
        <path id="Trazado_163215" data-name="Trazado 163215" d="M842.618-262.467c-.342,1.558-.773,3.1-1.005,4.677a10.831,10.831,0,0,1-3.451,6.61c-8.45,7.639-16.975,15.2-25.478,22.776-4.034,3.6-8.056,7.2-12.137,10.746a1.681,1.681,0,0,0-.475,2.177q8.546,24.646,17.046,49.309a12.7,12.7,0,0,1-8.538,16.752,12.552,12.552,0,0,1-15.161-7.612c-2.737-7.556-5.294-15.177-7.915-22.775q-3.839-11.131-7.652-22.27c-1.657-4.816-3.4-9.6-4.967-14.449-1.817-5.613-.221-10.324,4.12-14.193q13.21-11.772,26.422-23.543c1.371-1.222,2.722-2.468,4.137-3.637a1.045,1.045,0,0,0,.353-1.391,114.347,114.347,0,0,0-9.806-20.062,23.4,23.4,0,0,0-1.676-2.717,2.076,2.076,0,0,1-.025-2.728c3.777-6.513,7.573-13.019,11.18-19.627a10.273,10.273,0,0,0-4.316-13.933,10.4,10.4,0,0,0-13.994,3.925q-6.822,11.838-13.57,23.718a1.121,1.121,0,0,1-1.3.676c-2.076-.267-4.159-.481-6.382-.731.493-1.363.959-2.687,1.448-4q4.836-13,9.687-25.99a13.656,13.656,0,0,1,8.282-8.042c6.615-2.58,13.016-1.79,19.221,1.486,4.4,2.324,7.636,5.925,10.777,9.64a120.8,120.8,0,0,1,13.729,19.4,113.01,113.01,0,0,1,8.531,20.146c.966,3,1.731,6.059,2.563,9.1.172.628.234,1.286.347,1.93Z" transform="translate(-489.499 362.059)" fill="#1d272b"/>
        <path id="Trazado_163216" data-name="Trazado 163216" d="M-494.017,118.523a10.062,10.062,0,0,1,2.82-4.719,8.286,8.286,0,0,1,5.472-1.981c5.369.012,10.737.036,16.105,0a3.2,3.2,0,0,1,2.461,1.049c2.979,2.838,6.082,5.546,9.142,8.3,2.472,2.224,4.95,4.443,7.353,6.918h-1.262q-16.657,0-33.315-.006c-4.65-.006-7.373-2.124-8.618-6.618a1.406,1.406,0,0,0-.159-.289Z" transform="translate(494.017 17.484)" fill="#008f85"/>
        <path id="Trazado_163217" data-name="Trazado 163217" d="M-379.987-256.075c-2.855-1.642-5.623-3.231-8.387-4.826-5.326-3.073-6.164-8.74-2.112-13.37,7.139-8.158,14.192-16.392,21.294-24.582a9.262,9.262,0,0,1,9.342-3.115c3.086.623,6.1,1.586,9.153,2.393,8.37,2.213,16.708,4.564,25.128,6.569a10.213,10.213,0,0,1,7.463,6.1c4.406,9.408,9,18.728,13.471,28.107a1.894,1.894,0,0,0,1.691,1.245c5,.584,10,1.2,14.992,1.814,4.193.512,8.387,1.012,12.577,1.55a8.147,8.147,0,0,1,7.036,8.917A8.051,8.051,0,0,1-276.4-238c-3.147-.128-6.276-.691-9.412-1.073q-9.625-1.172-19.248-2.359c-2.04-.253-4.09-.467-6.111-.836a7.685,7.685,0,0,1-5.683-4.44c-1.688-3.424-3.322-6.875-4.983-10.312-.167-.346-.367-.676-.659-1.21-1.174,4.427-2.288,8.629-3.4,12.83q-2.416,9.091-4.842,18.18a1.477,1.477,0,0,0,.469,1.723q12.155,10.8,24.254,21.667a61.384,61.384,0,0,1,4.9,4.738c1.873,2.1,2.292,4.869,2.954,7.5q5.353,21.272,10.7,42.546a55.849,55.849,0,0,1,1.868,8.694c.573,6.8-4.1,12.432-11.009,13.381a12.543,12.543,0,0,1-13.9-9.473c-2.152-8.428-4.251-16.869-6.374-25.3-1.851-7.355-3.69-14.713-5.579-22.059a3.281,3.281,0,0,0-.986-1.5Q-337.592-198-351.789-210.652c-1.65-1.474-1.637-1.488-3.749-.229,1.847,1.654,3.665,3.283,5.484,4.91q10.109,9.042,20.2,18.106a1.61,1.61,0,0,1,.373,1.3q-2.76,13.254-5.6,26.491c-1.656,7.789-3.26,15.59-4.994,23.361a12.549,12.549,0,0,1-12.793,9.839,12.781,12.781,0,0,1-12.083-10.366c-.536-2.762.164-5.4.727-8.057q4.327-20.353,8.7-40.7a1.489,1.489,0,0,0-.607-1.6q-11.648-10.375-23.274-20.775c-1.672-1.494-3.346-2.986-5-4.5a12.981,12.981,0,0,1-3.231-13.957c.925-2.571,1.348-5.321,2.043-7.978C-383.747-241.861-381.875-248.916-379.987-256.075Z" transform="translate(415.32 340.131)" fill="#1d272b"/>
        <path id="Trazado_163218" data-name="Trazado 163218" d="M55.578,128.163v64.024H24.218c.1-.253.181-.516.3-.756a18.185,18.185,0,0,0,1.36-13.26c-2.349-9.13-4.6-18.284-6.9-27.428q-1.795-7.154-3.592-14.308c-.715-2.839-1.516-5.659-2.142-8.517a19.616,19.616,0,0,0-7.091-11.229c-1.757-1.438-3.407-3.006-5.3-4.693.572-.037.908-.078,1.245-.078q60.525,0,121.05,0,15.062,0,30.125.008a7.817,7.817,0,0,1,7.481,4.709,8.084,8.084,0,0,1-6.723,11.482c-.77.052-1.544.046-2.316.046q-47.284,0-94.568,0Z" transform="translate(108.361 17.408)" fill="#008f85"/>
        <path id="Trazado_163219" data-name="Trazado 163219" d="M-80.019-28.712l-1.046-.25c.834-3.184,1.64-6.306,2.475-9.419a1.32,1.32,0,0,1,2.057-.4c2.864,3.469,6.733,4.519,11.01,4.978,7.961.855,15.892,1.976,23.845,2.911a59.323,59.323,0,0,0,9.747.759A12.693,12.693,0,0,0-20.44-40.368c.168-.824.507-.967,1.229-.976,10.075-.126,20.15-.3,30.225-.4A102.35,102.35,0,0,1,22-41.528a18.909,18.909,0,0,1,11.934,5.564c3.182,3.227,3.833,7.177,3.225,11.43a21.576,21.576,0,0,1-6.805,12.79,2.852,2.852,0,0,1-2.155.829q-39.28-.029-78.56,0a1.69,1.69,0,0,1-1.648-.829A9.041,9.041,0,0,1-53.033-13.3c-.444-1.307-1.317-1.445-2.538-1.369-4.44.277-8.886.469-13.332.638a2.449,2.449,0,0,1-1.571-.495q-4.567-3.987-9.029-8.1A1.893,1.893,0,0,1-80-23.849C-80.052-25.462-80.019-27.077-80.019-28.712Z" transform="translate(172.203 137.19)" fill="#1d272b"/>
        <path id="Trazado_163220" data-name="Trazado 163220" d="M672.2-262.911a25.539,25.539,0,0,1-1.484,4.077q-8.539,15.1-17.212,30.132a8.182,8.182,0,0,1-8.4,4.045c-8.207-.973-16.422-1.875-24.633-2.817-6.13-.7-12.273-1.312-18.381-2.175a7.936,7.936,0,0,1-6.54-9.406,8.222,8.222,0,0,1,9.138-6.609c8.717,1.038,17.444,2.005,26.167,3,3.431.39,6.868.728,10.29,1.175a1.066,1.066,0,0,0,1.29-.629q7.086-12.442,14.2-24.868A8.124,8.124,0,0,1,665.618-271a8.032,8.032,0,0,1,6.3,7.992Z" transform="translate(-354.988 316.005)" fill="#1d272b"/>
        <path id="Trazado_163221" data-name="Trazado 163221" d="M499.957-75.663l-3.493,5.33,6.16,4.052,5.263-7.935a22.093,22.093,0,0,1,10.868,8.724c4.757,7.442,5.158,15.219,1.28,23.143a31.656,31.656,0,0,1-3.089,4.538,1.427,1.427,0,0,1-1.025.442q-16.217.035-32.434-.007a1.823,1.823,0,0,1-1.156-.634,22.74,22.74,0,0,1-2.162-26.7c4.066-6.573,10.061-10.1,17.69-10.949C498.475-75.722,499.1-75.663,499.957-75.663Z" transform="translate(-262.566 163.608)" fill="#1d272b"/>
        <path id="Trazado_163222" data-name="Trazado 163222" d="M-178.456-405.747c-2.193-2.647-5.421-3.191-8.555-4-8.1-2.1-16.173-4.262-24.265-6.368a1.941,1.941,0,0,1-1.559-1.427,23,23,0,0,1,17.2-29.642,22.713,22.713,0,0,1,23.663,9.852,22.792,22.792,0,0,1-6.174,31.487A1.587,1.587,0,0,1-178.456-405.747Z" transform="translate(275.77 453.489)" fill="#1d272b"/>
        <path id="Trazado_163223" data-name="Trazado 163223" d="M616.638-432.833c-7.184-5.945-10.356-13.434-8.644-22.471,1.779-9.391,7.591-15.579,16.874-17.963,8.846-2.272,16.419.418,22.829,7Z" transform="translate(-364.426 474.061)" fill="#1d272b"/>
        <path id="Trazado_163224" data-name="Trazado 163224" d="M732.648-430.935c4.453,6.747,5.555,13.646,3.017,20.965-2.3,6.643-6.889,11.171-13.584,13.874a22.618,22.618,0,0,0-7.184-15.762Z" transform="translate(-448.09 440.453)" fill="#1d272b"/>
        <path id="Trazado_163225" data-name="Trazado 163225" d="M-440.417,22.376c-3.912,0-7.772.023-11.63-.034a1.79,1.79,0,0,1-1.192-.747,12.716,12.716,0,0,1,8.727-19.919c1.625-.229,3.249-.469,5.035-.727-.244.966-.444,1.768-.649,2.568-.6,2.343-1.3,4.666-1.783,7.033a17.438,17.438,0,0,0,1.19,10.775c.1.235.208.47.3.709A1.394,1.394,0,0,1-440.417,22.376Z" transform="translate(464.053 103.885)" fill="#1d272b"/>
        <path id="Trazado_163226" data-name="Trazado 163226" d="M685.509-63.547,665.323-51.8a26.841,26.841,0,0,0-8.437-13.772,3.9,3.9,0,0,1,3.384-1.122c6.267.776,12.546,1.449,18.82,2.165,2.109.24,4.216.5,6.323.744Z" transform="translate(-402.882 156.631)" fill="#1d272b"/>
        <path id="Trazado_163227" data-name="Trazado 163227" d="M652.8-210.219l8.561-13.012,2.272,1.479c-2.538,3.852-5.028,7.647-7.554,11.419a1.2,1.2,0,0,1-.9.39C654.447-209.961,653.725-210.1,652.8-210.219Z" transform="translate(-399.696 278.589)" fill="#1d272b"/>
        <path id="Trazado_163228" data-name="Trazado 163228" d="M586.9-82.233a2.83,2.83,0,0,1-.182.419c-1.293,1.99-2.59,3.976-3.93,6.03l-2.271-1.506,4.27-6.461Z" transform="translate(-343.369 169.892)" fill="#1d272b"/>
      </g>
      <g id="Grupo_128125" data-name="Grupo 128125" transform="translate(228.545 129.704)">
        <g id="Grupo_91938" data-name="Grupo 91938" transform="translate(0 0)">
          <g id="Grupo_91937" data-name="Grupo 91937">
            <path id="Trazado_151023" data-name="Trazado 151023" d="M2026.533,2144.079a6.276,6.276,0,0,1-5.478-9.429l42.547-73.685a6.327,6.327,0,0,1,10.956.008l42.548,73.7a6.268,6.268,0,0,1-5.478,9.41Z" transform="translate(-2020.21 -2057.808)" fill="#1d272b"/>
            <path id="Trazado_151024" data-name="Trazado 151024" d="M2147.588,2172.711a3.66,3.66,0,0,1-3.1,1.87h-85.1a3.683,3.683,0,0,1-3.1-5.492l42.546-73.714a3.6,3.6,0,0,1,2.416-1.735,3.5,3.5,0,0,1,.686-.072,3.577,3.577,0,0,1,3.1,1.79l42.548,73.732A3.656,3.656,0,0,1,2147.588,2172.711Z" transform="translate(-2053.069 -2090.816)" fill="#db8804"/>
          </g>
        </g>
        <g id="Grupo_91939" data-name="Grupo 91939" transform="translate(43.586 26.342)">
          <path id="Trazado_151026" data-name="Trazado 151026" d="M2594.752,2429.936l-3.708-.089a2.053,2.053,0,0,1-1.942-1.948l-1.358-26.122a1.7,1.7,0,0,1,.535-1.346,1.776,1.776,0,0,1,1.416-.444l6.385.445a1.954,1.954,0,0,1,1.382.619,1.98,1.98,0,0,1,.52,1.425l-1.321,25.646A1.89,1.89,0,0,1,2594.752,2429.936Z" transform="translate(-2587.637 -2399.979)" fill="#fff"/>
          <path id="Trazado_151027" data-name="Trazado 151027" d="M2587.771,2856.561a5.3,5.3,0,0,1,3.9-1.285,5.515,5.515,0,0,1,3.932,1.364,5.167,5.167,0,0,1,1.34,3.854,5.056,5.056,0,0,1-1.37,3.787,5.342,5.342,0,0,1-3.9,1.346,5.278,5.278,0,0,1-3.888-1.393,5.149,5.149,0,0,1-1.409-3.824A5.076,5.076,0,0,1,2587.771,2856.561Z" transform="translate(-2586.378 -2820.224)" fill="#fff"/>
        </g>
      </g>
    </g>
    <path id="Trazado_168585" data-name="Trazado 168585" d="M9.578-9.477H6.094V0H3.75V-9.477H.313v-1.9H9.578ZM14.352,0a2.507,2.507,0,0,1-.227-.758,2.732,2.732,0,0,1-2.133.914A3,3,0,0,1,9.934-.562a2.312,2.312,0,0,1-.816-1.812,2.389,2.389,0,0,1,1-2.062,4.915,4.915,0,0,1,2.879-.727h1.039v-.484a1.393,1.393,0,0,0-.3-.937,1.183,1.183,0,0,0-.949-.352,1.345,1.345,0,0,0-.895.273.929.929,0,0,0-.324.75H9.3a2.268,2.268,0,0,1,.453-1.359,3,3,0,0,1,1.281-.98A4.669,4.669,0,0,1,12.9-8.609a3.689,3.689,0,0,1,2.48.785A2.747,2.747,0,0,1,16.3-5.617v3.664a4.041,4.041,0,0,0,.336,1.82V0ZM12.484-1.57a1.945,1.945,0,0,0,.922-.223,1.462,1.462,0,0,0,.625-.6V-3.844h-.844q-1.7,0-1.8,1.172l-.008.133a.9.9,0,0,0,.3.7A1.153,1.153,0,0,0,12.484-1.57Zm7.625-6.883.07.977a2.951,2.951,0,0,1,2.43-1.133,2.453,2.453,0,0,1,2,.789,3.682,3.682,0,0,1,.672,2.359V0H23.023V-5.406a1.465,1.465,0,0,0-.312-1.043,1.4,1.4,0,0,0-1.039-.324,1.553,1.553,0,0,0-1.43.813V0H17.984V-8.453ZM31.891,0a2.507,2.507,0,0,1-.227-.758,2.732,2.732,0,0,1-2.133.914,3,3,0,0,1-2.059-.719,2.312,2.312,0,0,1-.816-1.812,2.389,2.389,0,0,1,1-2.062,4.915,4.915,0,0,1,2.879-.727H31.57v-.484a1.393,1.393,0,0,0-.3-.937,1.183,1.183,0,0,0-.949-.352,1.345,1.345,0,0,0-.895.273.929.929,0,0,0-.324.75H26.844A2.268,2.268,0,0,1,27.3-7.273a3,3,0,0,1,1.281-.98,4.669,4.669,0,0,1,1.859-.355,3.689,3.689,0,0,1,2.48.785,2.747,2.747,0,0,1,.918,2.207v3.664a4.041,4.041,0,0,0,.336,1.82V0ZM30.023-1.57a1.945,1.945,0,0,0,.922-.223,1.462,1.462,0,0,0,.625-.6V-3.844h-.844q-1.7,0-1.8,1.172l-.008.133a.9.9,0,0,0,.3.7A1.153,1.153,0,0,0,30.023-1.57Zm8.25-8.961v2.078h1.445V-6.8H38.273v4.219a1.007,1.007,0,0,0,.18.672.9.9,0,0,0,.688.2,3.6,3.6,0,0,0,.664-.055V-.047a4.648,4.648,0,0,1-1.367.2,2.156,2.156,0,0,1-2.422-2.4V-6.8H34.781V-8.453h1.234v-2.078ZM40.391-4.3a5.013,5.013,0,0,1,.484-2.242A3.546,3.546,0,0,1,42.27-8.07a4.069,4.069,0,0,1,2.113-.539,3.849,3.849,0,0,1,2.793,1.047,4.2,4.2,0,0,1,1.207,2.844l.016.578A4.418,4.418,0,0,1,47.313-1.02,3.775,3.775,0,0,1,44.4.156,3.793,3.793,0,0,1,41.48-1.016,4.5,4.5,0,0,1,40.391-4.2Zm2.258.16A3.16,3.16,0,0,0,43.1-2.3a1.5,1.5,0,0,0,1.3.638,1.5,1.5,0,0,0,1.281-.63,3.457,3.457,0,0,0,.461-2.015A3.128,3.128,0,0,0,45.68-6.14a1.5,1.5,0,0,0-1.3-.649,1.474,1.474,0,0,0-1.281.646A3.516,3.516,0,0,0,42.648-4.144ZM53.68.156A4.15,4.15,0,0,1,50.652-.984a4.054,4.054,0,0,1-1.168-3.039v-.219a5.106,5.106,0,0,1,.492-2.277,3.612,3.612,0,0,1,1.395-1.547,3.914,3.914,0,0,1,2.059-.543,3.508,3.508,0,0,1,2.73,1.094,4.444,4.444,0,0,1,1,3.1v.922H51.773a2.1,2.1,0,0,0,.66,1.328,2,2,0,0,0,1.395.5,2.437,2.437,0,0,0,2.039-.945l1.109,1.242A3.389,3.389,0,0,1,55.6-.246,4.511,4.511,0,0,1,53.68.156Zm-.258-6.945a1.411,1.411,0,0,0-1.09.455,2.357,2.357,0,0,0-.535,1.3h3.141v-.181a1.681,1.681,0,0,0-.406-1.165A1.456,1.456,0,0,0,53.422-6.789Zm.2-5.211h2.461L53.922-9.578H52.086Zm9.391,9.664a.727.727,0,0,0-.41-.652,4.659,4.659,0,0,0-1.316-.426q-3.016-.633-3.016-2.562a2.323,2.323,0,0,1,.934-1.879,3.766,3.766,0,0,1,2.441-.754,4.053,4.053,0,0,1,2.574.758,2.388,2.388,0,0,1,.965,1.969H62.93a1.092,1.092,0,0,0-.312-.8A1.322,1.322,0,0,0,61.641-7a1.351,1.351,0,0,0-.883.258.814.814,0,0,0-.312.656.7.7,0,0,0,.355.605,3.657,3.657,0,0,0,1.2.4,9.8,9.8,0,0,1,1.422.379A2.336,2.336,0,0,1,65.211-2.43a2.2,2.2,0,0,1-.992,1.871,4.28,4.28,0,0,1-2.562.715A4.47,4.47,0,0,1,59.77-.223a3.166,3.166,0,0,1-1.293-1.039,2.414,2.414,0,0,1-.469-1.426h2.141a1.179,1.179,0,0,0,.445.922,1.766,1.766,0,0,0,1.109.32,1.635,1.635,0,0,0,.98-.246A.766.766,0,0,0,63.016-2.336Zm6.352-8.2v2.078h1.445V-6.8H69.367v4.219a1.007,1.007,0,0,0,.18.672.9.9,0,0,0,.688.2,3.6,3.6,0,0,0,.664-.055V-.047a4.648,4.648,0,0,1-1.367.2,2.156,2.156,0,0,1-2.422-2.4V-6.8H65.875V-8.453h1.234v-2.078ZM75.961.156A4.15,4.15,0,0,1,72.934-.984a4.054,4.054,0,0,1-1.168-3.039v-.219a5.106,5.106,0,0,1,.492-2.277,3.612,3.612,0,0,1,1.395-1.547,3.914,3.914,0,0,1,2.059-.543,3.508,3.508,0,0,1,2.73,1.094,4.444,4.444,0,0,1,1,3.1v.922H74.055a2.1,2.1,0,0,0,.66,1.328,2,2,0,0,0,1.395.5,2.437,2.437,0,0,0,2.039-.945l1.109,1.242A3.389,3.389,0,0,1,77.883-.246,4.511,4.511,0,0,1,75.961.156ZM75.7-6.789a1.411,1.411,0,0,0-1.09.455,2.357,2.357,0,0,0-.535,1.3h3.141v-.181a1.681,1.681,0,0,0-.406-1.165A1.456,1.456,0,0,0,75.7-6.789Zm7.719-3.742v2.078h1.445V-6.8H83.422v4.219a1.007,1.007,0,0,0,.18.672.9.9,0,0,0,.688.2,3.6,3.6,0,0,0,.664-.055V-.047a4.648,4.648,0,0,1-1.367.2,2.156,2.156,0,0,1-2.422-2.4V-6.8H79.93V-8.453h1.234v-2.078ZM88.508,0H86.242V-8.453h2.266Zm-2.4-10.641a1.112,1.112,0,0,1,.34-.836,1.277,1.277,0,0,1,.926-.328,1.28,1.28,0,0,1,.922.328,1.105,1.105,0,0,1,.344.836,1.108,1.108,0,0,1-.348.844,1.283,1.283,0,0,1-.918.328,1.283,1.283,0,0,1-.918-.328A1.108,1.108,0,0,1,86.109-10.641Zm7.773,8.977A1.481,1.481,0,0,0,94.9-2.008a1.2,1.2,0,0,0,.406-.914h2.117a2.9,2.9,0,0,1-.469,1.574A3.093,3.093,0,0,1,95.691-.238a3.949,3.949,0,0,1-1.77.395A3.67,3.67,0,0,1,91.063-1,4.56,4.56,0,0,1,90.016-4.18v-.148a4.508,4.508,0,0,1,1.039-3.117,3.627,3.627,0,0,1,2.852-1.164,3.555,3.555,0,0,1,2.543.9,3.2,3.2,0,0,1,.973,2.4H95.3A1.551,1.551,0,0,0,94.9-6.377a1.354,1.354,0,0,0-1.031-.412,1.36,1.36,0,0,0-1.191.575,3.333,3.333,0,0,0-.4,1.866v.235a3.375,3.375,0,0,0,.4,1.878A1.377,1.377,0,0,0,93.883-1.664ZM103.609,0a2.507,2.507,0,0,1-.227-.758,2.732,2.732,0,0,1-2.133.914,3,3,0,0,1-2.059-.719,2.312,2.312,0,0,1-.816-1.812,2.389,2.389,0,0,1,1-2.062,4.915,4.915,0,0,1,2.879-.727h1.039v-.484a1.393,1.393,0,0,0-.3-.937,1.183,1.183,0,0,0-.949-.352,1.345,1.345,0,0,0-.895.273.929.929,0,0,0-.324.75H98.563a2.268,2.268,0,0,1,.453-1.359,3,3,0,0,1,1.281-.98,4.669,4.669,0,0,1,1.859-.355,3.689,3.689,0,0,1,2.48.785,2.747,2.747,0,0,1,.918,2.207v3.664a4.041,4.041,0,0,0,.336,1.82V0Zm-1.867-1.57a1.945,1.945,0,0,0,.922-.223,1.462,1.462,0,0,0,.625-.6V-3.844h-.844q-1.7,0-1.8,1.172l-.008.133a.9.9,0,0,0,.3.7A1.153,1.153,0,0,0,101.742-1.57ZM114.43-3.2l1.563-5.258h2.422l-3.4,9.766-.187.445a2.577,2.577,0,0,1-2.5,1.656,3.552,3.552,0,0,1-1-.148V1.555l.344.008a1.857,1.857,0,0,0,.957-.2,1.283,1.283,0,0,0,.5-.648l.266-.7L110.43-8.453h2.43Z" transform="translate(1208.954 784.338)" fill="#008f85"/>
    <path id="Trazado_168584" data-name="Trazado 168584" d="M4.657-1.768a1.573,1.573,0,0,0,1.079-.365A1.28,1.28,0,0,0,6.167-3.1h2.25a3.077,3.077,0,0,1-.5,1.673A3.286,3.286,0,0,1,6.578-.253,4.2,4.2,0,0,1,4.7.166,3.9,3.9,0,0,1,1.66-1.058,4.845,4.845,0,0,1,.548-4.441V-4.6a4.79,4.79,0,0,1,1.1-3.312,3.854,3.854,0,0,1,3.03-1.237,3.778,3.778,0,0,1,2.7.959A3.4,3.4,0,0,1,8.417-5.636H6.167a1.648,1.648,0,0,0-.432-1.139,1.439,1.439,0,0,0-1.1-.438A1.445,1.445,0,0,0,3.374-6.6,3.541,3.541,0,0,0,2.947-4.62v.249a3.586,3.586,0,0,0,.423,2A1.463,1.463,0,0,0,4.657-1.768ZM9.413-4.574a5.327,5.327,0,0,1,.515-2.382,3.768,3.768,0,0,1,1.482-1.619,4.323,4.323,0,0,1,2.245-.573,4.09,4.09,0,0,1,2.968,1.112A4.464,4.464,0,0,1,17.9-5.014l.017.614a4.694,4.694,0,0,1-1.154,3.316,4.011,4.011,0,0,1-3.1,1.249,4.031,4.031,0,0,1-3.1-1.245A4.777,4.777,0,0,1,9.413-4.466Zm2.4.17a3.357,3.357,0,0,0,.481,1.958,1.588,1.588,0,0,0,1.378.678,1.592,1.592,0,0,0,1.361-.669,3.674,3.674,0,0,0,.49-2.141,3.324,3.324,0,0,0-.49-1.945,1.592,1.592,0,0,0-1.378-.69,1.566,1.566,0,0,0-1.361.686A3.735,3.735,0,0,0,11.812-4.4ZM24.263-2.482a.773.773,0,0,0-.436-.693,4.95,4.95,0,0,0-1.4-.452q-3.2-.672-3.2-2.723a2.468,2.468,0,0,1,.992-2,4,4,0,0,1,2.594-.8,4.307,4.307,0,0,1,2.735.805A2.538,2.538,0,0,1,26.571-6.25h-2.4A1.161,1.161,0,0,0,23.84-7.1,1.405,1.405,0,0,0,22.8-7.437a1.436,1.436,0,0,0-.938.274.865.865,0,0,0-.332.7.739.739,0,0,0,.378.643,3.885,3.885,0,0,0,1.274.423,10.407,10.407,0,0,1,1.511.4,2.482,2.482,0,0,1,1.9,2.416A2.343,2.343,0,0,1,25.542-.594a4.548,4.548,0,0,1-2.723.76,4.75,4.75,0,0,1-2-.4,3.363,3.363,0,0,1-1.374-1.1,2.565,2.565,0,0,1-.5-1.515h2.274a1.252,1.252,0,0,0,.473.979,1.877,1.877,0,0,0,1.179.34A1.737,1.737,0,0,0,23.91-1.8.814.814,0,0,0,24.263-2.482Zm6.126-6.5.075,1a3.156,3.156,0,0,1,2.582-1.17,2.4,2.4,0,0,1,2.382,1.37,3.084,3.084,0,0,1,2.7-1.37A2.679,2.679,0,0,1,40.3-8.3a3.911,3.911,0,0,1,.714,2.561V0H38.607V-5.728a1.71,1.71,0,0,0-.3-1.116A1.324,1.324,0,0,0,37.254-7.2,1.5,1.5,0,0,0,35.76-6.167L35.768,0h-2.4V-5.719a1.689,1.689,0,0,0-.307-1.129A1.337,1.337,0,0,0,32.016-7.2a1.555,1.555,0,0,0-1.478.847V0h-2.4V-8.981ZM46.991.166a4.409,4.409,0,0,1-3.217-1.212,4.308,4.308,0,0,1-1.241-3.229v-.232a5.426,5.426,0,0,1,.523-2.42,3.838,3.838,0,0,1,1.482-1.644,4.159,4.159,0,0,1,2.187-.577,3.727,3.727,0,0,1,2.9,1.162,4.722,4.722,0,0,1,1.058,3.3v.979H44.965a2.229,2.229,0,0,0,.7,1.411,2.12,2.12,0,0,0,1.482.531,2.589,2.589,0,0,0,2.167-1l1.179,1.32A3.6,3.6,0,0,1,49.033-.261,4.793,4.793,0,0,1,46.991.166Zm-.274-7.379a1.5,1.5,0,0,0-1.158.484,2.5,2.5,0,0,0-.569,1.384h3.337v-.192A1.786,1.786,0,0,0,47.9-6.776,1.547,1.547,0,0,0,46.717-7.213Zm8.2-3.976v2.208h1.536v1.76H54.918v4.482a1.07,1.07,0,0,0,.191.714.959.959,0,0,0,.73.216,3.826,3.826,0,0,0,.706-.058V-.05a4.939,4.939,0,0,1-1.453.216,2.29,2.29,0,0,1-2.573-2.548V-7.222H51.208v-1.76h1.312v-2.208Zm2.25,6.616a5.327,5.327,0,0,1,.515-2.382,3.767,3.767,0,0,1,1.482-1.619,4.323,4.323,0,0,1,2.245-.573,4.09,4.09,0,0,1,2.968,1.112,4.464,4.464,0,0,1,1.282,3.021l.017.614a4.694,4.694,0,0,1-1.154,3.316,4.011,4.011,0,0,1-3.1,1.249,4.031,4.031,0,0,1-3.1-1.245,4.777,4.777,0,0,1-1.158-3.387Zm2.4.17a3.357,3.357,0,0,0,.481,1.958,1.588,1.588,0,0,0,1.378.678,1.592,1.592,0,0,0,1.361-.669,3.674,3.674,0,0,0,.49-2.141,3.324,3.324,0,0,0-.49-1.945,1.592,1.592,0,0,0-1.378-.69,1.566,1.566,0,0,0-1.361.686A3.735,3.735,0,0,0,59.566-4.4ZM69.685,0H67.278V-12.75h2.407Zm1.6-4.574A5.326,5.326,0,0,1,71.8-6.956a3.768,3.768,0,0,1,1.482-1.619,4.323,4.323,0,0,1,2.245-.573A4.09,4.09,0,0,1,78.5-8.035a4.464,4.464,0,0,1,1.282,3.021L79.8-4.4a4.694,4.694,0,0,1-1.154,3.316,4.011,4.011,0,0,1-3.1,1.249,4.031,4.031,0,0,1-3.1-1.245,4.777,4.777,0,0,1-1.158-3.387Zm2.4.17a3.357,3.357,0,0,0,.481,1.958,1.588,1.588,0,0,0,1.378.678,1.592,1.592,0,0,0,1.361-.669,3.674,3.674,0,0,0,.49-2.141,3.324,3.324,0,0,0-.49-1.945,1.592,1.592,0,0,0-1.378-.69,1.566,1.566,0,0,0-1.361.686A3.736,3.736,0,0,0,73.686-4.4Zm7.238-.154a5.264,5.264,0,0,1,.984-3.329A3.187,3.187,0,0,1,84.56-9.147a2.8,2.8,0,0,1,2.3,1.013l.1-.847h2.175V-.3a3.839,3.839,0,0,1-.535,2.05A3.439,3.439,0,0,1,87.092,3.08a5.3,5.3,0,0,1-2.274.457,4.925,4.925,0,0,1-1.926-.394,3.418,3.418,0,0,1-1.419-1.017L82.535.664a2.81,2.81,0,0,0,2.175,1,2.057,2.057,0,0,0,1.486-.51,1.915,1.915,0,0,0,.531-1.448V-.772a2.775,2.775,0,0,1-2.183.938A3.179,3.179,0,0,1,81.925-1.1a5.262,5.262,0,0,1-1-3.358Zm2.4.179a3.278,3.278,0,0,0,.49,1.916,1.558,1.558,0,0,0,1.345.694,1.666,1.666,0,0,0,1.569-.823V-6.374A1.662,1.662,0,0,0,85.174-7.2a1.568,1.568,0,0,0-1.357.707A3.694,3.694,0,0,0,83.323-4.379ZM93.566,0h-2.4V-8.981h2.4Zm-.706-12.625h2.615l-2.3,2.573H91.226ZM100.838,0a2.664,2.664,0,0,1-.241-.805,2.9,2.9,0,0,1-2.266.971A3.189,3.189,0,0,1,96.144-.6a2.456,2.456,0,0,1-.867-1.926,2.538,2.538,0,0,1,1.058-2.191,5.222,5.222,0,0,1,3.059-.772h1.1V-6a1.48,1.48,0,0,0-.32-1,1.257,1.257,0,0,0-1.009-.374,1.429,1.429,0,0,0-.95.291.987.987,0,0,0-.344.8h-2.4a2.41,2.41,0,0,1,.481-1.444A3.182,3.182,0,0,1,97.318-8.77a4.961,4.961,0,0,1,1.976-.378,3.92,3.92,0,0,1,2.635.834,2.918,2.918,0,0,1,.975,2.345v3.893a4.294,4.294,0,0,0,.357,1.934V0ZM98.854-1.668a2.066,2.066,0,0,0,.979-.237,1.554,1.554,0,0,0,.664-.635V-4.084h-.9q-1.8,0-1.917,1.245l-.008.141a.96.96,0,0,0,.315.739A1.225,1.225,0,0,0,98.854-1.668ZM109.637,0V-7.222H108.3v-1.76h1.336v-.764a3.1,3.1,0,0,1,.867-2.345,3.359,3.359,0,0,1,2.428-.834,5.608,5.608,0,0,1,1.22.166l-.025,1.859a3.058,3.058,0,0,0-.73-.075q-1.353,0-1.353,1.27v.722h1.785v1.76h-1.785V0Zm10.816-.913A3.008,3.008,0,0,1,118,.166a2.837,2.837,0,0,1-2.2-.83,3.543,3.543,0,0,1-.776-2.432V-8.981h2.4v5.809q0,1.4,1.278,1.4a1.732,1.732,0,0,0,1.677-.848V-8.981h2.407V0h-2.258Zm6.342-8.068.075,1.038a3.136,3.136,0,0,1,2.582-1.2,2.606,2.606,0,0,1,2.125.838A3.912,3.912,0,0,1,132.29-5.8V0h-2.4V-5.744a1.556,1.556,0,0,0-.332-1.108,1.486,1.486,0,0,0-1.1-.344,1.65,1.65,0,0,0-1.519.863V0h-2.4V-8.981ZM138.241.166a4.409,4.409,0,0,1-3.217-1.212,4.308,4.308,0,0,1-1.241-3.229v-.232a5.426,5.426,0,0,1,.523-2.42,3.838,3.838,0,0,1,1.482-1.644,4.159,4.159,0,0,1,2.187-.577,3.727,3.727,0,0,1,2.9,1.162,4.722,4.722,0,0,1,1.058,3.3v.979h-5.719a2.228,2.228,0,0,0,.7,1.411,2.12,2.12,0,0,0,1.482.531,2.589,2.589,0,0,0,2.167-1l1.179,1.32a3.6,3.6,0,0,1-1.461,1.191A4.793,4.793,0,0,1,138.241.166Zm-.274-7.379a1.5,1.5,0,0,0-1.158.484,2.5,2.5,0,0,0-.569,1.384h3.337v-.192a1.786,1.786,0,0,0-.432-1.238A1.547,1.547,0,0,0,137.967-7.213Zm10.376.481a6.517,6.517,0,0,0-.863-.066,1.757,1.757,0,0,0-1.785.921V0h-2.4V-8.981h2.266l.066,1.071a2.223,2.223,0,0,1,2-1.237,2.514,2.514,0,0,1,.747.108ZM154.453,0a2.664,2.664,0,0,1-.241-.805,2.9,2.9,0,0,1-2.266.971A3.189,3.189,0,0,1,149.759-.6a2.456,2.456,0,0,1-.867-1.926,2.538,2.538,0,0,1,1.058-2.191,5.222,5.222,0,0,1,3.059-.772h1.1V-6a1.48,1.48,0,0,0-.32-1,1.257,1.257,0,0,0-1.009-.374,1.429,1.429,0,0,0-.95.291.987.987,0,0,0-.344.8h-2.4a2.41,2.41,0,0,1,.481-1.444,3.182,3.182,0,0,1,1.361-1.042,4.961,4.961,0,0,1,1.976-.378,3.92,3.92,0,0,1,2.635.834,2.918,2.918,0,0,1,.975,2.345v3.893a4.294,4.294,0,0,0,.357,1.934V0Zm-1.984-1.668a2.066,2.066,0,0,0,.979-.237,1.554,1.554,0,0,0,.664-.635V-4.084h-.9q-1.8,0-1.917,1.245l-.008.141a.96.96,0,0,0,.315.739A1.225,1.225,0,0,0,152.469-1.668Zm10.94-5.063a6.517,6.517,0,0,0-.863-.066,1.757,1.757,0,0,0-1.785.921V0h-2.4V-8.981h2.266l.066,1.071a2.223,2.223,0,0,1,2-1.237,2.514,2.514,0,0,1,.747.108ZM167.095,0h-2.407V-8.981h2.407Zm-2.548-11.306a1.181,1.181,0,0,1,.361-.888,1.356,1.356,0,0,1,.984-.349,1.36,1.36,0,0,1,.979.349,1.175,1.175,0,0,1,.365.888,1.178,1.178,0,0,1-.369.9,1.363,1.363,0,0,1-.975.349,1.363,1.363,0,0,1-.975-.349A1.178,1.178,0,0,1,164.546-11.306ZM174.275,0a2.664,2.664,0,0,1-.241-.805,2.9,2.9,0,0,1-2.266.971A3.189,3.189,0,0,1,169.581-.6a2.456,2.456,0,0,1-.867-1.926,2.538,2.538,0,0,1,1.058-2.191,5.222,5.222,0,0,1,3.059-.772h1.1V-6a1.48,1.48,0,0,0-.32-1,1.257,1.257,0,0,0-1.009-.374,1.429,1.429,0,0,0-.95.291.987.987,0,0,0-.344.8h-2.4a2.41,2.41,0,0,1,.481-1.444,3.182,3.182,0,0,1,1.361-1.042,4.961,4.961,0,0,1,1.976-.378,3.92,3.92,0,0,1,2.635.834,2.918,2.918,0,0,1,.975,2.345v3.893A4.294,4.294,0,0,0,176.7-.141V0Zm-1.984-1.668a2.066,2.066,0,0,0,.979-.237,1.554,1.554,0,0,0,.664-.635V-4.084h-.9q-1.8,0-1.917,1.245l-.008.141a.96.96,0,0,0,.315.739A1.225,1.225,0,0,0,172.291-1.668Z" transform="translate(1208.954 800.816)" fill="#1d272b"/>
    <rect id="Rectángulo_35809" data-name="Rectángulo 35809" width="3.642" height="42.346" transform="translate(1200.76 765.009)" fill="#d93328"/>
  </g>
</svg>
