<svg xmlns="http://www.w3.org/2000/svg" xmlns:xlink="http://www.w3.org/1999/xlink" width="109.978" height="109.978" viewBox="0 0 109.978 109.978">
  <defs>
    <radialGradient id="radial-gradient" cx="0.076" cy="0.019" r="1.465" gradientTransform="translate(0.001)" gradientUnits="objectBoundingBox">
      <stop offset="0" stop-color="#f6f6f7"/>
      <stop offset="0.477" stop-color="#f9f9fa"/>
      <stop offset="0.715" stop-color="#fff"/>
    </radialGradient>
  </defs>
  <g id="img3" transform="translate(0 0)">
    <g id="Grupo_42274" data-name="Grupo 42274" transform="translate(0 0)">
      <g id="Grupo_18423" data-name="Grupo 18423" transform="translate(0 0)">
        <g id="Grupo_18421" data-name="Grupo 18421">
          <g id="Grupo_18420" data-name="Grupo 18420">
            <g id="Grupo_18419" data-name="Grupo 18419">
              <path id="Trazado_40936" data-name="Trazado 40936" d="M304.6,2200.708a54.989,54.989,0,1,1-54.988-54.988A54.988,54.988,0,0,1,304.6,2200.708Z" transform="translate(-194.623 -2145.721)" fill="#fff"/>
            </g>
          </g>
        </g>
        <path id="Trazado_40937" data-name="Trazado 40937" d="M304.05,2200.108a54.987,54.987,0,1,0-54.988,54.99A54.771,54.771,0,0,0,304.05,2200.108Z" transform="translate(-194.072 -2145.121)" fill="url(#radial-gradient)"/>
        <path id="Trazado_40938" data-name="Trazado 40938" d="M286.162,2195.259a41.973,41.973,0,1,0-41.973,41.972A41.817,41.817,0,0,0,286.162,2195.259Z" transform="translate(-189.034 -2140.088)" fill="none" stroke="#1d272b" stroke-miterlimit="10" stroke-width="2"/>
        <g id="Grupo_18422" data-name="Grupo 18422" transform="translate(9.742 30.872)">
          <path id="Trazado_40939" data-name="Trazado 40939" d="M295.221,2164.488a55,55,0,0,1-94.676,54.761,54.821,54.821,0,0,0,94.676-54.761Z" transform="translate(-200.545 -2164.488)" fill="#eceef0"/>
        </g>
      </g>
    </g>
    <g id="nfrnxc" transform="translate(-4583.31 -3156.463)">
      <g id="Grupo_129658" data-name="Grupo 129658" transform="translate(4617.683 3188.007)">
        <path id="Trazado_166690" data-name="Trazado 166690" d="M4642.977,3188.007a2.48,2.48,0,0,1,1.688,1.789,2.247,2.247,0,1,1-2.978-1.651c.113-.045.226-.092.338-.138Zm-.635,2.911.238,0c.151-.219.4-.424.431-.659a.454.454,0,0,0-.549-.534.771.771,0,0,0-.508.519C4641.942,3190.464,4642.2,3190.695,4642.342,3190.918Z" transform="translate(-4634.898 -3188.007)" fill="#1d272b"/>
        <path id="Trazado_166691" data-name="Trazado 166691" d="M4625.429,3223.58c-1.824-.471-2.758-1.89-2.326-3.49a2.7,2.7,0,0,1,2.583-2.049q6.185-.026,12.372,0a2.729,2.729,0,0,1,2.67,2.458,2.758,2.758,0,0,1-1.914,2.939c-.147.048-.3.091-.5.153v.564c0,4.794.006,9.587-.011,14.38a.879.879,0,0,0,.5.866,13.867,13.867,0,1,1-13.779-.416c.268-.144.431-.271.429-.623q-.021-7.243-.01-14.486C4625.444,3223.791,4625.436,3223.7,4625.429,3223.58Zm17.278,22.715c-.088-.2-.153-.358-.23-.513a11.957,11.957,0,0,0-5.146-5.291,1.139,1.139,0,0,1-.706-1.167c.032-.751.008-1.5.008-2.308h-.7c-1.057,0-2.115.013-3.171-.014a.838.838,0,1,1,.034-1.673c.9-.015,1.8,0,2.7-.005h1.1v-1.674c-1.288,0-2.537.01-3.786,0a.835.835,0,0,1-.919-.869.825.825,0,0,1,.915-.811c.934-.014,1.868-.005,2.8-.006h.99v-1.645c-.161-.008-.282-.02-.4-.02-1.146,0-2.291.01-3.436-.007a.817.817,0,0,1-.866-.862.829.829,0,0,1,.857-.82c.246-.014.493,0,.74,0h3.114v-1.679h-.6c-1.057,0-2.115.006-3.172,0a.831.831,0,0,1-.94-.838c0-.505.354-.826.943-.848.282-.01.564,0,.846,0h2.956c0-.4-.029-.752.007-1.1.046-.449-.129-.562-.562-.559-2.8.018-5.6.009-8.4.01-.168,0-.336.021-.537.035v.673c0,4.9-.006,9.8.009,14.7a1.159,1.159,0,0,1-.735,1.2A11.988,11.988,0,0,0,4620,3247.4a9.832,9.832,0,0,0-.58,3.57,19.956,19.956,0,0,0,6.4.8,7.113,7.113,0,0,0,4-1.453,42.754,42.754,0,0,1,3.605-2.487,11.464,11.464,0,0,1,7.023-1.875C4641.181,3246.014,4641.9,3246.171,4642.708,3246.3Zm-23.193,6.537c.013.179.011.336.037.487a12.186,12.186,0,1,0,23.965-4.434.742.742,0,0,0-.525-.631,8.892,8.892,0,0,0-6.547-.019,25.921,25.921,0,0,0-5.791,3.54,9.378,9.378,0,0,1-2.113,1.161,11.475,11.475,0,0,1-5.577.457C4621.831,3253.259,4620.709,3253.031,4619.514,3252.833Zm12.326-33.106c-1.99,0-3.98,0-5.971,0a1.082,1.082,0,0,0-1.167,1.037,1.069,1.069,0,0,0,1.085,1.117c.14.012.282.009.423.009q5.653,0,11.306,0a3.293,3.293,0,0,0,.735-.057,1.05,1.05,0,0,0,.753-1.35,1.1,1.1,0,0,0-1.194-.756Q4634.824,3219.722,4631.84,3219.726Z" transform="translate(-4617.683 -3210.939)" fill="#1d272b"/>
        <path id="Trazado_166692" data-name="Trazado 166692" d="M4754.125,3261.73v.7q0,13.062,0,26.123a5.282,5.282,0,0,1-3.185,5.162,5.366,5.366,0,0,1-7.541-4.445c-.025-.351-.033-.7-.033-1.057q0-12.876,0-25.753v-.752c-.347-.021-.625-.03-.9-.054a2.761,2.761,0,0,1,.219-5.517c2.538-.019,5.076-.006,7.615-.006,1.516,0,3.032-.015,4.548.006a2.763,2.763,0,0,1,2.751,2.372,2.733,2.733,0,0,1-2.023,3.057A11.334,11.334,0,0,1,4754.125,3261.73Zm-1.7,6.444h-.612c-1,0-2.009.01-3.013-.006a.841.841,0,1,1-.011-1.681c.634-.018,1.269-.005,1.9-.006h1.717v-4.763h-7.347v.666q0,13.006,0,26.012c0,.229,0,.459.022.687a3.534,3.534,0,0,0,2.313,3.14,3.489,3.489,0,0,0,3.8-.656,4.05,4.05,0,0,0,1.2-3.872h-.611c-.952,0-1.9.009-2.855,0-.637-.01-1-.333-1-.846s.359-.827,1-.84c.37-.007.74,0,1.11,0h2.385v-4.819c-1.129,0-2.234,0-3.34,0-.76,0-1.152-.292-1.151-.849s.395-.841,1.157-.843h3.328v-4.805h-.6c-.917,0-1.833,0-2.749,0-.762,0-1.151-.306-1.14-.868.01-.544.381-.82,1.121-.822.811,0,1.622,0,2.432,0h.942Zm-3.7-8.19q2.193,0,4.385,0c.616,0,1.234.02,1.847-.031a1.029,1.029,0,0,0,.954-1.26c-.1-.55-.55-.867-1.269-.867q-5.89,0-11.781,0a1.894,1.894,0,0,0-.52.063,1.032,1.032,0,0,0-.773,1.064,1.047,1.047,0,0,0,.874.987,3.979,3.979,0,0,0,.683.042Q4745.923,3259.987,4748.723,3259.984Z" transform="translate(-4711.016 -3240.041)" fill="#1d272b"/>
        <path id="Trazado_166693" data-name="Trazado 166693" d="M4724.9,3194.259a2.8,2.8,0,1,1,5.6.01,2.8,2.8,0,0,1-5.6-.01Zm2.8-1.1a1.084,1.084,0,0,0-1.1,1.093,1.106,1.106,0,0,0,1.1,1.109,1.124,1.124,0,0,0,1.112-1.1A1.1,1.1,0,0,0,4727.693,3193.156Z" transform="translate(-4699.581 -3190.644)" fill="#1d272b"/>
        <path id="Trazado_166694" data-name="Trazado 166694" d="M4800.531,3228.4a2.24,2.24,0,1,1-2.215-2.279A2.248,2.248,0,0,1,4800.531,3228.4Zm-1.606.072-.01-.254c-.221-.136-.434-.367-.664-.386a.45.45,0,0,0-.487.58.768.768,0,0,0,.533.484C4798.5,3228.9,4798.715,3228.622,4798.925,3228.469Z" transform="translate(-4753.935 -3217.119)" fill="#1d272b"/>
        <path id="Trazado_166695" data-name="Trazado 166695" d="M4653.564,3320.753a2.241,2.241,0,1,1,2.266,2.229A2.249,2.249,0,0,1,4653.564,3320.753Zm1.612-.141v.251c.216.143.439.406.646.394a.776.776,0,0,0,.512-.506.447.447,0,0,0-.512-.557C4655.594,3320.222,4655.391,3320.465,4655.176,3320.612Z" transform="translate(-4645.092 -3287.666)" fill="#1d272b"/>
        <path id="Trazado_166696" data-name="Trazado 166696" d="M4669.955,3376.162a2.793,2.793,0,1,1,2.783-2.8A2.8,2.8,0,0,1,4669.955,3376.162Zm-.039-1.7a1.1,1.1,0,1,0-1.085-1.118A1.1,1.1,0,0,0,4669.916,3374.466Z" transform="translate(-4655.458 -3327.467)" fill="#1d272b"/>
        <path id="Trazado_166697" data-name="Trazado 166697" d="M4702.61,3366.476a2.254,2.254,0,1,1,2.249-2.26A2.272,2.272,0,0,1,4702.61,3366.476Zm-.157-1.61.248.01c.153-.214.428-.43.425-.641a.776.776,0,0,0-.491-.538.454.454,0,0,0-.579.5C4702.079,3364.429,4702.313,3364.643,4702.454,3364.866Z" transform="translate(-4680.826 -3320.893)" fill="#1d272b"/>
      </g>
    </g>
  </g>
</svg>
