<svg xmlns="http://www.w3.org/2000/svg" width="262.815" height="240.882" viewBox="0 0 262.815 240.882">
  <g id="img4" transform="translate(-1050.729 -2702.411)">
    <g id="Grupo_129307" data-name="Grupo 129307" transform="translate(1060.615 2702.411)">
      <g id="Grupo_128802" data-name="Grupo 128802" transform="translate(0 0)">
        <path id="Trazado_151846" data-name="Trazado 151846" d="M300.507,318.728a58.41,58.41,0,0,0,7.227-49.153c-3.2-10.341-9.354-19.949-10.14-30.732-1.573-21.561,18.25-38.992,22.362-60.226,1.808-9.332-.164-20.2-7.912-25.873-7.652-5.6-18.574-4.456-27.238-.535s-15.994,10.2-24.312,14.787-18.56,7.426-27.344,3.774c-8.9-3.7-13.944-13.024-16.771-22.113s-4.215-18.768-9.039-27c-7.952-13.57-24.906-20.969-40.705-19.055s-29.916,12.4-37.488,26.181-8.9,30.445-5.126,45.664c1.912,7.719,5.062,15.11,6.779,22.874s1.875,16.26-1.96,23.252c-8.018,14.622-29.171,16.661-40.248,29.2-9.142,10.349-9.429,26.143-4.241,38.87s14.939,23.053,24.661,32.878c45.346,1.5,91.5,1.6,136.849,3.1C263.484,325.2,282.9,319.748,300.507,318.728Z" transform="translate(-80.961 -98.176)" fill="#a4a4b4" opacity="0.354" style="mix-blend-mode: multiply;isolation: isolate"/>
        <path id="Trazado_151847" data-name="Trazado 151847" d="M359.21,167.171c-.116,12.447,11.716,23.28,9.657,35.555-1.1,6.568-6.106,13.226-3.2,19.217,2.573,5.3,9.943,6.22,15.579,4.5,13.191-4.035,21.208-17.519,25.043-30.77,3.607-12.464,4.5-26.386-1.274-38.005-4.654-9.361-15.393-17.626-26.3-16.861C368.731,141.5,359.3,157.8,359.21,167.171Z" transform="translate(-156.244 -100.811)" fill="#a4a4b4" opacity="0.31" style="mix-blend-mode: multiply;isolation: isolate"/>
        <path id="Trazado_151848" data-name="Trazado 151848" d="M115.337,142.5a64.3,64.3,0,0,0-1.283,62.569c3.3,6.056,7.759,11.7,13.778,15.068s13.785,4.119,19.776.7c9.086-5.183,11.1-17.408,10.373-27.844s-3.087-21.376.931-31.034c2.62-6.3,7.65-11.2,12.113-16.358s8.628-11.173,8.858-17.988c.6-17.666-18.158-16.346-29.46-12.677A64.238,64.238,0,0,0,115.337,142.5Z" transform="translate(-83.416 -99.169)" fill="#a4a4b4" opacity="0.31" style="mix-blend-mode: multiply;isolation: isolate"/>
        <g id="Grupo_107069" data-name="Grupo 107069" transform="translate(6.279)" style="mix-blend-mode: multiply;isolation: isolate">
          <path id="Trazado_151849" data-name="Trazado 151849" d="M298.5,320.4l-.968-.876c2.663-2.886,6.913-9.5,5.474-21.4a92.739,92.739,0,0,0-3.763-15.585c-.685-2.26-1.395-4.6-2.014-6.917a106.64,106.64,0,0,1,7.924-74.935c1.034-2.029,2.152-4.065,3.235-6.033,3.208-5.836,6.525-11.871,7.951-18.39,2.5-11.44-2.443-20.014-8.1-23.14-5.423-3-13.079-2.541-21,1.258-2.9,1.389-5.716,3.089-8.44,4.733a78.282,78.282,0,0,1-11.321,6.009c-15.727,6.258-35.39.939-45.736-12.369-4.973-6.4-7.78-14.125-10.5-21.6-1.052-2.9-2.14-5.892-3.336-8.758-3.721-8.911-10.532-20.1-21.845-22.771-9.941-2.352-20.009,2.817-26.7,7.567-12.808,9.089-21.836,21.4-25.423,34.658-2.418,8.942-2.515,18.675-2.61,28.088-.14,14.017-.285,28.512-8.267,40.185-3.631,5.31-8.625,9.547-13.454,13.645-4.523,3.837-9.2,7.806-12.687,12.616-7.9,10.9-9.837,26.328-5.313,42.333,4.065,14.38,12.351,27.14,20.365,39.479l-1.1.7c-8.066-12.42-16.406-25.263-20.524-39.831-4.632-16.387-2.623-32.222,5.51-43.442,3.579-4.937,8.317-8.957,12.9-12.845,4.764-4.042,9.69-8.222,13.222-13.387,7.76-11.349,7.9-25.008,8.041-39.469.1-9.494.193-19.31,2.655-28.412,3.664-13.55,12.872-26.114,25.925-35.378,6.916-4.907,17.347-10.24,27.77-7.774,11.851,2.8,18.914,14.347,22.751,23.538,1.209,2.894,2.3,5.9,3.359,8.815,2.681,7.38,5.452,15.012,10.3,21.246,10,12.865,29.009,18,44.212,11.956A77.415,77.415,0,0,0,278.122,158c2.75-1.66,5.595-3.377,8.55-4.793,8.312-3.986,16.408-4.433,22.211-1.224,6.061,3.352,11.382,12.464,8.739,24.55-1.466,6.7-4.829,12.82-8.082,18.737-1.077,1.96-2.192,3.986-3.215,6a105.33,105.33,0,0,0-7.827,74.017c.613,2.3,1.319,4.626,2,6.875a93.815,93.815,0,0,1,3.81,15.8C305.81,310.377,301.314,317.346,298.5,320.4Z" transform="translate(-87.906 -97.739)" fill="#a4a4b4"/>
        </g>
      </g>
    </g>
    <g id="Grupo_129611" data-name="Grupo 129611" transform="translate(1050.729 2702.891)">
      <g id="freepik--Chart--inject-444" transform="translate(82.991 154.929)">
        <g id="Grupo_61348" data-name="Grupo 61348" transform="translate(17.273 0)" style="isolation: isolate">
          <rect id="Rect치ngulo_12549" data-name="Rect치ngulo 12549" width="83.166" height="72.885" fill="#262222"/>
        </g>
        <rect id="Rect치ngulo_12550" data-name="Rect치ngulo 12550" width="83.166" height="72.885" transform="translate(0 0)"/>
        <path id="Trazado_125913" data-name="Trazado 125913" d="M12019.969,10051.6a13.906,13.906,0,0,0,3.545,2.758,14.258,14.258,0,0,0-3.545-2.765Z" transform="translate(-11923.26 -10051.418)" fill="#5e6178"/>
      </g>
      <g id="freepik--Character--inject-444" transform="translate(59.552 1.406)">
        <g id="Grupo_61351" data-name="Grupo 61351" transform="translate(38.962 151.318)" opacity="0.3">
          <path id="Trazado_125948" data-name="Trazado 125948" d="M12049.1,10042.717a4.127,4.127,0,0,1,2.025-.111c21.113,2.343,44.5,3.933,65.637,6.273v.229a128.453,128.453,0,0,1-41.762,4.836c-1.318-.062-2.823-.077-3.723.9s-.69,2.723-.395,4.146q4.459,19.38,8.906,38.754c.463,2.031.788,4.524-.8,5.865-2.2,1.859-5.431-.344-7.281-2.542-12.575-14.917-18.282-34.277-23.665-53.028C12047.514,10046.171,12047.307,10043.545,12049.1,10042.717Z" transform="translate(-12047.671 -10042.528)" fill="#344154"/>
        </g>
        <path id="Trazado_125949" data-name="Trazado 125949" d="M12169.146,10032.514a11.061,11.061,0,0,1,7.96-2.625l4.837,15.47c-3.565.15-7.124,2-10.564,1.049a7.541,7.541,0,0,1-5.25-6.218A8.98,8.98,0,0,1,12169.146,10032.514Z" transform="translate(-12155.698 -9887.295)" fill="#d9a171"/>
        <path id="Trazado_125950" data-name="Trazado 125950" d="M12179.492,10029.3c0-.125-.523-.222-1.471-.214a11.948,11.948,0,0,0-3.986.753,10.768,10.768,0,0,0-4.836,3.767,9.888,9.888,0,0,0-1.617,3.351,8.916,8.916,0,0,0-.117,4.055,8.258,8.258,0,0,0,1.768,3.7,7.679,7.679,0,0,0,3.139,2.177,11.233,11.233,0,0,0,6.121.394,19.091,19.091,0,0,0,3.813-1.182c.863-.373,1.313-.642,1.271-.767s-.559-.09-1.471.062-2.211.43-3.8.574a10.87,10.87,0,0,1-5.285-.691,6.3,6.3,0,0,1-2.377-1.754,6.555,6.555,0,0,1-1.342-2.888,7.969,7.969,0,0,1,1.279-6.019,10.393,10.393,0,0,1,3.965-3.545,17.588,17.588,0,0,1,3.551-1.236C12179.01,10029.58,12179.492,10029.442,12179.492,10029.3Z" transform="translate(-12158.168 -9887.057)" fill="#aed3f2"/>
        <path id="Trazado_125951" data-name="Trazado 125951" d="M12119.576,10111.7l9.806,27.472-34.126,12.381c-.98-3.338,14.3-16.278,14.3-16.278l-7.041-17.349Z" transform="translate(-12054.171 -9912.589)" fill="#d9a171"/>
        <g id="Grupo_61352" data-name="Grupo 61352" transform="translate(64.108 217.404)" opacity="0.6">
          <path id="Trazado_125952" data-name="Trazado 125952" d="M12108.457,10138.193a1.477,1.477,0,0,1,1.542,1.236,1.422,1.422,0,0,1-1.216,1.542,1.561,1.561,0,0,1-1.623-1.326c0-.727.69-1.562,1.443-1.459" transform="translate(-12107.16 -10138.178)" fill="#6595bf" stroke="#5e6178" stroke-miterlimit="10" stroke-width="0"/>
        </g>
        <path id="Trazado_125953" data-name="Trazado 125953" d="M12129.447,10150.264l-.987-2.764-32.411,12.927s-1.284,1.216-.691,2.225Z" transform="translate(-12054.231 -9923.654)" fill="#aed3f2"/>
        <path id="Trazado_125954" data-name="Trazado 125954" d="M12119.319,10145.69c.062.158.925-.062,1.935.172s1.706.781,1.837.69-.47-.987-1.7-1.257S12119.25,10145.552,12119.319,10145.69Z" transform="translate(-12064.554 -9922.949)" fill="#344154"/>
        <path id="Trazado_125955" data-name="Trazado 125955" d="M12124.666,10149.81c0,.172.852.193,1.666.691s1.258,1.187,1.422,1.118-.074-1.042-1.1-1.651S12124.6,10149.671,12124.666,10149.81Z" transform="translate(-12072.942 -9924.306)" fill="#344154"/>
        <path id="Trazado_125956" data-name="Trazado 125956" d="M12132.179,10156.107c.167,0,.1-.933-.69-1.692s-1.673-.837-1.693-.691.644.477,1.25,1.1S12132.042,10156.107,12132.179,10156.107Z" transform="translate(-12080.938 -9925.559)" fill="#344154"/>
        <path id="Trazado_125957" data-name="Trazado 125957" d="M12121.275,10139.26c.123.125.808-.379,1.768-.689s1.81-.242,1.846-.422-.886-.512-2.02-.166A2.306,2.306,0,0,0,12121.275,10139.26Z" transform="translate(-12067.685 -9920.666)" fill="#344154"/>
        <path id="Trazado_125958" data-name="Trazado 125958" d="M12120.862,10131.644a3.452,3.452,0,0,0,1.706-.63,8.912,8.912,0,0,0,1.59-1.2,8.659,8.659,0,0,0,.794-.877,2.278,2.278,0,0,0,.367-.588.777.777,0,0,0-.242-.919.993.993,0,0,0-.869-.116,2.292,2.292,0,0,0-.608.324,6.917,6.917,0,0,0-.933.747,6.517,6.517,0,0,0-1.2,1.608,3.008,3.008,0,0,0-.5,1.75c.1,0,.29-.63.877-1.528a6.8,6.8,0,0,1,1.208-1.382,7.045,7.045,0,0,1,.878-.691c.325-.222.63-.338.781-.207s.068.07,0,.2a2.334,2.334,0,0,1-.277.436,9.51,9.51,0,0,1-.69.843,10.573,10.573,0,0,1-1.421,1.229,13.337,13.337,0,0,0-1.46.993Z" transform="translate(-12067.894 -9917.4)" fill="#344154"/>
        <path id="Trazado_125959" data-name="Trazado 125959" d="M12130.68,10131.578a2.917,2.917,0,0,0-.146-1.812,5.812,5.812,0,0,0-1.728-2.666,1.5,1.5,0,0,0-1.381-.469.851.851,0,0,0-.539.738,2.923,2.923,0,0,0,.049.69,3.958,3.958,0,0,0,.422,1.147,4.165,4.165,0,0,0,1.381,1.5c.989.641,1.755.593,1.748.53a16.588,16.588,0,0,1-1.491-.885,4.122,4.122,0,0,1-1.12-1.383,3.679,3.679,0,0,1-.332-.994c-.076-.38-.049-.69.1-.739a1.035,1.035,0,0,1,.8.346,5.631,5.631,0,0,1,.76.773,6.066,6.066,0,0,1,.945,1.583C12130.54,10130.955,12130.61,10131.578,12130.68,10131.578Z" transform="translate(-12077.434 -9917.197)" fill="#344154"/>
        <path id="Trazado_125960" data-name="Trazado 125960" d="M12070.719,9998.386c5.589.131,10.889.919,14.738,4.968,5.1,5.375,11.413,13.037,11.745,18.344.58,7.939-4.257,10.295-7.71,12.235a9.767,9.767,0,0,1-5.08,1.169l-64.579-.491-2.031-10.937,41.772-10.295-1.734-15.719Z" transform="translate(-11968.557 -9877.343)" fill="#12263f"/>
        <path id="Trazado_125961" data-name="Trazado 125961" d="M12141.123,9997.239l-20.319-.939s-35.077,1.935-42.582,8.844-6.55,14.661-4.056,22.109,24.486,55.37,24.486,55.37a8.277,8.277,0,0,0-.779,6.08,8.053,8.053,0,0,0,5.733,5.466l19.532-7.179s2.653-.933.781-3.455-3.116-2.957-3.116-2.957v-4.961s-6.868-12.478-7.489-14.191-7.2-27.111-7.2-27.111l-4.373-7.511s10.57-4.968,19.726-8.568l21.419-5.271Z" transform="translate(-12051.882 -9876.922)" fill="#12263f"/>
        <path id="Trazado_125962" data-name="Trazado 125962" d="M12103.979,10124.094a15.736,15.736,0,0,0,1.715-1.12,22.919,22.919,0,0,1,9.12-3.453c.69-.069,1.382-.174,2.031-.306a7.479,7.479,0,0,0-2.072.042,19.5,19.5,0,0,0-9.226,3.511,7.634,7.634,0,0,0-1.569,1.326Z" transform="translate(-12047.693 -9914.896)" fill="#5e6178"/>
        <path id="Trazado_125963" data-name="Trazado 125963" d="M12127.1,10117.264a7.142,7.142,0,0,0,1.132-1.2c.657-.772,1.534-1.871,2.454-3.115s1.706-2.418,2.245-3.274a6.107,6.107,0,0,0,.8-1.438,8.413,8.413,0,0,0-1.021,1.293l-2.329,3.2-2.356,3.172a6.971,6.971,0,0,0-.924,1.362Z" transform="translate(-12080.559 -9911.521)" fill="#5e6178"/>
        <path id="Trazado_125964" data-name="Trazado 125964" d="M12131.158,10030.5c.6.228,1.222.426,1.846.594a19.649,19.649,0,0,1,4.208,1.969,20.13,20.13,0,0,1,3.62,2.916,14.915,14.915,0,0,0,1.342,1.38,6.727,6.727,0,0,0-1.147-1.582,16.343,16.343,0,0,0-3.613-3.053,16.742,16.742,0,0,0-4.326-1.907,6.5,6.5,0,0,0-1.928-.318Z" transform="translate(-12091.802 -9887.492)" fill="#5e6178"/>
        <path id="Trazado_125965" data-name="Trazado 125965" d="M12134.645,10062.823a1.818,1.818,0,0,0-.078-.421c-.082-.312-.178-.691-.3-1.188l-1.168-4.36-4-14.336c-.809-2.8-1.506-5.466-2.287-7.884a16.372,16.372,0,0,0-3.676-5.61,20.83,20.83,0,0,0-3.49-2.874c-.455-.291-.809-.5-1.057-.637a2.04,2.04,0,0,0-.387-.192l1.381.945a23.655,23.655,0,0,1,3.379,2.944,16.324,16.324,0,0,1,3.543,5.526c.754,2.378,1.445,5.079,2.254,7.863l4.084,14.357,1.285,4.325c.152.477.27.863.367,1.168A1.721,1.721,0,0,0,12134.645,10062.823Z" transform="translate(-12075.318 -9885.892)" fill="#5e6178"/>
        <path id="Trazado_125966" data-name="Trazado 125966" d="M12089.957,10019.094c.105,0,.533-3.793.954-8.483s.691-8.514.581-8.521-.532,3.787-.953,8.484S12089.889,10019.024,12089.957,10019.094Z" transform="translate(-12012.669 -9878.711)" fill="#5e6178"/>
        <path id="Trazado_125967" data-name="Trazado 125967" d="M12029.642,10038.027c.062,0,.373-.588,1.009-1.486a15.168,15.168,0,0,1,2.949-3.1,14.92,14.92,0,0,1,3.725-2.105c1.028-.4,1.7-.561,1.686-.623a5.754,5.754,0,0,0-1.775.365,12.857,12.857,0,0,0-6.806,5.322A5.478,5.478,0,0,0,12029.642,10038.027Z" transform="translate(-11918.497 -9887.558)" fill="#5e6178"/>
        <path id="Trazado_125968" data-name="Trazado 125968" d="M12035.881,10019.817c0,.062.9-.491,2.391-1.168a22.54,22.54,0,0,1,12.486-1.8c1.623.235,2.6.526,2.617.456a2.258,2.258,0,0,0-.691-.255,15.029,15.029,0,0,0-1.9-.463,20.437,20.437,0,0,0-12.645,1.816,13.719,13.719,0,0,0-1.7.98A2.6,2.6,0,0,0,12035.881,10019.817Z" transform="translate(-11937.172 -9883.097)" fill="#5e6178"/>
        <path id="Trazado_125969" data-name="Trazado 125969" d="M12060.129,10030.926a2.523,2.523,0,0,0,.5-.083l1.438-.318,5.265-1.182c4.441-.994,10.592-2.327,17.411-3.683s13.011-2.473,17.5-3.227l5.32-.912,1.443-.263a4.2,4.2,0,0,0,.5-.109,2.083,2.083,0,0,0-.512.04l-1.45.187c-1.265.173-3.089.441-5.342.8-4.5.689-10.71,1.775-17.536,3.122s-12.969,2.764-17.4,3.792c-2.219.533-4.008.976-5.237,1.3l-1.424.38a1.957,1.957,0,0,0-.484.159Z" transform="translate(-12010.062 -9884.602)" fill="#5e6178"/>
        <path id="Trazado_125970" data-name="Trazado 125970" d="M12056.142,10018.655a21.074,21.074,0,0,1,.891-2.072,9.045,9.045,0,0,1,1.478-1.914,25.187,25.187,0,0,1,2.26-1.956,33.238,33.238,0,0,1,4.628-2.874,15.148,15.148,0,0,0,1.977-1.12,11.853,11.853,0,0,0-2.072.885,27.027,27.027,0,0,0-4.74,2.813,21.116,21.116,0,0,0-2.278,2.01,8.725,8.725,0,0,0-1.467,2.032,7.424,7.424,0,0,0-.572,1.576A1.846,1.846,0,0,0,12056.142,10018.655Z" transform="translate(-11965.171 -9880.76)" fill="#5e6178"/>
        <path id="Trazado_125971" data-name="Trazado 125971" d="M12172.065,10037.2c-.083.084,1,1.175,1.838,2.832s1.113,3.165,1.23,3.145a8.218,8.218,0,0,0-3.069-5.975Z" transform="translate(-12153.021 -9889.563)" fill="#344154"/>
        <path id="Trazado_125974" data-name="Trazado 125974" d="M12055.11,9934.45c.317-2.114,6.632-9.106,6.632-9.106s5.494-13.445,6.441-17.183a56.83,56.83,0,0,1,2.584-6.91c2.21-3.738,3.3-3.807,7.087-5.935l7.338-3.241.9-2a8.284,8.284,0,0,1,3.786-3.986l18.385-9.493,5.694,10.053s10.931,5.16,11.566,5.977c2.245,2.859.69,48.8.69,48.8s1.1,17.9,2.322,22.924,1.934,8.733,1.934,8.733l-5.458-6.273c-3.206-4.014-10.231-5.866-15.284-5.79l-43.142.186,2.626-12.864-35.8,7.565s-6-11.705-6.48-11.938S12055.11,9934.45,12055.11,9934.45Z" transform="translate(-12008.083 -9839.924)" fill="#008f85"/>
        <path id="Trazado_125975" data-name="Trazado 125975" d="M12087.026,9896.507c.3-.3-3.456,8.649-5.881,18.378-1.532,6.066-1.858,15.892-1.858,21.351l-.925,15.3v13.383l-20.687-1.383,3.1-22.481s2.521-14.51,3.226-20.037c.644-5.05,3.718-25.295,3.718-25.295S12078.321,9905.329,12087.026,9896.507Z" transform="translate(-11985.9 -9845.834)" fill="#727997" stroke="#5e6178" stroke-miterlimit="10" stroke-width="0"/>
        <path id="Trazado_125976" data-name="Trazado 125976" d="M12132.714,9968.778a1.317,1.317,0,0,0,0-.524,7.849,7.849,0,0,0-.27-1.383,9.484,9.484,0,0,0-2.37-4.015,9.3,9.3,0,0,0-4.008-2.37,7.231,7.231,0,0,0-1.382-.275h-.524a14.556,14.556,0,0,1,1.831.524,9.909,9.909,0,0,1,6.218,6.218C12132.576,9968.052,12132.645,9968.785,12132.714,9968.778Z" transform="translate(-12077.535 -9865.768)" fill="#344154"/>
        <path id="Trazado_125977" data-name="Trazado 125977" d="M12132.12,9960.313a6.523,6.523,0,0,0-3.157-.912,6.416,6.416,0,0,0-3.263.389c0,.109,1.46-.168,3.234,0S12132.051,9960.424,12132.12,9960.313Z" transform="translate(-12077.976 -9865.498)" fill="#344154"/>
        <path id="Trazado_125978" data-name="Trazado 125978" d="M12023.93,9899.2a20.163,20.163,0,0,1,11.636,14.039c1.935,7.891,10.232,40.15,8.526,44.973s-34.871,9.562-34.871,9.562l-3.932-16.58,16.845-4.61s-.214-15.352-.428-21.716S12023.93,9899.2,12023.93,9899.2Z" transform="translate(-11906.982 -9846.909)" fill="#008f85"/>
        <path id="Trazado_125979" data-name="Trazado 125979" d="M12433.174,10190.5l-5.873,1.521,3.455,12.781,5.8-.275Z" transform="translate(-12334.466 -10083.877)" fill="#6595bf" stroke="#5e6178" stroke-miterlimit="10" stroke-width="0"/>
        <path id="Trazado_125980" data-name="Trazado 125980" d="M12065.126,9990.1l5.313-5.646,10.945-2.764s10.024,3.006,10.267,3,8.726-2.321,8.726-2.321l2.965,10.868-15.283,1.051-17.452-.691s-.905-.851-.367-1.431-2.922.981-3.33,1-1.2.332-1.734-.324C12064.849,9992.394,12064.3,9990.955,12065.126,9990.1Z" transform="translate(-12007.044 -9872.406)" fill="#c78976"/>
        <path id="Trazado_125981" data-name="Trazado 125981" d="M12095.41,9995.458a9.989,9.989,0,0,0,1.734-.512c1.064-.339,2.528-.787,4.146-1.209s3.143-.732,4.235-.954a9.654,9.654,0,0,0,1.761-.407,7.222,7.222,0,0,0-1.811.139,37.781,37.781,0,0,0-8.429,2.169A6.985,6.985,0,0,0,12095.41,9995.458Z" transform="translate(-12032.216 -9875.706)" fill="#8b5d54"/>
        <path id="Trazado_125982" data-name="Trazado 125982" d="M12095.74,9991.939a23.056,23.056,0,0,0,2.425-.781c1.485-.5,3.572-1.117,5.887-1.76a33.861,33.861,0,0,1,5.927-1.465,14.527,14.527,0,0,1,2.523.1,1.97,1.97,0,0,0-.691-.221,7.23,7.23,0,0,0-1.88-.152,24.165,24.165,0,0,0-6.024,1.381c-2.285.691-4.395,1.307-5.872,1.881-.732.283-1.326.531-1.728.691A2.3,2.3,0,0,0,12095.74,9991.939Z" transform="translate(-12037.659 -9874.247)" fill="#8b5d54"/>
        <path id="Trazado_125983" data-name="Trazado 125983" d="M12044.535,9977.694a5.354,5.354,0,0,1-.083.78,3.643,3.643,0,0,1-1.153,1.888c-1.444,1.34-4.2,2.459-7.684,3.087h0c-1.6.525-3.414.94-5.354,1.383s-4.035.885-6.219,1.332c-4.415.9-9.3,1.853-14.468,2.819l.221.146-1.168-4.837c-.933-3.8-1.838-7.489-2.687-10.979l-.133.229,14.966-4.277h0a14.712,14.712,0,0,1,6.528-1.139,14.375,14.375,0,0,1,4.927,1.152,16.252,16.252,0,0,1,2.833,1.568l.691.5.242.16a1.746,1.746,0,0,0-.215-.2,8.053,8.053,0,0,0-.69-.531,15.338,15.338,0,0,0-2.819-1.658,14.27,14.27,0,0,0-4.982-1.243,14.973,14.973,0,0,0-6.659,1.105h0l-14.986,4.208-.18.048.042.181c.856,3.494,1.747,7.178,2.673,10.985.408,1.651.8,3.275,1.175,4.836l.048.18h.181c5.175-.98,10.052-1.941,14.468-2.867,2.2-.456,4.291-.912,6.219-1.382s3.751-.886,5.375-1.437h0c3.523-.691,6.288-1.839,7.738-3.248a3.68,3.68,0,0,0,1.133-1.976,2.312,2.312,0,0,0,.021-.815Z" transform="translate(-11907.343 -9868.128)" fill="#344154"/>
        <path id="Trazado_125984" data-name="Trazado 125984" d="M12020.581,9967.558c.049.051.608-.469,1.624-1.146a15.469,15.469,0,0,1,8.981-2.611c1.216,0,1.97.157,1.983.1a6,6,0,0,0-1.969-.375,13.718,13.718,0,0,0-9.143,2.662A6.122,6.122,0,0,0,12020.581,9967.558Z" transform="translate(-11906.396 -9866.779)" fill="#344154"/>
        <path id="Trazado_125985" data-name="Trazado 125985" d="M12034.917,9930.279a4.838,4.838,0,0,0,0,1.009c0,.649.068,1.59.158,2.765.186,2.313.531,5.526,1.14,8.981a63.982,63.982,0,0,0,2.073,8.852c.187.545.38,1.042.538,1.477l.485,1.085a4.664,4.664,0,0,0,.517.871,5.474,5.474,0,0,0-.379-.933c-.123-.324-.263-.691-.414-1.105s-.312-.933-.478-1.486a77.183,77.183,0,0,1-1.969-8.823c-.607-3.453-1-6.667-1.25-8.981-.111-1.091-.208-2.011-.283-2.763a4.762,4.762,0,0,0-.141-.946Z" transform="translate(-11922.944 -9856.516)" fill="#344154"/>
        <path id="Trazado_125986" data-name="Trazado 125986" d="M12049.82,9910.41s.076-.194.248-.531a3.142,3.142,0,0,1,1.086-1.182,2.679,2.679,0,0,1,2.342-.346,3.018,3.018,0,0,1,1.977,2.238l.1.512.221-.469a50.4,50.4,0,0,0,2.205-5.528,29.2,29.2,0,0,0,1.623-9.824c0-.643-.089-1.216-.123-1.729a8,8,0,0,0-.229-1.277,5.615,5.615,0,0,0-.323-1.063,24,24,0,0,1,.412,4.077,31.353,31.353,0,0,1-1.72,9.672,54.809,54.809,0,0,1-2.154,5.527l.322.041a3.3,3.3,0,0,0-2.224-2.445,3.055,3.055,0,0,0-3.745,2.177A1.1,1.1,0,0,0,12049.82,9910.41Z" transform="translate(-11953.047 -9844.44)" fill="#344154"/>
        <path id="Trazado_125987" data-name="Trazado 125987" d="M12095.271,9912.339a7.279,7.279,0,0,0,.153-.858,8.955,8.955,0,0,0,.144-2.417,5.106,5.106,0,0,0-1.645-3.185,2.965,2.965,0,0,0-1.976-.753,2.625,2.625,0,0,0-2.073.987l.3.179.649-1.721c1.272-3.393,2.4-6.474,3.206-8.705.373-1.071.69-1.963.932-2.653a5.549,5.549,0,0,0,.3-1,6.361,6.361,0,0,0-.428.939q-.4,1.037-1.037,2.612c-.863,2.211-2.031,5.278-3.3,8.671l-.641,1.721-.415,1.112.691-.925a2.327,2.327,0,0,1,1.816-.871,2.763,2.763,0,0,1,1.789.69,4.994,4.994,0,0,1,1.6,2.965,11.126,11.126,0,0,1-.043,2.364,3.9,3.9,0,0,0-.019.841Z" transform="translate(-12016.394 -9844.752)" fill="#344154"/>
        <path id="Trazado_125988" data-name="Trazado 125988" d="M12114.143,9923.919c-.1,0-1.639,10.073-3.457,22.523s-3.184,22.559-3.086,22.572,1.637-10.066,3.453-22.522S12114.211,9923.933,12114.143,9923.919Z" transform="translate(-12047.493 -9854.55)" fill="#344154"/>
        <g id="Grupo_61353" data-name="Grupo 61353" transform="translate(96.014 60.74)" opacity="0.3">
          <path id="Trazado_125989" data-name="Trazado 125989" d="M12061.205,9911.429a22.576,22.576,0,0,1-1.8,8.133,5.772,5.772,0,0,0-2.847-2.281c-1.486-.352-2.992.566-4.062,1.68a7.28,7.28,0,0,1,1.3-3.1,3.6,3.6,0,0,1,2.854-1.492,2.512,2.512,0,0,1,2.4,1.955l2.073-4.836" transform="translate(-12052.5 -9911.429)" fill="#344154"/>
        </g>
        <path id="Trazado_125990" data-name="Trazado 125990" d="M12031.826,9913.085c.07,0,.049-.753.264-1.928a11.639,11.639,0,0,1,3.4-6.24,10.187,10.187,0,0,1,1.65-1.283c1.01-.644,1.723-.887,1.7-.955a1.511,1.511,0,0,0-.52.125,3.988,3.988,0,0,0-.58.227,5.338,5.338,0,0,0-.738.373,9.769,9.769,0,0,0-1.75,1.259,11.725,11.725,0,0,0-1.725,2,10.766,10.766,0,0,0-1.7,4.449,7.945,7.945,0,0,0-.068,1.445A1.666,1.666,0,0,0,12031.826,9913.085Z" transform="translate(-11919.784 -9847.984)" fill="#344154"/>
        <g id="Grupo_61354" data-name="Grupo 61354" transform="translate(60.851 73.854)" opacity="0.3">
          <path id="Trazado_125991" data-name="Trazado 125991" d="M12113.676,9930.409l-4.623,32.57-.228.518a69.714,69.714,0,0,1,4.852-33.088Z" transform="translate(-12108.5 -9930.409)" fill="#344154"/>
        </g>
        <path id="Trazado_125992" data-name="Trazado 125992" d="M12110.5,9957.108l15.027,26.254,37.042.81.089,1.672-35.859-.263-1.141-.042-37.868.076-7.655-13.2-9.777-14.013a1.382,1.382,0,0,1,.339-1.928,1.335,1.335,0,0,1,.8-.248l37.808.145A1.379,1.379,0,0,1,12110.5,9957.108Z" transform="translate(-12070.11 -9864.537)" fill="#aed3f2"/>
        <path id="Trazado_125993" data-name="Trazado 125993" d="M12173.494,9979.71s-1.941,1.782-1.637,3.295.206,2.647,1.637,2.765a2.18,2.18,0,0,0,1.948,2.251,2.377,2.377,0,0,0,2.329,2.765s.842,2.543,2.591,1.928a15.428,15.428,0,0,0,2.868-1.333l.511-.927s2.563-.959,1.935-2.41c-.387-.878-1.713-1.105-1.713-1.105a2.478,2.478,0,0,0-.167-2.253c-.614-.829-2.618-.145-2.618-.145a2.845,2.845,0,0,0-.629-1.962c-.692-.81-3.877,1.382-3.877,1.382l-1.733-2.073Z" transform="translate(-12163.501 -9871.795)" fill="#c78976"/>
        <path id="Trazado_125994" data-name="Trazado 125994" d="M12174.4,9994.031a36.857,36.857,0,0,0,6.219-3.841,34.577,34.577,0,0,0-6.219,3.849Z" transform="translate(-12160.124 -9875.034)" fill="#8b5d54"/>
        <path id="Trazado_125995" data-name="Trazado 125995" d="M12178.511,9990.172a15.391,15.391,0,0,0,2.963-1.569,15.76,15.76,0,0,0,2.765-1.893,29.494,29.494,0,0,0-5.728,3.455Z" transform="translate(-12166.582 -9873.958)" fill="#8b5d54"/>
        <path id="Trazado_125996" data-name="Trazado 125996" d="M12187.308,9984.165a10.123,10.123,0,0,0-2.633,1.382,22.553,22.553,0,0,0-2.474,1.645,8.137,8.137,0,0,0,2.674-1.327,15.2,15.2,0,0,0,2.432-1.7Z" transform="translate(-12172.201 -9873.168)" fill="#8b5d54"/>
        <path id="Trazado_125997" data-name="Trazado 125997" d="M12125.991,9957.6a.781.781,0,0,0,.179,0h2.6l7.519.062,24.811.056h1.811a1.463,1.463,0,0,1,1.381.649c.575,1.024,1.134,2.073,1.687,3.034l3.192,5.762,5.425,9.749c1.546,2.765,2.8,4.981,3.682,6.558l1.022,1.768.27.457a1.359,1.359,0,0,0,.11.151.82.82,0,0,0-.075-.173c-.062-.125-.139-.276-.242-.47-.228-.442-.553-1.043-.953-1.811l-3.587-6.612c-1.527-2.763-3.337-6.107-5.354-9.784-1.009-1.844-2.072-3.771-3.171-5.775l-1.692-3.062a1.862,1.862,0,0,0-1.687-.823l-1.811,0-24.811.055-7.519.062h-2.6Z" transform="translate(-12125.737 -9864.877)" fill="#344154"/>
        <path id="Trazado_125998" data-name="Trazado 125998" d="M12167.707,9976.563a1.6,1.6,0,1,1-2.391-.277A1.706,1.706,0,0,1,12167.707,9976.563Z" transform="translate(-12140.854 -9870.622)" fill="#6595bf" stroke="#5e6178" stroke-miterlimit="10" stroke-width="0"/>
        <path id="Trazado_125999" data-name="Trazado 125999" d="M12061.008,9872.5l.207-5.963s-7.919-1.734-7.524-9.735c.188-3.868,1.229-11.794,2.253-18.951a14.933,14.933,0,0,1,15.7-12.762l.768.049c8.291,1,12.07,8.6,10.848,16.852l-1.941,31.465a10.169,10.169,0,0,1-10.446,9.534h0A10.185,10.185,0,0,1,12061.008,9872.5Z" transform="translate(-11979.571 -9823.993)" fill="#c78976"/>
        <path id="Trazado_126000" data-name="Trazado 126000" d="M12070.6,9884.012a19.42,19.42,0,0,0,10.6-2.432s-2.7,5.665-10.641,4.456Z" transform="translate(-11988.961 -9841.464)" fill="#8b5d54"/>
        <path id="Trazado_126001" data-name="Trazado 126001" d="M12088.82,9854.034a1.155,1.155,0,0,0,1.031,1.222,1.1,1.1,0,0,0,1.234-.932h0a1.141,1.141,0,0,0-1.052-1.187A1.1,1.1,0,0,0,12088.82,9854.034Z" transform="translate(-12011.462 -9832.669)" fill="#344154"/>
        <path id="Trazado_126002" data-name="Trazado 126002" d="M12084.829,9848.9c.131.159,1.037-.429,2.267-.353s2.073.753,2.232.608-.056-.339-.436-.65a3.122,3.122,0,0,0-3.593-.206C12084.9,9848.567,12084.761,9848.83,12084.829,9848.9Z" transform="translate(-12006.987 -9831.032)" fill="#344154"/>
        <path id="Trazado_126003" data-name="Trazado 126003" d="M12071.521,9854.731a1.153,1.153,0,0,0,1.038,1.215,1.085,1.085,0,0,0,1.229-.918h0a1.148,1.148,0,0,0-1.031-1.223,1.11,1.11,0,0,0-1.243.945Z" transform="translate(-11982.211 -9832.877)" fill="#344154"/>
        <path id="Trazado_126004" data-name="Trazado 126004" d="M12067.356,9850.3c.131.159,1.036-.43,2.266-.352s2.073.753,2.233.606-.057-.337-.436-.649a3.063,3.063,0,0,0-1.777-.69,2.994,2.994,0,0,0-1.809.463C12067.426,9849.969,12067.218,9850.232,12067.356,9850.3Z" transform="translate(-11977.423 -9831.458)" fill="#344154"/>
        <path id="Trazado_126005" data-name="Trazado 126005" d="M12082.534,9859.013a8.032,8.032,0,0,0-1.969-.483c-.318-.049-.607-.131-.649-.346a1.651,1.651,0,0,1,.269-.919l1.064-2.335a3.3,3.3,0,1,0-.483-.214c-.359.822-.691,1.6-1.037,2.349a1.848,1.848,0,0,0-.242,1.223.827.827,0,0,0,.492.491,2.279,2.279,0,0,0,.524.11A8.332,8.332,0,0,0,12082.534,9859.013Z" transform="translate(-11997.644 -9831.334)" fill="#344154"/>
        <path id="Trazado_126006" data-name="Trazado 126006" d="M12079.938,9865.1c-.2,0-.283,1.313-1.486,2.189s-2.611.644-2.632.83.3.276.9.331a3.359,3.359,0,0,0,2.2-.615,2.92,2.92,0,0,0,1.161-1.844C12080.215,9865.459,12080.075,9865.1,12079.938,9865.1Z" transform="translate(-11991.523 -9836.369)" fill="#344154"/>
        <path id="Trazado_126007" data-name="Trazado 126007" d="M12065.975,9843.437c.1.346,1.335.264,2.765.525s2.578.69,2.764.435c.1-.138-.09-.463-.54-.813a4.558,4.558,0,0,0-2.031-.858,4.724,4.724,0,0,0-2.2.125C12066.253,9843.029,12065.906,9843.278,12065.975,9843.437Z" transform="translate(-11976.11 -9829.431)" fill="#344154"/>
        <path id="Trazado_126008" data-name="Trazado 126008" d="M12084.4,9843.755c.2.3,1.065.055,2.074.1s1.872.3,2.072,0c.1-.138,0-.429-.387-.691a2.81,2.81,0,0,0-1.658-.559,2.9,2.9,0,0,0-1.693.456C12084.4,9843.334,12084.266,9843.638,12084.4,9843.755Z" transform="translate(-12005.87 -9829.417)" fill="#344154"/>
        <path id="Trazado_126009" data-name="Trazado 126009" d="M12050.778,9833.752s2.42-4.878,4.907-5.9c3-1.236,4.069,2.073,6.909,1.444s5.706-1.79,8.421.539c2.972,2.55,1.383,4.146,1.383,7.669-.1,14.433,2.273,18.655,3.454,11.932.132-.739,2.226-1.2,2.723-4.317.65-4.042,1.113-8.983.38-11.912-.614-2.48-1.9-4.242-4.269-6.219-3.746-3.164-9.135-3.559-12.824-3.455S12050.778,9827.457,12050.778,9833.752Z" transform="translate(-11973.421 -9823.517)" fill="#344154"/>
        <path id="Trazado_126010" data-name="Trazado 126010" d="M12049.528,9859.788a2.168,2.168,0,0,1,2.363-1.963h.1c1.487.234,3.1,1.182,2.806,4.262-.512,5.453-5.887,3.814-5.88,3.656S12049.32,9862.087,12049.528,9859.788Z" transform="translate(-11947.642 -9834.119)" fill="#c78976"/>
        <path id="Trazado_126011" data-name="Trazado 126011" d="M12051.643,9864.609a1.938,1.938,0,0,0,.24.165.966.966,0,0,0,.691.084,2.375,2.375,0,0,0,1.292-2.011,3.13,3.13,0,0,0-.144-1.382,1.1,1.1,0,0,0-.644-.8.5.5,0,0,0-.589.209c-.082.151-.062.263-.089.27s-.11-.1-.048-.325a.682.682,0,0,1,.249-.324.723.723,0,0,1,.538-.09,1.321,1.321,0,0,1,.912.94,3.132,3.132,0,0,1,.188,1.553,2.478,2.478,0,0,1-1.6,2.225,1.033,1.033,0,0,1-.857-.227C12051.572,9864.747,12051.572,9864.616,12051.643,9864.609Z" transform="translate(-11948.926 -9834.912)" fill="#8b5d54"/>
        <path id="Trazado_126012" data-name="Trazado 126012" d="M12068.736,9838.972a5.125,5.125,0,0,1-2.377.926,1.777,1.777,0,0,1-1.9-1.382c-.041-.38.078-.822-.15-1.126s-.836-.3-1.3-.276a3.5,3.5,0,0,1-3.455-2.724,1.47,1.47,0,0,1-1.977.063,7.8,7.8,0,0,1-1.381-1.687,2.242,2.242,0,0,0-1.816-1.05,5.985,5.985,0,0,1-1.211.187c-.691-.11-1.008-.967-1.076-1.686s-.1-1.562-.691-1.983a2.717,2.717,0,0,0-1.955-.172c-.67.062-1.514-.153-1.639-.809a1.321,1.321,0,0,1,.3-.982,3.537,3.537,0,0,1,4.264-1.076,51.9,51.9,0,0,1,15.719.357,5.007,5.007,0,0,1,.822,1.515,3.538,3.538,0,0,1,3.662,5.383,3.328,3.328,0,0,1,1.686,2.762,1.932,1.932,0,0,1-2.3,1.833,1.963,1.963,0,0,1-3.5,1.768h0" transform="translate(-11966.297 -9823.902)" fill="#344154"/>
        <path id="Trazado_126013" data-name="Trazado 126013" d="M12048.534,9827.689v.1a2.137,2.137,0,0,0,0,.3,3.669,3.669,0,0,0,.333,1.077,4,4,0,0,0,1.131,1.383,3.7,3.7,0,0,0,2.205.773l-.083-.124a1.971,1.971,0,0,0,0,1.513,5.546,5.546,0,0,0,.851,1.382,4.474,4.474,0,0,0,.572.692,1.94,1.94,0,0,0,.851.38,2,2,0,0,0,1.8-.526l-.2-.068a4.145,4.145,0,0,0,1.561,2.944,3.016,3.016,0,0,0,1.762.688,5.583,5.583,0,0,0,1.8-.276l-.145-.075a4.361,4.361,0,0,0,1.188,1.769,2.346,2.346,0,0,0,1.873.636,3.03,3.03,0,0,0,2.466-2.217l-.131.055a2.845,2.845,0,0,0,1.865.388,3.068,3.068,0,0,0,1.382-.506,2.79,2.79,0,0,0,.651-.63c.109-.172.158-.27.158-.27a3.459,3.459,0,0,1-.863.823,3.045,3.045,0,0,1-1.306.45,2.66,2.66,0,0,1-1.756-.4l-.1-.063V9838a2.84,2.84,0,0,1-2.329,2.073,2.077,2.077,0,0,1-1.7-.6,4.142,4.142,0,0,1-1.113-1.679l-.041-.1h-.1a5.187,5.187,0,0,1-1.713.27,2.75,2.75,0,0,1-1.624-.65,3.893,3.893,0,0,1-1.479-2.764v-.256l-.179.187a1.845,1.845,0,0,1-2.343.139,4.131,4.131,0,0,1-.539-.629,5.176,5.176,0,0,1-.837-1.342,1.809,1.809,0,0,1,0-1.381l.049-.124h-.131a3.585,3.585,0,0,1-2.114-.69,3.942,3.942,0,0,1-1.125-1.3A4.274,4.274,0,0,1,12048.534,9827.689Z" transform="translate(-11962.953 -9824.808)" fill="#5e6178"/>
        <path id="Trazado_126014" data-name="Trazado 126014" d="M12093.826,9852.4a9.185,9.185,0,0,0,.359-1.277,5.325,5.325,0,0,0-4.83-6.22,4.953,4.953,0,0,0-1.527.1,4.859,4.859,0,0,0-1.485.561,5.3,5.3,0,0,0-2.626,5.7,5.413,5.413,0,0,0,1.466,2.71,5.323,5.323,0,0,0,4.892,1.422,5.41,5.41,0,0,0,3.012-1.839,8.929,8.929,0,0,0,.74-1.1,1.732,1.732,0,0,1-.138.318,2.138,2.138,0,0,1-.208.365,3.687,3.687,0,0,1-.323.471,5.439,5.439,0,0,1-5.577,1.913,5.509,5.509,0,0,1-2.534-1.382,5.2,5.2,0,0,1-.954-1.265,4.991,4.991,0,0,1-.573-1.548,5.529,5.529,0,0,1,2.723-5.929,5.451,5.451,0,0,1,1.546-.572,5.072,5.072,0,0,1,1.583-.09,5.454,5.454,0,0,1,4.9,6.481,4.229,4.229,0,0,1-.146.559,2.227,2.227,0,0,1-.146.395,2.141,2.141,0,0,1-.151.235Z" transform="translate(-12011.009 -9830.065)" fill="#344154"/>
        <path id="Trazado_126015" data-name="Trazado 126015" d="M12073.295,9853.52a11.82,11.82,0,0,0,.359-1.278,5.443,5.443,0,0,0-.575-3.455,5.154,5.154,0,0,0-1.621-1.83,5.306,5.306,0,0,0-2.641-1,4.913,4.913,0,0,0-1.521.1,5.018,5.018,0,0,0-1.491.562,5.313,5.313,0,0,0,3.73,9.831,5.376,5.376,0,0,0,3.02-1.839,10.4,10.4,0,0,0,.738-1.1,2.562,2.562,0,0,1-.145.316,2.713,2.713,0,0,1-.2.366,3.527,3.527,0,0,1-.33.47,5.387,5.387,0,0,1-3.048,1.935,5.465,5.465,0,0,1-5.06-1.436,5.356,5.356,0,0,1-.96-1.259,5.49,5.49,0,0,1,2.19-7.477,4.955,4.955,0,0,1,1.548-.572,5.1,5.1,0,0,1,1.583-.091,5.447,5.447,0,0,1,4.892,6.48,3,3,0,0,1-.145.554,2.2,2.2,0,0,1-.146.4A2.435,2.435,0,0,1,12073.295,9853.52Z" transform="translate(-11976.313 -9830.387)" fill="#344154"/>
        <path id="Trazado_126016" data-name="Trazado 126016" d="M12082.02,9851.783a3.709,3.709,0,0,0-3.344-.173,1.33,1.33,0,0,1,.441-.3,2.765,2.765,0,0,1,2.494.132C12081.95,9851.584,12082.088,9851.715,12082.02,9851.783Z" transform="translate(-11995.402 -9832.037)" fill="#344154"/>
        <path id="Trazado_126017" data-name="Trazado 126017" d="M12060.79,9857.426a18.216,18.216,0,0,1-2.542-1.2,18.85,18.85,0,0,1-2.448-1.381,17.918,17.918,0,0,1,2.544,1.2,19.4,19.4,0,0,1,2.445,1.381Z" transform="translate(-11958.351 -9833.201)" fill="#344154"/>
      </g>
      <g id="Grupo_58081" data-name="Grupo 58081" transform="translate(0 0)">
        <g id="Grupo_58080" data-name="Grupo 58080" transform="translate(0 0)">
          <g id="Grupo_58077" data-name="Grupo 58077" transform="translate(5.46 5.89)" opacity="0.2">
            <path id="Trazado_108254" data-name="Trazado 108254" d="M268.35,82.75h89.89a3,3,0,0,1,2.92,3v39.42a3,3,0,0,1-2.92,3h-1.77l4,12.49-25.42-12.49h-66.7a3,3,0,0,1-2.92-3V85.79A3,3,0,0,1,268.35,82.75Z" transform="translate(-265.43 -82.75)" fill="#38140c" opacity="0.85"/>
          </g>
          <path id="Trazado_108255" data-name="Trazado 108255" d="M273.81,76.86h89.88a3,3,0,0,1,2.93,3v39.42a3,3,0,0,1-2.93,3h-1.77l4,12.48-25.42-12.4H273.81a3,3,0,0,1-2.93-3V79.9a3,3,0,0,1,2.93-3.04Z" transform="translate(-270.88 -76.86)" fill="#fff" opacity="0.85"/>
          <g id="Grupo_58079" data-name="Grupo 58079" transform="translate(6.873 9.81)">
            <path id="Trazado_108256" data-name="Trazado 108256" d="M358.15,100.26H312.8a1.87,1.87,0,0,1,0-3.7h45.35a1.87,1.87,0,0,1,0,3.7Z" transform="translate(-311.203 -86.67)" fill="#12263f"/>
            <path id="Trazado_108257" data-name="Trazado 108257" d="M311.2,89.79a1.84,1.84,0,0,1,1.84-1.85h30.73a1.87,1.87,0,0,1,0,3.7h-30.73a1.84,1.84,0,0,1-1.84-1.85Z" transform="translate(-296.826 -86.67)" fill="#12263f"/>
            <path id="Trazado_108258" data-name="Trazado 108258" d="M349.8,87.94h8.1a1.85,1.85,0,0,1,1.85,1.85h0a1.85,1.85,0,0,1-1.85,1.85h-8.1a1.87,1.87,0,0,1,0-3.7Z" transform="translate(-348.2 -86.67)" fill="#12263f"/>
            <path id="Trazado_108259" data-name="Trazado 108259" d="M311.213,107a1.85,1.85,0,0,1,1.85-1.85h14.19a1.87,1.87,0,0,1,0,3.7h-14.2A1.85,1.85,0,0,1,311.2,107Z" transform="translate(-280.306 -86.67)" fill="#12263f"/>
            <path id="Trazado_108260" data-name="Trazado 108260" d="M333.257,105.18H357.9a1.85,1.85,0,0,1,1.85,1.85h0a1.85,1.85,0,0,1-1.85,1.85h-24.64a1.87,1.87,0,0,1,0-3.7Z" transform="translate(-331.66 -86.67)" fill="#12263f"/>
            <g id="Grupo_58078" data-name="Grupo 58078" transform="translate(55.747)">
              <path id="Trazado_108261" data-name="Trazado 108261" d="M280,98.67a12,12,0,1,0,12-12A12,12,0,0,0,280,98.67Z" transform="translate(-280 -86.67)" fill="#12263f"/>
              <path id="Trazado_108262" data-name="Trazado 108262" d="M281.75,98.66a10,10,0,0,0,1,4.39h0a10.25,10.25,0,0,0,18.51,0h0a10,10,0,0,0,1-4.39,10.25,10.25,0,0,0-20.49,0Z" transform="translate(-280.01 -86.67)" fill="#12263f"/>
            </g>
          </g>
        </g>
      </g>
    </g>
  </g>
</svg>
